<svg width="16" height="16" viewBox="0 0 16 16" class="fill-alternate" stroke="currentcolor" stroke-width="2" stroke-miterlimit="10" stroke-linecap="round" stroke-linejoin="round" xmlns="http://www.w3.org/2000/svg">
<path d="M9.83997 9.7V9.67C10.74 8.95 11.33 7.73 11.33 6.34V4.34C11.33 3.13 11.33 2.34 10.66 1.67C9.99997 1 9.32997 1 8.66997 1C8.06997 1 8.00997 1.54 7.02997 1.65C5.65997 1.8 4.66997 3.02 4.66997 4.39V6.33C4.66997 7.72 5.25997 8.95 6.15997 9.66V9.69C6.06997 10.9 5.22997 10.9 4.06997 11.26C3.44997 11.45 2.92997 11.66 2.50997 11.85C1.79997 12.18 1.33997 12.89 1.33997 13.67V14C1.33997 14.55 1.78997 15 2.33997 15H13.67C14.22 15 14.67 14.55 14.67 14V13.68C14.67 12.9 14.22 12.19 13.5 11.86C13.08 11.67 12.55 11.46 11.94 11.27C10.78 10.91 9.92997 10.91 9.83997 9.7Z" />
</svg>
