<svg xmlns="http://www.w3.org/2000/svg" width="2404.503" height="914.09"><defs/><defs><style>.a{fill:none;stroke:#2a3c51;stroke-miterlimit:10;stroke-width:.5px}</style></defs><path d="M221.968 11.804C544.34 37.95 867.43 64.118 1190.764 56.17c351.252-8.634 703.02-57.485 1052.822-24.436M216.327 39.93c678.588-23.512 1360.113 66.441 2035.719-1.317M217.79 86.709q1017.095 15.77 2034.346-1.321" class="a"/><path d="M226.357 128.62c191.624-62.45 398.973.815 600.51 2.544 196.748 1.69 390.671-55.98 587.377-51.544 150.762 3.399 300.125 43.28 450.603 33.45 69.573-4.544 138.213-19.69 207.875-22.585 69.66-2.897 143.084 7.901 199.005 49.54" class="a"/><path d="M220.284 161.109c103.195 4.752 204.519-36.202 307.684-30.835 43.757 2.277 86.598 12.852 129.892 19.587 132.705 20.646 267.957 5.09 401.868-5.138 409.303-31.259 820.592-12.265 1230.647 6.745" class="a"/><path d="M2257.832 206.196c-50.26-9.28-91.753-44.168-139.635-62.035-71.374-26.632-150.486-13.717-226.119-4.59-128.367 15.492-258.516 18.965-386.993 4.408-54.025-6.121-107.925-15.431-162.294-14.984-54.357.447-108.086 10.639-161.79 19.058-318.601 49.945-643.26 38.045-965.528 26.014" class="a"/><path d="M205.305 236.211l121.753-52.552c20.893-9.016 42.362-18.173 65.095-19.204 35.226-1.599 67.909 16.286 100.693 29.273 149.431 59.195 316.873 19.338 476.935 4.713 181.385-16.571 363.904.615 545.622 13.03 45.89 3.135 92.273 5.946 137.66-1.533 34.088-5.614 67.006-16.944 100.99-23.167 54.05-9.895 109.534-6.68 164.387-3.429l372.912 22.098" class="a"/><path d="M2274.337 228.282c-77.822 25.334-157.755-24.165-237.166-43.953-68.31-17.022-139.943-11.783-210.139-6.432-108.835 8.295-217.835 16.608-325.53 34.384-72.54 11.973-145.136 28.285-218.62 25.939-57.537-1.836-114.01-15.082-170.932-23.676-308.623-46.598-623.57 43.918-934.351 15.02M216.702 305.157c363.955-53.002 734.087-6.286 1101.878-4.666 238.116 1.048 475.847-16.861 713.485-31.993 87.889-5.595 176.683-10.771 263.574 3.573" class="a"/><path d="M2295.837 311.936c-49.384-35.024-107.985-56.021-167.9-64.713-49.8-7.223-100.385-6.171-150.695-5.106l-281.662 5.974c-180.983 3.838-362.26 7.695-542.156 27.851-155.219 17.391-311.165 46.933-466.478 30.4-70.804-7.537-140.451-24.596-211.474-29.676-93.744-6.705-189.802 7.407-280.789-16.132" class="a"/><path d="M212.223 277.887c408.266-16.343 818.06-32.648 1224.742 6.835 57 5.534 114.048 12.167 171.314 11.733 112.98-.856 223.753-29.13 335.845-43.282s231.483-12.84 330.89 40.852M186.29 330.921c115.45 14.957 232.371-.804 348.755-3.404 224.817-5.02 450.386 39.141 673.711 12.797 55.367-6.532 110.237-17.374 165.84-21.431 76.512-5.583 153.285 1.749 229.874 6.165 210.455 12.13 421.49 2.214 632.062-7.703" class="a"/><path d="M219.564 361.716c30.06 14.8 65.361.282 97.252-9.99 147.157-47.4 305.67.778 459.925 11.146 152.513 10.25 305.694-17.094 458.211-6.899 82.21 5.497 163.533 21.87 245.88 24.615 130.991 4.366 260.306-25.76 390.11-43.874 129.808-18.113 266.645-23.388 387.31 27.775" class="a"/><path d="M2240.712 381.865c-230.582 6.322-461.155-21.877-691.684-13.878-153.807 5.336-306.72 26.76-460.527 32.068-283.623 9.784-569.046-35.248-850.52.944" class="a"/><path d="M181.936 429.423c123.007-24.828 247.767-49.782 372.981-41.547 146.479 9.635 290.034 64.52 436.213 51.086 63.602-5.845 125.334-24.528 188.573-33.491 167.944-23.798 337.476 21.625 507.056 25.438 180.747 4.063 361.891-39.208 541.294-16.823" class="a"/><path d="M2241.676 486.034c-121.859-40.078-250.27-80.653-376.242-56.429-60.2 11.576-116.991 37.623-177.436 47.847-115.723 19.572-232.407-20.137-349.423-29.188-141.291-10.929-282.38 23.048-424.092 22.241-86.071-.491-171.724-13.818-257.796-13.457-81.813.342-162.86 12.89-244.349 18.5-39.64 2.727-79.48 3.916-119.151 1.069-18.617-1.335-40.649-8.662-58.942-7.421-15.34 1.04-32.158 10.927-46.674 16.644" class="a"/><path d="M173.669 511.922c49.075-13.69 88.325-52.56 137.677-65.211 42.782-10.967 87.748-.978 131.125 7.336a1701.18 1701.18 0 00502.732 20.454c78.68-8.533 157.09-22.587 236.23-21.938 91.555.75 181.75 21.158 272.97 29.038 75.786 6.547 152.021 4.424 228.06 2.296q297.016-8.311 594.038-16.625" class="a"/><path d="M177.497 532.677c314.74-78.594 645.431 8.703 969.621-3.097 84.584-3.08 168.826-12.941 253.427-15.546 85.071-2.621 170.174 2.102 255.262 4.131 198.426 4.733 396.875-5.193 595.11-15.116" class="a"/><path d="M2261.329 552.739c-69.936-44.033-155.923-55.782-238.483-52.061s-163.728 21.725-245.641 32.69a1449.095 1449.095 0 01-438.121-8.33c-69.961-12.09-139.34-29.365-210.242-33.046-93.005-4.825-185.474 13.88-278.42 19.76-217.295 13.752-441.8-41.963-649.92 22.011" class="a"/><path d="M185.936 602.931c211.78-78.604 449.556-21.713 671.911-61.541 60.763-10.885 121.002-29.073 182.711-27.527 65.89 1.649 128.84 25.659 193.004 40.73 173.688 40.797 354.936 15.904 533.113 6.71 157.746-8.144 315.84-3.774 473.737.598" class="a"/><path d="M2256.548 601.84c-50.874-3.08-95.326-34.75-144.664-47.534-60.918-15.787-124.998-2.016-187.14 7.912-175.27 28.007-353.84 24.84-531.303 21.602-199.313-3.639-398.895-7.292-597.231-27.335-97.65-9.867-195.647-23.722-293.549-16.806-120.559 8.515-239.718 48.42-359.866 35.34M179.173 622.992q924.65-23.933 1849.751-6.525 97.658 1.84 195.31 3.986" class="a"/><path d="M2236.392 660.251c-58.051-30.678-118.09-61.962-183.496-67.709-49.26-4.33-98.443 6.154-147.147 14.694-283.245 49.672-573.481 34.767-860.333 14.525-129.642-9.149-260.427-19.323-389.111-1.133-58.564 8.277-116.268 22.387-175.104 28.431-97.995 10.069-196.746-2.43-294.463-14.91" class="a"/><path d="M204.227 689.404c142.808-31.51 291.685-3.114 437.57-13.334 78.03-5.464 155.1-21.992 233.269-24.776 76.844-2.738 153.445 7.844 229.872 16.284a4158.04 4158.04 0 00812.813 9.746c98.559-8.496 199.092-20.389 295.407 2.18" class="a"/><path d="M2257.29 727.275c-46.08-32.637-96.907-61.657-152.93-68.715-48.66-6.13-97.64 4.707-145.74 14.279a2923.313 2923.313 0 01-367.582 49.146c-48.056 3.34-96.619 5.474-144.166-2.26-57.782-9.398-112.304-33.07-169.53-45.42-142.07-30.658-288.664 10.008-433.854 16.62-95.995 4.37-192.064-6.244-288.156-5.441a1214.908 1214.908 0 00-323.541 46.748" class="a"/><path d="M194.33 753.813c196.902-60.31 408.613-19.692 614.488-24.503 94.403-2.208 188.88-14.099 283.008-6.59 77.019 6.144 152.918 25.231 230.18 25.928 94.782.856 188.202-26.006 282.985-25.016 127.77 1.335 252.773 53.198 380.036 41.749 89.937-8.091 179.601-47.599 267.606-27.372" class="a"/><path d="M2311.29 768.194c-112.26-16.564-224.944-33.163-338.414-34.263-116.763-1.13-232.977 14.16-349.434 22.683-102.605 7.511-205.888 9.76-308.25-.553-65.548-6.603-130.66-18.346-196.503-20.563-85.298-2.872-170.195 10.278-255.055 19.38-210.994 22.635-423.775 20.32-635.967 17.98" class="a"/><path d="M207.03 827.32c89.711-58.568 201.85-72.49 308.854-67.154 107.001 5.338 212.407 28.226 319.202 36.772 142.648 11.416 286.06-2.865 429.139-.2 91.336 1.7 182.388 10.303 273.596 15.427 229.188 12.874 458.978 3.76 688.347-5.354" class="a"/><path d="M2272.757 855.926c-144.062-56.842-304.5-51.629-458.686-37.085s-310.046 37.536-463.039 13.496c-96.876-15.224-190.668-49.11-288.451-56.511-124.242-9.403-247.099 24.343-370.397 42.28-156.522 22.77-315.493 20.095-473.64 17.37" class="a"/><path d="M214.377 870.138c85.248-26.097 176.59-18.586 265.59-13.37 237.071 13.892 474.788 9.664 712.227 5.433l729.974-13.012c95.023-1.694 190.263-3.381 284.919 5.113M2226.343 890.486c-132.008 3.535-264.05-23.412-395.626-12.169-97.837 8.362-193.899 37.755-292.065 35.388-65.606-1.584-129.936-17.336-194.908-26.567-98.366-13.976-198.167-12.991-297.516-11.98l-823.928 8.4" class="a"/><path d="M189.637 862.053c95.787-29.916 194.637-60.186 294.578-51.16 57.692 5.21 113.417 23.398 170.683 32.129 133.593 20.365 269.437-11.296 404.555-8.946 68.421 1.19 136.426 11.11 204.816 13.511 80.705 2.834 161.364-4.815 242.072-7.614 260.67-9.038 522.142 32.515 781.904 8.949M2318.975 795.73c-158.16-10.095-316.815-20.194-474.997-10.468-72.535 4.46-145.29 13.083-217.666 6.528-88.374-8.004-173.3-38.388-261.247-50.19-143.291-19.231-287.917 11.403-432.079 22.331-246.714 18.701-499.052-20.104-739.758 37.154" class="a"/><path d="M180.61 723.408c171.12 26.413 346.6 40.27 516.879 8.887 43.989-8.108 87.55-19.219 132.107-23.145 64.126-5.649 128.485 3.715 192.732 7.776 135.807 8.588 271.99-6.546 408.061-4.962 134.323 1.563 268.24 19.414 402.547 16.823 172.614-3.327 346.217-40.312 516.61-12.51M2252.639 625.61c-78.61 37.947-162.094 76.854-249.066 69.395-44.047-3.778-86.099-19.357-129.16-29.366-202.255-47.01-413.56 30.282-620.364 11.633-81.8-7.375-161.871-29.725-243.879-34.24-120.51-6.633-239.875 25.431-360.526 28.672-149.343 4.013-299.15-36.146-447.075-15.214" class="a"/><path d="M198.634 562.483c57.98 47.583 140.905 50.198 214.774 37.184 73.866-13.011 145.825-39.289 220.8-41.452 113.059-3.264 220.437 48.374 332.841 60.971 156.37 17.526 312.618-41.168 469.747-32.836 126.246 6.693 250.839 56.517 375.898 38 63.25-9.367 122.876-35.9 185.906-46.651 93.81-16.001 189.623 3.64 282.754 23.205M2233.114 456.245c-38.891 38.435-100.04 44.942-153.76 34.752-53.722-10.191-103.675-34.4-156.172-49.7-161.17-46.97-332.834-7.663-500.023 7.505a1716.17 1716.17 0 01-309.276.057c-135.892-12.278-272.665-40.76-407.587-20.417-61.459 9.266-121.553 28.593-183.658 31.113-103.712 4.21-206.413-38.716-309.383-25.628M171.105 340.483a309.938 309.938 0 00209.225 47.065c52.55-7.177 102.48-27.844 154.92-35.789 99.99-15.145 200.443 16.696 301.178 25.642 139.54 12.39 279.667-19.346 419.622-13.218 71.078 3.115 141.792 15.986 212.89 13.339 56.894-2.12 112.983-14.153 169.775-18.202 70.395-5.023 141 2.262 211.477 5.956 148.335 7.772 296.99-.378 445.307-8.527M2326.227 272.949a482.23 482.23 0 01-263.578.894c-55.563-15.688-108.998-41.552-166.577-45.803-77.806-5.745-152.193 28.441-228.006 46.863-233.706 56.792-480.31-36.87-718.52-3.686-86.309 12.023-170.367 40.618-257.454 43.72-170.034 6.056-346.885-84.3-504.18-19.444M155.189 163.288c71.353 51.005 160.606 76.422 248.123 70.658 112.735-7.427 218.934-64.262 331.912-63.961 72.747.194 142.985 24.11 213.53 41.875 97.777 24.626 201.565 37.551 298.966 11.474 58.367-15.627 112.87-44.857 172.353-55.473 83.219-14.853 167.831 7.855 251.317 21.126a1129.925 1129.925 0 00301.814 7.077c98.882-10.994 202.082-34.59 295.332.092M2292.239 120.785a420.743 420.743 0 01-206.967-2.415c-60.281-16.132-117.145-45.764-179.066-53.501-91.611-11.451-181.358 26.068-272.37 41.57-158.925 27.068-321.108-13.356-482.321-12.622-139.974.637-280.806 32.3-418.884 9.325-64.086-10.664-126.304-32.978-191.146-37.021-132.269-8.25-264.148 60.044-393.976 33.436" class="a"/><path d="M211.627 29.875c123.268 24.384 250.86-15.744 375.892-3.249C640.8 31.952 692.825 46.78 746.17 51.42c89.315 7.767 178.649-13.248 268.3-13.478 97.938-.254 197.053 24.194 292.853 3.838 52.957-11.251 103.72-36.044 157.859-35.825 50.705.201 98.38 22.331 147.586 34.57 220.403 54.811 459.756-89.815 674.37-15.499" class="a"/><path d="M2313.812 47.706c-211.588 22.187-424.33-37.561-636.743-25.613-145.035 8.158-291.777 49.507-433.354 16.988-40.27-9.248-79.1-24.343-119.687-32.085C999.16-16.82 871.282 30.627 744.354 23.633 687.691 20.51 632.117 6.563 575.55 2.029 440.466-8.792 304.192 34.297 170.107 14.645M103.038 160.212c92.402-31.941 182.872 60.334 280.588 63.498 69.316 2.247 131.807-40.567 200.005-53.159 101.176-18.68 200.94 30.093 301.517 51.77a581.052 581.052 0 00271.593-6.738c54.22-14.532 107.029-37.085 163.064-40.412 80.198-4.764 157.152 30.23 236.901 39.959 105.52 12.875 211.536-18.818 317.823-17.055 117.979 1.956 235.44 45.043 351.802 25.488M2294.115 337.44c-83.265-16.215-167.921-32.506-252.373-24.494-81.26 7.71-159.794 37.767-241.409 39.009-100.249 1.524-196.71-40.485-296.897-44.298-74.725-2.846-148.576 15.651-223.243 19.743-98.949 5.42-197.383-14.494-296.313-20.248-247.17-14.375-496.558 59.6-740.773 18.875M47.183 407.89a1625.226 1625.226 0 00460.402-.418c26.17-3.775 52.722-8.199 78.901-4.497 30.063 4.249 57.492 18.887 86.175 28.846 64.854 22.516 135.285 20.863 203.883 18.161 127.312-5.013 254.665-12.748 382.032-9.473 97.402 2.504 194.669 11.443 292.09 9.777 239.68-4.098 478.998-72.242 716.396-38.992" class="a"/><path d="M2376.383 463.543a855.551 855.551 0 01-279.642-8.298c-36.872-7.254-73.678-16.99-111.257-16.771-61.922.36-120 27.485-178.91 46.566-243.42 78.846-506.868 21.385-762.677 15.71-157.317-3.49-315.713 12.932-471.52-9.077-53.477-7.553-106.983-19.641-160.872-16.06-87.295 5.804-175.696 52.162-258.348 23.487M104.508 551.948c60.822 23.602 129.26 39.35 190.697 17.393 21.726-7.764 41.725-19.995 63.776-26.782 69.443-21.372 141.78 14.112 211.909 33.099a471.955 471.955 0 00190.28 11.5c57.35-8.296 113.308-27.194 171.237-28.701 83.02-2.16 162.794 31.451 245.454 39.486 118.188 11.488 237.069-29.656 355.049-16.203 83.16 9.483 164.953 45.913 247.59 32.614 69.332-11.158 134.501-56.896 203.75-45.243 27.128 4.565 51.901 17.714 77.426 27.976a382.54 382.54 0 00241.225 14.037M2238.629 709.59c-66.786-50.821-158.427-67.193-238.678-42.642-41.19 12.603-78.816 35.048-119.92 47.931-123.004 38.552-253.587-12.755-380.813-33.475-251.736-41-512.103 39.592-763.108-5.66-68.047-12.267-134.435-33.675-203.13-41.532-136.749-15.642-276.61 23.025-411.99-1.807M165.153 397.184c179.753-58.85 375.898-.733 564.271-17.764 94.984-8.586 188.538-36.405 283.83-32.482 83.75 3.448 164.264 31.23 245.804 50.651s169.265 30.185 247.657.51c38.18-14.455 72.601-37.996 111.485-50.432 124.527-39.826 255.634 41.663 386.32 37.874 114.923-3.33 233.704-71.85 338.662-24.923" class="a"/><path d="M2278.225 492.63c-125.705-2.938-242.955-72.893-368.69-73.539-59.507-.305-117.829 15.005-175.65 29.063-200.069 48.644-409.745 83.444-610.987 39.92-56.157-12.147-111.11-30.306-168.073-37.811-167.17-22.029-335.72 49.1-503.265 30.153-102.14-11.549-203.37-56.348-304.2-36.37M85.404 643.386c46.173 42.541 115.822 47.318 178 38.628s123.358-28.467 186.105-26.388c74.777 2.479 145.14 35.771 219.268 45.901 143.764 19.65 285.667-48.739 430.767-49.008 103.817-.192 205.972 34.566 309.622 28.7 112.452-6.36 221.794-60.309 333.344-44.737 58.126 8.112 112.232 34.755 170.016 45.027 159.236 28.307 326.5-69.776 480.46-20.248M2249.592 846.334c-85.277 11.038-169.497-20.992-254.553-33.631-235.15-34.948-483.374 77.93-708.087.336-35.276-12.18-69.225-28.927-105.878-35.948-67.633-12.956-136.43 8.29-203.424 24.205-75.48 17.931-153.295 29.303-230.62 23.04-119.928-9.713-233.199-61.22-352.867-73.745-61.632-6.451-123.822-2.435-185.658 1.588l-67.822 4.412" class="a"/><path d="M204.513 823.505a285.508 285.508 0 00171.042 10.306c45.554-11.485 88.274-34.283 134.916-39.886 63.051-7.576 124.844 16.923 186.168 33.42 145.16 39.05 302.006 33.47 444.024-15.8 43.937-15.245 87.932-34.823 134.435-34.162 52.091.74 99.945 26.703 149.474 42.86a408.678 408.678 0 00211.29 10.99c58.32-12.517 114.05-37.88 173.518-42.497 55.534-4.31 110.724 9.76 166.316 13.26 111.322 7.001 220.458-28.352 326.396-63.265" class="a"/><path d="M2287.44 811.753c-76.438 14.532-150.625-27.518-225.532-48.565-213.765-60.06-439.425 52.138-660.74 34.168-85.337-6.929-167.813-33.114-252.053-48.42a998.778 998.778 0 00-322.299-5.574c-85.36 12.476-169.697 36.085-255.963 35.674-145.618-.697-290.695-69.72-432.637-37.198M185.913 72.568c14.726 41.245 72.844 39.936 115.674 30.785l183.53-39.212c26.408-5.643 53.6-11.309 80.21-6.708 28.737 4.969 53.94 21.379 80.065 34.339a359.164 359.164 0 00230.799 29.61c69.853-14.546 136.433-50.166 207.736-47.558 56.38 2.062 108.868 27.936 163.9 40.362 140.113 31.64 283.662-25.095 427.017-34.184 25.08-1.591 50.605-1.672 74.918 4.687 28.574 7.47 54.067 23.43 81.093 35.34 84.211 37.107 180.655 33.816 271.538 19.363 90.881-14.454 180.454-39.387 272.387-43.485" class="a"/><path d="M2347.172 189.784c-55.853 17.46-116.836 5.833-171.802-14.24-54.967-20.074-106.823-48.38-162.744-65.617-89.697-27.646-185.86-25.597-279.16-15.379-187.086 20.49-372.24 72.772-560.136 62.003-75.176-4.309-149.57-18.709-224.818-21.49-96.838-3.584-196.393 11.823-289.083-16.442-26.707-8.143-52.443-19.837-79.916-24.824-74.327-13.491-147.299 23.3-221.048 39.662a415.429 415.429 0 01-205.954-6.935" class="a"/><path d="M132.972 65.19c52.929-14.955 112.478-29.26 160.522-2.487 18.132 10.105 33.024 25.419 51.487 34.908 29.796 15.313 65.297 13.768 98.442 8.899 113.05-16.603 223.985-67.479 337.006-50.68 60.962 9.06 117.46 37.416 177.784 50.05 67.277 14.089 137.155 8.189 205.006-2.809 112.232-18.192 228.69-49.93 337.19-15.944 34.694 10.87 67.207 28.2 102.352 37.506 145.83 38.618 293.914-66.784 444.455-57.046 49.53 3.205 97.432 18.864 146.694 24.932 70.036 8.622 140.838-2.312 210.555-13.221M2336.44 354.157a723.293 723.293 0 00-373.664-37.966c-32.94 5.414-66.176 13.154-99.34 9.347-34.672-3.98-66.522-20.264-99.608-31.373-186.685-62.692-389.939 42.322-585.606 20.064-83.447-9.493-163.53-42.075-247.434-45.744-59.516-2.6-118.573 9.47-177.043 20.878-48.089 9.385-98.204 18.313-145.542 5.677-33.926-9.054-64.116-28.66-97.444-39.717-122.546-40.665-252.856 40.238-381.813 33.81" class="a"/><path d="M.018 280.34q119.434-8.68 238.865-17.362c21.827-1.586 44.16-3.127 65.261 2.679 37.847 10.412 65.754 42.574 101.607 58.562 60.06 26.782 130.108 4.018 189.233-24.774 59.122-28.79 118.905-64.462 184.658-63.372 83.673 1.386 157.609 62.462 241.282 63.858 55.895.933 108.77-24.997 164.327-31.206 94.13-10.524 189.456 35.988 282.215 16.827 47.883-9.892 90.872-36.659 138.513-47.653 84.107-19.407 170.342 12.06 255.37 26.928a667.393 667.393 0 00248.202-3.596c53.507-10.963 116.342-26.275 157.08 10.103" class="a"/></svg>
