<svg xmlns="http://www.w3.org/2000/svg" width="1920.1" height="892" overflow="visible"><style>.st1{fill:none;stroke:#2a3c51;stroke-width:.5;stroke-miterlimit:10}</style><path fill="none" d="M.1 0h1920v892H.1z"/><path class="st1" d="M.1 4.7c639.1 18.7 1279.2 37.4 1920 43.6M.1 32.8c639.4-7.8 1279.8-3.1 1920 4.2M.1 79.6c639.8 4.1 1279.9 6.5 1920 7.3M.1 121c612.8-75.4 1275.7 1 1920 3.1"/><path class="st1" d="M.1 153.9c236.2 6.8 467.8-51.8 703.7-44.1 100.1 3.3 198.1 18.4 297.2 28 303.4 29.5 612.9 7.3 919.1-7.3M1920.1 141c-633.4 49.9-1279.2 38-1920 26"/><path class="st1" d="M.1 229.1L306 176.5c52.5-9 106.5-18.2 163.5-19.2 88.4-1.6 170.5 16.3 252.9 29.3 375.2 59.2 795.9 19.3 1197.7 4.7M1920.1 205.9C1285.8 155.9 638.7 253 .1 222M.1 298.1c635-35.6 1277.2-26.2 1920-15.8"/><path class="st1" d="M1920.1 268.9c-310.8 17.4-623.1 46.9-934.2 30.4-141.9-7.5-281.3-24.6-423.4-29.7-187.8-6.7-380.3 7.4-562.4-16.1M.1 270.8c639.4-10.1 1280.3-20.2 1920-17.1M.1 323.8c216.8 15 436.4-.8 654.9-3.4 422.1-5 845.7 39.1 1265.1 12.8"/><path class="st1" d="M.1 354.6c103.5 14.8 225.2.3 335.1-10 507.1-47.4 1053.3.8 1584.9 11.1M1920.1 393.3c-640.3 7.3-1284.7-26.4-1920 .7"/><path class="st1" d="M.1 422.3c291.9-24.8 587.8-49.8 885-41.5 347.6 9.6 688.2 64.5 1035 51.1M1920.1 463.4c-218.6-.5-510.5-13.8-729.1-13.5-207.7.3-413.6 12.9-620.2 18.5-100.5 2.7-201.8 3.9-302.6 1.1-47.2-1.3-103.1-8.7-149.5-7.4C79.9 463.1 37 473 .1 478.7M.1 525.6c623.2-78.6 1278 8.7 1920-3.1M.1 595.8c605.1-93.7 1284.6-25.9 1920-73.4"/><path class="st1" d="M1920.1 549.4c-287-9.9-574.9-23.7-862.5-16.8C703.1 541.1 353 581 .1 567.9M.1 615.9c640-6.8 1280-11 1920-12.9"/><path class="st1" d="M1920.1 603.5c-171.2-.5-342 2.1-511.5 10-175.7 8.3-348.7 22.4-525.2 28.4C589.3 652 293.1 639.5.1 627M.1 746.7c587.6-60.3 1305.7-19.7 1920-24.5M1920.1 751.2C1294.6 770.1 628.6 767.9.1 765.7"/><path class="st1" d="M.1 820.2c274.2-58.6 617-72.5 944.2-67.2s649.4 28.2 975.8 36.8"/><path class="st1" d="M1920.1 786.6c-148 8.2-295.7 17.5-443.7 24.4-488 22.8-983.5 20.1-1476.3 17.4M.1 863.1C265.9 837 551 844.5 828.4 849.7c363.5 6.8 727.4 9.3 1091.7 9.5M1920.1 870.6L.1 876.5"/><path class="st1" d="M.1 855c285.2-29.9 579.3-60.2 877.1-51.2 171.8 5.2 337.7 23.4 508.2 32.1 177.2 9.1 355.6 7.8 534.8 3.8M1920.1 756.8C1279.6 775.5 625 736.7.1 794M.1 716.3c506.3 26.4 1025.6 40.3 1529.2 8.9 130.3-8.1 259.1-19.2 390.8-23.1M1920.1 626.1c-183.5 16.1-367.3 34.8-551.8 38.2C911.2 672.8 452.8 587.7.1 632.1M.1 15.7c442.8 32.5 900.9-21 1350.1-4.3 191.5 7.1 378.2 26.8 569.9 33M1920.1 443.2c-397.6-22-798.2 49.1-1196.7 30.2C480.6 461.9 239.7 417.1.1 437"/><path class="st1" d="M.1 676.6c57 3.3 116.4 2.1 172.9-1.7 129.9-8.7 257.9-28.5 388.8-26.4C717.9 651 865 684.3 1020 694.4c300.4 19.7 597-48.7 900.1-49M1920.1 817.3c-379.6-9.7-738.4-61.2-1117.4-73.7-195-6.5-392-2.4-588 1.6L.1 749.6"/></svg>
