<svg xmlns="http://www.w3.org/2000/svg" width="1920" height="916" fill="none">
  <g stroke="#2A3C51" stroke-miterlimit="10" stroke-width="2" clip-path="url(#clip0)" opacity=".2">
    <path d="M1984.29 901.483c-34.93-6.392-77.92-3.372-116.44-3.938-10.25-1.261-25.78.009-38.64.4-23.79-.166-48.07 1.672-70.02 2.522-15.29.557-28.18.01-35.07 1.837-37.48 1.584-74.29 2.747-108.88 1.994-38.08-.752-68.82.01-108.92 1.3-34.14-.254-74.76 1.701-108.99 1.026-33.38-1.495-70.95-1.886-108.93-.097-32.82.87-71.33-2.063-109-.391-38.11 1.329-76.78.058-109.01-.294-36.23.157-75.135-.078-108.572-.547-33.733.753-76.659-.469-109.462-.948-36.279.772-67.983-1.202-109.346-.469-39.925.234-71.998-1.603-108.69-1.085-32.084 1.476-65.647-2.072-109.007-.557-25.395-.039-49.764-2.092-81.722.039-26.652-.44-52.892-2.619-81.753-.313-27.994-1.524-53.071-.518-81.774.176-31.376 2.19-55.143.567-81.647.499-31.978.273-69.769 1.085-102.53 1.837-33.077.958-67.19 3.03-102.666 4.066-10.314.147-19.635 1.671-28.502 1.593-13.178 1.183-21.558 1.574-28.448 1.867M1978.53 875.793c-31.82.028-54.95-1.175-86.95-1.005-19.08 0-29.7-1.412-43.28 1.147-35.63.265-77.53 6.434-116.04 6.235-9.66 1.08-25.75 1.308-38.48 2.018-25.75 2.009-52.88 2.275-82.74 3.942-23.07.503-53.15 1.801-82.94-.246-32.49-1.981-64.6-4.539-102.15-2.672-29.82-2.009-58.8-5.62-103.23-1.858-31.03-1.07-73.42-1.468-102.25-1.468-28.41-3.137-73.24.18-102.97-.474-38.26-.72-66.31 1.649-103.17-.436-35.186-.228-66.273.616-102.001-.18-34.523.114-66.329-3.355-103.241-.066-30.982.18-57.694-2.625-101.984-.512-37.324 1.677-66.836.635-102.659-.673-37.345.085-67.862-.483-102.713-1.137-28.339-.37-56.456.881-79.88-1.649-27.293-.36-51.066-2.454-80.737-.654-28.159 1.725-52.228.019-79.827-.085-22.822-4.548-54.28-.161-80.452 1.023-27.388 1.128-54.374 2.085-79.912 2.701-24.206.19-47.725.123-79.7 4.719-13.351.228-18.214 2.701-28.752 1.403-19.735 1.108-38 1.411-57.64 2.89M1975.65 853.464c-22.34-1.184-46.43 1.724-75.47 1.89-24.22 2.867-48.52 2.306-75.49 2.971-10.92.187-27.71 1.142-37.38 1.713-35.54 3.241-64.37 3.449-91.24 4.674-17.09-1.454-25.81.603-44.86 1.288-35.55-2.243-80.45-1.257-116.26-1.475-35.61-3.168-75.68-.571-116.18-1.153-44.65-2.326-76.26-1.433-115.66-1.059-40.78-2.14-77.57 1.651-116.51-.582-35.6-1.319-81.76-2.773-115.89-.394-41.35-.914-81.96 1.308-116.124-.914-38.593 1.049-80.588 1.838-115.967-.675-38.339-1.589-78.21 2.025-116.031-.935-31.28-2.316-76.138 2.087-116.052-1.028-38.053.82-77.237-1.184-116.051-1.548-38.107.904-77.481-3.303-116.126-1.849-37.726-2.326-78.019-2.534-116.2-2.326-44.267 3.375-74.701 1.433-110.429 3.593-35.401.644-68.668 4.134-110.409 6.44-12.459-1.714-23.586.176-35.126 1.132-23.703 2.41-49.604 1.859-70.242 2.493M1975.65 833.066c-23.57-.193-47.51.078-72.11 1.482-23.63 1.889-50.38 1.763-72.65 2.712-25.33.184-48.99 3.255-72.5 3.003-24.66.813-50.91 7.119-72.2 2.77-12.24.969-32.82 2.518-40.96 1.23-38.37.271-73 1.579-105.82-.116-31.21-1.908-64.44-3.981-105.81-1.337-40.77-.349-68.38-5.056-106.14-1.956-32.01-1.366-73.21.407-105.49-2.441-36.68.465-67.55-.01-106.03-2.15-39.73-.417-70.39-1.831-105.6-1.298-34.928 1.259-67.963-2.712-105.901.126-32.168 1.52-69.102-.068-105.73 1.239-33.626 1.666-76.055 1.463-112.546 4.96-39.745 2.324-73.477 3.186-112.546 2.789-38.942-.697-77.345-2.48-112.546-5.327-34.165-3.38-75.495-4.64-112.546-8.233-43.697-1.559-88.367-2.78-129.496.881-41.489 3.003-86.708 4.485-129.73 6.151-14.17.629-29.081 2.78-40.304.959-43.54 1.133-83.813 2.276-121.36 2.266M1978.53 811.372c-29.14-.312-54.87-.473-80.91.454-26.09 1.481-53.99-.02-80.87 1.793-36.93-.695-76.05 2.832-115.4 4.575-9.85.554-25.58.665-38.54 1.904-26.7 3.456-45.85-.987-74.84 2.902-24.49-3.456-49.56-2.005-74.55-1.31-33.26-2.438-61.28-4.111-96.21-2.267-31.69 1.26-60.19-1.783-97.09-1.794-30.22 3.225-62.36.273-96.58-1.027-32.97-1.512-65.65-1.119-96.57-.575-31.62-.151-65.52-.836-96.9.272-27.52.313-62.254-.695-96.213.162-34.265.423-59.462.594-96.929.745-31.158 1.068-67.125 1.33-96.222 1.29-37.573-.806-60.857.262-96.38 1.451-29.224 2.479-63.721.766-96.93 1.743-26.898-.111-62.093-4.665-91.962-1.149-22.132-2.388-53.501.273-69.598-2.851-20.821-1.713-48.036-1.753-68.424-3.648-22.703 0-47.403-2.166-69.049-2.448-20.874-.675-47.413-.968-69.217.181-12.63.212-24.246.645-41.938.534-36.062-.766-68.214-.403-106.263 2.308-34.381 1.39-69.63 2.458-106.188 1.108M1979.97 788.853c-27.28-1.883-60.88-1.466-92.48-1.078-29.75-.228-57.41-1.306-92.41.246-33.95 2.602-57.3 1.22-92.56 1.362-32.45-1.23-60.62.464-92.27 1.552-12.37-1.164-25.86 3.009-41.15.663-29.38 1.958-60.76-1.127-91.35-.398-27.1-.653-55.48-.852-91.34-.681-10.38-.994-30.74-1.704-45.65-.322-21.2-.965-45.02-3.331-68.66-.606-25.65-1.58-48.37-.955-68.36.133-19.99-.776-33.53 2.725-45.63.132-14.84-.634-31.98 1.94-45.63.436-24.69.53-47.58 2.649-67.13.35-24.15.691-44.32.426-66.82-.435-27.065-.417-50.092 1.807-67.424-.294-27.265.729-49.87 3.066-66.282-.265-21.305-1.088-42.684-.577-67.064.322-28.629 1.031-44.84.889-66.874 1.4-21.792-.662-48.169.776-70.161 2.272-20.893 1.599-43.656 1.249-69.939 2.412-21.263.899-47.08.142-70.266 1.798-25.195.824-48.476 2.234-70.225-.265-8.919-2.782-23.302 1.06-38.287-.87-22.341 1.609-55.662-1.391-76.544-3.407-23.926-2.28-51.921-2.28-76.47-5.649-11.287-.397-36.66 2.801-49.205.511-14.013-1.722-24.169-3.956-43.804.17-11.086-3.369-29.062.795-44.565.18-27.012-1.58-62.721 2.508-89.078.88-29.748-.341-57.584 1.164-89.024.293M1979.97 764.311c-8.76-.991-29.07.505-40.28-.457-14.54-2.244-24.98-.34-40.56-1.03-30.28-2.059-64.47 1.332-88.52-2.38-27.27-1.049-59.72.107-88.6-.019-17.1.262-30.64 1.758-44.29.874-38.42-.223-75.25.564-112.85.428-34.99-3.003-73.71-.263-113.48.903-36.07-.923-74.05-.175-113.19 1.049-33.83-1.457-70.09-2.438-113.11.788-35.78.709-75.02 4.362-113.44 1.107-32.52-3.799-73.55-4.071-112.82.748-35.417-.699-73.816.36-112.785.972-38.558.719-76.819.971-113.42.418-36.242-3.119-73.732.592-112.902.359-35.237-3.031-73.805-1.273-113.24.088-41.391 2.594-69.227-1.778-113.05-.282-36.823.748-77.23 0-113.039-.709-11.143-.36-26.166-1.934-40.64-.622-14.357-.136-28.122-.195-40.545-1.205-7.665-1.156-29.073 2.186-41.422.058-13.881-2.905-31.971-.078-41.073.369-7.359-.748-25.036.904-29-.155-13.776 2.769-20.859.661-28.778-.253-14.738-1.778-24.877-3.07-43.22-.417-45.196-1.38-88.701 1.37-130.959-1.429M1977.09 740.433c-34.58-3.325-72.55-3.153-111.29-2.247-42.02 1.622-73.4 1.35-111.28-1.37-11.68.192-24.45-.534-37.03-.232-42.26 1.219-78.42 1.088-120.24-.584-40.09.071-82.6 2.237-120.17.383-41.58 2.377-79.68-.101-119.65.725-39.07-1.037-85.83 3.154-120.54 1.995-39.79.474-79.33.373-119.74 1.582-39.14 2.387-78.06 3.375-120.259 2.176-44.51-.423-80.486 1.209-119.8 1.702-35.87-1.007-80.624 4.282-120.054 1.23-40.771-3.194-80.402.473-119.272.332-39.441 3.748-80.096.887-120.476-.111-38.976-1.39-75.29-3.858-119.843-1.491-43.623-2.277-69.903-3.556-119.832-2.861-13.224-1.118-28.867-2.327-47.763-.665-19.731-.544-29.85-.554-47.775-.786-10.626-.181-20.026-2.428-31.782.343-9.327-.383-17.608-1.844-31.773.342-12.77-.252-25.74.897-38.32-.302-26.058-.272-48.018-.604-76.304-.957-31.656-.796-53.827-.192-76.262-1.38M1975.65 718.725c-28.08-1.085-66.18-.204-104.74-2.898-37.26-2.202-73.01 1.076-104.76-2.366-13.81-1.515-27.79-1.167-41.47-.594-29.28.42-53.61-.891-85.65-.614-26.33-.645-55.96-2.458-85.67-.01-25.47-1.67-59.01.286-85.62.256-26.33 1.864-57.61.389-85.75 1.085-24.93-2.734-55.91.471-85.61 1.096-25.73-.235-61.69-.42-85.8 1.209-25.11-1.496-57.67-2.469-85.91 1.495-29.93 1.618-51.24-4.414-85.54.788-19.7 1.383-31.69 2.602-48.999.523-32.425-1.414-63.275.471-94.928-.031-33.143.317-61.573-1.465-95.434.543-30.438.676-62.641.696-95.15-.226-31.494-2.181-66.159-.184-95.804-1.485-16.752 2.008-29.011 2.469-38.28.082-24.709-1.792-44.843-.378-76.443 1.393-36.905.226-81.885 2.653-114.511 2.684-42.803 2.765-78.017.604-114.574-.605-16.54-2.724-27.014.4-42.222-.696-32.879.42-50.338-.768-84.676-3.452-15.842.728-24.709-1.802-36.197-.911-15.42-.696-31.452.174-43.987-1.331-42.295-3.605-88.047-1.844-130.29-1.096M1975.65 697.495c-28.9 1.079-53.39.208-81.05-.56-24.8-.062-53.71-1.265-81.11-1.463-11.56 1.09-18.23-3.173-32.31-.736-39.18.851-67.84.031-106.99-.135-34.37-1.483-73.13-1.545-106.95-.218-36.46-.435-69.15-.975-106.88-.259-33.77-1.141-68.74-.321-106.91-.301-34.19 3.039-72.03-.56-106.97-.549-31.82.083-65.45-3.506-106.76.041-17-1.307-25.9 5.321-49.17.073-33.03 4.159-57.18-.363-90.594.57-28.924-2.811-59.432 1.432-90.162.809-30.286 2.178-59.854.457-90.711 1.068-32.082.561-64.354.613-90.415.592-32.505 1.058-58.914.363-89.95-.446-24.371-.301-60.488-2.51-91.06-1.535-13.838-.208-31.701.498-49.322.332-31.385 1.68-59.822 1.711-98.781.933-36.688 1.162-68.506-1.836-98.824 1.203-8.948-.373-31.67-1.576-40.396.363-23.061-1.701-57.488.436-87.351-.632-31.449-.063-56.548-3.921-87.394-4.886-9.74-.518-24.709-1.929-38.674-1.141-38.188-3.06-72.489-3.267-116.402-1.504M1977.09 674.79c-24.13.915-51.38 4.246-72.77.393-22.89-2.021-49.16.745-72.94-.457-8.41-.756-18.04-2.001-29.09-.362-30.94-3.746-53.94-1.383-80.57-.638-29.69 2-56.12 1.5-80.56-.649-28.4 1.979-53.98-.873-80.46-.564-25.64-1.352-54.5-.586-80.6-.735-28.08 1.192-58.4 2.469-80.48-.659-26.86.319-54.89 2.117-80.53-.532-16.27-1.192-32.14-3.108-48.3-.33-34.32-1.703-65.72-2.075-96.57-.777-39.03.138-61.55-.734-96.67.33-31.8 1.649-65.14.521-96.084 1.053-32.648 1.979-61.799.628-96.941 1.288-31.539 1.053-63.215-1.011-96.561 1.011-34.423-1.235-68.636.936-96.477.138-35.046 1.734-67.293.032-96.434-1.085-33.504.404-65.846-2.65-96.825-2.948-24.47 2.075-36.346-.128-48.18.277-38.682 1.692-61.567-1.001-96.561.819-33.832 3.639-62.402-.213-96.572 1.075-11.39.564-18.764-1.32-27.999-.585-30.937-2.32-54.985-1.426-84.59-3.48-7.47-.745-33.346 1.979-40.573-.958-17.307 1.235-31.412.17-43.742-.032-43.563-.372-84.4-1.234-128.058-1.383M1978.53 649.526c-38.51.174-75.75 2.391-115.16-.203-8.72-.668-22.27-1.52-28.79-.087-34.26.997-74.52-.697-111.85.881-37.84-1.52-74.73 2.226-111.8.338-24.8-.503-46.89-1.306-74.52-.029-24.36.726-45.69-2.816-74.31-.213-23.78-.813-47.52.426-74.66-.358-18.33 1.171-35.01 1.704-49.65-.309-29.18-3.504-68.38 2.622-100.2-.823-33.43-.329-76.53 3.271-101.5-.358-31.43-2.314-68.17 1.626-100.74.174-31.7-2.052-67.177 1.519-101.045.377-34.883.92-69.269.233-101.215.668-33.604.145-64.883-.532-100.612.426-23.185.803-47.807 1.065-71.816-.794-21.737.417-46.063-2.497-72.418-2.7-22.16-2.41-45.662-2.333-72.102-2.855-23.871-.842-48.821-2.594-72.091-1.278-17.457-.348-38.56 2.555-49.709-.01-24.611-.735-49.487-.6-74.584.146-23.587.145-51.358-.339-74.606.377-13.231.203-33.499 3.01-49.075-.532-31.639-.32-69.481 1.364-98.393-1.21-13.315-.145-30.646-.349-40.78.252-42.999.938-79.488 1.606-123.512 1.045M1979.97 622.532c-37.96.725-71.36 1.019-106.31.715-13.54 2.979-24.44-1.303-35.45.118-35.02 1.832-66.84 1.626-99.38 1.47-33.85-1.274-67.17.764-99.36 1.175-23.06-.029-45.13-1.077-66.24.618-26.95 2.018-42.62-.774-66.03.352-24.2.628-43.31-.44-66.42.471-16.75 1.597-34.67 1.401-49.54.264-32.8-2.234-70.13-.431-104.43-.009-30.25-1.108-72.83-1.117-103.84.254-33.21 1.059-70.12 3.646-104.09.618-33.11.744-66.6-.657-104.381-.01-33.951.686-71.898.059-104.232-.764-34.639.117-72.85-.128-104.528-1.333-37.091.255-71.729-2.91-104.824-2.871-34.237-3.253-68.03-3.577-104.275-4.988-38.824-1.558-82.817-5.663-125.752-2.361-14.09 1.548-25.601-1.735-38.592.656-25.876-.862-53.421 1.451-77.289 1.441-26.552-.667-50.99-1.019-77.447.372-15.655-2.352-36.71 1.842-51.223-.451-16.828.667-35.875-.088-51.244-.401-11.268-2.685-31.245-.04-39.511.254-13.551 1.166-27.186.275-40.188.382-41.318 1.607-80.016-.734-120.563 1.833M1979.97 593.353c-27.99-1.565-60.1.661-90.44.346-7.66.386-22.61-.946-30.06.254-13.65-1.637-29.78.091-44.02.722-23.18 2.216-54.87 3.883-83.23 5.835-22.3.833-58.44 4.859-83.46 3.009-20.91-2.389-42.64-1.291-67.98-1.749-29.45 1.932-47.79.936-67.96-1.189-9.98-2.877-28.24-.793-45.14-.447-30.73-2.247-63.82.691-100.01.427-36.09.386-67.97-1.017-100.17.447-34.73 1.84-68.22 3.08-100.18.488-32.57-1.525-65.09-1.972-100.12-.02-32.95 1.464-69.047-.559-100.624.111-34.98-1.28-64.749-.172-99.761-.874-34.768 1.81-68.501-1.494-100.299-1.128-31.398-1.983-71.355 1.108-100.195-1.688-33.922 2.298-61.536-1.901-100.173-2.551-32.929-.458-65.932-.509-100.437-3.121-12.935-.122-28.744-.143-45.177-.57-21.115-1.291-45.495-.244-69.072-.427-23.471.305-45.484 1.017-68.955.163-18.885 2.643-25.659-1.616-38.224.305-25.765-.285-48.676 3.243-76.512 1.505-24.338.193-53.072 3.06-76.702 2.165-13.484-2.196-18.102.295-30.932.274-41.045-.101-83.158 3.02-123.866 1.566M1978.53 567c-30.22 1.324-74.28 1.106-109.26 4.822-10.97-.501-23.55.822-35.51 1.049-14.8 0-27.87.539-38.96.927-14.94 1.219-24.34 1.91-34.01.803-40.37 1.097-80.7 2.326-119.64-1.134-44.42-.246-77.89 1.182-119.74-.407-12.24-1.541-34.1.237-47.32.17-37.97-.359-71.64-.179-105.18 1.475-37.62-2.023-65.78.095-104.95.851-38.27 3.782-67.01-.019-104.61.766-34.67-2.468-74.93 2.241-105.43.964-34.97-.132-68.947-.879-104.52.511-33.999-1.144-71.147.482-105.442-.132-34.315-.426-72.108-.161-105.356-.246-39.526 1.702-68.357-2.09-104.554-1.513-32.825-1.068-70.46-.019-105.367-1.966-32.752.349-67.945-1.589-104.522-2.714-16.857-.009-36.419 1.494-47.41-.473-17.29.407-28.112-.227-47.452.275-9.85-1.211-27.119.198-33.703-.142-27.531-.426-55.78.085-84.305 1.342-26.875.549-54.448 1.05-84.431 3.914-14.172 1.248-27.446 5.238-31.927.851-25.364-.955-49.788-.662-80.658.246-27.457-2.316-52.367-1.787-80.88-2.827M1979.97 543c-35.46 3.783-71.78 7.703-106.06 6.892-9.83 1.602-25.27 3.024-34.57 1.307-11.87-2.74-25.12.084-39.99.474-17.15-1.37-28.74 1.549-40.36-.148-14.59-4.847-34.35-3.224-51.3-1.833-38.26-.411-75.62-2.582-117.34-3.499-12.76-.263-30.01-.664-48.07-.495-19.99 3.172-36.75 3.087-47.36-.116-36.63 1.791-74.07.706-105.82 1.57-35.93 4.215-67.29-.537-105.26 1.412-33.41.021-73.15 3.014-106.11 1.064-28.66-2.149-72.06-2.539-105.2.959-36.96.77-72.948.812-105.42.527-34.142.685-71.412 1.223-106.04.727-34.427 1.149-73.398 1.17-106.155.496-38.379 1.464-67.819-1.76-105.342.2-30.877-1.001-67.544.084-105.5.158-35.04-1.012-70.799 2.898-105.955.158-13.949-1.149-25.551-1.359-43.959-1.296-14.339-.59-33.021 1.454-44.36-2.203-35.917 2.35-69.203-1.981-104.549 1.191-37.143 1.202-71.58 6.302-104.19 5.174-11.698 1.549-21.683.253-33.244.39-24.642 2.919-44.222-2.445-66.571-.432-38.75-.969-71.919-2.655-110.731-4.51M1982.85 522.031c-22.7 1.549-46.61 2.299-66.95 5.122-17.14.769-45.88 3.779-66.97 2.95-17.6 1.816-25.29.267-41.07.533-9.46-.878-20.37-.996-31.67-1.677-11.4-.79-22.31-.652-31.86-1.836-30.72.069-58.42-3.296-86.57-5.033-28.27-4.352-58.97-4.865-86.21-5.872-15.36-.79-35.22-1.924-42.94-2.734-7.87-2.408-16.34-3.533-28.65-1.214-25.64 1.382-52.65.445-85.92 2.497-31.54.622-57.14 3.178-85.05 3.504-30.15 5.437-62.3 3.572-85.43 4.056-28.29 1.559-57.73 1.658-85.39 3.197-27.99 1.342-60.28.691-85.97 1.915-28.67-.938-55.6-1.55-85.262-.73-15.779-.889-35.574.039-46.84-1.836-32.614-1.086-59.511-4.54-94.366-6.711-25.29-3.513-55.548-3.02-76.146-3.622-25.195.04-51.194.829-75.903 3.129-30.48 2.98-49.006 3.256-76.051 6.375-24.128 1.51-52.05 4.066-75.216 4.974-26.03 1.273-49.714 1.243-75.142.829-14.49-.336-25.819-3.198-45.424-.504-43.975-1.263-75.195-.148-113.558-1.233-37.772.562-71.612-2.211-113.939.829-10.727 1.095-20.82 1.707-32.403.079-37.603 1.273-78.715.888-117.268.02-41.07-2.181-76.326-1.402-117.047-2.793M1985.73 501.356c-34.73 4.153-70.03 4.627-105.29 5.408-15.98 2.156-24.23 3.293-35.1.89-19.49 1.721-32.9 1.385-47.8.564-14.62-.257-33.49-.722-48.5-3.312-25.98-5.369-53.32-6.842-82.31-8.108-24.77-3.045-52.46-5.072-82.3-4.024-14.11-.9-23.6-3.164-40.87-.564-33.52-.85-70.07 1.404-107.16 1.661-37.09-.237-66.64.416-107.03 4.282-36.36-.287-63.71 1.067-106.75 4.33-30.07.257-74.08 5.033-107.31 2.413-36.6.356-72.38 1.315-106.75-1.523-35.132-1.76-71.405-4.865-106.769-8.029-10.97-2.303-24.319-.642-37.372-2.521-29.424-1.621-57.157-.662-85.598-1.78-32.014 1.009-58.13 2.759-85.705 1.197-29.582 3.312-64.312 3.994-86.349 3.223-26.285.761-59.45 2.096-85.281 3.194-19.014.84-29.974-.663-43.682.099-13.507-.109-26.285-1.276-43.734.217-17.228 1.424-32.786 1.157-43.735.297-10.59-.643-29.953.385-43.756.336-11.7-1.107-26.433 1.582-39.211-.129-20.694-1.344-46.948.465-68.223.06-18.538.366-44.675-.396-68.582.613-23.823.939-46.515 1.661-68.393.464-24.287 2.542-47.73.465-68.582.149-9.914-.673-17.016.138-26.835 0-25.63-.831-54.303-.94-80.557.118M1988.61 478.574c-43.69.893-86.53 1.368-129.06 2.233-13.59-1.591-27.78.325-43.22.186-14.39-2.223-23.02.316-38.04-1.47-15.24-.511-24.97-.26-38.05-1.349-10.59-.241-21.22.186-29.42-.66-7.83-1.804-19.54-1.191-29.37-.53-29.54-1.014-57.79-1.377-90.52-2.911-32.87 1.255-57.97.939-89.9-2.019-34.32-1.581-62.01-2.381-90.99-1.172-33.59-.307-55.16-2.009-89.9.344-36.49.503-64.93 2.986-91.1 2.093-27.69-1.032-61.58 2.763-90.37 2.837-37.94 2.344-73.59.381-121.38 1.684-39.624-1.851-80.7-.875-120.328-2.149-15.961.791-26.964-1.749-46.984-.056-24.206 1.237-45.674-1.665-74.636.874-23.867-.53-50.536.512-73.294.679-22.926.056-53.294.01-73.547.233-25.759 2.66-45.568-1.842-74.393-.716-14.016-.177-26.689-2.298-42.45-.772-16.669.725-24.839-2.8-39.786-.614-8.297-1.051-28.888-.958-39.796-.521-10.602-.874-25.464-.27-40.22-.586-26.32-.707-44.976-.549-66.433-1.181-22.029-.242-47.038-1.888-66.064-.614-20.527-1.358-43.338-.53-66.074-.316-20.866.706-43.771 1.134-66.254.474-19.967.874-43.877 2.549-66.159.856-23.37.418-42.63.921-66.18 1.386-13.572 1.646-21.774 2.669-33.655.651-10.58.79-21.901.781-33.402.725M1988.61 454.511c-34.63-.596-68.85.353-101.37-1.07-33.36-.869-66.73-2.686-101.36-1.727-13.78-.938-26.49-.999-40.55-.484-27.53-1.464-56.96-.545-83.68-2.574-29.2.848-54.43-2.615-83.59-1.625-29.01 1.645-48.32-3.665-83.68-.576-38.19 3.533-58.56 3.523-83.39.172-27.46.323-57.16-1.676-83.66.969-27.75-1.232-56.08-.101-83.54 2.423-31.27 1.776-59.69 1.09-83.35 2.876-27.49 1.949-53.84 4.462-84.31 4.311-36.35 1.05-66.89.979-98.269.252-31.233-.525-60.132-5.764-98.265-7.318-16.673-1.383-31.529.111-43.036 1.201-10.523-1.04-24.576 1.201-35.534 1.12-14.623 1.858-26.256 3.342-36.104 1.04-9.087-1.383-18.734-.262-36.115.787-11.031 3.927-22.115.667-36.126.465-12.859-.323-28.655.918-36.146.06-11.94.889-22.031-1.393-36.168-.413-14.222-.162-22.675-1.929-36.316-1.182-10.64.869-28.529-1.1-36.39-1.776-13.07-.555-29.659.494-41.377-1.555-9.097-.464-17.983-2.675-30.8-1.019-12.236-1.928-22.971-.394-30.811-.687-25.708.697-53.38-.696-80.673-1.161-29.511-1.615-54.901-1.625-79.425-1.463-29.385 1.241-51.426-2.696-79.933-1.222-31.656-.898-53.285 1.464-80.155-.091-27.979-.757-51.732.869-79.901 1.918-29.744 1.716-49.154 1.747-79.721 4.745-14.16.454-24.208 2.382-34.351 1.221M1988.61 429.482c-40.31-1.436-76.6-2.318-116.5-3.69-12.12 1.829-24.92.978-29.13-.734-32.18.894-62.36 1.33-85.74.5-28 1.425-54.85-2.339-85.72.011-27.88-1.064-60.74 2.233-85.86-.075-27.62-3.998-61.41 3.637-85.49-.531-32.69-.479-58.27.659-85.45-.149-32.8 4.296-58.88 1.031-85.82.138-30.67 1.563-59.9-.468-85.89.968-26.3-1.01-54.25-.83-85.32 1.308-18.54-.798-46.34 2.052-68.58-.149-28.57.819-49.42-.798-68.29-1.042-21.334-.606-42.936-2.297-68.037-1.489-22.596-1.138-41.705-3.775-68.824-.51-28.229 1.935-58.223 7.358-95.193 9.601-14.363-.499-31.389 2.265-39.813 2.042-16.984.702-22.818-.744-39.981.319-9.111-.808-25.091-.085-39.232-.287-29.497-1.755-54.302-.479-81.707-3.658-26.453-2.945-53.14-4.71-81.792-5.721-7.567-.627-21.137-3.519-32.837-2.456-33.069-.138-63.782.883-89.581-1.074-34.422-.191-56.796-.478-90.046-.999-30.48-1.213-61.975.712-90.046-.372-22.11-1.138-45.815.319-66.879.404-25.376-.394-46.186.808-68.306 1.244-24.203.51-44.558.691-68.074 2.35-20.482-1.074-45.942.319-67.08 3.434M1987.17 404.456c-31.96 2.667-54-2.231-79.89-2.089-10.69 1.156-19.64-1.055-26.56-.548-34.42 4.168-62.53 1.532-99.7 2.576-34.69-.355-65.98.426-99.57.051-28.14-2.657-67.16-.274-99.29-1.815-32.81-2.221-65.38-1.025-99.69-2.464-34.61-.741-65.93-.183-99.09-2.698-30.01-4.299-66.03-2.738-99.96-2.139-31.38-.345-66.26-2.465-99.52-.518-33.12-.537-73.01 2.373-100.02 1.471-33.19 3.133-64.7 1.49-100.119 4.664-36.012 3.894-64.532 4.269-100.291 8.437-34.85 1.866-72.986 5.446-108.322 4.442-15.523.649-28.552-2.049-45.955.02-37.936-.73-74.794-2.606-114.853-2.687-33.096-3.904-75.163-2.211-114.715-4.695-14.91-.01-29.777.213-44.001-.791-31.944 1.501-53.067-.01-86.48-.436-33.56.963-60.104-1.663-87.156-.71-23.268-.406-56.882-.254-86.903-.304-43.398-.68-88.17 1.713-130.27.101-45.205.913-87.98-.111-129.983.984M1985.73 380.439c-24.33-.631-45.95 2.363-68.17.251-11.14.981-23.25.831-33.78.14-42.5-1.162-89.21 2.893-128.46 1.512-41.84.66-89.87-.291-128.6-.421-29.85-1.422-57.6-.461-85.77-1.081-27.17 1.852-55.63-2.854-85.54-1.502-30.57 2.633-58.77-2.163-85.97-1.882-26.6-1.452-64.35 3.734-85.9-1.652-21.22-3.765-64.35 2.723-85.42-2.263-21.82 1.982-47.98.721-74.26-.541-24.59.03-45.73.24-74.71 1.542-26.72 2.773-48.5-.09-75.024 2.984-25.208 1.521-49.434 1.141-73.945 4.025-34.21 1.201-67.975.26-98.392 1.421-12.435-3.094-27.512 1.712-38.932-.64-12.52-.401-32.668-.661-42.641.14-35.097-1.292-72.202.29-106.527.61-39.154 3.415-69.455 2.594-106.338 1.833-14.738.57-25.06 1.562-37.78 1.141-30.723-1.812-63.401 4.366-89.106.831-30.469-1.882-58.372 1.222-89.486 0-35.023-.901-59.787.981-89.074-1.011-18.753-.15-43.834-1.282-66.76-1.071-33.132-.611-66.064-1.342-100.125-1.733-33.491-1.962-67.543-2.332-100.189-1.391M1985.73 357.255c-13.59 1.304-24.23.772-31.75.01-15.08-1.032-22.04-.866-31.63 0-29.01.459-53.89-.532-80.3.741-25.32-1.273-55.1-2.41-80.52-.511-28.01-1.408-55.62-1.742-80.49-1.096-31.41 1.91-50.5-4.423-80.17-1.7-32.99-4.423-70.05-2.452-107.03-2.608-35.65-.48-64.64-2.389-107.04-2.587-40.32 3.881-75.42-3.526-106.86-1.878-34.66.083-75.24.991-107.52-.626-38.65 3.328-71.3.49-106.21.928-34.65-1.283-68.772 1.075-106.337 2.901-33.813 4.433-71.336 4.131-107.306 6.676-9.681.459-22.207 2.337-33.368-.021-35.494.835-69.064-.855-104.082-2.034-12.916.657-20.23-1.408-32.565.084-22.842-.407-49.118-.126-81.441.636-26.34 1.429-52.152 1.262-81.504 1.617-13.107-2.525-21.742.845-39.151 1.252-28.274.511-64.318 3.338-91.63 3.547-30.536.574-57.215 1.784-90.573 1.304-31.805.219-59.868-.584-91.218-.428-26.403-.24-47.913-1.283-68.144-1.158-20.484.073-45.81-3.328-68.725-1.471-23.454-.49-43.96-2.681-68.408-1.679-23.327 1.053-43.981-1.92-68.366-1.617M1987.17 335.54c-6.64-.795-18 .362-27.02.171-31.12.191-66.21 2.805-93.75.925-30.88-1.217-61.14-.865-93.53-1.117-9.65-2.383-29.69-1.618-46.72-1.116-34.13-5.701-62.29-7.38-101.02-4.474-27.28-2.514-65.34-3.037-101.03-3.158-28.9-1.096-74.04-3.137-101.35-1.86-36.24 2.172-66.59-2.373-100.7-.774-35.62-1.317-65.25 3.087-101.38.251-40.7 4.736-66.8-.653-100.61 1.589-34.32 1.076-66.54 2.946-100.84 2.484-34.245-.171-70.222 1.397-101.021 3.298-16.319-.925-25.281.482-43.217.362-16.161.301-31.697-1.458-46.494-1.639-20.927-2.896-46.103-3.087-70.529-3.992-25.366-.955-44.38-5.571-70.507-5.51-11.552-3.319-28.632 3.077-39.402.432-25.63.935-56.017 2.524-82.091 2.956-23.823 1.77-58.257 3.459-82.123 4.515-9.406-3.298-22.808.613-32.902 1.941-26.56 1.035-60.603 5.58-86.022 4.414-28.21.473-58.828.382-86.509 2.785-33.188 1.549-60.065.835-86.234.664-42.404.322-86.848-2.343-129.357-1.488-45.976-1.348-89.362-3.077-129.42-3.198M1990.05 314.032c-12.84 2.277-27.43 2.339-35.62 1.267-11.55.928-26.39-1.154-35.18.701-33.99-.659-63.52-.474-92.49-4.224-12.94-4.204-29.34-1.773-46.2-1.732-26.23-1.401-55.76-2.751-90.6-2.081-27.56 1.618-55.45-1.813-90.55-1.648-30.09-.33-58.46 2.163-90.5-1.237-34.24-1.164-56.09 1.288-90.59-.494-26.15-1.391-62.06-.526-90.73-.237-26.4-1.732-63.22.422-90.44.999-33.98 3.04-55.6.216-90.89 1.329-30.03 3.163-57.64.268-90.52 2.422-36.12 3.822-68.98 2.514-98.826 1.937-32.85-.567-64.959 1.535-98.623-1.896-9.346-.309-18.988-2.679-32.437-1.432-32.891-4.658-63.182-2.587-97.226-6.255-17.583-.412-20.786-1.133-36.941-1.597-9.759-1.844-28.251.907-39.098-1.061-16.134 1.236-28.557-2.123-44.427-.165-22.699-.618-41.836-.587-66.83.948-26.21-1.443-47.894 1.731-66.883 2.638-11.566-1.402-30.819 1.112-44.796 1.865-14.316.886-28.092-2.02-46.605 2.442-22.742 2.473-47.63 1.494-69.463 2.308-16.218-1.041-45.304 3.534-69.864 2.256-25.248 2.762-40.377-2.72-69.748 1.134-24.212 2.153-49.84.649-69.769-.083-15.902.206-26.39-.835-46.552-.505-28.113-1.411-61.745-.412-93.262-2.133-10.72.464-18.671.938-32.437-.031M1995.8 291.998c-11.62-.641-25.43 1.223-34.97 1.105-23.27.72-52.91 1.538-79.8-.425-14.57-1.518-25.26-3.185-39.84-1.706-35.62-.591-55.2-3.087-89.01-5.227-29.55-4.477-59.21-3.067-89.3-2.436-34.69-2.337-77 .306-107.84-1.006-39.64.937-70.71-.729-107.84 1.48-34.86-1.519-69.81 1.292-107.62 2.663-39.66.473-69.57 2.426-108.01 3.649-36.25 2.297-69.34.739-108.37 2.909-36.43 1.173-70.95.562-107.2.996-37.002-.838-70.138.611-107.514-1.874-36.149-1.262-76.252-1.41-107.929-4.842-14.538.927-22.669-1.43-36.276-1.43-39.458-1.983-69.708-7.249-108.712-5.454-12.359.158-32.607 1.933-41.879-.572-36.974-1.134-89.765 2.298-128.24 1.568-16.367 1.903-28.907-6.815-42.789.74-20.544-3.373-50.497 4.625-69.021-.02-21.442-.079-44.417-.651-68.333.246-19.476-.187-49.418 3.797-68.439.503-19.782 1.431-47.23 1.056-68.862.928-23.874.7-47.008 2.12-68.577 1.015-25.206-.374-43.941-.808-68.523.296-13.735.483-23.473-.848-38.75-.069-10.669-.878-19.254.089-30.112.178-9.728.779-21.083.927-30.091.286"/>
    <path d="M2000.12 266.724c-10.72 2.1-17.31-1.541-27.82-.294-9.93.447-19.46 2.222-27.79-.274-17.75.619-32.33-1.643-44.39-1.45-16.87.284-24.56-.862-44.29-1.248-45.12-1.176-92.07 1.096-132.03-1.237-45.89.426-86.36-1.471-132.02 1.035-24.58-1.278-59.02-1.217-87.99 1.764-29.17.893-55.7.812-88.05 2.394-29.88 1.958-55.84 3.215-87.94 3.225-25.54 3.013-55.55 1.583-88.06 3.662-26.6.466-58.71 3.621-87.92 3.986-25.66 2.759-48.24 1.481-75.91.963-27.09-1.054-51.18-1.44-76.29-3.499-25.186-1.389-52.073-2.028-76.372-5.619-25.049.436-49.199-5.598-75.822-6.045-28.769-.547-49.03-.628-72.684-2.099-14.099-1.319-23.685 1.562-43.196.03-12.905-1.227-24.509-2.099-36.453-.071-9.871.284-28.325.964-37.837-.182-9.819-1.167-28.04.446-42.868.811-8.973 1.319-28.769-.254-41.98.385-15.981.224-31.126-.456-42.171.183-19.246.893-34.233 2.789-42.393.183-28.367 1.166-53.532-2.059-78.232-3.256-28.082 1.258-52.729 1.065-78.01-2.657-23.897-3.155-54.209-1.218-78.148-1.481-28.653-.294-52.349-1.207-78.127-.852-27.997 1.024-54.568-.528-78.19 1.521-27.892 4.554-48.332 2.12-77.99 3.814-13.242-.578-27.542-2.1-43.702.233-17.323-1.308-28.262-.568-43.492.497M2003 239.488c-12.62.165-22.8.755-32.43-.919-17.77-1.374-44.41-3.493-63.26-1.529-12.73.117-23.93 3.609-31.52-.271-21.64-.59-52.53 1.065-72.3.194-24.07.406-48.37-1.026-71.92 1.287-23.55 1.238-44.01 1.645-71.65 1.664-23.63.232-52.02.222-72.8 2.235-34.5-.997-62.02 1.422-96.09 2.99-32.11 2.205-65.62.464-90.55 1.867-30.12-1.393-63.17 2.341-90.99 1.383-34.34-.658-57.28.136-90.98.658-30.5-.629-57.25 2.158-90.52.31-27.42-.494-57.52-2.922-90.58-.339-30.63-.28-59.638-.774-90.862-1.064-30.263-.116-57.725-4.915-90.926-1.829-28.423-3.309-55.261-2.418-90.428-2.051-17.029.445-30.009.552-41.562.281-16.088 1.248-20.337-3.058-41.573.338-16.109.707-28.603 4.499-45.959.658-16.553.948-20.105-1.345-34.871.174-12.516.204-28.107-.909-41.499-.048-11.279-1.799-21.923.6-34.47-.135-14.079-.233-29.596.213-35.082-.436-36.69-1.993-57.724-3.115-86.803-3.802-29.66-.929-61.328-1.151-86.655-2.545-31.869.455-56.91.455-86.887-1.277-30.643.6-60.462-.484-86.549-1.006-30.316-.842-56.805.513-86.898.484-24.618.909-57.407-.271-86.58.996-14.535.329-21.194-.987-37.853-.309M2003 210.277c-35.81-1.776-79.8-1.021-116.24-4.277-6.95.367-19.94 2.777-28.56.031-22.4.183-42.88.51-67.97 1.531-22.09.837-50.42 2.542-68.94 2.776-19.69-1.449-46.76 5.431-67.95 3.155-20.97.214-43.63.806-68.87 3.715-28.18 1.47-61.62-.143-91.18 2.95-33.16.909-58.99-1.245-94.58.266-33.92-2.042-52.04.459-94.75-.725-30.15 0-60.21.755-95.03-1.807-31.18-.908-65.22-.255-94.11-2.195-32.05.123-66.4.49-94.56-1.469-31.899-.521-63.139.357-94.579-.786-36.282 2.633-66.454 1.939-94.722 1.255-34.464 3.552-60.047 4.89-94.617 3.481-18.025 3.001-29.146-.96-42.361 1.541-26.587-1.01-59.074 2.808-87.66 2.991-16.978-.775-27.444 1.766-43.873.858-8.362 2.48-22.348-1.225-33.047.347-10.635 1.817-25.002 1.041-33.967-.072-31.376.807-60.639-.234-89.457-2.429-28.353-2.378-50.744 1.133-74.615-1.797-27.18-1.347-53.472 1.868-74.647-.959-31.905 1.215-48.323-2.777-75.006-.97-28.67.541-51.516 3.195-74.192-1.368-31.06 2.032-45.923-.306-74.224-1.296-23.966-.654-55.047 3.246-74.594-2.011-13.5 2.97-15.604-3.216-26.746.081M1998.68 183.062c-33.51-2.021-75.12-5.013-111.02-3.381-11.89-2.137-14.28 1.01-27.4.272-45.04-3.876-86.43 6.13-129.28 4.313-43.62-.369-82.8 4.071-129 6.859-22.29 2.225-48.24 1.175-76.63 3.643-24.19.641-60.62 3.147-76.63-.729-32.98.651-60.62-5.1-98.63-6.411-35.56-3.226-66.29-1.943-98.94-5.295-33.99-3.556-57.7-5.401-98.5-3.818-40.87.301-67.83-2.574-98.46-2.205-15.28-1.584-27.45-1.856-43.73-.126-29.652.038-57.525-1.001-87.45 1.399-13.476.534-24.956-.107-43.728 1.632-45.705 2.312-84.456 5.391-131.26 9.18-13.477 4.012-22.916 1.059-35.421 2.448-11.532 3.361-22.979.593-35.421 2.643-14.84-1.739-30.515 1.612-47.1 3.487-15.549.972-38.063 1.156-47.058 3.75-12.917 2.157-23.773.738-33.719.486-11.585 1.758-22.282.097-33.962-.321-30.527.185-57.861 1.234-86.855-.67-43.613-3.303-92.447-3.624-129.685-7.296-41.213-2.331-85.745-8.646-130.14-6.664-18.181-2.361-45.504-.165-71.349.485-27.418 1.39-44.426 2.847-71.348 3.401-21.637 1.69-38.243.408-59.637.33-9.925-2.536-20.58-.923-34.374-1.263M1992.93 158.278c-27.37-3.937-56.91-2.935-84.11-4.278-11.12.486-20.13 1.777-27.91.227-31.48.455-51.9-.899-85.59 4.784-33.59 1.023-61.87 5.57-85.58 4.557-17.63 2.821-28.38 3.493-42.79 1.488-36.9 2.087-75.1 1.478-100.82.072-35.3-1.074-66.76-4.277-100.79-1.353-30.39-.021-70.16.32-100.82-2.325-35.99-1.529-72.4-.744-100.75-2.428-33.59-1.137-71.1-1.922-100.83-2.098-33.07-.062-70.89.186-100.83-1.643-32.38-.785-67.164-.258-100.891-.434-35.038.341-70.541 2.542-101.046 2.17-12.954-2.407-32.46 1.24-47.675 1.777-13.705-.899-34.235 1.354-47.792 2.563-16.367-.238-30.885.682-44.199 1.26-30.462-.217-57.111-.537-88.778 3.824-11.929-.817-16.705-2.925-33.316.506-17.286.403-36.908.816-50.158.269-15.997-1.075-30.6-.424-50.56-.383-27.715 2.087-58.178.827-84.414.383-27.282-1.189-59.098-.248-83.495-2.511-28.92-.414-55.347-3.007-84.193-3.379-29.078.765-57.269-3.327-83.801-4.009-36.201.392-65.395-.662-93.491.124-36.274 2.139-64.793 3.038-93.375 3.957-10.45-1.157-29.448 1.529-42.973 1.643M1988.61 135.949c-38.96-3.599-69.93-4.313-105.61-2.712-10.5 1.07-21.43.234-35.05.979-21.54 2.426-43.1 1.162-67.63.917-23.89 2.162-44.58.999-67.26.714-28.42 4.251-44.68 1.723-67.84.122-17.31-.611-44.3 1.917-67.06-.387-30.92 1.896-42.22.204-67.64-.479-20.83-.306-46.46-1.999-67.26-.857-36.49-1.101-66.31.551-100.88-1.223-32.12-1.601-65.58 2.691-101.51-.979-31.71-.092-66.69-.867-100.94-.183-32.71-.215-67.02-2.396-101.49.214-32.61.907-65.498-.632-101.673 1.916-32.401-.774-68.407 1.836-100.829 3.13-14.081 1.254-33.257.347-47.718 1.56-13.563-.02-22.803 1.264-40.605.49-41.206-3.926-80.595 1.305-121.908 1.213-11.892.102-23.922 1.713-34.155-.724-20.424 1.611-33.353.183-51.25-1.856-15.867-2.202-37.242-3.354-51.355-2.926-31.777.999-61.673-2.926-92.456-2.436-29.811-2.264-63.756-2.019-92.404-3.64-32.781-.714-60.806-1.682-91.97-3.375-32.083.683-61.841.816-92.551-1.427-47.169 2.6-95.141 5.454-128.821 9.176-3.616-2.855-16.851-.418-27.158 3.221-13.796.938-14.525-1.967-27.316 1.071M1984.29 115.328c-22.5-.33-43.06-2.311-57.12-2.721-8.24.53-20.29-.62-28.55-.71-33.74 3.551-62.01.3-90.84 1.18-28.64 2.001-56.08-.97-90.87 1.451-24.43 3.55-51.34-.331-70.21-.131-22.73-2.05-46.82-2.78-69.49-.24-15.9-3.59-47.4 1.481-69.58-.92-24.54-2.25-46.87-1.12-70.16-.38-28.28-3.15-64.41.06-93.21-.71-30.35-1.49-57.19.74-93.03-.03-34.64 1.51-60.23-.19-93.54.86-31.81.95-61.51-.1-93.5 2.571-27.84-1.651-63.17 3.27-93.372 3.97-30.827 2.36-67.329 3.211-100.903 1.79-34.843-1.68-68.534-3.07-100.777-2.44-12.555-.25-17.944.41-31.64.25-10.79-2.34-19.879-3.62-39.134-.51-21.749-2.45-50.779-2.52-78.837-2.68-25.173 2.1-53.326-2.601-79.334-4.041-8.92-1.03-26.251-2.01-39.535-2.65-21.453 1.13-30.225-1.14-48.666-2.041-25.733.17-52.132 1.231-77.654-.5-25.204-.72-47.978-3.85-78.287-3.09-27.519-.23-53.221-2.64-78.077-2.59-32.856-.88-54.721-1.51-77.812-.49-38.605.8-74.832.85-118.256 3.59-8.983-.07-14.964.49-25.268 1.51-10.167 2.461-13.675 3.051-21.58 3.051 2.864-.17-9.892.8-21.516 3.47M1979.97 93.435c-11.35-1.79-23.58-.633-36.2-1.96-12.47-1.67-24.91-1.036-36.58-1.79-27.9.503-56.6-2.875-87.64-.15-28.39-3.55-61.06.834-88.15.874-27.18-2.514-57.33 1.307-87.67.855-27.71 5.369-52.8 1.146-87.75.643-29.3 2.051-60.73-.2-88.09-.372-32.54-2.202-63.92-1.377-87.83-2.101-31.06.442-55.86-2.071-79.88-1.599-26.02-1.538-52.58-1.226-79.69.845-27.84-.322-52.47 2.091-80.13 2.775-26.05.482-56.98 5.46-79.45 4.011-31.47.493-64.461 3.097-87.985 2.423-24.866-.814-57.605-.281-87.407-.563-30.16-.13-54.551-2.302-87.543-2.362-30.013.311-60.099.945-87.671-2.685-13.579 1.639-27.423-1.629-39.354-.855-34.715-1.769-70.424-2.372-98.408-2.563-33.33-2.303-61.029-3.901-98.47-2.604-7.186 1.518-23.63-2.021-24.454-.443.93-.07-15.556.252-16.761-.02-32.158 1.98-63.407.402-94.064-.03-34.197-.744-62.339-1.076-94.286-1.599-29.832-1.417-67.126-1.458-94.032-.573-30.361-.774-67.433-.01-94.497 3.6-13.157 1.347-18.758 1.558-21.421.854-6.394 1.368-18.07 1.307-21.4.774-6.72-.15-15.566 1.458-23.503 2.182-9.172 2.152-11.149-.794-20.945 1.177-8.01 3.398-12.956 2.392-20.924 1.226M1977.09 69.772c-31.55-2.295-61.01-2.879-93.32-3.857-34.31.8-61.63-2.333-93.03-.555-21.94-2.464-51.16 3.377-73.8 3.33-20.68.254-48.66 1.703-73.04 2.55-16.09-2.4-44 .526-73.14.912-29.27 2.445-51.86-1.073-73.71-2.089-47.4-1.608-86.69-2.248-130.74-4.082-42.31-.291-84.25.555-130.74.32-27.12.188-58.65 2.756-87.16 1.533-27.31.94-59.11 1.693-87.51 1.985-27.09.33-61.322 2.257-86.804 1.185-24.182 1.289-44.445-.63-67.339-.056-33.405.592-67.91-2.004-100.914-1.844-31.366-3.988-64.75-1.919-100.66-1.815-16.438-2.324-27.795 3.254-46.41.065-34.504-2.652-73.097-.8-115.968.31-44.139 1.139-76.879 1.863-115.694.593-9.381.386-15.879 1.223-18.382-.696-14.611 2.785-28.863-2.887-44.224-1.787-9.149.17-10.079-1.185-22.091-.677-30.764-1.176-65.458-2.022-99.36-1.656-29.814-1.044-57.937-3.085-99.234 1.007-2.419-.085-12.752.8-16.661.508-6.634-1.468-18.72-2.587-32.856.752-8.41 1.28-18.14-1.533-24.7.781-10.966-.48-24.9-2.21-37.018 1.26-3.434-2.784-22.281.584-36.956 1.364-10.892.15-17.167.875-24.647 1.223-5.588-.291-22.82 2.07-24.636 1.204M1975.66 47.634c-43.67-.468-84.53-3.34-126.46-3.435-37.8.617-78.03 1.52-114.07 1.34-40.48 2.86-77.24.85-113.35.308-41.64.957-80.97 1.68-113.91-.521-32.49-.819-78.41-.734-113.37-.734-38.9.957-75.25.255-113.54-.819-38.96.521-73.7-2-113.69-1.106-38 1.138-74.54-1.053-113.36-.361-37.13-1.798-78.38-1.67-113.936-.043-39.655.309-70.046.415-113.42.85-37.817 1-76.521-.031-114.032 2.49-14.778 1.286-20.556 3.339-28.194.212-9.686-1.552-21.549-.67-28.32-.106-13.965-.447-27.676-1.372-42.687.606-31.511-2.776-70.881.128-106.817 1.66-33.085-3.521-73.459 1.36-107.061 1.53-8.113-.914-14.863-1.85-20.852-.733-5.937-.947-11.736-.596-20.916-.628-27.042-1.648-50.451-3.86-76.088-1.648-23.134-.447-44.377.361-76.078-.67-9.782-.649-18.803 2.063-21.887.16-24.666-1.904-47.768.372-76.163 1.648-23.007-.649-49.68 1.063-76.31 2.765-3.58.425-15.887-.947-18.148.51-8.937 1.734-28.606 1.191-36.37-.17-10.553-2.286-27.38.139-36.042-1.893M1975.65 24.893c-13-2.462-29.9-2.362-49.42-.42-34.19 1.06-66.87-1.391-102.48-.67-34.07-1.642-69.88-.27-102.19-1.091-31.13-2.072-67.03.84-102.29-1.091-35.13-.53-67.92-2.252-102.47-.46-33.88-2.403-68.47-1.322-102.33-.591-36.36.02-67.71-1.201-102.46-.61-36.71-1.032-69.94-.761-102.69-.461-33.31-.25-70.96-.72-102.1-.25-33.37-1.552-68.67-.821-102.27-.37-33.328-2.162-68.295.55-102.458.29-41.998-.751-73.327-2.342-113.697.28-12.636.18-28.729-2.953-49.188-.1-17.235.39-32.768.03-49.368.26-13.661-.03-26.624.2-36.659-.16-12.455.62-18.514.97-36.552.04-14.243.13-29.215-.36-43.532.53-27.406.65-57.192 1.041-87.76 2.002-27.862 1.771-56.495 3.513-87.75 2.112-9.495-1.492-25.44 1.02-34.755.3-35.76.55-67.703-1.281-102.226-.26-19.159-.791-30.811-.831-46.565.21-13.154.09-32.757-1.351-43.246.3-30.96 1.04-62.405 1.962-89.696.72-10.541-.7-31.572-1.51-46.798.36-35.559-.68-66.497.01-98.43-2.982M1975.65 3c-32.73-1.577-62.74-1.868-93.83-2.943-31.11.713-62.85-.342-94.41-1.407-30.66.231-65.07.292-94.65-.392-30.87.03-62.11 2.401-93.67.03-33.6 1.327-62.05 1.136-94.42.694-31.84.281-59.44-.221-94.02.422-29.05-.613-65.77-.543-93.62.512-31.73.17-63.15.442-94.99-.412-31.11-.894-58.96-1.256-94.21-1.095-34.78 1.075-62.4-3.395-94.61-2.34-28.92-2.562-60.334-2.894-92.087-1.015-28.52-.352-61.699.964-92.259 1.205-32.704 1.728-60.209-1.195-91.941.673-26.977-1.386-60.421-.612-92.185-2.37-9.426-.01-20.014-2.472-29.228-.583-27.632-.14-63.929.462-87.577-1.979-15.248.261-30.655.392-46.463.16-23.479.563-46.726 1.628-70.121.684-24.906.301-49.326 1.929-70.111.934-12.437.563-25.064 1.497-40.08.814-43.049.934-79.832 2.039-120.419 2.863-18.45 2.722-28.34.824-42.616.844-17.118.592-30.031.1-45.321.592-33.687 3.526-60.378-.572-87.64-.14C.116-1.32-32.197-3.61-62.29-3.39"/>
  </g>
  <defs>
    <clipPath id="clip0">
      <path fill="#fff" d="M0 0h1920v916H0z"/>
    </clipPath>
  </defs>
</svg>