<svg width="1920" height="916" viewBox="0 0 1920 916" fill="none" xmlns="http://www.w3.org/2000/svg">
<g clip-path="url(#clip0)">
<g opacity="0.2">
<path d="M1984.29 901.483C1949.36 895.091 1906.37 898.111 1867.85 897.545C1857.6 896.284 1842.07 897.554 1829.21 897.945C1805.42 897.779 1781.14 899.617 1759.19 900.467C1743.9 901.024 1731.01 900.477 1724.12 902.304C1686.64 903.888 1649.83 905.051 1615.24 904.298C1577.16 903.546 1546.42 904.308 1506.32 905.598C1472.18 905.344 1431.56 907.299 1397.33 906.624C1363.95 905.129 1326.38 904.738 1288.4 906.527C1255.58 907.397 1217.07 904.464 1179.4 906.136C1141.29 907.465 1102.62 906.194 1070.39 905.842C1034.16 905.999 995.255 905.764 961.818 905.295C928.085 906.048 885.159 904.826 852.356 904.347C816.077 905.119 784.373 903.145 743.01 903.878C703.085 904.112 671.012 902.275 634.32 902.793C602.236 904.269 568.673 900.721 525.313 902.236C499.918 902.197 475.549 900.144 443.591 902.275C416.939 901.835 390.699 899.656 361.838 901.962C333.844 900.438 308.767 901.444 280.064 902.138C248.688 904.328 224.921 902.705 198.417 902.637C166.439 902.91 128.648 903.722 95.8877 904.474C62.8103 905.432 28.6972 907.504 -6.77908 908.54C-17.0933 908.687 -26.4141 910.211 -35.2806 910.133C-48.4587 911.316 -56.839 911.707 -63.7293 912" stroke="#334D50" stroke-width="2" stroke-miterlimit="10"/>
<path d="M1978.53 875.793C1946.71 875.821 1923.58 874.618 1891.58 874.788C1872.5 874.788 1861.88 873.376 1848.3 875.935C1812.67 876.2 1770.77 882.369 1732.26 882.17C1722.6 883.25 1706.51 883.478 1693.78 884.188C1668.03 886.197 1640.9 886.463 1611.04 888.13C1587.97 888.633 1557.89 889.931 1528.1 887.884C1495.61 885.903 1463.5 883.345 1425.95 885.212C1396.13 883.203 1367.15 879.592 1322.72 883.354C1291.69 882.284 1249.3 881.886 1220.47 881.886C1192.06 878.749 1147.23 882.066 1117.5 881.412C1079.24 880.692 1051.19 883.061 1014.33 880.976C979.144 880.748 948.057 881.592 912.329 880.796C877.806 880.91 846 877.441 809.088 880.73C778.106 880.91 751.394 878.105 707.104 880.218C669.78 881.895 640.268 880.853 604.445 879.545C567.1 879.63 536.583 879.062 501.732 878.408C473.393 878.038 445.276 879.289 421.852 876.759C394.559 876.399 370.786 874.305 341.115 876.105C312.956 877.83 288.887 876.124 261.288 876.02C238.466 871.472 207.008 875.859 180.836 877.043C153.448 878.171 126.462 879.128 100.924 879.744C76.7178 879.934 53.1986 879.867 21.2232 884.463C7.87279 884.691 3.01046 887.164 -7.52823 885.866C-27.2632 886.974 -45.5288 887.277 -65.1686 888.756" stroke="#334D50" stroke-width="2" stroke-miterlimit="10"/>
<path d="M1975.65 853.464C1953.31 852.28 1929.22 855.188 1900.18 855.354C1875.96 858.221 1851.66 857.66 1824.69 858.325C1813.77 858.512 1796.98 859.467 1787.31 860.038C1751.77 863.279 1722.94 863.487 1696.07 864.712C1678.98 863.258 1670.26 865.315 1651.21 866C1615.66 863.757 1570.76 864.743 1534.95 864.525C1499.34 861.357 1459.27 863.954 1418.77 863.372C1374.12 861.046 1342.51 861.939 1303.11 862.313C1262.33 860.173 1225.54 863.964 1186.6 861.731C1151 860.412 1104.84 858.958 1070.71 861.337C1029.36 860.423 988.75 862.645 954.586 860.423C915.993 861.472 873.998 862.261 838.619 859.748C800.28 858.159 760.409 861.773 722.588 858.813C691.308 856.497 646.45 860.9 606.536 857.785C568.483 858.605 529.299 856.601 490.485 856.237C452.378 857.141 413.004 852.934 374.359 854.388C336.633 852.062 296.34 851.854 258.159 852.062C213.892 855.437 183.458 853.495 147.73 855.655C112.329 856.299 79.0624 859.789 37.321 862.095C24.862 860.381 13.7345 862.271 2.19485 863.227C-21.5079 865.637 -47.4088 865.086 -68.0471 865.72" stroke="#334D50" stroke-width="2" stroke-miterlimit="10"/>
<path d="M1975.65 833.066C1952.08 832.873 1928.14 833.144 1903.54 834.548C1879.91 836.437 1853.16 836.311 1830.89 837.26C1805.56 837.444 1781.9 840.515 1758.39 840.263C1733.73 841.076 1707.48 847.382 1686.19 843.033C1673.95 844.002 1653.37 845.551 1645.23 844.263C1606.86 844.534 1572.23 845.842 1539.41 844.147C1508.2 842.239 1474.97 840.166 1433.6 842.81C1392.83 842.461 1365.22 837.754 1327.46 840.854C1295.45 839.488 1254.25 841.261 1221.97 838.413C1185.29 838.878 1154.42 838.403 1115.94 836.263C1076.21 835.846 1045.55 834.432 1010.34 834.965C975.412 836.224 942.377 832.253 904.439 835.091C872.271 836.611 835.337 835.023 798.709 836.33C765.083 837.996 722.654 837.793 686.163 841.29C646.418 843.614 612.686 844.476 573.617 844.079C534.675 843.382 496.272 841.599 461.071 838.752C426.906 835.372 385.576 834.112 348.525 830.519C304.828 828.96 260.158 827.739 219.029 831.4C177.54 834.403 132.321 835.885 89.2998 837.551C75.1286 838.18 60.2177 840.331 48.9948 838.51C5.45586 839.643 -34.8177 840.786 -72.3647 840.776" stroke="#334D50" stroke-width="2" stroke-miterlimit="10"/>
<path d="M1978.53 811.372C1949.39 811.06 1923.66 810.899 1897.62 811.826C1871.53 813.307 1843.63 811.806 1816.75 813.619C1779.82 812.924 1740.7 816.451 1701.35 818.194C1691.5 818.748 1675.77 818.859 1662.81 820.098C1636.11 823.554 1616.96 819.111 1587.97 823C1563.48 819.544 1538.41 820.995 1513.42 821.69C1480.16 819.252 1452.14 817.579 1417.21 819.423C1385.52 820.683 1357.02 817.64 1320.12 817.629C1289.9 820.854 1257.76 817.902 1223.54 816.602C1190.57 815.09 1157.89 815.483 1126.97 816.027C1095.35 815.876 1061.45 815.191 1030.07 816.299C1002.55 816.612 967.816 815.604 933.857 816.461C899.592 816.884 874.395 817.055 836.928 817.206C805.77 818.274 769.803 818.536 740.706 818.496C703.133 817.69 679.849 818.758 644.326 819.947C615.102 822.426 580.605 820.713 547.396 821.69C520.498 821.579 485.303 817.025 455.434 820.541C433.302 818.153 401.933 820.814 385.836 817.69C365.015 815.977 337.8 815.937 317.412 814.042C294.709 814.042 270.009 811.876 248.363 811.594C227.489 810.919 200.95 810.626 179.146 811.775C166.516 811.987 154.9 812.42 137.208 812.309C101.146 811.543 68.9943 811.906 30.9453 814.617C-3.43612 816.007 -38.6842 817.075 -75.2429 815.725" stroke="#334D50" stroke-width="2" stroke-miterlimit="10"/>
<path d="M1979.97 788.853C1952.69 786.97 1919.09 787.387 1887.49 787.775C1857.74 787.547 1830.08 786.469 1795.08 788.021C1761.13 790.623 1737.78 789.241 1702.52 789.383C1670.07 788.153 1641.9 789.847 1610.25 790.935C1597.88 789.771 1584.39 793.944 1569.1 791.598C1539.72 793.556 1508.34 790.471 1477.75 791.2C1450.65 790.547 1422.27 790.348 1386.41 790.519C1376.03 789.525 1355.67 788.815 1340.76 790.197C1319.56 789.232 1295.74 786.866 1272.1 789.591C1246.45 788.011 1223.73 788.636 1203.74 789.724C1183.75 788.948 1170.21 792.449 1158.11 789.856C1143.27 789.222 1126.13 791.796 1112.48 790.292C1087.79 790.822 1064.9 792.941 1045.35 790.642C1021.2 791.333 1001.03 791.068 978.53 790.207C951.465 789.79 928.438 792.014 911.106 789.913C883.841 790.642 861.236 792.979 844.824 789.648C823.519 788.56 802.14 789.071 777.76 789.97C749.131 791.001 732.92 790.859 710.886 791.37C689.094 790.708 662.717 792.146 640.725 793.642C619.832 795.241 597.069 794.891 570.786 796.054C549.523 796.953 523.706 796.196 500.52 797.852C475.325 798.676 452.044 800.086 430.295 797.587C421.376 794.805 406.993 798.647 392.008 796.717C369.667 798.326 336.346 795.326 315.464 793.31C291.538 791.03 263.543 791.03 238.994 787.661C227.707 787.264 202.334 790.462 189.789 788.172C175.776 786.45 165.62 784.216 145.985 788.342C134.899 784.973 116.923 789.137 101.42 788.522C74.4082 786.942 38.699 791.03 12.3425 789.402C-17.4064 789.061 -45.2424 790.566 -76.6821 789.695" stroke="#334D50" stroke-width="2" stroke-miterlimit="10"/>
<path d="M1979.97 764.311C1971.21 763.32 1950.9 764.816 1939.69 763.854C1925.15 761.61 1914.71 763.514 1899.13 762.824C1868.85 760.765 1834.66 764.156 1810.61 760.444C1783.34 759.395 1750.89 760.551 1722.01 760.425C1704.91 760.687 1691.37 762.183 1677.72 761.299C1639.3 761.076 1602.47 761.863 1564.87 761.727C1529.88 758.724 1491.16 761.464 1451.39 762.63C1415.32 761.707 1377.34 762.455 1338.2 763.679C1304.37 762.222 1268.11 761.241 1225.09 764.467C1189.31 765.176 1150.07 768.829 1111.65 765.574C1079.13 761.775 1038.1 761.503 998.83 766.322C963.413 765.623 925.014 766.682 886.045 767.294C847.487 768.013 809.226 768.265 772.625 767.712C736.383 764.593 698.893 768.304 659.723 768.071C624.486 765.04 585.918 766.798 546.483 768.159C505.092 770.753 477.256 766.381 433.433 767.877C396.61 768.625 356.203 767.877 320.394 767.168C309.251 766.808 294.228 765.234 279.754 766.546C265.397 766.41 251.632 766.351 239.209 765.341C231.544 764.185 210.136 767.527 197.787 765.399C183.906 762.494 165.816 765.321 156.714 765.768C149.355 765.02 131.678 766.672 127.714 765.613C113.938 768.382 106.855 766.274 98.9359 765.36C84.1981 763.582 74.0593 762.29 55.7163 764.943C10.5197 763.563 -32.9854 766.313 -75.2429 763.514" stroke="#334D50" stroke-width="2" stroke-miterlimit="10"/>
<path d="M1977.09 740.433C1942.51 737.108 1904.54 737.28 1865.8 738.186C1823.78 739.808 1792.4 739.536 1754.52 736.816C1742.84 737.008 1730.07 736.282 1717.49 736.584C1675.23 737.803 1639.07 737.672 1597.25 736C1557.16 736.071 1514.65 738.237 1477.08 736.383C1435.5 738.76 1397.4 736.282 1357.43 737.108C1318.36 736.071 1271.6 740.262 1236.89 739.103C1197.1 739.577 1157.56 739.476 1117.15 740.685C1078.01 743.072 1039.09 744.06 996.891 742.861C952.381 742.438 916.405 744.07 877.091 744.563C841.221 743.556 796.467 748.845 757.037 745.793C716.266 742.599 676.635 746.266 637.765 746.125C598.324 749.873 557.669 747.012 517.289 746.014C478.313 744.624 441.999 742.156 397.446 744.523C353.823 742.246 327.543 740.967 277.614 741.662C264.39 740.544 248.747 739.335 229.851 740.997C210.12 740.453 200.001 740.443 182.076 740.211C171.45 740.03 162.05 737.783 150.294 740.554C140.967 740.171 132.686 738.71 118.521 740.896C105.751 740.644 92.7805 741.793 80.2006 740.594C54.1428 740.322 32.1833 739.99 3.89685 739.637C-27.7591 738.841 -49.9298 739.445 -72.3646 738.257" stroke="#334D50" stroke-width="2" stroke-miterlimit="10"/>
<path d="M1975.65 718.725C1947.57 717.64 1909.47 718.521 1870.91 715.827C1833.65 713.625 1797.9 716.903 1766.15 713.461C1752.34 711.946 1738.36 712.294 1724.68 712.867C1695.4 713.287 1671.07 711.976 1639.03 712.253C1612.7 711.608 1583.07 709.795 1553.36 712.243C1527.89 710.573 1494.35 712.529 1467.74 712.499C1441.41 714.363 1410.13 712.888 1381.99 713.584C1357.06 710.85 1326.08 714.055 1296.38 714.68C1270.65 714.445 1234.69 714.26 1210.58 715.889C1185.47 714.393 1152.91 713.42 1124.67 717.384C1094.74 719.002 1073.43 712.97 1039.13 718.172C1019.43 719.555 1007.44 720.774 990.131 718.695C957.706 717.281 926.856 719.166 895.203 718.664C862.06 718.981 833.63 717.199 799.769 719.207C769.331 719.883 737.128 719.903 704.619 718.981C673.125 716.8 638.46 718.797 608.815 717.496C592.063 719.504 579.804 719.965 570.535 717.578C545.826 715.786 525.692 717.2 494.092 718.971C457.187 719.197 412.207 721.624 379.581 721.655C336.778 724.42 301.564 722.259 265.007 721.05C248.467 718.326 237.993 721.45 222.785 720.354C189.906 720.774 172.447 719.586 138.109 716.902C122.267 717.63 113.4 715.1 101.912 715.991C86.4923 715.295 70.4597 716.165 57.9253 714.66C15.6297 711.055 -30.1219 712.816 -72.3647 713.564" stroke="#334D50" stroke-width="2" stroke-miterlimit="10"/>
<path d="M1975.65 697.495C1946.75 698.574 1922.26 697.703 1894.6 696.935C1869.8 696.873 1840.89 695.67 1813.49 695.472C1801.93 696.562 1795.26 692.299 1781.18 694.736C1742 695.587 1713.34 694.767 1674.19 694.601C1639.82 693.118 1601.06 693.056 1567.24 694.383C1530.78 693.948 1498.09 693.408 1460.36 694.124C1426.59 692.983 1391.62 693.803 1353.45 693.823C1319.26 696.862 1281.42 693.263 1246.48 693.274C1214.66 693.357 1181.03 689.768 1139.72 693.315C1122.72 692.008 1113.82 698.636 1090.55 693.388C1057.52 697.547 1033.37 693.025 999.956 693.958C971.032 691.147 940.524 695.39 909.794 694.767C879.508 696.945 849.94 695.224 819.083 695.835C787.001 696.396 754.729 696.448 728.668 696.427C696.163 697.485 669.754 696.79 638.718 695.981C614.347 695.68 578.23 693.471 547.658 694.446C533.82 694.238 515.957 694.944 498.336 694.778C466.951 696.458 438.514 696.489 399.555 695.711C362.867 696.873 331.049 693.875 300.731 696.914C291.783 696.541 269.061 695.338 260.335 697.277C237.274 695.576 202.847 697.713 172.984 696.645C141.535 696.582 116.436 692.724 85.5896 691.759C75.8498 691.241 60.881 689.83 46.9157 690.618C8.72779 687.558 -25.5726 687.351 -69.4861 689.114" stroke="#334D50" stroke-width="2" stroke-miterlimit="10"/>
<path d="M1977.09 674.79C1952.96 675.705 1925.71 679.036 1904.32 675.183C1881.43 673.162 1855.16 675.928 1831.38 674.726C1822.97 673.97 1813.34 672.725 1802.29 674.364C1771.35 670.618 1748.35 672.981 1721.72 673.726C1692.03 675.726 1665.6 675.226 1641.16 673.077C1612.76 675.056 1587.18 672.204 1560.7 672.513C1535.06 671.161 1506.2 671.927 1480.1 671.778C1452.02 672.97 1421.7 674.247 1399.62 671.119C1372.76 671.438 1344.73 673.236 1319.09 670.587C1302.82 669.395 1286.95 667.479 1270.79 670.257C1236.47 668.554 1205.07 668.182 1174.22 669.48C1135.19 669.618 1112.67 668.746 1077.55 669.81C1045.75 671.459 1012.41 670.331 981.466 670.863C948.818 672.842 919.667 671.491 884.525 672.151C852.986 673.204 821.31 671.14 787.964 673.162C753.541 671.927 719.328 674.098 691.487 673.3C656.441 675.034 624.194 673.332 595.053 672.215C561.549 672.619 529.207 669.565 498.228 669.267C473.758 671.342 461.882 669.139 450.048 669.544C411.366 671.236 388.481 668.543 353.487 670.363C319.655 674.002 291.085 670.15 256.915 671.438C245.525 672.002 238.151 670.118 228.916 670.853C197.979 668.533 173.931 669.427 144.326 667.373C136.856 666.628 110.98 669.352 103.753 666.415C86.4464 667.65 72.3411 666.585 60.0108 666.383C16.448 666.011 -24.389 665.149 -68.047 665" stroke="#334D50" stroke-width="2" stroke-miterlimit="10"/>
<path d="M1978.53 649.526C1940.02 649.7 1902.78 651.917 1863.37 649.323C1854.65 648.655 1841.1 647.803 1834.58 649.236C1800.32 650.233 1760.06 648.539 1722.73 650.117C1684.89 648.597 1648 652.343 1610.93 650.455C1586.13 649.952 1564.04 649.149 1536.41 650.426C1512.05 651.152 1490.72 647.61 1462.1 650.213C1438.32 649.4 1414.58 650.639 1387.44 649.855C1369.11 651.026 1352.43 651.559 1337.79 649.546C1308.61 646.042 1269.41 652.168 1237.59 648.723C1204.16 648.394 1161.06 651.994 1136.09 648.365C1104.66 646.051 1067.92 649.991 1035.35 648.539C1003.65 646.487 968.173 650.058 934.305 648.916C899.422 649.836 865.036 649.149 833.09 649.584C799.486 649.729 768.207 649.052 732.478 650.01C709.293 650.813 684.671 651.075 660.662 649.216C638.925 649.633 614.599 646.719 588.244 646.516C566.084 644.106 542.582 644.183 516.142 643.661C492.271 642.819 467.321 641.067 444.051 642.383C426.594 642.035 405.491 644.938 394.342 642.373C369.731 641.638 344.855 641.773 319.758 642.519C296.171 642.664 268.4 642.18 245.152 642.896C231.921 643.099 211.653 645.906 196.077 642.364C164.438 642.044 126.596 643.728 97.6839 641.154C84.369 641.009 67.0383 640.805 56.9042 641.406C13.9054 642.344 -22.5838 643.012 -66.6076 642.451" stroke="#334D50" stroke-width="2" stroke-miterlimit="10"/>
<path d="M1979.97 622.532C1942.01 623.257 1908.61 623.551 1873.66 623.247C1860.12 626.226 1849.22 621.944 1838.21 623.365C1803.19 625.197 1771.37 624.991 1738.83 624.835C1704.98 623.561 1671.66 625.599 1639.47 626.01C1616.41 625.981 1594.34 624.933 1573.23 626.628C1546.28 628.646 1530.61 625.854 1507.2 626.98C1483 627.608 1463.89 626.54 1440.78 627.451C1424.03 629.048 1406.11 628.852 1391.24 627.715C1358.44 625.481 1321.11 627.284 1286.81 627.706C1256.56 626.598 1213.98 626.589 1182.97 627.96C1149.76 629.019 1112.85 631.606 1078.88 628.578C1045.77 629.322 1012.28 627.921 974.499 628.568C940.548 629.254 902.601 628.627 870.267 627.804C835.628 627.921 797.417 627.676 765.739 626.471C728.648 626.726 694.01 623.561 660.915 623.6C626.678 620.347 592.885 620.023 556.64 618.612C517.816 617.054 473.823 612.949 430.888 616.251C416.798 617.799 405.287 614.516 392.296 616.907C366.42 616.045 338.875 618.358 315.007 618.348C288.455 617.681 264.017 617.329 237.56 618.72C221.905 616.368 200.85 620.562 186.337 618.269C169.509 618.936 150.462 618.181 135.093 617.868C123.825 615.183 103.848 617.828 95.5818 618.122C82.0308 619.288 68.3955 618.397 55.3942 618.504C14.0756 620.111 -24.6217 617.77 -65.1688 620.337" stroke="#334D50" stroke-width="2" stroke-miterlimit="10"/>
<path d="M1979.97 593.353C1951.98 591.788 1919.87 594.014 1889.53 593.699C1881.87 594.085 1866.92 592.753 1859.47 593.953C1845.82 592.316 1829.69 594.044 1815.45 594.675C1792.27 596.891 1760.58 598.558 1732.22 600.51C1709.92 601.343 1673.78 605.369 1648.76 603.519C1627.85 601.13 1606.12 602.228 1580.78 601.77C1551.33 603.702 1532.99 602.706 1512.82 600.581C1502.84 597.704 1484.58 599.788 1467.68 600.134C1436.95 597.887 1403.86 600.825 1367.67 600.561C1331.58 600.947 1299.7 599.544 1267.5 601.008C1232.77 602.848 1199.28 604.088 1167.32 601.496C1134.75 599.971 1102.23 599.524 1067.2 601.476C1034.25 602.94 998.153 600.917 966.576 601.587C931.596 600.307 901.827 601.415 866.815 600.713C832.047 602.523 798.314 599.219 766.516 599.585C735.118 597.602 695.161 600.693 666.321 597.897C632.399 600.195 604.785 595.996 566.148 595.346C533.219 594.888 500.216 594.837 465.711 592.225C452.776 592.103 436.967 592.082 420.534 591.655C399.419 590.364 375.039 591.411 351.462 591.228C327.991 591.533 305.978 592.245 282.507 591.391C263.622 594.034 256.848 589.775 244.283 591.696C218.518 591.411 195.607 594.939 167.771 593.201C143.433 593.394 114.699 596.261 91.0694 595.366C77.5848 593.17 72.9666 595.661 60.1372 595.64C19.0915 595.539 -23.0214 598.66 -63.7289 597.206" stroke="#334D50" stroke-width="2" stroke-miterlimit="10"/>
<path d="M1978.53 567C1948.31 568.324 1904.25 568.106 1869.27 571.822C1858.3 571.321 1845.72 572.644 1833.76 572.871C1818.96 572.871 1805.89 573.41 1794.8 573.798C1779.86 575.017 1770.46 575.708 1760.79 574.601C1720.42 575.698 1680.09 576.927 1641.15 573.467C1596.73 573.221 1563.26 574.649 1521.41 573.06C1509.17 571.519 1487.31 573.297 1474.09 573.23C1436.12 572.871 1402.45 573.051 1368.91 574.705C1331.29 572.682 1303.13 574.8 1263.96 575.556C1225.69 579.338 1196.95 575.537 1159.35 576.322C1124.68 573.854 1084.42 578.563 1053.92 577.286C1018.95 577.154 984.973 576.407 949.4 577.797C915.401 576.653 878.253 578.279 843.958 577.665C809.643 577.239 771.85 577.504 738.602 577.419C699.076 579.121 670.245 575.329 634.048 575.906C601.223 574.838 563.588 575.887 528.681 573.94C495.929 574.289 460.736 572.351 424.159 571.226C407.302 571.217 387.74 572.72 376.749 570.753C359.459 571.16 348.637 570.526 329.297 571.028C319.447 569.817 302.178 571.226 295.594 570.886C268.063 570.46 239.814 570.971 211.289 572.228C184.414 572.777 156.841 573.278 126.858 576.142C112.686 577.39 99.4119 581.38 94.9309 576.993C69.5666 576.038 45.143 576.331 14.2726 577.239C-13.1842 574.923 -38.094 575.452 -66.6077 574.412" stroke="#334D50" stroke-width="2" stroke-miterlimit="10"/>
<path d="M1979.97 543C1944.51 546.783 1908.19 550.703 1873.91 549.892C1864.08 551.494 1848.64 552.916 1839.34 551.199C1827.47 548.459 1814.22 551.283 1799.35 551.673C1782.2 550.303 1770.61 553.222 1758.99 551.525C1744.4 546.678 1724.64 548.301 1707.69 549.692C1669.43 549.281 1632.07 547.11 1590.35 546.193C1577.59 545.93 1560.34 545.529 1542.28 545.698C1522.29 548.87 1505.53 548.785 1494.92 545.582C1458.29 547.373 1420.85 546.288 1389.1 547.152C1353.17 551.367 1321.81 546.615 1283.84 548.564C1250.43 548.585 1210.69 551.578 1177.73 549.628C1149.07 547.479 1105.67 547.089 1072.53 550.587C1035.57 551.357 999.582 551.399 967.11 551.114C932.968 551.799 895.698 552.337 861.07 551.841C826.643 552.99 787.672 553.011 754.915 552.337C716.536 553.801 687.096 550.577 649.573 552.537C618.696 551.536 582.029 552.621 544.073 552.695C509.033 551.683 473.274 555.593 438.118 552.853C424.169 551.704 412.567 551.494 394.159 551.557C379.82 550.967 361.138 553.011 349.799 549.354C313.882 551.704 280.596 547.373 245.25 550.545C208.107 551.747 173.67 556.847 141.06 555.719C129.362 557.268 119.377 555.972 107.816 556.109C83.1743 559.028 63.5937 553.664 41.2447 555.677C2.49569 554.708 -30.674 553.022 -69.4864 551.167" stroke="#334D50" stroke-width="2" stroke-miterlimit="10"/>
<path d="M1982.85 522.031C1960.15 523.58 1936.24 524.33 1915.9 527.153C1898.76 527.922 1870.02 530.932 1848.93 530.103C1831.33 531.919 1823.64 530.37 1807.86 530.636C1798.4 529.758 1787.49 529.64 1776.19 528.959C1764.79 528.169 1753.88 528.307 1744.33 527.123C1713.61 527.192 1685.91 523.827 1657.76 522.09C1629.49 517.738 1598.79 517.225 1571.55 516.218C1556.19 515.428 1536.33 514.294 1528.61 513.484C1520.74 511.076 1512.27 509.951 1499.96 512.27C1474.32 513.652 1447.31 512.715 1414.04 514.767C1382.5 515.389 1356.9 517.945 1328.99 518.271C1298.84 523.708 1266.69 521.843 1243.56 522.327C1215.27 523.886 1185.83 523.985 1158.17 525.524C1130.18 526.866 1097.89 526.215 1072.2 527.439C1043.53 526.501 1016.6 525.889 986.938 526.709C971.159 525.82 951.364 526.748 940.098 524.873C907.484 523.787 880.587 520.333 845.732 518.162C820.442 514.649 790.184 515.142 769.586 514.54C744.391 514.58 718.392 515.369 693.683 517.669C663.203 520.649 644.677 520.925 617.632 524.044C593.504 525.554 565.582 528.11 542.416 529.018C516.386 530.291 492.702 530.261 467.274 529.847C452.784 529.511 441.455 526.649 421.85 529.343C377.875 528.08 346.655 529.195 308.292 528.11C270.52 528.672 236.68 525.899 194.353 528.939C183.626 530.034 173.533 530.646 161.95 529.018C124.347 530.291 83.2354 529.906 44.6815 529.038C3.61231 526.857 -31.6442 527.636 -72.3647 526.245" stroke="#334D50" stroke-width="2" stroke-miterlimit="10"/>
<path d="M1985.73 501.356C1951 505.509 1915.7 505.983 1880.44 506.764C1864.46 508.92 1856.21 510.057 1845.34 507.654C1825.85 509.375 1812.44 509.039 1797.54 508.218C1782.92 507.961 1764.05 507.496 1749.04 504.906C1723.06 499.537 1695.72 498.064 1666.73 496.798C1641.96 493.753 1614.27 491.726 1584.43 492.774C1570.32 491.874 1560.83 489.61 1543.56 492.21C1510.04 491.36 1473.49 493.614 1436.4 493.871C1399.31 493.634 1369.76 494.287 1329.37 498.153C1293.01 497.866 1265.66 499.22 1222.62 502.483C1192.55 502.74 1148.54 507.516 1115.31 504.896C1078.71 505.252 1042.93 506.211 1008.56 503.373C973.428 501.613 937.155 498.508 901.791 495.344C890.821 493.041 877.472 494.702 864.419 492.823C834.995 491.202 807.262 492.161 778.821 491.043C746.807 492.052 720.691 493.802 693.116 492.24C663.534 495.552 628.804 496.234 606.767 495.463C580.482 496.224 547.317 497.559 521.486 498.657C502.472 499.497 491.512 497.994 477.804 498.756C464.297 498.647 451.519 497.48 434.07 498.973C416.842 500.397 401.284 500.13 390.335 499.27C379.745 498.627 360.382 499.655 346.579 499.606C334.879 498.499 320.146 501.188 307.368 499.477C286.674 498.133 260.42 499.942 239.145 499.537C220.607 499.903 194.47 499.141 170.563 500.15C146.74 501.089 124.048 501.811 102.17 500.614C77.8828 503.156 54.4408 501.079 33.5881 500.763C23.6743 500.09 16.5719 500.901 6.75332 500.763C-18.8766 499.932 -47.5504 499.823 -73.8039 500.881" stroke="#334D50" stroke-width="2" stroke-miterlimit="10"/>
<path d="M1988.61 478.574C1944.92 479.467 1902.08 479.942 1859.55 480.807C1845.96 479.216 1831.77 481.132 1816.33 480.993C1801.94 478.77 1793.31 481.309 1778.29 479.523C1763.05 479.012 1753.32 479.263 1740.24 478.174C1729.65 477.933 1719.02 478.36 1710.82 477.514C1702.99 475.71 1691.28 476.323 1681.45 476.984C1651.91 475.97 1623.66 475.607 1590.93 474.073C1558.06 475.328 1532.96 475.012 1501.03 472.054C1466.71 470.473 1439.02 469.673 1410.04 470.882C1376.45 470.575 1354.88 468.873 1320.14 471.226C1283.65 471.729 1255.21 474.212 1229.04 473.319C1201.35 472.287 1167.46 476.082 1138.67 476.156C1100.73 478.5 1065.08 476.537 1017.29 477.84C977.666 475.989 936.59 476.965 896.962 475.691C881.001 476.482 869.998 473.942 849.978 475.635C825.772 476.872 804.304 473.97 775.342 476.509C751.475 475.979 724.806 477.021 702.048 477.188C679.122 477.244 648.754 477.198 628.501 477.421C602.742 480.081 582.933 475.579 554.108 476.705C540.092 476.528 527.419 474.407 511.658 475.933C494.989 476.658 486.819 473.133 471.872 475.319C463.575 474.268 442.984 474.361 432.076 474.798C421.474 473.924 406.612 474.528 391.856 474.212C365.536 473.505 346.88 473.663 325.423 473.031C303.394 472.789 278.385 471.143 259.359 472.417C238.832 471.059 216.021 471.887 193.285 472.101C172.419 472.807 149.514 473.235 127.031 472.575C107.064 473.449 83.1542 475.124 60.8723 473.431C37.5017 473.849 18.2428 474.352 -5.30752 474.817C-18.8796 476.463 -27.082 477.486 -38.9629 475.468C-49.5437 476.258 -60.8644 476.249 -72.3648 476.193" stroke="#334D50" stroke-width="2" stroke-miterlimit="10"/>
<path d="M1988.61 454.511C1953.98 453.915 1919.76 454.864 1887.24 453.441C1853.88 452.572 1820.51 450.755 1785.88 451.714C1772.1 450.776 1759.39 450.715 1745.33 451.23C1717.8 449.766 1688.37 450.685 1661.65 448.656C1632.45 449.504 1607.22 446.041 1578.06 447.031C1549.05 448.676 1529.74 443.366 1494.38 446.455C1456.19 449.988 1435.82 449.978 1410.99 446.627C1383.53 446.95 1353.83 444.951 1327.33 447.596C1299.58 446.364 1271.25 447.495 1243.79 450.019C1212.52 451.795 1184.1 451.109 1160.44 452.895C1132.95 454.844 1106.6 457.357 1076.13 457.206C1039.78 458.256 1009.24 458.185 977.861 457.458C946.628 456.933 917.729 451.694 879.596 450.14C862.923 448.757 848.067 450.251 836.56 451.341C826.037 450.301 811.984 452.542 801.026 452.461C786.403 454.319 774.77 455.803 764.922 453.501C755.835 452.118 746.188 453.239 728.807 454.288C717.776 458.215 706.692 454.955 692.681 454.753C679.822 454.43 664.026 455.671 656.535 454.813C644.595 455.702 634.504 453.42 620.367 454.4C606.145 454.238 597.692 452.471 584.051 453.218C573.411 454.087 555.522 452.118 547.661 451.442C534.591 450.887 518.002 451.936 506.284 449.887C497.187 449.423 488.301 447.212 475.484 448.868C463.248 446.94 452.513 448.474 444.673 448.181C418.965 448.878 391.293 447.485 364 447.02C334.489 445.405 309.099 445.395 284.575 445.557C255.19 446.798 233.149 442.861 204.642 444.335C172.986 443.437 151.357 445.799 124.487 444.244C96.508 443.487 72.7553 445.113 44.586 446.162C14.8423 447.878 -4.56764 447.909 -35.1355 450.907C-49.2941 451.361 -59.3425 453.289 -69.486 452.128" stroke="#334D50" stroke-width="2" stroke-miterlimit="10"/>
<path d="M1988.61 429.482C1948.3 428.046 1912.01 427.164 1872.11 425.792C1859.99 427.621 1847.19 426.77 1842.98 425.058C1810.8 425.952 1780.62 426.388 1757.24 425.558C1729.24 426.983 1702.39 423.219 1671.52 425.569C1643.64 424.505 1610.78 427.802 1585.66 425.494C1558.04 421.496 1524.25 429.131 1500.17 424.963C1467.48 424.484 1441.9 425.622 1414.72 424.814C1381.92 429.11 1355.84 425.845 1328.9 424.952C1298.23 426.515 1269 424.484 1243.01 425.92C1216.71 424.91 1188.76 425.09 1157.69 427.228C1139.15 426.43 1111.35 429.28 1089.11 427.079C1060.54 427.898 1039.69 426.281 1020.82 426.037C999.486 425.431 977.884 423.74 952.783 424.548C930.187 423.41 911.078 420.773 883.959 424.038C855.73 425.973 825.736 431.396 788.766 433.639C774.403 433.14 757.377 435.904 748.953 435.681C731.969 436.383 726.135 434.937 708.972 436C699.861 435.192 683.881 435.915 669.74 435.713C640.243 433.958 615.438 435.234 588.033 432.055C561.58 429.11 534.893 427.345 506.241 426.334C498.674 425.707 485.104 422.815 473.404 423.878C440.335 423.74 409.622 424.761 383.823 422.804C349.401 422.613 327.027 422.326 293.777 421.805C263.297 420.592 231.802 422.517 203.731 421.433C181.621 420.295 157.916 421.752 136.852 421.837C111.476 421.443 90.6664 422.645 68.546 423.081C44.3435 423.591 23.988 423.772 0.472448 425.431C-20.0098 424.357 -45.47 425.75 -66.6076 428.865" stroke="#334D50" stroke-width="2" stroke-miterlimit="10"/>
<path d="M1987.17 404.456C1955.21 407.123 1933.17 402.225 1907.28 402.367C1896.59 403.523 1887.64 401.312 1880.72 401.819C1846.3 405.987 1818.19 403.351 1781.02 404.395C1746.33 404.04 1715.04 404.821 1681.45 404.446C1653.31 401.789 1614.29 404.172 1582.16 402.631C1549.35 400.41 1516.78 401.606 1482.47 400.167C1447.86 399.426 1416.54 399.984 1383.38 397.469C1353.37 393.17 1317.35 394.731 1283.42 395.33C1252.04 394.985 1217.16 392.865 1183.9 394.812C1150.78 394.275 1110.89 397.185 1083.88 396.283C1050.69 399.416 1019.18 397.773 983.761 400.947C947.749 404.841 919.229 405.216 883.47 409.384C848.62 411.25 810.484 414.83 775.148 413.826C759.625 414.475 746.596 411.777 729.193 413.846C691.257 413.116 654.399 411.24 614.34 411.159C581.244 407.255 539.177 408.948 499.625 406.464C484.715 406.454 469.848 406.677 455.624 405.673C423.68 407.174 402.557 405.663 369.144 405.237C335.584 406.2 309.04 403.574 281.988 404.527C258.72 404.121 225.106 404.273 195.085 404.223C151.687 403.543 106.915 405.936 64.8158 404.324C19.6103 405.237 -23.1647 404.213 -65.1684 405.308" stroke="#334D50" stroke-width="2" stroke-miterlimit="10"/>
<path d="M1985.73 380.439C1961.4 379.808 1939.78 382.802 1917.56 380.69C1906.42 381.671 1894.31 381.521 1883.78 380.83C1841.28 379.668 1794.57 383.723 1755.32 382.342C1713.48 383.002 1665.45 382.051 1626.72 381.921C1596.87 380.499 1569.12 381.46 1540.95 380.84C1513.78 382.692 1485.32 377.986 1455.41 379.338C1424.84 381.971 1396.64 377.175 1369.44 377.456C1342.84 376.004 1305.09 381.19 1283.54 375.804C1262.32 372.039 1219.19 378.527 1198.12 373.541C1176.3 375.523 1150.14 374.262 1123.86 373C1099.27 373.03 1078.13 373.24 1049.15 374.542C1022.43 377.315 1000.65 374.452 974.126 377.526C948.918 379.047 924.692 378.667 900.181 381.551C865.971 382.752 832.206 381.811 801.789 382.972C789.354 379.878 774.277 384.684 762.857 382.332C750.337 381.931 730.189 381.671 720.216 382.472C685.119 381.18 648.014 382.762 613.689 383.082C574.535 386.497 544.234 385.676 507.351 384.915C492.613 385.485 482.291 386.477 469.571 386.056C438.848 384.244 406.17 390.422 380.465 386.887C349.996 385.005 322.093 388.109 290.979 386.887C255.956 385.986 231.192 387.868 201.905 385.876C183.152 385.726 158.071 384.594 135.145 384.805C102.013 384.194 69.0815 383.463 35.0198 383.072C1.52862 381.11 -32.5225 380.74 -65.1685 381.681" stroke="#334D50" stroke-width="2" stroke-miterlimit="10"/>
<path d="M1985.73 357.255C1972.14 358.559 1961.5 358.027 1953.98 357.265C1938.9 356.233 1931.94 356.399 1922.35 357.265C1893.34 357.724 1868.46 356.733 1842.05 358.006C1816.73 356.733 1786.95 355.596 1761.53 357.495C1733.52 356.087 1705.91 355.753 1681.04 356.399C1649.63 358.309 1630.54 351.976 1600.87 354.699C1567.88 350.276 1530.82 352.247 1493.84 352.091C1458.19 351.611 1429.2 349.702 1386.8 349.504C1346.48 353.385 1311.38 345.978 1279.94 347.626C1245.28 347.709 1204.7 348.617 1172.42 347C1133.77 350.328 1101.12 347.49 1066.21 347.928C1031.56 346.645 997.438 349.003 959.873 350.829C926.06 355.262 888.537 354.96 852.567 357.505C842.886 357.964 830.36 359.842 819.199 357.484C783.705 358.319 750.135 356.629 715.117 355.45C702.201 356.107 694.887 354.042 682.552 355.534C659.71 355.127 633.434 355.408 601.111 356.17C574.771 357.599 548.959 357.432 519.607 357.787C506.5 355.262 497.865 358.632 480.456 359.039C452.182 359.55 416.138 362.377 388.826 362.586C358.29 363.16 331.611 364.37 298.253 363.89C266.448 364.109 238.385 363.306 207.035 363.462C180.632 363.222 159.122 362.179 138.891 362.304C118.407 362.377 93.0817 358.976 70.1663 360.833C46.7118 360.343 26.2063 358.152 1.75823 359.154C-21.5694 360.207 -42.223 357.234 -66.6076 357.537" stroke="#334D50" stroke-width="2" stroke-miterlimit="10"/>
<path d="M1987.17 335.54C1980.53 334.745 1969.17 335.902 1960.15 335.711C1929.03 335.902 1893.94 338.516 1866.4 336.636C1835.52 335.419 1805.26 335.771 1772.87 335.519C1763.22 333.136 1743.18 333.901 1726.15 334.403C1692.02 328.702 1663.86 327.023 1625.13 329.929C1597.85 327.415 1559.79 326.892 1524.1 326.771C1495.2 325.675 1450.06 323.634 1422.75 324.911C1386.51 327.083 1356.16 322.538 1322.05 324.137C1286.43 322.82 1256.8 327.224 1220.67 324.388C1179.97 329.124 1153.87 323.735 1120.06 325.977C1085.74 327.053 1053.52 328.923 1019.22 328.461C984.975 328.29 948.998 329.858 918.199 331.759C901.88 330.834 892.918 332.241 874.982 332.121C858.821 332.422 843.285 330.663 828.488 330.482C807.561 327.586 782.385 327.395 757.959 326.49C732.593 325.535 713.579 320.919 687.452 320.98C675.9 317.661 658.82 324.057 648.05 321.412C622.42 322.347 592.033 323.936 565.959 324.368C542.136 326.138 507.702 327.827 483.836 328.883C474.43 325.585 461.028 329.496 450.934 330.824C424.374 331.859 390.331 336.404 364.912 335.238C336.702 335.711 306.084 335.62 278.403 338.023C245.215 339.572 218.338 338.858 192.169 338.687C149.765 339.009 105.321 336.344 62.8121 337.199C16.8361 335.851 -26.5504 334.122 -66.6077 334.001" stroke="#334D50" stroke-width="2" stroke-miterlimit="10"/>
<path d="M1990.05 314.032C1977.21 316.309 1962.62 316.371 1954.43 315.299C1942.88 316.227 1928.04 314.145 1919.25 316C1885.26 315.341 1855.73 315.526 1826.76 311.776C1813.82 307.572 1797.42 310.003 1780.56 310.044C1754.33 308.643 1724.8 307.293 1689.96 307.963C1662.4 309.581 1634.51 306.15 1599.41 306.315C1569.32 305.985 1540.95 308.478 1508.91 305.078C1474.67 303.914 1452.82 306.366 1418.32 304.584C1392.17 303.193 1356.26 304.058 1327.59 304.347C1301.19 302.615 1264.37 304.769 1237.15 305.346C1203.17 308.386 1181.55 305.562 1146.26 306.675C1116.23 309.838 1088.62 306.943 1055.74 309.097C1019.62 312.919 986.76 311.611 956.914 311.034C924.064 310.467 891.955 312.569 858.291 309.138C848.945 308.829 839.303 306.459 825.854 307.706C792.963 303.048 762.672 305.119 728.628 301.451C711.045 301.039 707.842 300.318 691.687 299.854C681.928 298.01 663.436 300.761 652.589 298.793C636.455 300.029 624.032 296.67 608.162 298.628C585.463 298.01 566.326 298.041 541.332 299.576C515.122 298.133 493.438 301.307 474.449 302.214C462.883 300.812 443.63 303.326 429.653 304.079C415.337 304.965 401.561 302.059 383.048 306.521C360.306 308.994 335.418 308.015 313.585 308.829C297.367 307.788 268.281 312.363 243.721 311.085C218.473 313.847 203.344 308.365 173.973 312.219C149.761 314.372 124.133 312.868 104.204 312.136C88.3023 312.342 77.8141 311.301 57.652 311.631C29.5392 310.22 -4.09259 311.219 -35.6098 309.498C-46.3306 309.962 -54.2813 310.436 -68.047 309.467" stroke="#334D50" stroke-width="2" stroke-miterlimit="10"/>
<path d="M1995.8 291.998C1984.18 291.357 1970.37 293.221 1960.83 293.103C1937.56 293.823 1907.92 294.641 1881.03 292.678C1866.46 291.16 1855.77 289.493 1841.19 290.972C1805.57 290.381 1785.99 287.885 1752.18 285.745C1722.63 281.268 1692.97 282.678 1662.88 283.309C1628.19 280.972 1585.88 283.615 1555.04 282.303C1515.4 283.24 1484.33 281.574 1447.2 283.783C1412.34 282.264 1377.39 285.075 1339.58 286.446C1299.92 286.919 1270.01 288.872 1231.57 290.095C1195.32 292.392 1162.23 290.834 1123.2 293.004C1086.77 294.177 1052.25 293.566 1016 294C978.998 293.162 945.862 294.611 908.486 292.126C872.337 290.864 832.234 290.716 800.557 287.284C786.019 288.211 777.888 285.854 764.281 285.854C724.823 283.871 694.573 278.605 655.569 280.4C643.21 280.558 622.962 282.333 613.69 279.828C576.716 278.694 523.925 282.126 485.45 281.396C469.083 283.299 456.543 274.581 442.661 282.136C422.117 278.763 392.164 286.761 373.64 282.116C352.198 282.037 329.223 281.465 305.307 282.362C285.831 282.175 255.889 286.159 236.868 282.865C217.086 284.296 189.638 283.921 168.006 283.793C144.132 284.493 120.998 285.913 99.4292 284.808C74.2232 284.434 55.4877 284 30.9055 285.104C17.1712 285.587 7.4334 284.256 -7.84459 285.035C-18.5128 284.157 -27.098 285.124 -37.9565 285.213C-47.6837 285.992 -59.039 286.14 -68.0472 285.499" stroke="#334D50" stroke-width="2" stroke-miterlimit="10"/>
<path d="M2000.12 266.724C1989.4 268.824 1982.81 265.183 1972.3 266.43C1962.37 266.877 1952.84 268.652 1944.51 266.156C1926.76 266.775 1912.18 264.513 1900.12 264.706C1883.25 264.99 1875.56 263.844 1855.83 263.458C1810.71 262.282 1763.76 264.554 1723.8 262.221C1677.91 262.647 1637.44 260.75 1591.78 263.256C1567.2 261.978 1532.76 262.039 1503.79 265.02C1474.62 265.913 1448.09 265.832 1415.74 267.414C1385.86 269.372 1359.9 270.629 1327.8 270.639C1302.26 273.652 1272.25 272.222 1239.74 274.301C1213.14 274.767 1181.03 277.922 1151.82 278.287C1126.16 281.046 1103.58 279.768 1075.91 279.25C1048.82 278.196 1024.73 277.81 999.62 275.751C974.434 274.362 947.547 273.723 923.248 270.132C898.199 270.568 874.049 264.534 847.426 264.087C818.657 263.54 798.396 263.459 774.742 261.988C760.643 260.669 751.057 263.55 731.546 262.018C718.641 260.791 707.037 259.919 695.093 261.947C685.222 262.231 666.768 262.911 657.256 261.765C647.437 260.598 629.216 262.211 614.388 262.576C605.415 263.895 585.619 262.322 572.408 262.961C556.427 263.185 541.282 262.505 530.237 263.144C510.991 264.037 496.004 265.933 487.844 263.327C459.477 264.493 434.312 261.268 409.612 260.071C381.53 261.329 356.883 261.136 331.602 257.414C307.705 254.259 277.393 256.196 253.454 255.933C224.801 255.639 201.105 254.726 175.327 255.081C147.33 256.105 120.759 254.553 97.1371 256.602C69.2453 261.156 48.8046 258.722 19.1478 260.416C5.90474 259.838 -8.3952 258.316 -24.5553 260.649C-41.8781 259.341 -52.8171 260.081 -68.0471 261.146" stroke="#334D50" stroke-width="2" stroke-miterlimit="10"/>
<path d="M2003 239.488C1990.38 239.653 1980.2 240.243 1970.57 238.569C1952.8 237.195 1926.16 235.076 1907.31 237.04C1894.58 237.157 1883.38 240.649 1875.79 236.769C1854.15 236.179 1823.26 237.834 1803.49 236.963C1779.42 237.369 1755.12 235.937 1731.57 238.25C1708.02 239.488 1687.56 239.895 1659.92 239.914C1636.29 240.146 1607.9 240.136 1587.12 242.149C1552.62 241.152 1525.1 243.571 1491.03 245.139C1458.92 247.344 1425.41 245.603 1400.48 247.006C1370.36 245.613 1337.31 249.347 1309.49 248.389C1275.15 247.731 1252.21 248.525 1218.51 249.047C1188.01 248.418 1161.26 251.205 1127.99 249.357C1100.57 248.863 1070.47 246.435 1037.41 249.018C1006.78 248.738 977.772 248.244 946.548 247.954C916.285 247.838 888.823 243.039 855.622 246.125C827.199 242.816 800.361 243.707 765.194 244.074C748.165 244.519 735.185 244.626 723.632 244.355C707.544 245.603 703.295 241.297 682.059 244.693C665.95 245.4 653.456 249.192 636.1 245.351C619.547 246.299 615.995 244.006 601.229 245.525C588.713 245.729 573.122 244.616 559.73 245.477C548.451 243.678 537.807 246.077 525.26 245.342C511.181 245.109 495.664 245.555 490.178 244.906C453.488 242.913 432.454 241.791 403.375 241.104C373.715 240.175 342.047 239.953 316.72 238.559C284.851 239.014 259.81 239.014 229.833 237.282C199.19 237.882 169.371 236.798 143.284 236.276C112.968 235.434 86.4794 236.789 56.3859 236.76C31.7679 237.669 -1.02103 236.489 -30.1949 237.756C-44.7289 238.085 -51.3881 236.769 -68.0468 237.447" stroke="#334D50" stroke-width="2" stroke-miterlimit="10"/>
<path d="M2003 210.277C1967.19 208.501 1923.2 209.256 1886.76 206C1879.81 206.367 1866.82 208.777 1858.2 206.031C1835.8 206.214 1815.32 206.541 1790.23 207.562C1768.14 208.399 1739.81 210.104 1721.29 210.338C1701.6 208.889 1674.53 215.769 1653.34 213.493C1632.37 213.707 1609.71 214.299 1584.47 217.208C1556.29 218.678 1522.85 217.065 1493.29 220.158C1460.13 221.067 1434.3 218.913 1398.71 220.424C1364.79 218.382 1346.67 220.883 1303.96 219.699C1273.81 219.699 1243.75 220.454 1208.93 217.892C1177.75 216.984 1143.71 217.637 1114.82 215.697C1082.77 215.82 1048.42 216.187 1020.26 214.228C988.361 213.707 957.121 214.585 925.681 213.442C889.399 216.075 859.227 215.381 830.959 214.697C796.495 218.249 770.912 219.587 736.342 218.178C718.317 221.179 707.196 217.218 693.981 219.719C667.394 218.709 634.907 222.527 606.321 222.71C589.343 221.935 578.877 224.476 562.448 223.568C554.086 226.048 540.1 222.343 529.401 223.915C518.766 225.732 504.399 224.956 495.434 223.843C464.058 224.65 434.795 223.609 405.977 221.414C377.624 219.036 355.233 222.547 331.362 219.617C304.182 218.27 277.89 221.485 256.715 218.658C224.81 219.873 208.392 215.881 181.709 217.688C153.039 218.229 130.193 220.883 107.517 216.32C76.4572 218.352 61.5935 216.014 33.2931 215.024C9.32703 214.37 -21.7537 218.27 -41.3007 213.013C-54.8008 215.983 -56.9046 209.797 -68.0471 213.094" stroke="#334D50" stroke-width="2" stroke-miterlimit="10"/>
<path d="M1998.68 183.062C1965.17 181.041 1923.56 178.049 1887.66 179.681C1875.77 177.544 1873.38 180.691 1860.26 179.953C1815.22 176.077 1773.83 186.083 1730.98 184.266C1687.36 183.897 1648.18 188.337 1601.98 191.125C1579.69 193.35 1553.74 192.3 1525.35 194.768C1501.16 195.409 1464.73 197.915 1448.72 194.039C1415.74 194.69 1388.1 188.939 1350.09 187.628C1314.53 184.402 1283.8 185.685 1251.15 182.333C1217.16 178.777 1193.45 176.932 1152.65 178.515C1111.78 178.816 1084.82 175.941 1054.19 176.31C1038.91 174.726 1026.74 174.454 1010.46 176.184C980.808 176.222 952.935 175.183 923.01 177.583C909.534 178.117 898.054 177.476 879.282 179.215C833.577 181.527 794.826 184.606 748.022 188.395C734.545 192.407 725.106 189.454 712.601 190.843C701.069 194.204 689.622 191.436 677.18 193.486C662.34 191.747 646.665 195.098 630.08 196.973C614.531 197.945 592.017 198.129 583.022 200.723C570.105 202.88 559.249 201.461 549.303 201.209C537.718 202.967 527.021 201.306 515.341 200.888C484.814 201.073 457.48 202.122 428.486 200.218C384.873 196.915 336.039 196.594 298.801 192.922C257.588 190.591 213.056 184.276 168.661 186.258C150.48 183.897 123.157 186.093 97.3125 186.743C69.8935 188.133 52.8861 189.59 25.964 190.144C4.32687 191.834 -12.2789 190.552 -33.6729 190.474C-43.5983 187.938 -54.253 189.551 -68.047 189.211" stroke="#334D50" stroke-width="2" stroke-miterlimit="10"/>
<path d="M1992.93 158.278C1965.56 154.341 1936.02 155.343 1908.82 154C1897.7 154.486 1888.69 155.777 1880.91 154.227C1849.43 154.682 1829.01 153.328 1795.32 159.011C1761.73 160.034 1733.45 164.581 1709.74 163.568C1692.11 166.389 1681.36 167.061 1666.95 165.056C1630.05 167.143 1591.85 166.534 1566.13 165.128C1530.83 164.054 1499.37 160.851 1465.34 163.775C1434.95 163.754 1395.18 164.095 1364.52 161.45C1328.53 159.921 1292.12 160.706 1263.77 159.022C1230.18 157.885 1192.67 157.1 1162.94 156.924C1129.87 156.862 1092.05 157.11 1062.11 155.281C1029.73 154.496 994.946 155.023 961.219 154.847C926.181 155.188 890.678 157.389 860.173 157.017C847.219 154.61 827.713 158.257 812.498 158.794C798.793 157.895 778.263 160.148 764.706 161.357C748.339 161.119 733.821 162.039 720.507 162.617C690.045 162.4 663.396 162.08 631.729 166.441C619.8 165.624 615.024 163.516 598.413 166.947C581.127 167.35 561.505 167.763 548.255 167.216C532.258 166.141 517.655 166.792 497.695 166.833C469.98 168.92 439.517 167.66 413.281 167.216C385.999 166.027 354.183 166.968 329.786 164.705C300.866 164.291 274.439 161.698 245.593 161.326C216.515 162.091 188.324 157.999 161.792 157.317C125.591 157.709 96.3967 156.655 68.3009 157.441C32.0267 159.58 3.50819 160.479 -25.0737 161.398C-35.5238 160.241 -54.5221 162.927 -68.047 163.041" stroke="#334D50" stroke-width="2" stroke-miterlimit="10"/>
<path d="M1988.61 135.949C1949.65 132.35 1918.68 131.636 1883 133.237C1872.5 134.307 1861.57 133.471 1847.95 134.216C1826.41 136.642 1804.85 135.378 1780.32 135.133C1756.43 137.295 1735.74 136.132 1713.06 135.847C1684.64 140.098 1668.38 137.57 1645.22 135.969C1627.91 135.358 1600.92 137.886 1578.16 135.582C1547.24 137.478 1535.94 135.786 1510.52 135.103C1489.69 134.797 1464.06 133.104 1443.26 134.246C1406.77 133.145 1376.95 134.797 1342.38 133.023C1310.26 131.422 1276.8 135.714 1240.87 132.044C1209.16 131.952 1174.18 131.177 1139.93 131.861C1107.22 131.646 1072.91 129.465 1038.44 132.075C1005.83 132.982 972.942 131.443 936.767 133.991C904.366 133.217 868.36 135.827 835.938 137.121C821.857 138.375 802.681 137.468 788.22 138.681C774.657 138.661 765.417 139.945 747.615 139.171C706.409 135.245 667.02 140.476 625.707 140.384C613.815 140.486 601.785 142.097 591.552 139.66C571.128 141.271 558.199 139.843 540.302 137.804C524.435 135.602 503.06 134.45 488.947 134.878C457.17 135.877 427.274 131.952 396.491 132.442C366.68 130.178 332.735 130.423 304.087 128.802C271.306 128.088 243.281 127.12 212.117 125.427C180.034 126.11 150.276 126.243 119.566 124C72.397 126.6 24.4246 129.454 -9.25542 133.176C-12.8708 130.321 -26.1061 132.758 -36.4131 136.397C-50.2086 137.335 -50.9379 134.43 -63.7292 137.468" stroke="#334D50" stroke-width="2" stroke-miterlimit="10"/>
<path d="M1984.29 115.328C1961.79 114.998 1941.23 113.017 1927.17 112.607C1918.93 113.137 1906.88 111.987 1898.62 111.897C1864.88 115.448 1836.61 112.197 1807.78 113.077C1779.14 115.078 1751.7 112.107 1716.91 114.528C1692.48 118.078 1665.57 114.197 1646.7 114.397C1623.97 112.347 1599.88 111.617 1577.21 114.157C1561.31 110.567 1529.81 115.638 1507.63 113.237C1483.09 110.987 1460.76 112.117 1437.47 112.857C1409.19 109.707 1373.06 112.917 1344.26 112.147C1313.91 110.657 1287.07 112.887 1251.23 112.117C1216.59 113.627 1191 111.927 1157.69 112.977C1125.88 113.927 1096.18 112.877 1064.19 115.548C1036.35 113.897 1001.02 118.818 970.818 119.518C939.991 121.878 903.489 122.729 869.915 121.308C835.072 119.628 801.381 118.238 769.138 118.868C756.583 118.618 751.194 119.278 737.498 119.118C726.708 116.778 717.619 115.498 698.364 118.608C676.615 116.158 647.585 116.088 619.527 115.928C594.354 118.028 566.201 113.327 540.193 111.887C531.273 110.857 513.942 109.877 500.658 109.237C479.205 110.367 470.433 108.097 451.992 107.196C426.259 107.366 399.86 108.427 374.338 106.696C349.134 105.976 326.36 102.846 296.051 103.606C268.532 103.376 242.83 100.966 217.974 101.016C185.118 100.136 163.253 99.5054 140.162 100.526C101.557 101.326 65.3299 101.376 21.906 104.116C12.9231 104.046 6.94161 104.606 -3.36219 105.626C-13.5286 108.087 -17.0371 108.677 -24.942 108.677C-22.0781 108.507 -34.8336 109.477 -46.4584 112.147" stroke="#334D50" stroke-width="2" stroke-miterlimit="10"/>
<path d="M1979.97 93.4354C1968.62 91.6458 1956.39 92.802 1943.77 91.4748C1931.3 89.8058 1918.86 90.4392 1907.19 89.6852C1879.29 90.1879 1850.59 86.8097 1819.55 89.5344C1791.16 85.9852 1758.49 90.3689 1731.4 90.4091C1704.22 87.8955 1674.07 91.7161 1643.73 91.2637C1616.02 96.6326 1590.93 92.4099 1555.98 91.9072C1526.68 93.9582 1495.25 91.7061 1467.89 91.5351C1435.35 89.3333 1403.97 90.1577 1380.06 89.4338C1349 89.8762 1324.2 87.3626 1300.18 87.8352C1274.16 86.2969 1247.6 86.6086 1220.49 88.6797C1192.65 88.358 1168.02 90.771 1140.36 91.4547C1114.31 91.9373 1083.38 96.9141 1060.91 95.4663C1029.44 95.959 996.449 98.563 972.925 97.8894C948.059 97.075 915.32 97.6079 885.518 97.3264C855.358 97.1957 830.967 95.0239 797.975 94.9636C767.962 95.2753 737.876 95.9087 710.304 92.2792C696.725 93.918 682.881 90.6504 670.95 91.4245C636.235 89.655 600.526 89.0518 572.542 88.8607C539.212 86.5583 511.513 84.9597 474.072 86.2567C466.886 87.7748 450.442 84.2358 449.618 85.8143C450.548 85.7439 434.062 86.0656 432.857 85.7942C400.699 87.7748 369.45 86.1963 338.793 85.764C304.596 85.02 276.454 84.6882 244.507 84.1654C214.675 82.7477 177.381 82.7075 150.475 83.5923C120.114 82.8181 83.042 83.5822 55.9779 87.1917C42.821 88.539 37.2201 88.7501 34.557 88.0463C28.1635 89.4137 16.4861 89.3534 13.1573 88.8205C6.43613 88.6697 -2.40923 90.2783 -10.3456 91.0022C-19.5185 93.1538 -21.4946 90.208 -31.291 92.1786C-39.3014 95.5769 -44.2471 94.5715 -52.2153 93.4052" stroke="#334D50" stroke-width="2" stroke-miterlimit="10"/>
<path d="M1977.09 69.7719C1945.54 67.4767 1916.08 66.8935 1883.77 65.9153C1849.46 66.7148 1822.14 63.5825 1790.74 65.3603C1768.8 62.8958 1739.58 68.7372 1716.94 68.6901C1696.26 68.9441 1668.28 70.3927 1643.9 71.2392C1627.81 68.8406 1599.9 71.766 1570.76 72.1517C1541.49 74.5973 1518.9 71.0793 1497.05 70.0634C1449.65 68.455 1410.36 67.8153 1366.31 65.9811C1324 65.6895 1282.06 66.5361 1235.57 66.3009C1208.45 66.489 1176.92 69.057 1148.41 67.8342C1121.1 68.7748 1089.3 69.5273 1060.9 69.8189C1033.81 70.1481 999.578 72.0764 974.096 71.0041C949.914 72.2927 929.651 70.3739 906.757 70.9476C873.352 71.5402 838.847 68.9441 805.843 69.104C774.477 65.1157 741.093 67.1851 705.183 67.2886C688.745 64.9652 677.388 70.5432 658.773 67.3544C624.269 64.7019 585.676 66.5549 542.805 67.6648C498.666 68.803 465.926 69.5273 427.111 68.2574C417.73 68.6431 411.232 69.4802 408.729 67.5614C394.118 70.3456 379.866 64.6736 364.505 65.7742C355.356 65.9435 354.426 64.589 342.414 65.0969C311.65 63.9211 276.956 63.0746 243.054 63.4414C213.24 62.3973 185.117 60.3561 143.82 64.4479C141.401 64.3632 131.068 65.2474 127.159 64.9558C120.525 63.4884 108.439 62.3691 94.3034 65.7083C85.8939 66.9876 76.1639 64.1751 69.6032 66.489C58.6371 66.0093 44.7023 64.2786 32.5846 67.7495C29.1511 64.9652 10.3038 68.3327 -4.37051 69.1134C-15.2627 69.2639 -21.538 69.9882 -29.0178 70.3362C-34.6065 70.0446 -51.8374 72.4056 -53.6545 71.5402" stroke="#334D50" stroke-width="2" stroke-miterlimit="10"/>
<path d="M1975.66 47.6338C1931.99 47.1659 1891.13 44.2944 1849.2 44.1987C1811.4 44.8155 1771.17 45.7195 1735.13 45.5387C1694.65 48.3995 1657.89 46.3895 1621.78 45.8471C1580.14 46.8043 1540.81 47.5274 1507.87 45.326C1475.38 44.5071 1429.46 44.5922 1394.5 44.5922C1355.6 45.5494 1319.25 44.8474 1280.96 43.7733C1242 44.2944 1207.26 41.7739 1167.27 42.6672C1129.27 43.8052 1092.73 41.6143 1053.91 42.3056C1016.78 40.5083 975.53 40.6359 939.974 42.2631C900.319 42.5715 869.928 42.6779 826.554 43.1139C788.737 44.1136 750.033 43.082 712.522 45.6025C697.744 46.8893 691.966 48.9419 684.328 45.8152C674.642 44.2625 662.779 45.1452 656.008 45.7089C642.043 45.2622 628.332 44.3369 613.321 46.3151C581.81 43.5393 542.44 46.4427 506.504 47.9741C473.419 44.4539 433.045 49.3354 399.443 49.5056C391.33 48.591 384.58 47.6551 378.591 48.7718C372.654 47.8252 366.855 48.1762 357.675 48.1443C330.633 46.4959 307.224 44.2837 281.587 46.4958C258.453 46.0492 237.21 46.8574 205.509 45.8258C195.727 45.1771 186.706 47.889 183.622 45.9854C158.956 44.0817 135.854 46.3576 107.459 47.6338C84.4522 46.9851 57.7795 48.6973 31.1491 50.3989C27.5681 50.8243 15.2617 49.4524 13.0011 50.9094C4.06442 52.6429 -15.6047 52.1005 -23.3689 50.7392C-33.9217 48.4527 -50.7493 50.8775 -59.4113 48.8462" stroke="#334D50" stroke-width="2" stroke-miterlimit="10"/>
<path d="M1975.65 24.8932C1962.65 22.4312 1945.75 22.5313 1926.23 24.4729C1892.04 25.5337 1859.36 23.0818 1823.75 23.8023C1789.68 22.161 1753.87 23.5321 1721.56 22.7115C1690.43 20.6398 1654.53 23.5521 1619.27 21.6205C1584.14 21.0901 1551.35 19.3687 1516.8 21.1602C1482.92 18.7582 1448.33 19.8391 1414.47 20.5697C1378.11 20.5897 1346.76 19.3688 1312.01 19.9592C1275.3 18.9284 1242.07 19.1986 1209.32 19.4988C1176.01 19.2486 1138.36 18.7782 1107.22 19.2486C1073.85 17.6974 1038.55 18.428 1004.95 18.8783C971.622 16.7166 936.655 19.4288 902.492 19.1686C860.494 18.418 829.165 16.8267 788.795 19.4488C776.159 19.6289 760.066 16.4964 739.607 19.3487C722.372 19.739 706.839 19.3787 690.239 19.6089C676.578 19.5789 663.615 19.8091 653.58 19.4488C641.125 20.0693 635.066 20.4196 617.028 19.4888C602.785 19.6189 587.813 19.1285 573.496 20.0193C546.09 20.6698 516.304 21.0601 485.736 22.0209C457.874 23.7923 429.241 25.5337 397.986 24.1326C388.491 22.6414 372.546 25.1534 363.231 24.4328C327.471 24.9832 295.528 23.1518 261.005 24.1726C241.846 23.382 230.194 23.3419 214.44 24.3828C201.286 24.4728 181.683 23.0317 171.194 24.683C140.234 25.7238 108.789 26.6446 81.4983 25.4036C70.9565 24.703 49.9258 23.8924 34.6999 25.7639C-0.858944 25.0833 -31.7972 25.7739 -63.7294 22.7815" stroke="#334D50" stroke-width="2" stroke-miterlimit="10"/>
<path d="M1975.65 3C1942.92 1.42283 1912.91 1.13151 1881.82 0.0566219C1850.71 0.769865 1818.97 -0.284926 1787.41 -1.34977C1756.75 -1.11872 1722.34 -1.05846 1692.76 -1.74157C1661.89 -1.71143 1630.65 0.659349 1599.09 -1.71143C1565.49 -0.385402 1537.04 -0.576268 1504.67 -1.01828C1472.83 -0.737 1445.23 -1.23927 1410.65 -0.596348C1381.6 -1.20913 1344.88 -1.13884 1317.03 -0.0840401C1285.3 0.086736 1253.88 0.357996 1222.04 -0.495887C1190.93 -1.38995 1163.08 -1.75162 1127.83 -1.59089C1093.05 -0.516007 1065.43 -4.98632 1033.22 -3.93153C1004.3 -6.49317 972.886 -6.82469 941.133 -4.94615C912.613 -5.29775 879.434 -3.98175 848.874 -3.74066C816.17 -2.0128 788.665 -4.93608 756.933 -3.06758C729.956 -4.45389 696.512 -3.68039 664.748 -5.43838C655.322 -5.44843 644.734 -7.90961 635.52 -6.02102C607.888 -6.16166 571.591 -5.55892 547.943 -8.00002C532.695 -7.73883 517.288 -7.60824 501.48 -7.83929C478.001 -7.27673 454.754 -6.21189 431.359 -7.15619C406.453 -6.85482 382.033 -5.22743 361.248 -6.22195C348.811 -5.65939 336.184 -4.72514 321.168 -5.40825C278.119 -4.474 241.336 -3.36897 200.749 -2.54523C182.299 0.17715 172.409 -1.72149 158.133 -1.7014C141.015 -1.1087 128.102 -1.60094 112.812 -1.1087C79.1253 2.41733 52.4336 -1.68129 25.1713 -1.24933C0.117396 -1.31965 -32.1959 -3.61007 -62.2901 -3.38907" stroke="#334D50" stroke-width="2" stroke-miterlimit="10"/>
</g>
</g>
<defs>
<clipPath id="clip0">
<rect width="1920" height="916" fill="white"/>
</clipPath>
</defs>
</svg>
