<svg width="2184" height="392" viewBox="0 0 2184 392" fill="none" xmlns="http://www.w3.org/2000/svg">
<path d="M1 13C348.947 38.682 697.668 64.3837 1046.66 56.578C1425.77 48.0975 1805.45 0.116269 2183 32.5766" stroke="#2A3C51" stroke-width="0.5" stroke-miterlimit="10"/>
<path d="M1 40.6799C728.349 17.1679 1458.85 107.122 2183 39.3629" stroke="#2A3C51" stroke-width="0.5" stroke-miterlimit="10"/>
<path d="M1 87.3375C728.278 97.9821 1455.61 97.5362 2183 86" stroke="#2A3C51" stroke-width="0.5" stroke-miterlimit="10"/>
<path d="M1 129.371C205.424 66.9211 426.624 130.185 641.623 131.915C851.515 133.604 1058.39 75.9351 1268.24 80.3701C1429.07 83.7701 1588.41 123.651 1748.94 113.821C1823.16 109.276 1896.38 94.1311 1970.7 91.2361C2045.02 88.3411 2123.34 99.1361 2183 140.775" stroke="#2A3C51" stroke-width="0.5" stroke-miterlimit="10"/>
<path d="M1 161.62C109.773 166.316 216.574 125.848 325.317 131.149C371.439 133.4 416.598 143.85 462.231 150.506C602.104 170.907 744.673 155.535 885.824 145.429C1317.25 114.538 1750.78 133.309 2183 152.094" stroke="#2A3C51" stroke-width="0.5" stroke-miterlimit="10"/>
<path d="M2183 206.946C2129.3 197.667 2084.97 162.779 2033.82 144.911C1957.56 118.279 1873.04 131.195 1792.24 140.32C1655.09 155.813 1516.05 159.286 1378.79 144.729C1321.07 138.608 1263.48 129.298 1205.39 129.745C1147.31 130.192 1089.92 140.384 1032.54 148.803C692.16 198.748 345.302 186.848 1 174.817" stroke="#2A3C51" stroke-width="0.5" stroke-miterlimit="10"/>
<path d="M1 236.962L128.353 184.409C150.207 175.393 172.665 166.237 196.447 165.209C233.295 163.609 267.48 181.495 301.772 194.482C458.076 253.682 633.219 213.82 800.643 199.195C990.371 182.624 1181.28 199.81 1371.36 212.225C1419.36 215.36 1467.88 218.171 1515.35 210.692C1551.01 205.078 1585.44 193.748 1620.99 187.526C1677.52 177.626 1735.56 180.846 1792.94 184.097L2183 206.197" stroke="#2A3C51" stroke-width="0.5" stroke-miterlimit="10"/>
<path d="M2183 229.029C2102.01 254.363 2018.83 204.864 1936.19 185.076C1865.1 168.054 1790.56 173.293 1717.51 178.644C1604.25 186.939 1490.81 195.252 1378.74 213.028C1303.25 225.001 1227.7 241.313 1151.23 238.967C1091.35 237.131 1032.58 223.885 973.345 215.291C652.173 168.691 324.419 259.21 1 230.312" stroke="#2A3C51" stroke-width="0.5" stroke-miterlimit="10"/>
<path d="M1 305.907C382.998 252.907 771.479 299.621 1157.5 301.241C1407.42 302.29 1656.94 284.38 1906.36 269.248C1998.61 263.648 2091.8 258.477 2183 272.821" stroke="#2A3C51" stroke-width="0.5" stroke-miterlimit="10"/>
<path d="M2183 312.686C2131.72 277.662 2070.86 256.665 2008.64 247.973C1956.92 240.75 1904.39 241.802 1852.15 242.873L1559.65 248.846C1371.7 252.684 1183.45 256.546 996.63 276.697C835.439 294.089 673.493 323.63 512.204 307.097C438.68 299.561 366.349 282.497 292.593 277.421C195.242 270.716 95.49 284.828 1 261.289" stroke="#2A3C51" stroke-width="0.5" stroke-miterlimit="10"/>
<path d="M1 278.637C432.86 262.294 866.335 245.989 1296.52 285.472C1356.81 291.006 1417.16 297.639 1477.73 297.205C1597.24 296.349 1714.42 268.075 1832.99 253.923C1951.56 239.771 2077.85 241.084 2183 294.775" stroke="#2A3C51" stroke-width="0.5" stroke-miterlimit="10"/>
<path d="M1 33.3457C432.86 17.0027 866.335 0.697685 1296.52 40.1807C1356.81 45.7147 1417.16 52.3477 1477.73 51.9137C1597.24 51.0577 1714.42 22.7837 1832.99 8.63168C1951.56 -5.52032 2077.85 -4.20734 2183 49.4837" stroke="#2A3C51" stroke-width="0.5" stroke-miterlimit="10"/>
<path d="M1 331.671C123.869 346.628 248.303 330.871 372.167 328.271C611.432 323.25 851.497 367.412 1089.17 341.071C1148.1 334.539 1206.5 323.697 1265.67 319.64C1347.1 314.057 1428.81 321.389 1510.32 325.805C1734.3 337.936 1958.9 328.019 2183 318.105" stroke="#2A3C51" stroke-width="0.5" stroke-miterlimit="10"/>
<path d="M1 362.737C33.172 377.511 70.9546 363.02 105.087 352.766C262.589 305.451 432.245 353.542 597.343 363.891C760.577 374.124 924.533 346.828 1087.77 357.004C1175.75 362.494 1262.79 378.833 1350.93 381.574C1491.13 385.932 1629.53 355.859 1768.46 337.778C1907.39 319.698 2053.85 314.433 2183 365.503" stroke="#2A3C51" stroke-width="0.5" stroke-miterlimit="10"/>
<path d="M1 341.229C64.5981 381.314 140.795 398.002 215.897 388.294C269.872 381.117 321.156 360.45 375.019 352.505C477.721 337.36 580.897 369.205 684.363 378.147C827.687 390.537 971.614 358.801 1115.36 364.929C1188.37 368.044 1261 380.915 1334.03 378.268C1392.47 376.148 1450.07 364.115 1508.41 360.068C1580.71 355.045 1653.23 362.33 1725.62 366.024C1877.97 373.796 2030.66 365.646 2183 357.497" stroke="#2A3C51" stroke-width="0.5" stroke-miterlimit="10"/>
<path d="M2183 273.636C2095.17 298.454 2002.04 298.765 1914.04 274.533C1857.34 258.814 1802.81 232.9 1744.06 228.645C1664.66 222.884 1588.76 257.135 1511.39 275.594C1272.91 332.496 1021.27 238.654 778.196 271.901C690.122 283.947 604.348 312.598 515.481 315.706C341.974 321.774 161.509 231.243 1 296.225" stroke="#2A3C51" stroke-width="0.5" stroke-miterlimit="10"/>
<path d="M1 164.284C74.6709 214.828 166.823 240.023 257.183 234.311C373.58 226.95 483.229 170.622 599.878 170.921C674.989 171.113 747.507 194.816 820.344 212.422C921.298 236.828 1028.46 249.639 1129.02 223.794C1189.28 208.306 1245.56 179.337 1306.97 168.817C1392.9 154.095 1480.26 176.601 1566.45 189.753C1669.53 205.461 1774.34 207.82 1878.07 196.767C1980.17 185.872 2086.72 162.486 2183 196.859" stroke="#2A3C51" stroke-width="0.5" stroke-miterlimit="10"/>
<path d="M2183 121.22C2113.7 137.708 2041.33 136.876 1972.44 118.798C1911.11 102.62 1853.26 72.9044 1790.26 65.1453C1697.06 53.6616 1605.75 91.2877 1513.16 106.834C1351.47 133.979 1186.47 93.4398 1022.45 94.1759C880.047 94.8147 736.767 126.568 596.29 103.527C531.09 92.8331 467.791 70.4544 401.822 66.3999C267.255 58.1263 133.084 126.615 1 99.9323" stroke="#2A3C51" stroke-width="0.5" stroke-miterlimit="10"/>
<path d="M1 30.629C130.591 55.009 264.73 14.881 396.177 27.376C452.193 32.702 506.886 47.529 562.969 52.169C656.865 59.936 750.783 38.921 845.034 38.691C947.999 38.437 1052.2 62.885 1152.91 42.529C1208.59 31.278 1261.96 6.48499 1318.87 6.70399C1372.17 6.90399 1422.3 29.035 1474.03 41.273C1705.74 96.085 1957.37 -48.54 2183 25.773" stroke="#2A3C51" stroke-width="0.5" stroke-miterlimit="10"/>
<path d="M2183 48.0554C1967.63 70.0552 1751.09 10.8129 1534.88 22.6596C1387.26 30.7484 1237.89 71.7468 1093.79 39.5016C1052.8 30.332 1013.27 15.365 971.963 7.68863C844.862 -15.9264 714.701 31.1202 585.505 24.1846C527.831 21.089 471.263 7.25831 413.69 2.76772C276.189 -7.96351 137.48 34.7601 1 15.2757" stroke="#2A3C51" stroke-width="0.5" stroke-miterlimit="10"/>
<path d="M1 160.734C95.955 128.686 188.929 221.269 289.348 224.446C360.58 226.699 424.799 183.742 494.878 171.108C598.852 152.367 701.375 201.302 804.733 223.05C897.007 242.362 992.656 240.046 1083.84 216.291C1139.55 201.71 1193.82 179.082 1251.41 175.744C1333.83 170.964 1412.91 206.075 1494.86 215.836C1603.3 228.755 1712.24 196.955 1821.47 198.724C1942.71 200.687 2063.42 243.918 2183 224.297" stroke="#2A3C51" stroke-width="0.5" stroke-miterlimit="10"/>
<path d="M2183 338.19C2094.42 321.975 2004.35 305.684 1914.51 313.696C1828.06 321.407 1744.51 351.463 1657.68 352.705C1551.03 354.229 1448.41 312.22 1341.82 308.405C1262.32 305.559 1183.76 324.057 1104.32 328.148C999.052 333.568 894.33 313.654 789.082 307.9C526.127 293.525 260.811 367.5 1 326.775" stroke="#2A3C51" stroke-width="0.5" stroke-miterlimit="10"/>
<path d="M1 72.8612C15.6798 114.202 73.6164 112.889 116.311 103.717L299.266 64.4149C325.59 58.759 352.698 53.08 379.224 57.6915C407.872 62.6719 432.993 79.1195 459.037 92.1092C530.328 127.399 611.27 137.839 689.113 121.787C758.748 107.208 825.118 71.5061 896.197 74.1201C952.399 76.1868 1004.72 102.12 1059.58 114.575C1199.26 146.287 1342.36 89.4231 1485.26 80.3122C1510.26 78.7176 1535.7 78.6364 1559.94 85.01C1588.43 92.4981 1613.84 108.494 1640.78 120.431C1724.73 157.623 1820.87 154.325 1911.47 139.838C2002.07 125.351 2091.36 100.361 2183 96.2547" stroke="#2A3C51" stroke-width="0.5" stroke-miterlimit="10"/>
<path d="M2183 190.446C2127.47 207.949 2066.84 196.293 2012.19 176.171C1957.54 156.049 1905.98 127.676 1850.38 110.399C1761.2 82.687 1665.6 84.7379 1572.83 94.9832C1386.83 115.523 1202.74 167.929 1015.93 157.131C941.189 152.812 867.224 138.377 792.41 135.589C696.131 131.998 597.15 147.441 504.995 119.109C478.441 110.957 452.853 99.2293 425.539 94.2345C351.64 80.7103 279.088 117.59 205.766 133.99C138.015 149.048 67.5929 146.658 1 127.038" stroke="#2A3C51" stroke-width="0.5" stroke-miterlimit="10"/>
<path d="M1 65.9399C51.8427 50.9849 109.046 36.6809 155.197 63.4529C172.615 73.5579 186.92 88.8719 204.655 98.3609C233.281 113.675 267.383 112.129 299.219 107.261C407.815 90.6609 514.379 39.7819 622.948 56.5809C681.508 65.6409 735.78 93.9979 793.727 106.631C858.354 120.72 925.48 114.82 990.657 103.822C1098.47 85.6299 1210.34 53.8929 1314.56 87.8779C1347.89 98.7479 1379.12 116.078 1412.88 125.384C1552.97 164.003 1695.22 58.5999 1839.83 68.3389C1887.41 71.5389 1933.42 87.2029 1980.74 93.2699C2048.02 101.893 2116.03 90.9579 2183 80.0489" stroke="#2A3C51" stroke-width="0.5" stroke-miterlimit="10"/>
<path d="M2183 355C2065.34 309.793 1937.93 296.734 1813.65 317.143C1781.09 322.543 1748.24 330.259 1715.46 326.463C1681.19 322.495 1649.71 306.258 1617 295.181C1432.47 232.669 1231.57 337.381 1038.16 315.187C955.675 305.721 876.517 273.233 793.582 269.575C734.753 266.982 676.378 279.016 618.584 290.392C571.051 299.75 521.518 308.653 474.723 296.053C441.188 287.025 411.347 267.477 378.404 256.45C257.273 215.902 128.468 296.573 1 290.163" stroke="#2A3C51" stroke-width="0.5" stroke-miterlimit="10"/>
<path d="M1 269.832C82.3522 264.067 29.8581 269.874 111.209 264.107C133.509 262.527 156.328 260.992 177.886 266.776C216.556 277.15 245.07 309.194 281.7 325.123C343.064 351.807 414.636 329.126 475.044 300.44C535.452 271.754 596.533 236.21 663.713 237.3C749.204 238.682 824.745 299.532 910.237 300.923C967.346 301.853 1021.37 276.015 1078.13 269.832C1174.31 259.347 1271.7 305.688 1366.48 286.597C1415.4 276.741 1459.32 250.073 1508 239.119C1593.93 219.784 1682.04 251.135 1768.92 265.948C1852.93 280.227 1938.95 279.011 2022.51 262.362C2077.18 251.439 2141.38 236.183 2183 272.424" stroke="#2A3C51" stroke-width="0.5" stroke-miterlimit="10"/>
<path d="M2183 72C2131.72 36.7662 2070.86 15.6434 2008.64 6.89928C1956.92 -0.366996 1904.39 0.691301 1852.15 1.76872L1559.65 7.77751C1371.7 11.6385 1183.45 15.5236 996.63 35.7954C835.439 53.2916 673.493 83.0096 512.204 66.3775C438.68 58.7964 366.349 41.6301 292.593 36.5237C195.242 29.7785 95.49 43.9751 1 20.2951" stroke="#2A3C51" stroke-width="0.5" stroke-miterlimit="10"/>
</svg>
