<svg xmlns="http://www.w3.org/2000/svg" width="1920" height="1280" fill="none">
  <g stroke="#2A3C51" stroke-miterlimit="10" stroke-width="2" opacity=".2">
    <path d="M1967.46 1268.36c-28.39.15-56.81.36-85.26.52-11.66-.54-26.1 1.32-42.44.09-14.13-.69-28.72-.1-43.25.01-31.85-2.13-68.05-2.22-108.63-2.58-35.83-1.58-71.82-4.22-108.75-1.56-37.13-1.79-74.87-.73-109.07-.45-43.2.98-72.85 2.2-108.42.51-37.55-1.43-71.02 1.71-109.3.96-33.77-1.52-73.23-2.3-108.23 1.5-37.47-3.35-71.78 1.26-108.65 1.51-34.56-2.91-75.937 2.36-108.937 1.55-37.707-.58-73.954 1.61-108.741 1.26-28.095-3.92-74.725.81-108.857.58-41.449-2.33-78.585-1.41-117.369-4.2-43.416-2.12-78.468-2.62-117.369-4.21-27.291-2.23-55.079.67-83.258.24-42.898 1.35-81.905-.33-124.813 1.65-40.878.74-85.827 4.06-124.612 3.98-12.118-.74-29.448.49-43.924 1.35-15.427-.27-33.571 3.08-45.287 2.24-43.268 1.75-83.1-.04-127.097-3M1970.34 1245.69c-13.37-.08-26.74-.13-40.12-.15-13.38-.02-26.75-.01-40.13 0-14.76.51-25.64-.93-43.35-.27-23.61.55-46.88.29-71.11.33-25.29 1.83-44.99.73-70.93.14-16.81-.41-49.09-.12-70.85-.55-25.11.52-46.39-1.37-71.17-.78-27.83.51-46.68-.42-71.08-.96-24.85 3.44-39.15-1.77-71.29-1.6-21.73-3.66-47.27-.37-71.93-.98-25-.25-51.92 3.58-71.79.61-20.96-2.18-49.25-.54-71.92 1.38-18.43-.94-53.28 1.57-71.8 1.33-23.59 1.58-50.43 1.34-72.09 2.15-26.82 4.06-47.14-1.15-71.629 1.42-36.5 1.64-68.097 1.62-107.472 1.99-35.38-.15-71.341-1.02-108.106.09-36.648.9-72.092-2.28-104.143-2.09-38.402-.71-62.792.93-104.09-2.81-37.431.77-70.57-.7-104.355-2.69-36.046-.98-71.267-.61-104.175-1.64-36.384.15-69.143-1.52-104.47.1-37.135-.5-66.407.01-104.661 2.69-16.338 1.33-30.974 2.53-45.346 1.52-14.995.6-32.569.95-48.41 2.91-20.818.91-45.725 2.91-66.564.45-23.154-.82-43.93-2.62-66.48-2.87M1973.22 1222.39c-13.01.49-26.38.99-39.8 1.24-23.88-.68-49.21.47-72.55-.62-26.5-.39-45.87.11-72.76.65-23.54-.57-49.63-1.18-72.34 1.11-25.03-.85-49.58.12-73 .62-21.6-1.74-55.54 1-77.49.14-27.77-1.22-55.14 1.79-76.2-.28-20.96 1.31-47.33-3.41-76.32-.23-28.33-1.27-53.23 2.63-77.26-.18-24.05-1.01-53.52.28-76.45-.39-29.24.31-55.52.35-77-.31-21.28.11-32.11-.97-46.01-.24-38.62-.29-74.53-.6-114.89-.98-36.356 1.22-74.834-1.47-115.173-.7-10.38-2.35-30.698 1.91-45.972-.43-19.366 1.47-31.322-1.04-45.931-.35-32.273-.11-58.373-1.04-85.593-.67-33.414-.42-64.154.75-85.983-.71-24.25-1.26-53.098-2.77-85.498-.79-27.917-.08-57.558-1.03-86.301-1.23-28.298-.09-61.078.91-85.846-1.25-30.042 1.03-55.592-2.14-85.74-1.42-14.313 1.63-25.349.27-41.491.14-39.165-.85-79.123-1-124.547 2.41-9.143.03-25.507-1.32-40.581 1.1-27.4 1.59-54.905.34-87.284 1.81-25.434-.9-61.66 1.84-87.21-.77M1974.65 1197.47c-12.01.54-23.99.93-35.9 1.12-12.02.1-23.77.16-35.57.18-30.45-.6-60.14.34-92.19.84-30.14-.15-60.08 1.11-92.88 1.39-27.59.74-63.95 2.26-92.52 1.28-30.29.83-62.6-1.68-92.24 1-31.42-.51-58.07 1.11-91.8.37-28.32-.86-64.15 2.6-92.91-.06-15.09.87-32.64 2.88-46.17-.39-35.87 2.48-65.18-2.41-93.87-2.23-30.16-1.65-67.28-.91-93.52-3.49-35.52-1.19-57.76-3.69-93.88-4.05-30.941-1.76-58.637-3.17-93.666-4.07-33.201 2.4-50.605.38-74.148-.03-23.522 2.76-49.274 3.64-72.733 4.54-21.514 2.01-48.164 3.99-73.45 4.65-25.636 1.52-46.516-1.42-73.43-.14-25.075-1.8-54.209.33-82.623-3.73-26.343-.22-59.006-2.36-82.169-3.02-28.372-.6-50.583-3.21-82.358-2.48-29.588-.11-54.557-1.29-82.127-2.61-16.685-.88-27.167-.55-44.307.04-30.052.48-62.514 1.94-91.636 2.25-28.256.22-58.679 2.18-91.87 2.2-10.714 1.46-21.65-.64-31.71.41-44.202 1.12-87.189 3.34-126.973 2.58M1980.41 1174.19c-12.45.07-24.89.1-37.23-.04-38.81-1.66-79.32-1.95-117.41-.65-32.13.89-66.98 2.74-99.98 3.71-36.25 1.88-66.38 2.85-99.8 1.77-14.37.38-34.98 1.93-49.84.26-20.01-5.08-47.32 1.76-70.09.63-28.46 1-50.23-5.12-69.98-.34-17.75-1.92-44.56-3.54-70.16-.99-25.71 1.26-51.42 3.12-69.95-1.55-12.63.99-33.73-.63-46.72-1.19-33.23 1.12-61.08-2.62-93.46-2.47-18.28-.76-25.02-1.57-46.74-1.2-20.29-.57-51.6 2.56-70.15-1.52-23.08-3.02-47.547 1.42-70.164-1.03-19.751-2.31-29.13.07-46.788-.27-31.996.35-57.045-4-93.661.59-18.991 2.95-30.6 1.01-46.842.99-21.76 2.62-34.893 1.88-46.862 1.58-12.752-2.32-31.731.97-44.388 1-11.98-2-28.866.72-44.356.04-29.11.43-58.103 1.42-82.052-1.98-24.383-1.47-51.07-2.01-80.835-2.91-30.251-1.48-52.932-3.48-82.052-3.29-30.748.12-57.721-3.08-80.803-2.1-28.877-1.7-54.56-1.43-81.417-.46-25.367-.54-56.136.08-81.417 2.31-16.294.58-24.478.36-45.097 1.99-15.734-1.36-29.775-.28-46.905-.77-23.97-.9-45.879-2.08-72.366-.03-22.923.38-48.057.94-72.017 2.9M1986.17 1151.39c-11.58.04-23.16.06-34.74.07-14.07-.43-26.73-1-41.53-.96-31.4-.58-63.68 2.49-95.33 1.92-29.53.96-63.25 2.14-95.18 1.94-16.84.99-34.24 1.06-47.55.91-34.19 2.98-59.59-.62-90.65 1.24-11.61.83-32.53 2.72-45.34.3-20.59-.02-44.85-1.24-71.4.73-22.9.3-47.76-.01-70.77-.27-22.91-.94-39.89-1.4-70.82-.79-21.52 1.6-45.81-1.62-71.26-1.42-30.92.01-64.53-1.32-94.67-2.27-31.08-1.19-65.47-5.73-94.53-2.52-30.64-2.83-65.04-1.29-94.809-2.08-36.778-2.48-63.608-.77-94.498-1.42-30.182-1.94-64.708 1.84-94.889-.51-28.987.3-69.327 3.22-94.741 1.08-32.053-1.96-60.68 2.92-94.794 3-25.266.53-50.415 2.14-78.303 1.8-24.441-.12-52.17-.31-77.234-1.42-24.029-.69-50.606-2.16-77.605-2.92-26.767-.86-56.251-2.74-78.726-3.75-23.14-1.79-47.063-.03-68.671-1.04-22.063.77-41.811.44-68.419 2.2-10.244-1.23-17.39-3.02-29.938-1.17-30.129-1.32-62.54-1.02-92.447-1-35.087 2.82-63.07 1.61-92.13 2.47M1990.49 1128.61l-27.19.3c-9.07.07-18.13.13-27.2.05-24.29.29-46.05.1-72.78 1.07-24.35.38-49.21.64-72.79.68-17.36-.74-33.54.46-48.48.29-29.81-.71-70.71 2.15-96.79.63-22.02 2.84-31.63-.1-48.34.15-33.22-2.89-74.04 3.41-107.58.37-35.36-1.92-71.09-2.76-107.56-.29-34.5-2.16-69.27-1.18-107.35-1-38.66-.1-70.66-2.27-107.74-.9-36.75-.31-71.27-2.72-107.23-1.22-37.66.4-70.433-1.99-107.821-1.28-37.114 1.06-74.566-.04-107.411-.92-34.283 1.6-71.703-1.17-107.612-.85-26.486 1.86-46.041-2.3-71.586-.34-23.581.5-50.13.54-71.756.24-24.848-.54-50.267-1.6-71.385.35-22.862 1.18-49.802-.34-71.946.9-22.143 1.11-45.893-1.1-71.703 1.56-24.731.95-48.058.58-71.617 1.42-36.163.49-74.915 1.14-112.388-.56-37.134-1.71-75.706-2.31-111.658-6.94-14.674.22-27.204.45-37.906-.3-37.948-.18-77.619.76-113.718.7M1993.36 1105.38c-12.34-.08-24.67-.16-37.02-.26-14.94-.35-28.16.04-44.95-1.27-17.55-1.08-31.66.19-44.5-1.4-12.66-1.88-31.35-.92-44.54-1.16-34.49-.66-64.33-1.55-94.84-1.35-14.84 2.24-30.99-.66-47.39-.34-36.8 1.75-73.48 2.05-113.52 2.52-38.2-1.97-76.65 2.06-113.45 1.08-39.28-.15-75.07 2.85-113.1-.09-38.12-.34-75.09-1.84-113.71-.67-37.11 1.86-79.23 1.08-113.42-.92-31.93-3.42-73.5-5.1-113.347-1.53-41.926.33-74.425 1.72-112.736-.98-42.095.17-77.585-1.13-114.142-.51-33.449-.12-76.189.43-113.518.45-28.831-1.32-58.275 2.8-85.172.97-30.205-1.39-55.982.8-85.268 2.14-27.458 2.2-53.657 1.92-85.712 3.19-27.584 3.75-54.429 1.68-84.961 3.83-26.433 1.24-47.676 1.26-74.636 1.92-24.805-.86-48.003-2.05-75.439-3.84-29.402-2.4-55.306-3.31-78.716-5.21-27.658-.3-53.107-.86-78.588-2.01-16.117 2.19-29.17.74-39.242-.29-10.389.45-27.098-.86-39.05-.06M1993.36 1078.7a2829.2 2829.2 0 00-47.73-2.46c-17.38.76-32.97-.67-47.71-1.72-14.11-.13-28.04-.45-42.39-1.4-12.86.67-33.93-.28-43.81-.38-17.89-1.32-30.8-1.36-48.58-1.16-16.21.38-31.63.04-48.58-.86-36.22-.42-70.55-.91-109.94-.14-41.14 1.83-75.27-1.06-109.89.39-28.47.3-70.91-.16-110.05.82-33.33 4.6-72.18.92-109.66.65-37.32 2.02-73.89-.05-109.69.87-39.95-.09-77.56.04-110 .02-29.38-1.59-77.623 1.84-109.593-.37-36.07 1.52-66.983-.14-110.177-1.14-34.844 0-71.242-3.29-110.029-2.17-36.863.77-77.911-1.27-109.902-3.52-18.463-2.23-43.331-.88-67.797 1.62-20.683.51-43.669 1.66-68.009 7.74-23.758 4.72-45.138 7.96-67.797 9.1-21.296 1.2-46.734 5.86-68.009 5.51-28.841 2.22-54.353-.13-85.605-2-42.887-3.99-87.613-7.25-130.511-11.47-46.205-3.47-81.314-6.48-130.426-2.41-10.854-.73-23.568.37-31.854.54-11.635-.8-18.843-.07-31.79.5M1989.05 1048.69c-40.09-3.17-79.43-6.88-120.32-5.43-14.76-2.08-25.38 3.38-40-.34-33.77-.93-62.56.07-93.23-.08-20.95 3.35-29.12 1.5-46.3.57-34.99 1.97-68.95 1.88-109.38 2.24-37.48-1.72-73.96.49-109.38 1.01-37.96.74-76.25 3.9-109.29-.12-29.94-.9-68.16 1.5-109.47-.51-36.33-1.64-76.95-.46-109.49-1.31-38.18.55-75.1-4.79-109.28-1.08-35.961-2.36-72.348.12-108.713-1.23-41.555 1.28-72.911 1.64-110.048-.8-33.871-.39-74.993.58-109.022-.37-33.65-.94-76.61 1.2-109.741.85-42.728.97-77.181 4.4-115.723 8.13-40.054 4.18-74.655 10.29-115.723 11.18-45.877 1.67-84.779-.32-128.806-3.68-42.538-6.25-83.511-9.76-128.003-10.55-34.115-.59-73.46 3.13-102.492 1.58-11.826-1.47-23.969.63-35.361 1.55-11.72 2.99-19.467-.31-35.446 2.14M1983.29 1019.48c-34.93-6.39-77.92-3.37-116.44-3.94-10.25-1.26-25.78.01-38.64.41-23.79-.17-48.07 1.67-70.02 2.52-15.29.55-28.18.01-35.07 1.83-37.48 1.59-74.29 2.75-108.88 2-38.08-.75-68.82.01-108.92 1.3-34.14-.26-74.76 1.7-108.99 1.02-33.38-1.49-70.95-1.88-108.93-.09-32.82.87-71.33-2.07-109-.39-38.11 1.32-76.78.05-109.01-.3-36.23.16-75.135-.08-108.572-.54-33.733.75-76.659-.47-109.462-.95-36.279.77-67.983-1.21-109.346-.47-39.925.23-71.998-1.61-108.69-1.09-32.084 1.48-65.647-2.07-109.007-.55-25.395-.04-49.764-2.1-81.722.04-26.652-.44-52.892-2.62-81.753-.32-27.994-1.52-53.071-.52-81.774.18-31.376 2.19-55.143.57-81.647.5-31.978.27-69.769 1.08-102.53 1.83-33.077.96-67.19 3.03-102.666 4.07-10.314.15-19.635 1.67-28.502 1.59-13.178 1.19-21.558 1.58-28.448 1.87M1977.53 993.793c-31.82.028-54.95-1.175-86.95-1.005-19.08 0-29.7-1.412-43.28 1.147-35.63.265-77.53 6.435-116.04 6.235-9.66 1.08-25.75 1.31-38.48 2.02-25.75 2.01-52.88 2.27-82.74 3.94-23.07.5-53.15 1.8-82.94-.25-32.49-1.98-64.6-4.54-102.14-2.67-29.83-2.01-58.81-5.618-103.24-1.86-31.03-1.07-73.42-1.464-102.25-1.464-28.41-3.137-73.24.184-102.97-.474-38.26-.72-66.31 1.648-103.17-.436-35.186-.228-66.273.616-102.001-.18-34.523.114-66.329-3.355-103.241-.067-30.982.181-57.693-2.624-101.983-.511-37.324 1.677-66.837.635-102.66-.673-37.345.085-67.862-.483-102.713-1.137-28.339-.37-56.456.881-79.88-1.649-27.293-.36-51.066-2.454-80.737-.654-28.159 1.725-52.228.019-79.827-.085-22.822-4.549-54.279-.161-80.452 1.023-27.388 1.128-54.374 2.085-79.912 2.701-24.206.19-47.725.123-79.7 4.716-13.351.23-18.213 2.7-28.752 1.41-19.735 1.1-38 1.41-57.64 2.89M1974.65 971.464c-22.33-1.184-46.43 1.724-75.47 1.89-24.22 2.867-48.52 2.306-75.49 2.971-10.92.187-27.71 1.142-37.38 1.713-35.54 3.241-64.37 3.449-91.24 4.674-17.09-1.454-25.81.602-44.86 1.288-35.55-2.243-80.45-1.257-116.26-1.475-35.61-3.168-75.68-.571-116.18-1.153-44.65-2.326-76.26-1.433-115.66-1.059-40.78-2.14-77.57 1.651-116.51-.582-35.6-1.319-81.76-2.773-115.89-.394-41.35-.914-81.96 1.308-116.124-.914-38.592 1.049-80.587 1.838-115.967-.675-38.339-1.589-78.21 2.025-116.031-.935-31.279-2.316-76.138 2.087-116.051-1.028-38.054.82-77.238-1.184-116.052-1.548-38.106.904-77.481-3.303-116.126-1.849-37.726-2.326-78.019-2.534-116.199-2.326-44.267 3.375-74.702 1.433-110.43 3.593-35.401.644-68.667 4.134-110.409 6.44-12.459-1.714-23.586.176-35.126 1.132-23.703 2.409-49.604 1.859-70.242 2.493M1974.65 951.066c-23.57-.193-47.51.078-72.11 1.482-23.63 1.889-50.38 1.763-72.65 2.712-25.33.184-48.99 3.255-72.5 3.003-24.66.813-50.91 7.119-72.2 2.77-12.24.969-32.82 2.518-40.96 1.23-38.37.271-73 1.579-105.82-.116-31.21-1.908-64.44-3.981-105.81-1.337-40.77-.349-68.38-5.056-106.14-1.956-32.01-1.366-73.21.406-105.49-2.441-36.68.465-67.55-.01-106.03-2.15-39.73-.417-70.39-1.831-105.6-1.298-34.928 1.259-67.963-2.712-105.901.126-32.168 1.52-69.102-.068-105.73 1.239-33.626 1.666-76.055 1.463-112.546 4.959-39.745 2.325-73.477 3.187-112.546 2.79-38.941-.697-77.344-2.48-112.545-5.327-34.166-3.38-75.496-4.64-112.546-8.233-43.698-1.559-88.368-2.78-129.497.881-41.489 3.003-86.708 4.485-129.729 6.151-14.171.629-29.082 2.78-40.305.959-43.539 1.133-83.813 2.276-121.36 2.266M1977.53 929.372c-29.14-.312-54.87-.473-80.91.454-26.09 1.481-53.99-.021-80.87 1.793-36.93-.695-76.05 2.832-115.4 4.575-9.85.554-25.58.665-38.54 1.904-26.7 3.456-45.85-.987-74.84 2.902-24.49-3.456-49.56-2.005-74.55-1.31-33.26-2.438-61.28-4.111-96.21-2.267-31.69 1.26-60.19-1.783-97.09-1.794-30.22 3.225-62.36.272-96.58-1.027-32.97-1.512-65.65-1.119-96.57-.575-31.62-.151-65.52-.836-96.9.272-27.52.313-62.254-.695-96.213.162-34.265.423-59.462.594-96.93.745-31.157 1.068-67.124 1.33-96.221 1.29-37.573-.806-60.857.262-96.38 1.451-29.224 2.479-63.722.766-96.93 1.743-26.898-.111-62.094-4.665-91.962-1.149-22.132-2.388-53.501.273-69.598-2.851-20.821-1.713-48.037-1.753-68.425-3.648-22.702 0-47.402-2.166-69.048-2.448-20.874-.675-47.413-.968-69.217.181-12.63.212-24.246.645-41.939.534-36.061-.766-68.213-.403-106.262 2.308-34.381 1.39-69.63 2.458-106.188 1.108M1978.97 906.853c-27.28-1.883-60.88-1.466-92.48-1.078-29.75-.228-57.41-1.306-92.41.246-33.95 2.602-57.3 1.22-92.56 1.362-32.45-1.23-60.62.464-92.27 1.552-12.37-1.164-25.86 3.009-41.15.663-29.38 1.958-60.76-1.127-91.35-.398-27.1-.653-55.48-.852-91.34-.681-10.38-.994-30.74-1.704-45.65-.322-21.2-.965-45.02-3.331-68.66-.606-25.65-1.58-48.37-.955-68.36.133-19.99-.776-33.53 2.725-45.63.132-14.84-.634-31.98 1.94-45.63.436-24.69.53-47.58 2.649-67.13.35-24.15.691-44.32.426-66.82-.436-27.065-.416-50.092 1.808-67.424-.293-27.265.729-49.87 3.066-66.282-.265-21.305-1.088-42.684-.577-67.064.322-28.629 1.031-44.84.889-66.874 1.4-21.792-.662-48.169.776-70.161 2.271-20.893 1.6-43.656 1.249-69.939 2.413-21.263.899-47.08.142-70.266 1.798-25.195.824-48.476 2.234-70.225-.265-8.919-2.782-23.302 1.06-38.287-.87-22.341 1.609-55.662-1.391-76.544-3.407-23.926-2.28-51.921-2.28-76.47-5.649-11.287-.398-36.66 2.801-49.205.511-14.013-1.722-24.169-3.956-43.804.17-11.086-3.369-29.062.795-44.565.18-27.012-1.58-62.721 2.508-89.078.88-29.748-.341-57.584 1.164-89.024.293M1978.97 882.311c-8.76-.991-29.07.505-40.28-.457-14.54-2.244-24.98-.34-40.56-1.03-30.28-2.059-64.47 1.332-88.52-2.38-27.27-1.049-59.72.107-88.6-.019-17.1.262-30.64 1.758-44.29.874-38.42-.223-75.25.564-112.85.428-34.99-3.003-73.71-.263-113.48.903-36.07-.923-74.05-.175-113.19 1.049-33.83-1.457-70.09-2.438-113.11.788-35.78.709-75.02 4.362-113.44 1.107-32.52-3.799-73.55-4.071-112.82.748-35.417-.699-73.816.36-112.785.972-38.558.719-76.819.971-113.42.418-36.242-3.119-73.732.592-112.902.359-35.237-3.031-73.805-1.273-113.24.087-41.391 2.595-69.227-1.777-113.05-.281-36.823.748-77.23 0-113.039-.709-11.143-.36-26.166-1.934-40.64-.622-14.357-.136-28.122-.195-40.545-1.205-7.665-1.156-29.073 2.186-41.422.058-13.881-2.905-31.971-.078-41.073.369-7.359-.748-25.036.904-29-.155-13.776 2.769-20.859.661-28.778-.253-14.738-1.778-24.877-3.07-43.22-.417-45.196-1.38-88.701 1.37-130.959-1.429M1976.09 858.433c-34.58-3.325-72.55-3.153-111.29-2.247-42.02 1.622-73.4 1.35-111.28-1.37-11.68.192-24.45-.534-37.03-.232-42.26 1.219-78.42 1.088-120.24-.584-40.09.071-82.6 2.237-120.17.383-41.58 2.377-79.68-.101-119.65.725-39.07-1.037-85.83 3.154-120.54 1.995-39.79.474-79.33.373-119.74 1.582-39.14 2.387-78.06 3.375-120.259 2.176-44.511-.423-80.487 1.209-119.8 1.702-35.871-1.007-80.624 4.282-120.054 1.23-40.771-3.194-80.402.473-119.272.332-39.441 3.748-80.096.887-120.476-.111-38.976-1.39-75.29-3.858-119.843-1.491-43.623-2.277-69.903-3.556-119.832-2.861-13.224-1.118-28.867-2.327-47.764-.665-19.73-.544-29.849-.554-47.774-.786-10.626-.181-20.027-2.428-31.783.343-9.326-.383-17.607-1.844-31.772.342-12.77-.252-25.74.897-38.32-.302-26.058-.272-48.018-.605-76.304-.957-31.656-.796-53.827-.192-76.262-1.38M1974.65 836.725c-28.08-1.085-66.18-.204-104.74-2.898-37.26-2.202-73.01 1.076-104.76-2.366-13.81-1.515-27.79-1.167-41.47-.594-29.28.42-53.61-.891-85.65-.614-26.33-.645-55.96-2.458-85.67-.01-25.47-1.67-59.01.286-85.62.256-26.33 1.864-57.61.389-85.75 1.085-24.93-2.734-55.91.471-85.61 1.096-25.73-.236-61.69-.42-85.8 1.209-25.11-1.496-57.67-2.469-85.91 1.495-29.93 1.618-51.24-4.414-85.54.788-19.7 1.383-31.69 2.602-48.999.523-32.425-1.414-63.275.471-94.928-.031-33.143.317-61.572-1.465-95.434.543-30.438.676-62.641.696-95.15-.226-31.494-2.181-66.159-.184-95.804-1.485-16.751 2.008-29.011 2.469-38.28.082-24.709-1.792-44.842-.379-76.443 1.393-36.905.226-81.885 2.653-114.511 2.683-42.802 2.766-78.017.605-114.574-.604-16.54-2.724-27.013.4-42.222-.696-32.879.42-50.338-.768-84.675-3.452-15.843.728-24.71-1.802-36.198-.911-15.42-.696-31.452.174-43.987-1.332-42.295-3.604-88.047-1.843-130.29-1.095M1974.65 815.495c-28.9 1.079-53.4.208-81.05-.56-24.8-.062-53.71-1.265-81.11-1.463-11.56 1.09-18.23-3.173-32.31-.736-39.18.851-67.84.031-106.99-.135-34.37-1.483-73.13-1.545-106.95-.218-36.46-.435-69.15-.975-106.88-.259-33.77-1.141-68.74-.321-106.91-.301-34.19 3.039-72.03-.56-106.97-.549-31.82.083-65.45-3.506-106.76.041-17-1.307-25.9 5.321-49.17.073-33.03 4.159-57.18-.363-90.594.57-28.924-2.811-59.432 1.432-90.162.809-30.286 2.178-59.854.456-90.711 1.068-32.082.561-64.354.612-90.415.592-32.505 1.058-58.914.363-89.95-.446-24.371-.301-60.488-2.51-91.06-1.535-13.838-.208-31.702.498-49.322.332-31.385 1.68-59.822 1.711-98.781.933-36.688 1.162-68.506-1.836-98.824 1.203-8.948-.373-31.67-1.576-40.396.363-23.061-1.701-57.488.436-87.352-.632-31.448-.063-56.547-3.921-87.394-4.886-9.74-.518-24.708-1.929-38.673-1.141-38.188-3.06-72.489-3.267-116.402-1.504M1976.09 792.79c-24.13.915-51.38 4.246-72.77.393-22.89-2.021-49.16.745-72.94-.457-8.41-.756-18.04-2.001-29.09-.362-30.94-3.746-53.94-1.383-80.57-.638-29.69 2-56.12 1.5-80.56-.649-28.4 1.979-53.98-.873-80.47-.564-25.63-1.352-54.49-.586-80.59-.735-28.09 1.192-58.4 2.469-80.48-.659-26.86.319-54.89 2.117-80.53-.532-16.27-1.192-32.14-3.108-48.3-.33-34.32-1.703-65.72-2.075-96.57-.777-39.03.138-61.55-.734-96.67.33-31.8 1.649-65.14.521-96.084 1.053-32.648 1.979-61.799.628-96.941 1.288-31.539 1.053-63.215-1.011-96.561 1.011-34.424-1.235-68.636.936-96.477.138-35.046 1.734-67.293.032-96.434-1.086-33.504.405-65.846-2.649-96.825-2.947-24.47 2.075-36.346-.128-48.18.277-38.682 1.691-61.567-1.001-96.561.819-33.832 3.639-62.402-.213-96.572 1.075-11.39.564-18.765-1.32-27.999-.585-30.937-2.32-54.985-1.426-84.59-3.48-7.47-.745-33.346 1.979-40.573-.958-17.307 1.234-31.412.17-43.742-.032-43.563-.372-84.4-1.234-128.058-1.383M1977.53 767.526c-38.52.174-75.75 2.391-115.16-.203-8.72-.668-22.27-1.52-28.79-.087-34.26.997-74.52-.697-111.85.881-37.84-1.52-74.73 2.226-111.81.338-24.79-.503-46.88-1.306-74.51-.029-24.36.726-45.69-2.816-74.31-.213-23.78-.813-47.52.426-74.67-.358-18.32 1.171-35 1.704-49.64-.31-29.18-3.503-68.38 2.623-100.2-.822-33.43-.329-76.53 3.271-101.5-.358-31.43-2.314-68.17 1.626-100.74.174-31.7-2.052-67.177 1.519-101.045.377-34.883.92-69.27.233-101.215.668-33.604.145-64.884-.532-100.612.426-23.185.803-47.807 1.065-71.816-.794-21.737.416-46.063-2.497-72.418-2.7-22.16-2.41-45.662-2.333-72.102-2.855-23.872-.842-48.821-2.594-72.091-1.278-17.457-.348-38.56 2.555-49.709-.01-24.611-.735-49.487-.6-74.584.146-23.587.145-51.358-.339-74.606.377-13.231.203-33.499 3.01-49.075-.532-31.639-.32-69.481 1.364-98.393-1.21-13.315-.145-30.646-.349-40.78.252-42.999.938-79.488 1.606-123.512 1.045M1978.97 740.532c-37.95.725-71.36 1.019-106.31.715-13.54 2.979-24.44-1.303-35.45.118-35.02 1.832-66.84 1.626-99.38 1.47-33.85-1.274-67.17.764-99.36 1.175-23.06-.029-45.13-1.077-66.24.618-26.95 2.018-42.62-.774-66.03.352-24.2.628-43.31-.44-66.42.471-16.75 1.597-34.67 1.401-49.54.264-32.8-2.234-70.13-.431-104.43-.009-30.25-1.108-72.83-1.117-103.84.254-33.21 1.059-70.12 3.646-104.09.618-33.11.744-66.6-.657-104.381-.01-33.951.686-71.898.059-104.232-.764-34.638.117-72.849-.128-104.528-1.333-37.091.255-71.729-2.91-104.824-2.871-34.237-3.253-68.029-3.577-104.274-4.988-38.824-1.558-82.817-5.664-125.753-2.361-14.09 1.548-25.601-1.735-38.592.656-25.875-.862-53.421 1.45-77.289 1.441-26.552-.667-50.99-1.019-77.447.372-15.654-2.352-36.71 1.842-51.223-.451-16.827.667-35.875-.088-51.244-.401-11.268-2.685-31.245-.04-39.511.254-13.55 1.166-27.186.275-40.187.382-41.32 1.607-80.017-.735-120.563 1.833M1978.97 711.353c-27.99-1.565-60.1.661-90.44.346-7.66.386-22.61-.946-30.06.254-13.65-1.637-29.78.091-44.02.722-23.18 2.216-54.87 3.883-83.23 5.835-22.3.833-58.44 4.859-83.46 3.009-20.91-2.389-42.64-1.291-67.98-1.749-29.45 1.932-47.79.936-67.96-1.189-9.98-2.877-28.24-.793-45.14-.447-30.73-2.247-63.82.691-100.01.427-36.09.386-67.97-1.017-100.17.447-34.73 1.84-68.22 3.08-100.18.488-32.57-1.525-65.09-1.972-100.12-.02-32.95 1.463-69.047-.56-100.624.111-34.98-1.28-64.75-.172-99.761-.874-34.768 1.81-68.501-1.494-100.3-1.128-31.397-1.983-71.354 1.108-100.194-1.688-33.923 2.298-61.537-1.901-100.173-2.551-32.929-.458-65.933-.509-100.437-3.121-12.935-.122-28.744-.143-45.178-.57-21.114-1.291-45.494-.244-69.071-.427-23.471.305-45.484 1.017-68.956.163-18.884 2.643-25.659-1.616-38.224.305-25.764-.285-48.675 3.243-76.511 1.505-24.338.193-53.072 3.059-76.702 2.165-13.484-2.196-18.103.295-30.932.274-41.046-.101-83.159 3.02-123.866 1.566M1977.53 685c-30.22 1.324-74.28 1.106-109.26 4.822-10.97-.501-23.55.822-35.51 1.049-14.8 0-27.87.539-38.96.927-14.94 1.219-24.34 1.91-34.01.803-40.37 1.097-80.7 2.326-119.64-1.134-44.42-.246-77.89 1.182-119.74-.407-12.24-1.541-34.1.237-47.32.17-37.97-.359-71.64-.179-105.18 1.475-37.62-2.023-65.78.095-104.95.851-38.27 3.782-67.01-.019-104.61.766-34.67-2.468-74.93 2.241-105.43.964-34.97-.132-68.947-.879-104.52.511-33.999-1.144-71.147.482-105.442-.132-34.315-.426-72.108-.161-105.356-.246-39.526 1.702-68.357-2.09-104.554-1.513-32.826-1.068-70.46-.019-105.367-1.967-32.752.35-67.945-1.588-104.522-2.713-16.857-.009-36.419 1.494-47.41-.473-17.29.407-28.112-.227-47.453.274-9.849-1.21-27.118.199-33.702-.141-27.531-.426-55.781.085-84.305 1.342-26.875.549-54.448 1.05-84.431 3.914-14.172 1.248-27.446 5.238-31.927.851-25.364-.955-49.788-.662-80.658.246-27.457-2.316-52.367-1.787-80.88-2.827M1978.97 661c-35.46 3.783-71.78 7.703-106.06 6.892-9.83 1.602-25.27 3.024-34.57 1.307-11.87-2.74-25.12.084-39.99.474-17.15-1.37-28.74 1.549-40.36-.148-14.59-4.847-34.35-3.224-51.3-1.833-38.26-.411-75.62-2.582-117.34-3.499-12.76-.263-30.01-.664-48.07-.495-19.99 3.172-36.75 3.087-47.36-.116-36.63 1.791-74.07.706-105.82 1.57-35.93 4.215-67.29-.537-105.26 1.412-33.41.021-73.15 3.014-106.11 1.064-28.66-2.149-72.06-2.539-105.2.959-36.96.77-72.948.812-105.42.527-34.142.685-71.412 1.223-106.039.727-34.428 1.149-73.398 1.17-106.156.496-38.379 1.464-67.819-1.76-105.342.2-30.876-1.001-67.544.084-105.5.158-35.04-1.012-70.799 2.898-105.955.158-13.948-1.149-25.551-1.359-43.958-1.296-14.34-.59-33.022 1.454-44.36-2.203-35.917 2.35-69.203-1.981-104.55 1.191-37.143 1.201-71.58 6.302-104.19 5.174-11.697 1.549-21.683.253-33.243.39-24.642 2.919-44.223-2.445-66.572-.432-38.75-.969-71.919-2.655-110.731-4.51M1981.85 640.031c-22.7 1.549-46.61 2.299-66.95 5.122-17.14.769-45.88 3.779-66.97 2.95-17.6 1.816-25.29.267-41.07.533-9.46-.878-20.37-.996-31.67-1.677-11.4-.79-22.31-.652-31.86-1.836-30.72.069-58.42-3.296-86.57-5.033-28.27-4.352-58.97-4.865-86.21-5.872-15.36-.79-35.22-1.924-42.94-2.734-7.87-2.408-16.34-3.533-28.64-1.214-25.65 1.382-52.66.445-85.93 2.497-31.54.622-57.14 3.178-85.05 3.504-30.15 5.437-62.3 3.572-85.43 4.056-28.29 1.559-57.73 1.658-85.39 3.197-27.99 1.342-60.28.691-85.97 1.915-28.67-.938-55.6-1.55-85.262-.73-15.779-.889-35.573.039-46.839-1.836-32.615-1.086-59.512-4.54-94.367-6.711-25.29-3.513-55.548-3.02-76.146-3.622-25.195.04-51.194.829-75.903 3.129-30.479 2.98-49.006 3.256-76.051 6.375-24.128 1.51-52.05 4.066-75.216 4.974-26.03 1.273-49.714 1.243-75.142.829-14.489-.336-25.819-3.198-45.423-.504-43.976-1.263-75.195-.148-113.559-1.233-37.772.562-71.612-2.211-113.939.829-10.727 1.095-20.82 1.707-32.403.079-37.603 1.273-78.714.888-117.268.02-41.07-2.182-76.326-1.402-117.046-2.793M1984.73 619.356c-34.73 4.153-70.03 4.627-105.29 5.408-15.98 2.156-24.23 3.293-35.1.89-19.49 1.721-32.9 1.385-47.8.564-14.62-.257-33.49-.722-48.5-3.312-25.98-5.369-53.32-6.842-82.31-8.108-24.77-3.045-52.46-5.072-82.3-4.024-14.11-.9-23.6-3.164-40.87-.564-33.52-.85-70.07 1.404-107.16 1.661-37.09-.237-66.64.416-107.03 4.282-36.36-.287-63.71 1.067-106.75 4.33-30.07.257-74.08 5.033-107.31 2.413-36.6.356-72.38 1.315-106.75-1.523-35.132-1.76-71.405-4.865-106.769-8.029-10.97-2.303-24.319-.642-37.372-2.521-29.424-1.621-57.157-.662-85.598-1.78-32.014 1.009-58.13 2.759-85.705 1.197-29.582 3.312-64.312 3.994-86.349 3.223-26.285.761-59.45 2.096-85.281 3.194-19.014.84-29.974-.663-43.682.099-13.507-.109-26.285-1.276-43.734.217-17.228 1.424-32.786 1.157-43.735.297-10.59-.643-29.953.385-43.756.336-11.7-1.107-26.433 1.582-39.211-.129-20.694-1.344-46.948.465-68.223.06-18.538.366-44.675-.396-68.582.613-23.823.939-46.515 1.661-68.393.464-24.287 2.541-47.73.465-68.582.149-9.914-.673-17.016.138-26.835 0-25.63-.831-54.303-.94-80.557.118M1987.61 596.574c-43.69.893-86.53 1.368-129.06 2.233-13.59-1.591-27.78.325-43.22.186-14.39-2.223-23.02.316-38.04-1.47-15.24-.511-24.97-.26-38.05-1.349-10.59-.241-21.22.186-29.42-.66-7.83-1.804-19.54-1.191-29.37-.53-29.54-1.014-57.79-1.377-90.52-2.911-32.87 1.255-57.97.939-89.9-2.019-34.32-1.581-62.01-2.381-90.99-1.172-33.59-.307-55.16-2.009-89.9.344-36.49.503-64.93 2.986-91.1 2.093-27.69-1.032-61.58 2.763-90.37 2.837-37.94 2.344-73.59.381-121.38 1.684-39.624-1.851-80.7-.875-120.328-2.149-15.961.791-26.964-1.749-46.984-.056-24.206 1.237-45.674-1.665-74.636.874-23.867-.53-50.536.512-73.294.679-22.926.056-53.294.01-73.547.233-25.759 2.66-45.568-1.842-74.393-.716-14.016-.177-26.689-2.298-42.45-.772-16.669.725-24.839-2.8-39.786-.614-8.297-1.051-28.888-.958-39.796-.521-10.602-.874-25.464-.27-40.22-.586-26.32-.707-44.976-.549-66.433-1.181-22.029-.242-47.038-1.888-66.064-.614-20.527-1.358-43.338-.53-66.074-.316-20.866.706-43.771 1.134-66.254.474-19.967.874-43.877 2.549-66.159.856-23.37.418-42.63.92-66.18 1.386-13.572 1.646-21.774 2.669-33.655.651-10.58.79-21.901.781-33.402.725M1987.61 572.511c-34.63-.596-68.85.353-101.37-1.07-33.36-.869-66.73-2.686-101.36-1.727-13.78-.938-26.49-.999-40.55-.484-27.53-1.464-56.96-.545-83.68-2.574-29.2.848-54.43-2.615-83.59-1.625-29.01 1.645-48.32-3.665-83.68-.576-38.19 3.533-58.56 3.523-83.39.172-27.46.323-57.16-1.676-83.66.969-27.75-1.232-56.08-.101-83.54 2.422-31.27 1.777-59.69 1.091-83.35 2.877-27.49 1.949-53.84 4.462-84.31 4.311-36.35 1.05-66.89.979-98.269.252-31.233-.525-60.132-5.764-98.265-7.318-16.673-1.383-31.529.111-43.036 1.201-10.523-1.04-24.576 1.201-35.534 1.12-14.623 1.858-26.256 3.342-36.104 1.04-9.087-1.383-18.734-.262-36.115.787-11.031 3.927-22.115.667-36.126.465-12.859-.323-28.655.918-36.146.06-11.94.889-22.031-1.393-36.168-.414-14.222-.161-22.675-1.928-36.316-1.181-10.64.869-28.529-1.1-36.39-1.776-13.07-.555-29.659.494-41.377-1.555-9.097-.464-17.983-2.675-30.8-1.019-12.236-1.928-22.971-.394-30.811-.687-25.708.697-53.38-.696-80.673-1.161-29.511-1.615-54.901-1.625-79.425-1.463-29.385 1.241-51.426-2.696-79.933-1.222-31.656-.898-53.285 1.464-80.155-.091-27.979-.757-51.732.868-79.901 1.918-29.744 1.716-49.154 1.747-79.721 4.745-14.16.454-24.208 2.382-34.351 1.221M1987.61 547.482c-40.31-1.436-76.6-2.318-116.5-3.69-12.12 1.829-24.92.978-29.13-.734-32.18.894-62.36 1.33-85.74.5-28 1.425-54.85-2.339-85.72.011-27.88-1.064-60.74 2.233-85.86-.075-27.62-3.998-61.41 3.637-85.49-.531-32.69-.479-58.27.659-85.45-.149-32.8 4.296-58.88 1.031-85.82.138-30.67 1.563-59.9-.468-85.89.968-26.3-1.01-54.25-.83-85.32 1.308-18.54-.798-46.34 2.052-68.58-.149-28.57.818-49.42-.798-68.29-1.042-21.334-.606-42.936-2.297-68.037-1.489-22.596-1.138-41.705-3.775-68.824-.51-28.229 1.935-58.223 7.358-95.193 9.601-14.363-.499-31.389 2.265-39.813 2.042-16.984.702-22.818-.744-39.981.319-9.111-.808-25.091-.085-39.232-.287-29.497-1.755-54.302-.479-81.707-3.658-26.453-2.945-53.14-4.71-81.792-5.721-7.567-.627-21.137-3.519-32.837-2.456-33.069-.138-63.782.883-89.581-1.074-34.422-.191-56.796-.478-90.046-.999-30.48-1.213-61.975.712-90.046-.373-22.11-1.137-45.815.319-66.879.405-25.376-.394-46.186.808-68.306 1.244-24.203.51-44.558.691-68.074 2.35-20.482-1.074-45.942.319-67.08 3.434M1986.17 522.456c-31.96 2.667-54-2.231-79.89-2.089-10.69 1.156-19.64-1.055-26.56-.548-34.42 4.168-62.53 1.532-99.7 2.576-34.69-.355-65.98.426-99.57.051-28.14-2.657-67.16-.274-99.29-1.815-32.81-2.221-65.38-1.025-99.69-2.464-34.61-.741-65.93-.183-99.09-2.698-30.01-4.299-66.03-2.738-99.96-2.139-31.38-.345-66.26-2.465-99.52-.518-33.12-.537-73.01 2.373-100.02 1.471-33.19 3.133-64.7 1.49-100.119 4.664-36.012 3.894-64.532 4.269-100.291 8.437-34.85 1.866-72.986 5.446-108.322 4.442-15.523.649-28.552-2.049-45.955.02-37.936-.73-74.794-2.606-114.853-2.687-33.096-3.904-75.163-2.211-114.715-4.695-14.91-.01-29.777.213-44.001-.791-31.944 1.5-53.067-.01-86.48-.436-33.56.963-60.104-1.663-87.156-.71-23.268-.406-56.882-.254-86.903-.304-43.398-.68-88.17 1.713-130.27.101-45.205.913-87.98-.112-129.983.984M1984.73 498.439c-24.33-.63-45.95 2.363-68.17.251-11.14.981-23.25.831-33.78.14-42.5-1.162-89.21 2.893-128.46 1.512-41.84.66-89.87-.291-128.6-.421-29.85-1.422-57.6-.46-85.77-1.081-27.17 1.852-55.63-2.854-85.54-1.502-30.57 2.633-58.77-2.163-85.97-1.882-26.6-1.452-64.35 3.734-85.9-1.652-21.22-3.765-64.35 2.723-85.42-2.263-21.82 1.982-47.98.721-74.26-.541-24.59.03-45.73.24-74.71 1.542-26.72 2.773-48.495-.09-75.024 2.984-25.208 1.522-49.434 1.141-73.945 4.025-34.21 1.201-67.975.26-98.392 1.421-12.435-3.093-27.512 1.712-38.932-.64-12.52-.401-32.667-.661-42.641.14-35.097-1.292-72.202.29-106.527.61-39.154 3.415-69.455 2.594-106.338 1.833-14.738.57-25.06 1.562-37.78 1.141-30.723-1.812-63.401 4.366-89.106.831-30.469-1.882-58.372 1.222-89.486 0-35.023-.901-59.787.981-89.074-1.011-18.753-.15-43.834-1.282-66.76-1.071-33.132-.611-66.064-1.342-100.125-1.733-33.491-1.962-67.543-2.332-100.189-1.391M1984.73 475.255c-13.59 1.304-24.23.772-31.75.01-15.08-1.032-22.04-.865-31.63 0-29.01.459-53.89-.532-80.3.741-25.32-1.273-55.1-2.41-80.52-.511-28.01-1.408-55.62-1.742-80.49-1.095-31.41 1.909-50.5-4.424-80.17-1.701-32.99-4.423-70.05-2.452-107.03-2.608-35.65-.48-64.64-2.389-107.04-2.587-40.32 3.881-75.42-3.526-106.86-1.878-34.66.083-75.24.991-107.52-.626-38.65 3.328-71.3.49-106.21.928-34.65-1.283-68.772 1.075-106.337 2.901-33.813 4.433-71.336 4.131-107.306 6.676-9.681.459-22.207 2.337-33.368-.021-35.494.835-69.064-.855-104.082-2.034-12.916.657-20.23-1.408-32.565.084-22.842-.407-49.118-.126-81.441.636-26.34 1.429-52.152 1.262-81.504 1.617-13.107-2.525-21.742.845-39.151 1.252-28.274.511-64.318 3.338-91.63 3.547-30.536.574-57.215 1.784-90.573 1.304-31.805.219-59.868-.584-91.218-.428-26.403-.24-47.913-1.283-68.144-1.158-20.484.073-45.81-3.328-68.725-1.471-23.454-.49-43.96-2.681-68.408-1.679-23.327 1.053-43.981-1.92-68.366-1.617M1986.17 453.54c-6.64-.795-18 .362-27.02.171-31.12.191-66.21 2.805-93.75.925-30.88-1.217-61.14-.865-93.53-1.116-9.65-2.384-29.69-1.619-46.72-1.117-34.13-5.701-62.29-7.38-101.02-4.474-27.28-2.514-65.34-3.037-101.03-3.158-28.9-1.096-74.04-3.137-101.35-1.86-36.24 2.172-66.59-2.373-100.7-.774-35.62-1.317-65.25 3.087-101.38.251-40.7 4.736-66.8-.653-100.61 1.589-34.32 1.076-66.54 2.946-100.84 2.484-34.245-.171-70.222 1.397-101.021 3.298-16.319-.925-25.281.483-43.217.362-16.161.301-31.697-1.458-46.494-1.639-20.927-2.896-46.103-3.087-70.529-3.992-25.366-.955-44.38-5.571-70.507-5.51-11.552-3.319-28.632 3.077-39.402.432-25.63.935-56.017 2.524-82.091 2.956-23.823 1.77-58.257 3.459-82.123 4.515-9.406-3.298-22.808.613-32.902 1.941-26.56 1.035-60.603 5.58-86.022 4.414-28.21.473-58.828.382-86.509 2.785-33.188 1.549-60.065.835-86.234.664-42.404.322-86.848-2.343-129.357-1.488-45.976-1.348-89.362-3.077-129.42-3.198M1989.05 432.032c-12.84 2.277-27.43 2.339-35.62 1.267-11.55.928-26.39-1.154-35.18.701-33.99-.659-63.52-.474-92.49-4.224-12.94-4.204-29.34-1.773-46.2-1.731-26.23-1.402-55.76-2.752-90.6-2.082-27.56 1.618-55.45-1.813-90.55-1.648-30.09-.33-58.46 2.163-90.5-1.237-34.24-1.164-56.09 1.288-90.59-.494-26.15-1.391-62.06-.526-90.73-.237-26.4-1.731-63.22.422-90.44.999-33.98 3.04-55.6.216-90.89 1.329-30.03 3.163-57.64.268-90.52 2.422-36.12 3.822-68.98 2.514-98.826 1.937-32.85-.567-64.959 1.535-98.622-1.896-9.347-.309-18.989-2.679-32.438-1.432-32.891-4.658-63.182-2.587-97.226-6.255-17.583-.412-20.786-1.133-36.941-1.597-9.759-1.844-28.251.907-39.098-1.061-16.134 1.236-28.557-2.123-44.427-.165-22.699-.618-41.836-.587-66.83.948-26.209-1.443-47.894 1.731-66.883 2.638-11.566-1.402-30.819 1.112-44.796 1.865-14.316.886-28.092-2.02-46.605 2.442-22.742 2.473-47.63 1.494-69.462 2.308-16.219-1.041-45.304 3.534-69.865 2.256-25.247 2.762-40.377-2.72-69.748 1.134-24.211 2.153-49.84.649-69.769-.083-15.902.206-26.39-.835-46.552-.505-28.113-1.411-61.744-.412-93.262-2.133-10.72.464-18.671.938-32.437-.031M1994.8 409.998c-11.62-.641-25.43 1.223-34.97 1.105-23.27.72-52.91 1.538-79.8-.424-14.57-1.519-25.26-3.186-39.84-1.707-35.62-.591-55.2-3.087-89.01-5.227-29.55-4.477-59.21-3.067-89.3-2.436-34.69-2.337-77 .306-107.84-1.006-39.64.937-70.71-.729-107.84 1.48-34.86-1.519-69.81 1.292-107.62 2.663-39.66.473-69.57 2.426-108.01 3.649-36.25 2.297-69.34.739-108.37 2.909-36.43 1.174-70.95.562-107.2.996-37.002-.838-70.138.611-107.514-1.874-36.149-1.262-76.252-1.41-107.929-4.842-14.538.927-22.668-1.43-36.276-1.43-39.458-1.983-69.708-7.249-108.711-5.454-12.36.158-32.608 1.933-41.88-.572-36.974-1.134-89.765 2.298-128.24 1.568-16.367 1.903-28.907-6.815-42.789.74-20.543-3.373-50.497 4.625-69.021-.02-21.442-.079-44.417-.651-68.333.247-19.476-.188-49.418 3.796-68.439.502-19.782 1.431-47.23 1.056-68.862.928-23.874.7-47.008 2.12-68.577 1.015-25.206-.374-43.941-.808-68.523.296-13.735.483-23.472-.848-38.75-.069-10.669-.878-19.254.089-30.112.178-9.727.779-21.083.927-30.091.286"/>
    <path d="M1999.12 384.724c-10.72 2.1-17.31-1.541-27.82-.294-9.93.447-19.46 2.222-27.79-.274-17.75.619-32.33-1.643-44.39-1.45-16.87.284-24.56-.862-44.29-1.247-45.12-1.177-92.06 1.095-132.03-1.238-45.89.426-86.36-1.47-132.01 1.035-24.59-1.278-59.03-1.217-88 1.765-29.17.892-55.7.811-88.05 2.393-29.88 1.958-55.84 3.215-87.94 3.225-25.54 3.013-55.55 1.583-88.06 3.662-26.6.466-58.71 3.621-87.92 3.986-25.66 2.759-48.24 1.481-75.91.963-27.09-1.054-51.18-1.44-76.289-3.499-25.186-1.389-52.074-2.028-76.373-5.619-25.048.436-49.199-5.598-75.822-6.045-28.769-.547-49.03-.628-72.684-2.099-14.099-1.319-23.685 1.562-43.196.03-12.904-1.227-24.509-2.099-36.452-.071-9.872.284-28.326.964-37.838-.182-9.818-1.167-28.039.446-42.868.811-8.973 1.319-28.769-.253-41.98.385-15.981.224-31.126-.456-42.171.183-19.246.893-34.233 2.789-42.392.183-28.368 1.166-53.533-2.059-78.233-3.256-28.082 1.258-52.729 1.065-78.01-2.657-23.897-3.155-54.209-1.218-78.148-1.481-28.653-.294-52.349-1.207-78.127-.852-27.997 1.024-54.568-.528-78.19 1.521-27.891 4.554-48.332 2.12-77.989 3.814-13.243-.578-27.543-2.1-43.703.233-17.323-1.308-28.262-.568-43.492.497M2002 357.488c-12.62.165-22.8.755-32.43-.919-17.77-1.374-44.41-3.493-63.26-1.529-12.73.117-23.93 3.609-31.52-.271-21.64-.59-52.53 1.065-72.3.194-24.07.406-48.37-1.026-71.92 1.287-23.55 1.238-44.01 1.645-71.65 1.664-23.63.232-52.02.222-72.8 2.235-34.5-.997-62.02 1.422-96.09 2.99-32.11 2.205-65.62.464-90.55 1.867-30.12-1.393-63.17 2.341-90.99 1.383-34.34-.658-57.28.136-90.98.658-30.5-.629-57.25 2.158-90.52.31-27.42-.494-57.52-2.922-90.58-.339-30.63-.28-59.638-.774-90.862-1.064-30.263-.116-57.725-4.915-90.926-1.829-28.423-3.309-55.261-2.418-90.428-2.051-17.029.445-30.009.552-41.562.281-16.088 1.248-20.337-3.058-41.573.338-16.109.707-28.603 4.499-45.959.658-16.553.948-20.105-1.345-34.871.174-12.516.204-28.107-.909-41.499-.048-11.279-1.8-21.923.6-34.47-.135-14.079-.233-29.596.212-35.082-.436-36.69-1.993-57.724-3.115-86.803-3.802-29.66-.929-61.328-1.151-86.655-2.545-31.869.455-56.91.455-86.887-1.277-30.643.6-60.462-.484-86.549-1.006-30.316-.842-56.805.513-86.898.484-24.618.909-57.407-.271-86.58.996-14.535.329-21.194-.987-37.853-.309M2002 328.277c-35.81-1.776-79.8-1.021-116.24-4.277-6.95.367-19.94 2.777-28.56.031-22.4.183-42.88.51-67.97 1.531-22.09.837-50.42 2.542-68.94 2.776-19.69-1.449-46.76 5.431-67.95 3.155-20.97.214-43.63.806-68.87 3.715-28.18 1.47-61.61-.143-91.18 2.95-33.16.909-58.99-1.245-94.58.266-33.92-2.042-52.04.459-94.75-.725-30.15 0-60.21.755-95.03-1.807-31.18-.908-65.22-.255-94.11-2.195-32.05.123-66.4.49-94.56-1.469-31.899-.521-63.138.357-94.579-.786-36.282 2.633-66.453 1.939-94.722 1.255-34.464 3.552-60.047 4.89-94.617 3.481-18.024 3.001-29.146-.96-42.36 1.541-26.588-1.01-59.075 2.808-87.661 2.991-16.978-.775-27.444 1.766-43.872.858-8.363 2.48-22.349-1.225-33.047.347-10.636 1.817-25.002 1.041-33.967-.072-31.377.807-60.639-.234-89.458-2.429-28.353-2.379-50.744 1.133-74.615-1.797-27.18-1.347-53.472 1.868-74.647-.959-31.905 1.214-48.323-2.777-75.006-.97-28.67.541-51.516 3.195-74.192-1.368-31.06 2.032-45.923-.306-74.224-1.296-23.966-.654-55.046 3.246-74.594-2.011-13.5 2.97-15.603-3.216-26.746.081M1997.68 301.062c-33.51-2.021-75.12-5.013-111.02-3.381-11.89-2.137-14.28 1.01-27.4.272-45.04-3.876-86.43 6.13-129.28 4.313-43.62-.369-82.8 4.071-129 6.859-22.29 2.225-48.24 1.175-76.63 3.643-24.19.641-60.62 3.148-76.63-.729-32.98.651-60.62-5.1-98.63-6.411-35.56-3.226-66.29-1.943-98.94-5.295-33.99-3.556-57.7-5.401-98.5-3.818-40.87.301-67.83-2.574-98.46-2.205-15.28-1.584-27.45-1.856-43.73-.126-29.652.038-57.525-1.001-87.449 1.399-13.477.534-24.956-.107-43.729 1.632-45.705 2.312-84.456 5.391-131.26 9.18-13.477 4.012-22.916 1.059-35.421 2.448-11.532 3.361-22.979.593-35.42 2.643-14.841-1.739-30.516 1.612-47.101 3.487-15.549.972-38.063 1.156-47.058 3.75-12.917 2.157-23.773.738-33.719.486-11.585 1.758-22.282.097-33.962-.321-30.527.185-57.861 1.234-86.855-.67-43.612-3.303-92.446-3.624-129.685-7.296-41.213-2.331-85.745-8.646-130.14-6.664-18.181-2.361-45.504-.165-71.348.485-27.42 1.39-44.427 2.847-71.349 3.401-21.637 1.69-38.243.408-59.637.33-9.925-2.536-20.58-.923-34.374-1.263M1991.93 276.278c-27.37-3.937-56.91-2.935-84.11-4.278-11.12.486-20.13 1.777-27.91.227-31.48.455-51.9-.899-85.59 4.784-33.59 1.023-61.87 5.57-85.58 4.557-17.63 2.821-28.38 3.493-42.79 1.488-36.9 2.087-75.1 1.478-100.82.072-35.3-1.074-66.76-4.277-100.79-1.353-30.39-.021-70.16.32-100.82-2.325-35.99-1.529-72.4-.744-100.74-2.428-33.6-1.137-71.11-1.922-100.84-2.098-33.07-.062-70.89.186-100.83-1.643-32.38-.785-67.163-.258-100.891-.434-35.038.341-70.541 2.542-101.046 2.17-12.954-2.407-32.46 1.24-47.675 1.777-13.705-.899-34.235 1.354-47.792 2.563-16.367-.238-30.885.682-44.199 1.261-30.462-.217-57.111-.538-88.778 3.823-11.929-.817-16.705-2.925-33.316.506-17.286.403-36.908.816-50.158.269-15.997-1.075-30.6-.424-50.56-.383-27.715 2.087-58.178.827-84.414.383-27.282-1.189-59.098-.248-83.495-2.511-28.92-.414-55.347-3.007-84.193-3.379-29.078.765-57.269-3.327-83.801-4.009-36.2.392-65.395-.661-93.491.124-36.274 2.139-64.793 3.038-93.375 3.957-10.45-1.157-29.448 1.529-42.973 1.643M1987.61 253.949c-38.96-3.599-69.93-4.313-105.61-2.712-10.5 1.07-21.43.234-35.05.979-21.54 2.426-43.1 1.162-67.63.917-23.89 2.162-44.58.999-67.26.714-28.42 4.251-44.68 1.723-67.84.122-17.31-.611-44.3 1.917-67.06-.387-30.92 1.896-42.22.204-67.64-.479-20.83-.306-46.46-1.999-67.26-.857-36.49-1.101-66.31.551-100.88-1.223-32.12-1.601-65.58 2.691-101.51-.979-31.71-.092-66.69-.867-100.94-.183-32.71-.215-67.02-2.396-101.49.214-32.61.907-65.498-.632-101.673 1.916-32.401-.774-68.407 1.836-100.829 3.13-14.081 1.254-33.257.347-47.718 1.56-13.563-.02-22.803 1.264-40.605.49-41.206-3.926-80.595 1.305-121.908 1.213-11.892.102-23.922 1.713-34.155-.724-20.424 1.611-33.353.183-51.25-1.856-15.867-2.202-37.242-3.354-51.355-2.926-31.777.999-61.673-2.926-92.456-2.436-29.811-2.264-63.756-2.019-92.404-3.64-32.781-.714-60.806-1.682-91.97-3.375-32.083.683-61.841.816-92.551-1.427-47.169 2.6-95.141 5.454-128.821 9.176-3.616-2.855-16.851-.418-27.158 3.221-13.796.938-14.525-1.967-27.316 1.071M1983.29 233.328c-22.5-.33-43.06-2.311-57.12-2.721-8.24.53-20.29-.62-28.55-.71-33.74 3.551-62.01.3-90.84 1.18-28.64 2.001-56.08-.97-90.87 1.451-24.43 3.55-51.34-.331-70.21-.131-22.73-2.05-46.82-2.78-69.49-.24-15.9-3.59-47.4 1.481-69.58-.92-24.54-2.25-46.87-1.12-70.16-.38-28.28-3.15-64.41.06-93.21-.71-30.35-1.49-57.19.74-93.03-.03-34.64 1.51-60.23-.19-93.54.86-31.81.95-61.51-.1-93.5 2.571-27.84-1.651-63.17 3.27-93.372 3.97-30.827 2.36-67.329 3.211-100.903 1.79-34.843-1.68-68.534-3.07-100.777-2.44-12.555-.25-17.944.41-31.64.25-10.79-2.34-19.879-3.62-39.134-.51-21.749-2.45-50.779-2.52-78.837-2.68-25.173 2.1-53.326-2.601-79.334-4.041-8.92-1.03-26.251-2.01-39.535-2.65-21.453 1.13-30.225-1.14-48.666-2.041-25.733.17-52.132 1.231-77.654-.5-25.204-.72-47.978-3.85-78.287-3.09-27.519-.23-53.221-2.64-78.077-2.59-32.856-.88-54.721-1.511-77.812-.49-38.605.8-74.832.85-118.256 3.59-8.983-.07-14.964.49-25.268 1.51-10.167 2.461-13.675 3.051-21.58 3.051 2.864-.17-9.892.8-21.516 3.47M1978.97 211.435c-11.35-1.789-23.58-.633-36.2-1.96-12.47-1.669-24.91-1.036-36.58-1.79-27.9.503-56.6-2.875-87.64-.151-28.39-3.549-61.06.835-88.15.875-27.18-2.513-57.33 1.307-87.67.855-27.71 5.369-52.8 1.146-87.75.643-29.3 2.051-60.73-.201-88.09-.372-32.54-2.202-63.92-1.377-87.83-2.101-31.06.442-55.86-2.071-79.88-1.599-26.02-1.538-52.58-1.226-79.69.845-27.84-.322-52.47 2.091-80.13 2.775-26.05.482-56.98 5.459-79.45 4.011-31.47.493-64.461 3.097-87.985 2.423-24.866-.814-57.605-.281-87.407-.563-30.16-.13-54.551-2.302-87.543-2.362-30.013.311-60.099.945-87.671-2.685-13.579 1.639-27.423-1.629-39.354-.854-34.715-1.77-70.424-2.373-98.408-2.564-33.33-2.303-61.029-3.901-98.47-2.604-7.186 1.518-23.63-2.021-24.454-.443.93-.07-15.556.252-16.761-.02-32.158 1.981-63.407.402-94.064-.03-34.197-.744-62.339-1.076-94.286-1.599-29.832-1.417-67.126-1.458-94.032-.573-30.361-.774-67.433-.01-94.497 3.6-13.157 1.347-18.758 1.558-21.421.854-6.394 1.368-18.07 1.307-21.4.774-6.72-.15-15.566 1.458-23.503 2.182-9.172 2.152-11.149-.794-20.945 1.177-8.01 3.398-12.956 2.392-20.924 1.226M1976.09 187.772c-31.55-2.295-61.01-2.878-93.32-3.857-34.31.8-61.63-2.332-93.03-.555-21.94-2.464-51.16 3.377-73.8 3.33-20.68.254-48.66 1.703-73.04 2.549-16.09-2.398-44 .527-73.14.913-29.27 2.445-51.86-1.073-73.71-2.089-47.4-1.608-86.69-2.248-130.74-4.082-42.31-.291-84.25.555-130.74.32-27.12.188-58.65 2.756-87.16 1.533-27.31.941-59.11 1.693-87.51 1.985-27.09.329-61.322 2.257-86.804 1.185-24.182 1.289-44.445-.63-67.339-.056-33.405.592-67.91-2.004-100.914-1.844-31.366-3.988-64.75-1.919-100.66-1.815-16.438-2.324-27.795 3.254-46.41.065-34.504-2.652-73.097-.799-115.968.311-44.14 1.138-76.879 1.862-115.694.592-9.381.386-15.879 1.223-18.382-.696-14.611 2.785-28.863-2.887-44.224-1.787-9.149.169-10.079-1.185-22.091-.677-30.764-1.176-65.458-2.022-99.36-1.656-29.814-1.044-57.937-3.085-99.234 1.007-2.42-.085-12.752.799-16.661.508-6.634-1.468-18.72-2.587-32.856.752-8.41 1.28-18.14-1.533-24.7.781-10.966-.48-24.9-2.21-37.018 1.26-3.434-2.784-22.281.584-36.956 1.364-10.892.151-17.167.875-24.647 1.223-5.589-.291-22.82 2.07-24.637 1.204M1974.65 165.634c-43.66-.468-84.52-3.34-126.45-3.435-37.8.617-78.03 1.521-114.07 1.34-40.48 2.861-77.24.851-113.35.308-41.64.957-80.97 1.68-113.91-.521-32.49-.819-78.41-.734-113.37-.734-38.9.957-75.25.255-113.54-.819-38.96.521-73.7-1.999-113.69-1.106-38 1.138-74.54-1.053-113.36-.361-37.13-1.798-78.38-1.67-113.936-.043-39.656.309-70.047.415-113.42.851-37.817 1-76.522-.032-114.032 2.488-14.779 1.287-20.557 3.34-28.194.213-9.687-1.553-21.549-.67-28.321-.106-13.965-.447-27.676-1.372-42.686.606-31.511-2.776-70.881.128-106.818 1.659-33.084-3.52-73.458 1.361-107.06 1.532-8.113-.915-14.863-1.851-20.852-.734-5.937-.947-11.736-.596-20.916-.628-27.042-1.648-50.451-3.86-76.088-1.648-23.134-.447-44.377.361-76.078-.67-9.782-.649-18.803 2.063-21.888.159-24.665-1.903-47.768.373-76.162 1.649-23.007-.649-49.68 1.063-76.31 2.765-3.581.425-15.888-.947-18.148.51-8.937 1.734-28.606 1.192-36.37-.17-10.553-2.286-27.38.138-36.043-1.893M1974.65 142.893c-13-2.462-29.9-2.362-49.42-.42-34.19 1.061-66.87-1.391-102.47-.671-34.08-1.641-69.89-.27-102.2-1.091-31.13-2.071-67.03.841-102.29-1.09-35.13-.531-67.92-2.252-102.47-.461-33.88-2.402-68.47-1.321-102.33-.59-36.36.02-67.71-1.201-102.46-.611-36.7-1.031-69.94-.76-102.69-.46-33.31-.25-70.96-.721-102.1-.25-33.37-1.552-68.67-.821-102.27-.371-33.328-2.161-68.295.551-102.458.291-41.998-.751-73.327-2.342-113.697.28-12.635.18-28.728-2.953-49.188-.1-17.235.39-32.768.03-49.368.26-13.661-.03-26.624.2-36.659-.16-12.455.62-18.514.971-36.552.04-14.243.13-29.215-.36-43.532.53-27.406.651-57.192 1.041-87.76 2.002-27.861 1.771-56.495 3.513-87.75 2.112-9.495-1.492-25.44 1.02-34.755.3-35.76.55-67.703-1.281-102.225-.26-19.16-.791-30.812-.831-46.566.21-13.154.09-32.757-1.351-43.246.3-30.959 1.041-62.405 1.962-89.696.721-10.541-.701-31.572-1.512-46.798.36-35.559-.681-66.497.01-98.43-2.983M1974.65 121c-32.73-1.577-62.74-1.868-93.83-2.943-31.11.713-62.85-.342-94.41-1.407-30.66.231-65.07.292-94.65-.392-30.87.031-62.11 2.401-93.67.031-33.6 1.326-62.05 1.135-94.42.693-31.84.281-59.44-.221-94.02.422-29.05-.613-65.77-.543-93.62.512-31.73.171-63.15.442-94.99-.412-31.11-.894-58.96-1.256-94.21-1.095-34.78 1.075-62.4-3.395-94.61-2.341-28.92-2.561-60.334-2.893-92.087-1.014-28.52-.352-61.699.964-92.258 1.205-32.705 1.728-60.21-1.195-91.942.673-26.977-1.386-60.421-.612-92.185-2.37-9.425-.01-20.013-2.472-29.228-.583-27.632-.141-63.929.462-87.577-1.979-15.248.261-30.655.392-46.463.161-23.479.562-46.726 1.627-70.121.683-24.906.301-49.326 1.929-70.111.934-12.437.563-25.064 1.497-40.079.814-43.05.934-79.833 2.039-120.42 2.863-18.449 2.722-28.34.823-42.616.844-17.118.592-30.03.1-45.321.592-33.687 3.526-60.378-.572-87.64-.14-25.054-.071-57.368-2.361-87.462-2.14M1976.09 98.33c-30.92 1.232-57.81 2.215-86-.457-31.7-.13-56.42-.646-85.32-1.391-26.32.795-58.07-2.772-85.03-1.063-30.51-.239-54.24-1.69-86.3-.994-30.39-.576-59.17.18-86.13.13-27.23-1.918-59.52-1.084-85.34.774-29.29 2.315-53.5.994-85.63 2.753-28.74 1.102-59.34 2.791-86.1 4.292-36.37.993-82.33 1.192-118.84-2.365-37.18-2.553-81.63-3.408-118.83-7.57-37.56-.964-64.162-2.773-95.693-.02-32.608 1.778-63.652 1.957-95.479 2.076-31.076-.03-61.434-1.322-95.057.626-34.752 1.748-64.339-2.573-95.954-4.123-15.834 2.056-19.679-.666-32.672-1.232-27.77-.666-58.371-4.233-83.923-2.137-30.4-1.013-54.157-1.639-83.987-1.629-17.334.725-29.956 1.391-45.843.437-15.306.08-33.21 2.087-45.823.944-12.094-1.858-25.995.07-39.991 1.272-46.14 1.043-83.881 3.745-120.017 3.706-8.261.437-22.352-2.246-39.876.775-37.911 1.917-78.652-.16-118.042-.477-35.82-4.292-78.156-.686-117.746-2.226M1981.85 71.735c-25.16 1.66-51.72 1.156-71.44 2.718-23.65-.376-48.7.257-71.08.198-24.95.494-45.96-2.373-71.61-1.74-24.11-2.333-47.39-3.173-71.05-2.422-28.14-1.136-50.03-1.64-71.32-2.006-27.29-.83-48.63.563-71.43-.1-31.5 2.146-54.75 3.47-79.45 3.44-30.16 2.61-53.03 2.314-80.23 4.834-27.92 4.003-57.13 2.363-79.94 4.181-27.25.682-54.79 2.007-79.74.396-28.85-2.788-65.54-5.002-103.63-5.931-31.41 1.117-54.36-2.926-89.36-2.194-28.16-1.097-58.546-2.471-89.361-1.167-32.582 1.078-60.362-.514-89.094-1.097-27.4.89-57.285 1.028-89.612-1.344-29.431.01-62.266-1.77-89.613-2.817-27.146-3.608-60.954-3.272-89.083-5.031-5.319-.258-21.319.958-31.767-.989-7.583-1.206-18.285-2.48-31.747-.988-16.57 1.206-23.846-1.187-43.463-.05-31.27.91-55.804-.524-91.187 2.65-7.043-1.8-22.113-.1-31.387 1.877-33.692 1.157-58.289 2.956-94.138 5.071-11.294.682-23.646 2.372-37.637 1.601-25.157.722-49.459 2.096-72.544 1.859-25.835-.653-51.468 2.075-71.994.01C65.688 70.43 43.65 71.2 17.18 71.16c-22.673-1.482-49.163-1.275-71.836-3.38M1984.73 45.834c-34.13.384-72.68 1.261-104.53.936-31.91-1.38-71.53.68-104.48.936-33.81 1.98-66.55-.227-104.24.768-31.88.602-72.54.138-104.81.809-32.14.62-69.49-1.567-104.45.61-32.12-.67-71.55-1.251-104.61.129-37.21 1.093-72.11-1.794-105.11-.207-35.55 2.374-67.35-.227-103.95-.444-35.82 3.134-67.28 1.695-104.63-.828-35.13-1.744-65.997-.522-104.375-1.754-39.329-.335-79.852-1.793-116.086-2.473-40.259-1.498-77.644-2.68-116.202-3.252-38.705-1.468-76.312-2.246-115.885-4.355-9.827.128-24.144.749-38.536-.374-14.096-.207-24.652-.257-38.579-.316-12.437.601-23.67-.345-38.97.109-21.092-.128-41.475-.089-66.549 2.079-11.729.295-22.529-.73-40.555 2.62C329.35 44.672 290.591 45.43 246 51.895c-11.359.7-19.295 2.788-28.277 1.882-20.732-.197-46.377-.483-68.113-.168-19.485-3.054-42.837-1.507-68.356-2.335-23.003-.453-46.219-2.207-68.335-3.173-24.039-.749-44.464-2.917-67.574-3.114M1989.05 19.043c-46.09 2.685-87.83 5.609-126.79 6.213-28.79-.68-64.4.613-97.03-.614-32.94-1.313-65.62-.968-96.48-2.023-30.68-1.87-58.79-1.495-96.87-.853-32.2-1.265-67.18 2.244-97.43 2.531-33.07 1.755-64.84 3.336-96.69 3.835-30.17 1.074-64.84.422-96.69.959-26.41-.096-54.67.306-85.88-.576-26.27-.345-55.8-2.013-85.94-1.773-25.47-1.61-57.59-2.57-85.88-2.608-21.76-.767-58.707.633-85.727-2.32-28.351-.01-58.098-2.637-85.9-2.244-28.034-.949-58.425-1.217-85.709-2.09-25.7.633-61.3 1.678-85.71-.776-26.534-1.486-58.943-.144-86.101.23-13.409-1.361-23.332.757-35.378-.086-34.829-1.333-65.506-1.084-105.977.67-6.013-.306-27.771 1.544-37.714 1.746-38.211 2.521-73.325 6.069-113.639 9.817-7.207 1.496-21.62-.077-33.741 3.279-8.95.403-21.725 3.653-33.624 2.195-27.622 3.145-50.87.24-73.431-.191-22.888-1.467-50.13-.211-72.596-2.57-25.392-.67-48.228-3.672-72.458-4.055-25.984-.02-50.3-3.519-73.198-5.407M1990.49-9.519c-35.27-.587-73.57 3.233-104.96 1.055-34.38-.428-67.55 2.088-104.68 1.432-32.67.458-65.16 1.293-95.35 1.88-31.85 1.412-60.57 2.984-94.66 1.73-30.9 3.025-60.88.409-94.51 1.503-30.17 1.144-66.83 1.094-95.21 1.283-33.29.239-66.12.14-94.55.517-30.98 1.134-62.5-.776-95.06.17-16.5 2.088-31.38.576-47.41-.31-18.36-.01-30.36.01-47.43-.536-14.67 1.442-27.71-2.08-47.43-.786-30.23.12-61.99-2.716-94.919-2.417-16.614-.468-32.002-.896-47.486-1.661-21.624-1.512-41.662-3.8-66.267-2.736-21.845.08-43.702-3.203-65.823-2.178-23.98 1.104-44.97 1.203-65.6-.736-20.24-1.323-42.667-.707-66.711 1.512-12.059-2.895-31.971 3.312-42.297 1.104-8.92-1.114-30.417.447-42.466 1.452-12.333 1.432-25.259 1.85-34 .865-12.566.25-21.866.866-33.957.985-13.972 1.86-29.149.16-42.825 1.75C439.632.33 410.472.628 380.171.986c-29.35-.666-55.973 3.183-86.813 5.46-10.801 1.175-26.01 3.094-38.65 2.438-30.417-.12-52.231 2.845-79.034.676-27.173 3.74-47.761-.666-79.436-3.441C70.715 4.944 39.991 4.745 16.75 1.67-9.863.17-33.431-2.268-61.85-1.323"/>
  </g>
</svg>