<svg width="1920" height="1280" viewBox="0 0 1920 1280" fill="none" xmlns="http://www.w3.org/2000/svg">
<g opacity="0.2">
<path d="M1967.46 1268.36C1939.07 1268.51 1910.65 1268.72 1882.2 1268.88C1870.54 1268.34 1856.1 1270.2 1839.76 1268.97C1825.63 1268.28 1811.04 1268.87 1796.51 1268.98C1764.66 1266.85 1728.46 1266.76 1687.88 1266.4C1652.05 1264.82 1616.06 1262.18 1579.13 1264.84C1542 1263.05 1504.26 1264.11 1470.06 1264.39C1426.86 1265.37 1397.21 1266.59 1361.64 1264.9C1324.09 1263.47 1290.62 1266.61 1252.34 1265.86C1218.57 1264.34 1179.11 1263.56 1144.11 1267.36C1106.64 1264.01 1072.33 1268.62 1035.46 1268.87C1000.9 1265.96 959.523 1271.23 926.523 1270.42C888.816 1269.84 852.569 1272.03 817.782 1271.68C789.687 1267.76 743.057 1272.49 708.925 1272.26C667.476 1269.93 630.34 1270.85 591.556 1268.06C548.14 1265.94 513.088 1265.44 474.187 1263.85C446.896 1261.62 419.108 1264.52 390.929 1264.09C348.031 1265.44 309.024 1263.76 266.116 1265.74C225.238 1266.48 180.289 1269.8 141.504 1269.72C129.386 1268.98 112.056 1270.21 97.5804 1271.07C82.1533 1270.8 64.0087 1274.15 52.293 1273.31C9.02505 1275.06 -30.8065 1273.27 -74.804 1270.31" stroke="#2A3C51" stroke-width="2" stroke-miterlimit="10"/>
<path d="M1970.34 1245.69C1956.97 1245.61 1943.6 1245.56 1930.22 1245.54C1916.84 1245.52 1903.47 1245.53 1890.09 1245.54C1875.33 1246.05 1864.45 1244.61 1846.74 1245.27C1823.13 1245.82 1799.86 1245.56 1775.63 1245.6C1750.34 1247.43 1730.64 1246.33 1704.7 1245.74C1687.89 1245.33 1655.61 1245.62 1633.85 1245.19C1608.74 1245.71 1587.46 1243.82 1562.68 1244.41C1534.85 1244.92 1516 1243.99 1491.6 1243.45C1466.75 1246.89 1452.45 1241.68 1420.31 1241.85C1398.58 1238.19 1373.04 1241.48 1348.38 1240.87C1323.38 1240.62 1296.46 1244.45 1276.59 1241.48C1255.63 1239.3 1227.34 1240.94 1204.67 1242.86C1186.24 1241.92 1151.39 1244.43 1132.87 1244.19C1109.28 1245.77 1082.44 1245.53 1060.78 1246.34C1033.96 1250.4 1013.64 1245.19 989.151 1247.76C952.651 1249.4 921.054 1249.38 881.679 1249.75C846.299 1249.6 810.338 1248.73 773.573 1249.84C736.925 1250.74 701.481 1247.56 669.43 1247.75C631.028 1247.04 606.638 1248.68 565.34 1244.94C527.909 1245.71 494.77 1244.24 460.985 1242.25C424.939 1241.27 389.718 1241.64 356.81 1240.61C320.426 1240.76 287.667 1239.09 252.34 1240.71C215.205 1240.21 185.933 1240.72 147.679 1243.4C131.341 1244.73 116.705 1245.93 102.333 1244.92C87.3381 1245.52 69.7643 1245.87 53.9236 1247.83C33.1055 1248.74 8.19782 1250.74 -12.6414 1248.28C-35.7949 1247.46 -56.5707 1245.66 -79.1218 1245.41" stroke="#2A3C51" stroke-width="2" stroke-miterlimit="10"/>
<path d="M1973.22 1222.39C1960.21 1222.88 1946.84 1223.38 1933.42 1223.63C1909.54 1222.95 1884.21 1224.1 1860.87 1223.01C1834.37 1222.62 1815 1223.12 1788.11 1223.66C1764.57 1223.09 1738.48 1222.48 1715.77 1224.77C1690.74 1223.92 1666.19 1224.89 1642.77 1225.39C1621.17 1223.65 1587.23 1226.39 1565.28 1225.53C1537.51 1224.31 1510.14 1227.32 1489.08 1225.25C1468.12 1226.56 1441.75 1221.84 1412.76 1225.02C1384.43 1223.75 1359.53 1227.65 1335.5 1224.84C1311.45 1223.83 1281.98 1225.12 1259.05 1224.45C1229.81 1224.76 1203.53 1224.8 1182.05 1224.14C1160.77 1224.25 1149.94 1223.17 1136.04 1223.9C1097.42 1223.61 1061.51 1223.3 1021.15 1222.92C984.794 1224.14 946.316 1221.45 905.977 1222.22C895.597 1219.87 875.279 1224.13 860.005 1221.79C840.639 1223.26 828.683 1220.75 814.074 1221.44C781.801 1221.33 755.701 1220.4 728.481 1220.77C695.067 1220.35 664.327 1221.52 642.498 1220.06C618.248 1218.8 589.4 1217.29 557 1219.27C529.083 1219.19 499.442 1218.24 470.699 1218.04C442.401 1217.95 409.621 1218.95 384.853 1216.79C354.811 1217.82 329.261 1214.65 299.113 1215.37C284.8 1217 273.764 1215.64 257.622 1215.51C218.457 1214.66 178.499 1214.51 133.075 1217.92C123.932 1217.95 107.568 1216.6 92.4938 1219.02C65.094 1220.61 37.5886 1219.36 5.20991 1220.83C-20.2237 1219.93 -56.4501 1222.67 -82 1220.06" stroke="#2A3C51" stroke-width="2" stroke-miterlimit="10"/>
<path d="M1974.65 1197.47C1962.64 1198.01 1950.66 1198.4 1938.75 1198.59C1926.73 1198.69 1914.98 1198.75 1903.18 1198.77C1872.73 1198.17 1843.04 1199.11 1810.99 1199.61C1780.85 1199.46 1750.91 1200.72 1718.11 1201C1690.52 1201.74 1654.16 1203.26 1625.59 1202.28C1595.3 1203.11 1562.99 1200.6 1533.35 1203.28C1501.93 1202.77 1475.28 1204.39 1441.55 1203.65C1413.23 1202.79 1377.4 1206.25 1348.64 1203.59C1333.55 1204.46 1316 1206.47 1302.47 1203.2C1266.6 1205.68 1237.29 1200.79 1208.6 1200.97C1178.44 1199.32 1141.32 1200.06 1115.08 1197.48C1079.56 1196.29 1057.32 1193.79 1021.2 1193.43C990.259 1191.67 962.563 1190.26 927.534 1189.36C894.333 1191.76 876.929 1189.74 853.386 1189.33C829.864 1192.09 804.112 1192.97 780.653 1193.87C759.139 1195.88 732.489 1197.86 707.203 1198.52C681.567 1200.04 660.687 1197.1 633.773 1198.38C608.698 1196.58 579.564 1198.71 551.15 1194.65C524.807 1194.43 492.144 1192.29 468.981 1191.63C440.609 1191.03 418.398 1188.42 386.623 1189.15C357.035 1189.04 332.066 1187.86 304.496 1186.54C287.811 1185.66 277.329 1185.99 260.189 1186.58C230.137 1187.06 197.675 1188.52 168.553 1188.83C140.297 1189.05 109.874 1191.01 76.6837 1191.03C65.9688 1192.49 55.0321 1190.39 44.9724 1191.44C0.770881 1192.56 -42.2155 1194.78 -82 1194.02" stroke="#2A3C51" stroke-width="2" stroke-miterlimit="10"/>
<path d="M1980.41 1174.19C1967.96 1174.26 1955.52 1174.29 1943.18 1174.15C1904.37 1172.49 1863.86 1172.2 1825.77 1173.5C1793.64 1174.39 1758.79 1176.24 1725.79 1177.21C1689.54 1179.09 1659.41 1180.06 1625.99 1178.98C1611.62 1179.36 1591.01 1180.91 1576.15 1179.24C1556.14 1174.16 1528.83 1181 1506.06 1179.87C1477.6 1180.87 1455.83 1174.75 1436.08 1179.53C1418.33 1177.61 1391.52 1175.99 1365.92 1178.54C1340.21 1179.8 1314.5 1181.66 1295.97 1176.99C1283.34 1177.98 1262.24 1176.36 1249.25 1175.8C1216.02 1176.92 1188.17 1173.18 1155.79 1173.33C1137.51 1172.57 1130.77 1171.76 1109.05 1172.13C1088.76 1171.56 1057.45 1174.69 1038.9 1170.61C1015.82 1167.59 991.353 1172.03 968.736 1169.58C948.985 1167.27 939.606 1169.65 921.948 1169.31C889.952 1169.66 864.903 1165.31 828.287 1169.9C809.296 1172.85 797.687 1170.91 781.445 1170.89C759.685 1173.51 746.552 1172.77 734.583 1172.47C721.831 1170.15 702.852 1173.44 690.195 1173.47C678.215 1171.47 661.329 1174.19 645.839 1173.51C616.729 1173.94 587.736 1174.93 563.787 1171.53C539.404 1170.06 512.717 1169.52 482.952 1168.62C452.701 1167.14 430.02 1165.14 400.9 1165.33C370.152 1165.45 343.179 1162.25 320.097 1163.23C291.22 1161.53 265.537 1161.8 238.68 1162.77C213.313 1162.23 182.544 1162.85 157.263 1165.08C140.969 1165.66 132.785 1165.44 112.166 1167.07C96.4324 1165.71 82.3906 1166.79 65.2613 1166.3C41.2909 1165.4 19.3822 1164.22 -7.10475 1166.27C-30.0284 1166.65 -55.1619 1167.21 -79.1218 1169.17" stroke="#2A3C51" stroke-width="2" stroke-miterlimit="10"/>
<path d="M1986.17 1151.39C1974.59 1151.43 1963.01 1151.45 1951.43 1151.46C1937.36 1151.03 1924.7 1150.46 1909.9 1150.5C1878.5 1149.92 1846.22 1152.99 1814.57 1152.42C1785.04 1153.38 1751.32 1154.56 1719.39 1154.36C1702.55 1155.35 1685.15 1155.42 1671.84 1155.27C1637.65 1158.25 1612.25 1154.65 1581.19 1156.51C1569.58 1157.34 1548.66 1159.23 1535.85 1156.81C1515.26 1156.79 1491 1155.57 1464.45 1157.54C1441.55 1157.84 1416.69 1157.53 1393.68 1157.27C1370.77 1156.33 1353.79 1155.87 1322.86 1156.48C1301.34 1158.08 1277.05 1154.86 1251.6 1155.06C1220.68 1155.07 1187.07 1153.74 1156.93 1152.79C1125.85 1151.6 1091.46 1147.06 1062.4 1150.27C1031.76 1147.44 997.36 1148.98 967.591 1148.19C930.813 1145.71 903.983 1147.42 873.093 1146.77C842.911 1144.83 808.385 1148.61 778.204 1146.26C749.217 1146.56 708.877 1149.48 683.463 1147.34C651.41 1145.38 622.783 1150.26 588.669 1150.34C563.403 1150.87 538.254 1152.48 510.366 1152.14C485.925 1152.02 458.196 1151.83 433.132 1150.72C409.103 1150.03 382.526 1148.56 355.527 1147.8C328.76 1146.94 299.276 1145.06 276.801 1144.05C253.661 1142.26 229.738 1144.02 208.13 1143.01C186.067 1143.78 166.319 1143.45 139.711 1145.21C129.467 1143.98 122.321 1142.19 109.773 1144.04C79.6444 1142.72 47.2325 1143.02 17.326 1143.04C-17.7606 1145.86 -45.7431 1144.65 -74.804 1145.51" stroke="#2A3C51" stroke-width="2" stroke-miterlimit="10"/>
<path d="M1990.49 1128.61C1981.42 1128.71 1972.37 1128.81 1963.3 1128.91C1954.23 1128.98 1945.17 1129.04 1936.1 1128.96C1911.81 1129.25 1890.05 1129.06 1863.32 1130.03C1838.97 1130.41 1814.11 1130.67 1790.53 1130.71C1773.17 1129.97 1756.99 1131.17 1742.05 1131C1712.24 1130.29 1671.34 1133.15 1645.26 1131.63C1623.24 1134.47 1613.63 1131.53 1596.92 1131.78C1563.7 1128.89 1522.88 1135.19 1489.34 1132.15C1453.98 1130.23 1418.25 1129.39 1381.78 1131.86C1347.28 1129.7 1312.51 1130.68 1274.43 1130.86C1235.77 1130.76 1203.77 1128.59 1166.69 1129.96C1129.94 1129.65 1095.42 1127.24 1059.46 1128.74C1021.8 1129.14 989.027 1126.75 951.639 1127.46C914.525 1128.52 877.073 1127.42 844.228 1126.54C809.945 1128.14 772.525 1125.37 736.616 1125.69C710.13 1127.55 690.575 1123.39 665.03 1125.35C641.449 1125.85 614.9 1125.89 593.274 1125.59C568.426 1125.05 543.007 1123.99 521.889 1125.94C499.027 1127.12 472.087 1125.6 449.943 1126.84C427.8 1127.95 404.05 1125.74 378.24 1128.4C353.509 1129.35 330.182 1128.98 306.623 1129.82C270.46 1130.31 231.708 1130.96 194.235 1129.26C157.101 1127.55 118.529 1126.95 82.5771 1122.32C67.9028 1122.54 55.373 1122.77 44.671 1122.02C6.72266 1121.84 -32.9476 1122.78 -69.0472 1122.72" stroke="#2A3C51" stroke-width="2" stroke-miterlimit="10"/>
<path d="M1993.36 1105.38C1981.02 1105.3 1968.69 1105.22 1956.34 1105.12C1941.4 1104.77 1928.18 1105.16 1911.39 1103.85C1893.84 1102.77 1879.73 1104.04 1866.89 1102.45C1854.23 1100.57 1835.54 1101.53 1822.35 1101.29C1787.86 1100.63 1758.02 1099.74 1727.51 1099.94C1712.67 1102.18 1696.52 1099.28 1680.12 1099.6C1643.32 1101.35 1606.64 1101.65 1566.6 1102.12C1528.4 1100.15 1489.95 1104.18 1453.15 1103.2C1413.87 1103.05 1378.08 1106.05 1340.05 1103.11C1301.93 1102.77 1264.96 1101.27 1226.34 1102.44C1189.23 1104.3 1147.11 1103.52 1112.92 1101.52C1080.99 1098.1 1039.42 1096.42 999.573 1099.99C957.647 1100.32 925.148 1101.71 886.837 1099.01C844.742 1099.18 809.252 1097.88 772.695 1098.5C739.246 1098.38 696.506 1098.93 659.177 1098.95C630.346 1097.63 600.902 1101.75 574.005 1099.92C543.8 1098.53 518.023 1100.72 488.737 1102.06C461.279 1104.26 435.08 1103.98 403.025 1105.25C375.441 1109 348.596 1106.93 318.064 1109.08C291.631 1110.32 270.388 1110.34 243.428 1111C218.623 1110.14 195.425 1108.95 167.989 1107.16C138.587 1104.76 112.683 1103.85 89.2733 1101.95C61.6151 1101.65 36.1658 1101.09 10.6848 1099.94C-5.43239 1102.13 -18.4847 1100.68 -28.5566 1099.65C-38.9456 1100.1 -55.6547 1098.79 -67.6079 1099.59" stroke="#2A3C51" stroke-width="2" stroke-miterlimit="10"/>
<path d="M1993.36 1078.7C1977.45 1077.74 1961.53 1076.93 1945.63 1076.24C1928.25 1077 1912.66 1075.57 1897.92 1074.52C1883.81 1074.39 1869.88 1074.07 1855.53 1073.12C1842.67 1073.79 1821.6 1072.84 1811.72 1072.74C1793.83 1071.42 1780.92 1071.38 1763.14 1071.58C1746.93 1071.96 1731.51 1071.62 1714.56 1070.72C1678.34 1070.3 1644.01 1069.81 1604.62 1070.58C1563.48 1072.41 1529.35 1069.52 1494.73 1070.97C1466.26 1071.27 1423.82 1070.81 1384.68 1071.79C1351.35 1076.39 1312.5 1072.71 1275.02 1072.44C1237.7 1074.46 1201.13 1072.39 1165.33 1073.31C1125.38 1073.22 1087.77 1073.35 1055.33 1073.33C1025.95 1071.74 977.707 1075.17 945.737 1072.96C909.667 1074.48 878.754 1072.82 835.56 1071.82C800.716 1071.82 764.318 1068.53 725.531 1069.65C688.668 1070.42 647.62 1068.38 615.629 1066.13C597.166 1063.9 572.298 1065.25 547.832 1067.75C527.149 1068.26 504.163 1069.41 479.823 1075.49C456.065 1080.21 434.685 1083.45 412.026 1084.59C390.73 1085.79 365.292 1090.45 344.017 1090.1C315.176 1092.32 289.664 1089.97 258.412 1088.1C215.525 1084.11 170.799 1080.85 127.901 1076.63C81.6958 1073.16 46.5871 1070.15 -2.52488 1074.22C-13.3788 1073.49 -26.0927 1074.59 -34.3785 1074.76C-46.0144 1073.96 -53.2221 1074.69 -66.1686 1075.26" stroke="#2A3C51" stroke-width="2" stroke-miterlimit="10"/>
<path d="M1989.05 1048.69C1948.96 1045.52 1909.62 1041.81 1868.73 1043.26C1853.97 1041.18 1843.35 1046.64 1828.73 1042.92C1794.96 1041.99 1766.17 1042.99 1735.5 1042.84C1714.55 1046.19 1706.38 1044.34 1689.2 1043.41C1654.21 1045.38 1620.25 1045.29 1579.82 1045.65C1542.34 1043.93 1505.86 1046.14 1470.44 1046.66C1432.48 1047.4 1394.19 1050.56 1361.15 1046.54C1331.21 1045.64 1292.99 1048.04 1251.68 1046.03C1215.35 1044.39 1174.73 1045.57 1142.19 1044.72C1104.01 1045.27 1067.09 1039.93 1032.91 1043.64C996.949 1041.28 960.562 1043.76 924.197 1042.41C882.642 1043.69 851.286 1044.05 814.149 1041.61C780.278 1041.22 739.156 1042.19 705.127 1041.24C671.477 1040.3 628.517 1042.44 595.386 1042.09C552.658 1043.06 518.205 1046.49 479.663 1050.22C439.609 1054.4 405.008 1060.51 363.94 1061.4C318.063 1063.07 279.161 1061.08 235.134 1057.72C192.596 1051.47 151.623 1047.96 107.131 1047.17C73.0161 1046.58 33.6704 1050.3 4.63928 1048.75C-7.18664 1047.28 -19.3297 1049.38 -30.7223 1050.3C-42.4425 1053.29 -50.189 1049.99 -66.1683 1052.44" stroke="#2A3C51" stroke-width="2" stroke-miterlimit="10"/>
<path d="M1983.29 1019.48C1948.36 1013.09 1905.37 1016.11 1866.85 1015.54C1856.6 1014.28 1841.07 1015.55 1828.21 1015.95C1804.42 1015.78 1780.14 1017.62 1758.19 1018.47C1742.9 1019.02 1730.01 1018.48 1723.12 1020.3C1685.64 1021.89 1648.83 1023.05 1614.24 1022.3C1576.16 1021.55 1545.42 1022.31 1505.32 1023.6C1471.18 1023.34 1430.56 1025.3 1396.33 1024.62C1362.95 1023.13 1325.38 1022.74 1287.4 1024.53C1254.58 1025.4 1216.07 1022.46 1178.4 1024.14C1140.29 1025.46 1101.62 1024.19 1069.39 1023.84C1033.16 1024 994.255 1023.76 960.818 1023.3C927.085 1024.05 884.159 1022.83 851.356 1022.35C815.077 1023.12 783.373 1021.14 742.01 1021.88C702.085 1022.11 670.012 1020.27 633.32 1020.79C601.236 1022.27 567.673 1018.72 524.313 1020.24C498.918 1020.2 474.549 1018.14 442.591 1020.28C415.939 1019.84 389.699 1017.66 360.838 1019.96C332.844 1018.44 307.767 1019.44 279.064 1020.14C247.688 1022.33 223.921 1020.71 197.417 1020.64C165.439 1020.91 127.648 1021.72 94.8877 1022.47C61.8103 1023.43 27.6972 1025.5 -7.77908 1026.54C-18.0933 1026.69 -27.4141 1028.21 -36.2806 1028.13C-49.4587 1029.32 -57.839 1029.71 -64.7293 1030" stroke="#2A3C51" stroke-width="2" stroke-miterlimit="10"/>
<path d="M1977.53 993.793C1945.71 993.821 1922.58 992.618 1890.58 992.788C1871.5 992.788 1860.88 991.376 1847.3 993.935C1811.67 994.2 1769.77 1000.37 1731.26 1000.17C1721.6 1001.25 1705.51 1001.48 1692.78 1002.19C1667.03 1004.2 1639.9 1004.46 1610.04 1006.13C1586.97 1006.63 1556.89 1007.93 1527.1 1005.88C1494.61 1003.9 1462.5 1001.34 1424.96 1003.21C1395.13 1001.2 1366.15 997.592 1321.72 1001.35C1290.69 1000.28 1248.3 999.886 1219.47 999.886C1191.06 996.749 1146.23 1000.07 1116.5 999.412C1078.24 998.692 1050.19 1001.06 1013.33 998.976C978.144 998.748 947.057 999.592 911.329 998.796C876.806 998.91 845 995.441 808.088 998.729C777.106 998.91 750.395 996.105 706.105 998.218C668.781 999.895 639.268 998.853 603.445 997.545C566.1 997.63 535.583 997.062 500.732 996.408C472.393 996.038 444.276 997.289 420.852 994.759C393.559 994.399 369.786 992.305 340.115 994.105C311.956 995.83 287.887 994.124 260.288 994.02C237.466 989.471 206.009 993.859 179.836 995.043C152.448 996.171 125.462 997.128 99.9241 997.744C75.7179 997.934 52.1988 997.867 20.2233 1002.46C6.87291 1002.69 2.01058 1005.16 -8.5281 1003.87C-28.263 1004.97 -46.5287 1005.28 -66.1685 1006.76" stroke="#2A3C51" stroke-width="2" stroke-miterlimit="10"/>
<path d="M1974.65 971.464C1952.32 970.28 1928.22 973.188 1899.18 973.354C1874.96 976.221 1850.66 975.66 1823.69 976.325C1812.77 976.512 1795.98 977.467 1786.31 978.038C1750.77 981.279 1721.94 981.487 1695.07 982.712C1677.98 981.258 1669.26 983.314 1650.21 984C1614.66 981.757 1569.76 982.743 1533.95 982.525C1498.34 979.357 1458.27 981.954 1417.77 981.372C1373.12 979.046 1341.51 979.939 1302.11 980.313C1261.33 978.173 1224.54 981.964 1185.6 979.731C1150 978.412 1103.84 976.958 1069.71 979.337C1028.36 978.423 987.75 980.645 953.586 978.423C914.994 979.472 872.999 980.261 837.619 977.748C799.28 976.159 759.409 979.773 721.588 976.813C690.309 974.497 645.45 978.9 605.537 975.785C567.483 976.605 528.299 974.601 489.485 974.237C451.379 975.141 412.004 970.934 373.359 972.388C335.633 970.062 295.34 969.854 257.16 970.062C212.893 973.437 182.458 971.495 146.73 973.655C111.329 974.299 78.0625 977.789 36.3211 980.095C23.8621 978.381 12.7346 980.271 1.19497 981.227C-22.5078 983.636 -48.4087 983.086 -69.0469 983.72" stroke="#2A3C51" stroke-width="2" stroke-miterlimit="10"/>
<path d="M1974.65 951.066C1951.08 950.873 1927.14 951.144 1902.54 952.548C1878.91 954.437 1852.16 954.311 1829.89 955.26C1804.56 955.444 1780.9 958.515 1757.39 958.263C1732.73 959.076 1706.48 965.382 1685.19 961.033C1672.95 962.002 1652.37 963.551 1644.23 962.263C1605.86 962.534 1571.23 963.842 1538.41 962.147C1507.2 960.239 1473.97 958.166 1432.6 960.81C1391.83 960.461 1364.22 955.754 1326.46 958.854C1294.45 957.488 1253.25 959.26 1220.97 956.413C1184.29 956.878 1153.42 956.403 1114.94 954.263C1075.21 953.846 1044.55 952.432 1009.34 952.965C974.412 954.224 941.377 950.253 903.439 953.091C871.271 954.611 834.337 953.023 797.709 954.33C764.083 955.996 721.654 955.793 685.163 959.289C645.418 961.614 611.686 962.476 572.617 962.079C533.676 961.382 495.273 959.599 460.072 956.752C425.906 953.372 384.576 952.112 347.526 948.519C303.828 946.96 259.158 945.739 218.029 949.4C176.54 952.403 131.321 953.885 88.3 955.551C74.1287 956.18 59.2178 958.331 47.9949 956.51C4.45599 957.643 -35.8176 958.786 -73.3646 958.776" stroke="#2A3C51" stroke-width="2" stroke-miterlimit="10"/>
<path d="M1977.53 929.372C1948.39 929.06 1922.66 928.899 1896.62 929.826C1870.53 931.307 1842.63 929.805 1815.75 931.619C1778.82 930.924 1739.7 934.451 1700.35 936.194C1690.5 936.748 1674.77 936.859 1661.81 938.098C1635.11 941.554 1615.96 937.111 1586.97 941C1562.48 937.544 1537.41 938.995 1512.42 939.69C1479.16 937.252 1451.14 935.579 1416.21 937.423C1384.52 938.683 1356.02 935.64 1319.12 935.629C1288.9 938.854 1256.76 935.901 1222.54 934.602C1189.57 933.09 1156.89 933.483 1125.97 934.027C1094.35 933.876 1060.45 933.191 1029.07 934.299C1001.55 934.612 966.816 933.604 932.857 934.461C898.592 934.884 873.395 935.055 835.927 935.206C804.77 936.274 768.803 936.536 739.706 936.496C702.133 935.69 678.849 936.758 643.326 937.947C614.102 940.426 579.604 938.713 546.396 939.69C519.498 939.579 484.302 935.025 454.434 938.541C432.302 936.153 400.933 938.814 384.836 935.69C364.015 933.977 336.799 933.937 316.411 932.042C293.709 932.042 269.009 929.876 247.363 929.594C226.489 928.919 199.95 928.626 178.146 929.775C165.516 929.987 153.9 930.42 136.207 930.309C100.146 929.543 67.9941 929.906 29.9452 932.617C-4.43625 934.007 -39.6843 935.075 -76.243 933.725" stroke="#2A3C51" stroke-width="2" stroke-miterlimit="10"/>
<path d="M1978.97 906.853C1951.69 904.97 1918.09 905.387 1886.49 905.775C1856.74 905.547 1829.08 904.469 1794.08 906.021C1760.13 908.623 1736.78 907.241 1701.52 907.383C1669.07 906.153 1640.9 907.847 1609.25 908.935C1596.88 907.771 1583.39 911.944 1568.1 909.598C1538.72 911.556 1507.34 908.471 1476.75 909.2C1449.65 908.547 1421.27 908.348 1385.41 908.519C1375.03 907.525 1354.67 906.815 1339.76 908.197C1318.56 907.232 1294.74 904.866 1271.1 907.591C1245.45 906.011 1222.73 906.636 1202.74 907.724C1182.75 906.948 1169.21 910.449 1157.11 907.856C1142.27 907.222 1125.13 909.796 1111.48 908.292C1086.79 908.822 1063.9 910.941 1044.35 908.642C1020.2 909.333 1000.03 909.068 977.53 908.206C950.465 907.79 927.438 910.014 910.106 907.913C882.841 908.642 860.236 910.979 843.824 907.648C822.519 906.56 801.14 907.071 776.76 907.97C748.131 909.001 731.92 908.859 709.886 909.37C688.094 908.708 661.717 910.146 639.725 911.641C618.832 913.241 596.069 912.89 569.786 914.054C548.523 914.953 522.706 914.196 499.52 915.852C474.325 916.676 451.044 918.086 429.295 915.587C420.376 912.805 405.993 916.647 391.008 914.717C368.667 916.326 335.346 913.326 314.464 911.31C290.538 909.03 262.543 909.03 237.994 905.661C226.707 905.263 201.334 908.462 188.789 906.172C174.776 904.45 164.62 902.216 144.985 906.342C133.899 902.973 115.923 907.137 100.42 906.522C73.4082 904.942 37.699 909.03 11.3425 907.402C-18.4064 907.061 -46.2424 908.566 -77.6821 907.695" stroke="#2A3C51" stroke-width="2" stroke-miterlimit="10"/>
<path d="M1978.97 882.311C1970.21 881.32 1949.9 882.816 1938.69 881.854C1924.15 879.61 1913.71 881.514 1898.13 880.824C1867.85 878.765 1833.66 882.156 1809.61 878.444C1782.34 877.395 1749.89 878.551 1721.01 878.425C1703.91 878.687 1690.37 880.183 1676.72 879.299C1638.3 879.076 1601.47 879.863 1563.87 879.727C1528.88 876.724 1490.16 879.464 1450.39 880.63C1414.32 879.707 1376.34 880.455 1337.2 881.679C1303.37 880.222 1267.11 879.241 1224.09 882.467C1188.31 883.176 1149.07 886.829 1110.65 883.574C1078.13 879.775 1037.1 879.503 997.83 884.322C962.413 883.623 924.014 884.682 885.045 885.294C846.487 886.013 808.226 886.265 771.625 885.712C735.383 882.593 697.893 886.304 658.723 886.071C623.486 883.04 584.918 884.798 545.483 886.158C504.092 888.753 476.256 884.381 432.433 885.877C395.61 886.625 355.203 885.877 319.394 885.168C308.251 884.808 293.228 883.234 278.754 884.546C264.397 884.41 250.632 884.351 238.209 883.341C230.544 882.185 209.136 885.527 196.787 883.399C182.906 880.494 164.816 883.321 155.714 883.768C148.355 883.02 130.678 884.672 126.714 883.613C112.938 886.382 105.855 884.274 97.9359 883.36C83.1981 881.582 73.0593 880.29 54.7163 882.943C9.51968 881.563 -33.9854 884.313 -76.2429 881.514" stroke="#2A3C51" stroke-width="2" stroke-miterlimit="10"/>
<path d="M1976.09 858.433C1941.51 855.108 1903.54 855.28 1864.8 856.186C1822.78 857.808 1791.4 857.536 1753.52 854.816C1741.84 855.008 1729.07 854.282 1716.49 854.584C1674.23 855.803 1638.07 855.672 1596.25 854C1556.16 854.071 1513.65 856.237 1476.08 854.383C1434.5 856.76 1396.4 854.282 1356.43 855.108C1317.36 854.071 1270.6 858.262 1235.89 857.103C1196.1 857.577 1156.56 857.476 1116.15 858.685C1077.01 861.072 1038.09 862.06 995.891 860.861C951.38 860.438 915.404 862.07 876.091 862.563C840.22 861.556 795.467 866.845 756.037 863.793C715.266 860.599 675.635 864.266 636.765 864.125C597.324 867.873 556.669 865.012 516.289 864.014C477.313 862.624 440.999 860.156 396.446 862.523C352.823 860.246 326.543 858.967 276.614 859.662C263.39 858.544 247.747 857.335 228.85 858.997C209.12 858.453 199.001 858.443 181.076 858.211C170.45 858.03 161.049 855.783 149.293 858.554C139.967 858.171 131.686 856.71 117.521 858.896C104.751 858.644 91.7804 859.793 79.2005 858.594C53.1427 858.322 31.1832 857.989 2.89673 857.637C-28.7592 856.841 -50.9299 857.445 -73.3647 856.257" stroke="#2A3C51" stroke-width="2" stroke-miterlimit="10"/>
<path d="M1974.65 836.725C1946.57 835.64 1908.47 836.521 1869.91 833.827C1832.65 831.625 1796.9 834.903 1765.15 831.461C1751.34 829.946 1737.36 830.294 1723.68 830.867C1694.4 831.287 1670.07 829.976 1638.03 830.253C1611.7 829.608 1582.07 827.795 1552.36 830.243C1526.89 828.573 1493.35 830.529 1466.74 830.499C1440.41 832.363 1409.13 830.888 1380.99 831.584C1356.06 828.85 1325.08 832.055 1295.38 832.68C1269.65 832.444 1233.69 832.26 1209.58 833.889C1184.47 832.393 1151.91 831.42 1123.67 835.384C1093.74 837.002 1072.43 830.97 1038.13 836.172C1018.43 837.555 1006.44 838.774 989.131 836.695C956.706 835.281 925.856 837.166 894.203 836.664C861.06 836.981 832.631 835.199 798.769 837.207C768.331 837.883 736.128 837.903 703.619 836.981C672.125 834.8 637.46 836.797 607.815 835.496C591.064 837.504 578.804 837.965 569.535 835.578C544.826 833.786 524.693 835.199 493.092 836.971C456.187 837.197 411.207 839.624 378.581 839.654C335.779 842.42 300.564 840.259 264.007 839.05C247.467 836.326 236.994 839.45 221.785 838.354C188.906 838.774 171.447 837.586 137.11 834.902C121.267 835.63 112.4 833.1 100.912 833.991C85.4924 833.295 69.4598 834.165 56.9255 832.659C14.6298 829.055 -31.1218 830.816 -73.3645 831.564" stroke="#2A3C51" stroke-width="2" stroke-miterlimit="10"/>
<path d="M1974.65 815.495C1945.75 816.574 1921.25 815.703 1893.6 814.935C1868.8 814.873 1839.89 813.67 1812.49 813.472C1800.93 814.562 1794.26 810.299 1780.18 812.736C1741 813.587 1712.34 812.767 1673.19 812.601C1638.82 811.118 1600.06 811.056 1566.24 812.383C1529.78 811.948 1497.09 811.408 1459.36 812.124C1425.59 810.983 1390.62 811.803 1352.45 811.823C1318.26 814.862 1280.42 811.263 1245.48 811.274C1213.66 811.357 1180.03 807.768 1138.72 811.315C1121.72 810.008 1112.82 816.636 1089.55 811.388C1056.52 815.547 1032.37 811.025 998.956 811.958C970.032 809.147 939.524 813.39 908.794 812.767C878.508 814.945 848.94 813.223 818.083 813.835C786.001 814.396 753.729 814.447 727.668 814.427C695.163 815.485 668.754 814.79 637.718 813.981C613.347 813.68 577.23 811.471 546.658 812.446C532.82 812.238 514.956 812.944 497.336 812.778C465.951 814.458 437.514 814.489 398.555 813.711C361.867 814.873 330.049 811.875 299.731 814.914C290.783 814.541 268.061 813.338 259.335 815.277C236.274 813.576 201.847 815.713 171.983 814.645C140.535 814.582 115.436 810.724 84.5895 809.759C74.8497 809.241 59.8809 807.83 45.9156 808.618C7.72766 805.558 -26.5727 805.351 -70.4862 807.114" stroke="#2A3C51" stroke-width="2" stroke-miterlimit="10"/>
<path d="M1976.09 792.79C1951.96 793.705 1924.71 797.036 1903.32 793.183C1880.43 791.162 1854.16 793.928 1830.38 792.726C1821.97 791.97 1812.34 790.725 1801.29 792.364C1770.35 788.618 1747.35 790.981 1720.72 791.726C1691.03 793.726 1664.6 793.226 1640.16 791.077C1611.76 793.056 1586.18 790.204 1559.69 790.513C1534.06 789.161 1505.2 789.927 1479.1 789.778C1451.01 790.97 1420.7 792.247 1398.62 789.119C1371.76 789.438 1343.73 791.236 1318.09 788.587C1301.82 787.395 1285.95 785.479 1269.79 788.257C1235.47 786.554 1204.07 786.182 1173.22 787.48C1134.19 787.618 1111.67 786.746 1076.55 787.81C1044.75 789.459 1011.41 788.331 980.466 788.863C947.818 790.842 918.667 789.491 883.525 790.151C851.986 791.204 820.31 789.14 786.964 791.162C752.54 789.927 718.328 792.098 690.487 791.3C655.441 793.034 623.194 791.332 594.053 790.214C560.549 790.619 528.207 787.565 497.228 787.267C472.758 789.342 460.882 787.139 449.048 787.544C410.366 789.235 387.481 786.543 352.487 788.363C318.655 792.002 290.085 788.15 255.915 789.438C244.525 790.002 237.15 788.118 227.916 788.853C196.979 786.533 172.931 787.427 143.326 785.373C135.856 784.628 109.98 787.352 102.753 784.415C85.4463 785.649 71.341 784.585 59.0107 784.383C15.4478 784.011 -25.3891 783.149 -69.0471 783" stroke="#2A3C51" stroke-width="2" stroke-miterlimit="10"/>
<path d="M1977.53 767.526C1939.01 767.7 1901.78 769.917 1862.37 767.323C1853.65 766.655 1840.1 765.803 1833.58 767.236C1799.32 768.233 1759.06 766.539 1721.73 768.117C1683.89 766.597 1647 770.343 1609.92 768.455C1585.13 767.952 1563.04 767.149 1535.41 768.426C1511.05 769.152 1489.72 765.61 1461.1 768.213C1437.32 767.4 1413.58 768.639 1386.43 767.855C1368.11 769.026 1351.43 769.559 1336.79 767.545C1307.61 764.042 1268.41 770.168 1236.59 766.723C1203.16 766.394 1160.06 769.994 1135.09 766.365C1103.66 764.051 1066.92 767.991 1034.35 766.539C1002.65 764.487 967.173 768.058 933.305 766.916C898.422 767.836 864.035 767.149 832.09 767.584C798.486 767.729 767.206 767.052 731.478 768.01C708.293 768.813 683.671 769.075 659.662 767.216C637.925 767.632 613.599 764.719 587.244 764.516C565.084 762.106 541.582 762.183 515.142 761.661C491.27 760.819 466.321 759.067 443.051 760.383C425.594 760.035 404.491 762.938 393.342 760.373C368.731 759.638 343.855 759.773 318.758 760.519C295.171 760.664 267.4 760.18 244.152 760.896C230.921 761.099 210.653 763.906 195.077 760.364C163.438 760.044 125.596 761.728 96.6838 759.154C83.3688 759.009 66.0382 758.805 55.9041 759.406C12.9053 760.344 -23.5839 761.012 -67.6077 760.451" stroke="#2A3C51" stroke-width="2" stroke-miterlimit="10"/>
<path d="M1978.97 740.532C1941.02 741.257 1907.61 741.551 1872.66 741.247C1859.12 744.226 1848.22 739.944 1837.21 741.365C1802.19 743.197 1770.37 742.991 1737.83 742.835C1703.98 741.561 1670.66 743.599 1638.47 744.01C1615.41 743.981 1593.34 742.933 1572.23 744.628C1545.28 746.646 1529.61 743.854 1506.2 744.98C1482 745.608 1462.89 744.54 1439.78 745.451C1423.03 747.048 1405.11 746.852 1390.24 745.715C1357.44 743.481 1320.11 745.284 1285.81 745.706C1255.56 744.598 1212.98 744.589 1181.97 745.96C1148.76 747.019 1111.85 749.606 1077.88 746.578C1044.77 747.322 1011.28 745.921 973.499 746.568C939.548 747.254 901.601 746.627 869.267 745.804C834.629 745.921 796.418 745.676 764.739 744.471C727.648 744.726 693.01 741.561 659.915 741.6C625.678 738.347 591.886 738.023 555.641 736.612C516.817 735.054 472.824 730.948 429.888 734.251C415.798 735.799 404.287 732.516 391.296 734.907C365.421 734.045 337.875 736.357 314.007 736.348C287.455 735.681 263.017 735.329 236.56 736.72C220.906 734.368 199.85 738.562 185.337 736.269C168.51 736.936 149.462 736.181 134.093 735.868C122.825 733.183 102.848 735.828 94.582 736.122C81.0311 737.288 67.3957 736.397 54.3945 736.504C13.0758 738.111 -25.6215 735.769 -66.1685 738.337" stroke="#2A3C51" stroke-width="2" stroke-miterlimit="10"/>
<path d="M1978.97 711.353C1950.98 709.788 1918.87 712.014 1888.53 711.699C1880.87 712.085 1865.92 710.753 1858.47 711.953C1844.82 710.316 1828.69 712.044 1814.45 712.675C1791.27 714.891 1759.58 716.558 1731.22 718.51C1708.92 719.343 1672.78 723.369 1647.76 721.519C1626.85 719.13 1605.12 720.228 1579.78 719.77C1550.33 721.702 1531.99 720.706 1511.82 718.581C1501.84 715.704 1483.58 717.788 1466.68 718.134C1435.95 715.887 1402.86 718.825 1366.67 718.561C1330.58 718.947 1298.7 717.544 1266.5 719.008C1231.77 720.848 1198.28 722.088 1166.32 719.496C1133.75 717.971 1101.23 717.524 1066.2 719.476C1033.25 720.939 997.153 718.916 965.576 719.587C930.596 718.307 900.826 719.415 865.815 718.713C831.047 720.523 797.314 717.219 765.515 717.585C734.118 715.602 694.161 718.693 665.321 715.897C631.398 718.195 603.784 713.996 565.148 713.346C532.219 712.888 499.215 712.837 464.711 710.225C451.776 710.103 435.967 710.082 419.533 709.655C398.419 708.364 374.039 709.411 350.462 709.228C326.991 709.533 304.978 710.245 281.506 709.391C262.622 712.034 255.847 707.775 243.282 709.696C217.518 709.411 194.607 712.939 166.771 711.201C142.433 711.394 113.699 714.26 90.0691 713.366C76.5845 711.17 71.9663 713.661 59.1369 713.64C18.0913 713.539 -24.0217 716.66 -64.7292 715.206" stroke="#2A3C51" stroke-width="2" stroke-miterlimit="10"/>
<path d="M1977.53 685C1947.31 686.324 1903.25 686.106 1868.27 689.822C1857.3 689.321 1844.72 690.644 1832.76 690.871C1817.96 690.871 1804.89 691.41 1793.8 691.798C1778.86 693.017 1769.46 693.708 1759.79 692.601C1719.42 693.698 1679.09 694.927 1640.15 691.467C1595.73 691.221 1562.26 692.649 1520.41 691.06C1508.17 689.519 1486.31 691.297 1473.09 691.23C1435.12 690.871 1401.45 691.051 1367.91 692.705C1330.29 690.682 1302.13 692.8 1262.96 693.556C1224.69 697.338 1195.95 693.537 1158.35 694.322C1123.68 691.854 1083.42 696.563 1052.92 695.286C1017.95 695.154 983.973 694.407 948.4 695.797C914.401 694.653 877.253 696.279 842.958 695.665C808.643 695.239 770.85 695.504 737.602 695.419C698.076 697.121 669.245 693.329 633.048 693.906C600.222 692.838 562.588 693.887 527.681 691.939C494.929 692.289 459.736 690.351 423.159 689.226C406.302 689.217 386.74 690.72 375.749 688.753C358.459 689.16 347.637 688.526 328.296 689.027C318.447 687.817 301.178 689.226 294.594 688.886C267.063 688.46 238.813 688.971 210.289 690.228C183.414 690.777 155.841 691.278 125.858 694.142C111.686 695.39 98.4118 699.38 93.9308 694.993C68.5665 694.038 44.1429 694.331 13.2725 695.239C-14.1843 692.923 -39.0941 693.452 -67.6078 692.412" stroke="#2A3C51" stroke-width="2" stroke-miterlimit="10"/>
<path d="M1978.97 661C1943.51 664.783 1907.19 668.703 1872.91 667.892C1863.08 669.494 1847.64 670.916 1838.34 669.199C1826.47 666.459 1813.22 669.283 1798.35 669.673C1781.2 668.303 1769.61 671.222 1757.99 669.525C1743.4 664.678 1723.64 666.301 1706.69 667.692C1668.43 667.281 1631.07 665.11 1589.35 664.193C1576.59 663.93 1559.34 663.529 1541.28 663.698C1521.29 666.87 1504.53 666.785 1493.92 663.582C1457.29 665.373 1419.85 664.288 1388.1 665.152C1352.17 669.367 1320.81 664.615 1282.84 666.564C1249.43 666.585 1209.69 669.578 1176.73 667.628C1148.07 665.479 1104.67 665.089 1071.53 668.587C1034.57 669.357 998.582 669.399 966.11 669.114C931.968 669.799 894.698 670.337 860.071 669.841C825.643 670.99 786.673 671.011 753.915 670.337C715.536 671.801 686.096 668.577 648.573 670.537C617.697 669.536 581.029 670.621 543.073 670.695C508.033 669.683 472.274 673.593 437.118 670.853C423.17 669.704 411.567 669.494 393.16 669.557C378.82 668.967 360.138 671.011 348.8 667.354C312.883 669.704 279.597 665.373 244.25 668.545C207.107 669.746 172.67 674.847 140.06 673.719C128.363 675.268 118.377 673.972 106.817 674.109C82.1745 677.028 62.594 671.664 40.2449 673.677C1.49593 672.708 -31.6737 671.022 -70.4861 669.167" stroke="#2A3C51" stroke-width="2" stroke-miterlimit="10"/>
<path d="M1981.85 640.031C1959.15 641.58 1935.24 642.33 1914.9 645.153C1897.76 645.922 1869.02 648.932 1847.93 648.103C1830.33 649.919 1822.64 648.37 1806.86 648.636C1797.4 647.758 1786.49 647.64 1775.19 646.959C1763.79 646.169 1752.88 646.307 1743.33 645.123C1712.61 645.192 1684.91 641.827 1656.76 640.09C1628.49 635.738 1597.79 635.225 1570.55 634.218C1555.19 633.428 1535.33 632.294 1527.61 631.484C1519.74 629.076 1511.27 627.951 1498.97 630.27C1473.32 631.652 1446.31 630.715 1413.04 632.767C1381.5 633.389 1355.9 635.945 1327.99 636.271C1297.84 641.708 1265.69 639.843 1242.56 640.327C1214.27 641.886 1184.83 641.985 1157.17 643.524C1129.18 644.866 1096.89 644.215 1071.2 645.439C1042.53 644.501 1015.6 643.889 985.938 644.709C970.159 643.82 950.365 644.748 939.099 642.873C906.484 641.787 879.587 638.333 844.732 636.162C819.442 632.649 789.184 633.142 768.586 632.54C743.391 632.58 717.392 633.369 692.683 635.669C662.204 638.649 643.677 638.925 616.632 642.044C592.504 643.554 564.582 646.11 541.416 647.018C515.386 648.291 491.702 648.261 466.274 647.847C451.785 647.511 440.455 644.649 420.851 647.343C376.875 646.08 345.656 647.195 307.292 646.11C269.52 646.672 235.68 643.899 193.353 646.939C182.626 648.034 172.533 648.646 160.95 647.018C123.347 648.291 82.2357 647.906 43.6818 647.038C2.61256 644.856 -32.644 645.636 -73.3644 644.245" stroke="#2A3C51" stroke-width="2" stroke-miterlimit="10"/>
<path d="M1984.73 619.356C1950 623.509 1914.7 623.983 1879.44 624.764C1863.46 626.92 1855.21 628.057 1844.34 625.654C1824.85 627.375 1811.44 627.039 1796.54 626.218C1781.92 625.961 1763.05 625.496 1748.04 622.906C1722.06 617.537 1694.72 616.064 1665.73 614.798C1640.96 611.753 1613.27 609.726 1583.43 610.774C1569.32 609.874 1559.83 607.61 1542.56 610.21C1509.04 609.36 1472.49 611.614 1435.4 611.871C1398.31 611.634 1368.76 612.287 1328.37 616.153C1292.01 615.866 1264.66 617.22 1221.62 620.483C1191.55 620.74 1147.54 625.516 1114.31 622.896C1077.71 623.252 1041.93 624.211 1007.56 621.373C972.428 619.613 936.155 616.508 900.791 613.344C889.821 611.041 876.472 612.702 863.419 610.823C833.995 609.202 806.262 610.161 777.821 609.043C745.807 610.052 719.691 611.802 692.116 610.24C662.534 613.552 627.804 614.234 605.767 613.463C579.482 614.224 546.317 615.559 520.486 616.657C501.472 617.497 490.512 615.994 476.804 616.756C463.297 616.647 450.519 615.48 433.07 616.973C415.842 618.397 400.284 618.13 389.335 617.27C378.745 616.627 359.382 617.655 345.579 617.606C333.879 616.499 319.146 619.188 306.368 617.477C285.674 616.133 259.42 617.942 238.145 617.537C219.607 617.903 193.47 617.141 169.563 618.15C145.74 619.089 123.048 619.811 101.17 618.614C76.8828 621.155 53.4408 619.079 32.5881 618.763C22.6743 618.09 15.5719 618.901 5.75332 618.763C-19.8766 617.932 -48.5504 617.823 -74.8039 618.881" stroke="#2A3C51" stroke-width="2" stroke-miterlimit="10"/>
<path d="M1987.61 596.574C1943.92 597.467 1901.08 597.942 1858.55 598.807C1844.96 597.216 1830.77 599.132 1815.33 598.993C1800.94 596.77 1792.31 599.309 1777.29 597.523C1762.05 597.012 1752.32 597.263 1739.24 596.174C1728.65 595.933 1718.02 596.36 1709.82 595.514C1701.99 593.71 1690.28 594.323 1680.45 594.984C1650.91 593.97 1622.66 593.607 1589.93 592.073C1557.06 593.328 1531.96 593.012 1500.03 590.054C1465.71 588.473 1438.02 587.673 1409.04 588.882C1375.45 588.575 1353.88 586.873 1319.14 589.226C1282.65 589.729 1254.21 592.212 1228.04 591.319C1200.35 590.287 1166.46 594.082 1137.67 594.156C1099.73 596.5 1064.08 594.537 1016.29 595.84C976.666 593.989 935.59 594.965 895.962 593.691C880.001 594.482 868.998 591.942 848.978 593.635C824.772 594.872 803.304 591.97 774.342 594.509C750.475 593.979 723.806 595.021 701.048 595.188C678.122 595.244 647.754 595.198 627.501 595.421C601.742 598.081 581.933 593.579 553.108 594.705C539.092 594.528 526.419 592.407 510.658 593.933C493.989 594.658 485.819 591.133 470.872 593.319C462.575 592.268 441.984 592.361 431.076 592.798C420.474 591.924 405.612 592.528 390.856 592.212C364.536 591.505 345.88 591.663 324.423 591.031C302.394 590.789 277.385 589.143 258.359 590.417C237.832 589.059 215.021 589.887 192.285 590.101C171.419 590.807 148.514 591.235 126.031 590.575C106.064 591.449 82.1542 593.124 59.8723 591.431C36.5017 591.849 17.2428 592.351 -6.30752 592.817C-19.8796 594.463 -28.082 595.486 -39.9629 593.468C-50.5437 594.258 -61.8644 594.249 -73.3648 594.193" stroke="#2A3C51" stroke-width="2" stroke-miterlimit="10"/>
<path d="M1987.61 572.511C1952.98 571.915 1918.76 572.864 1886.24 571.441C1852.88 570.572 1819.51 568.755 1784.88 569.714C1771.1 568.776 1758.39 568.715 1744.33 569.23C1716.8 567.766 1687.37 568.685 1660.65 566.656C1631.45 567.504 1606.22 564.041 1577.06 565.031C1548.05 566.676 1528.74 561.366 1493.38 564.455C1455.19 567.988 1434.82 567.978 1409.99 564.627C1382.53 564.95 1352.83 562.951 1326.33 565.596C1298.58 564.364 1270.25 565.495 1242.79 568.018C1211.52 569.795 1183.1 569.109 1159.44 570.895C1131.95 572.844 1105.6 575.357 1075.13 575.206C1038.78 576.256 1008.24 576.185 976.861 575.458C945.628 574.933 916.729 569.694 878.596 568.14C861.923 566.757 847.067 568.251 835.56 569.341C825.037 568.301 810.984 570.542 800.026 570.461C785.403 572.319 773.77 573.803 763.922 571.501C754.835 570.118 745.188 571.239 727.807 572.288C716.776 576.215 705.692 572.955 691.681 572.753C678.822 572.43 663.026 573.671 655.535 572.813C643.595 573.702 633.504 571.42 619.367 572.399C605.145 572.238 596.692 570.471 583.051 571.218C572.411 572.087 554.522 570.118 546.661 569.442C533.591 568.887 517.002 569.936 505.284 567.887C496.187 567.423 487.301 565.212 474.484 566.868C462.248 564.94 451.513 566.474 443.673 566.181C417.965 566.878 390.293 565.485 363 565.02C333.489 563.405 308.099 563.395 283.575 563.557C254.19 564.798 232.149 560.861 203.642 562.335C171.986 561.437 150.357 563.799 123.487 562.244C95.508 561.487 71.7553 563.112 43.586 564.162C13.8423 565.878 -5.56764 565.909 -36.1355 568.907C-50.2941 569.361 -60.3425 571.289 -70.486 570.128" stroke="#2A3C51" stroke-width="2" stroke-miterlimit="10"/>
<path d="M1987.61 547.482C1947.3 546.046 1911.01 545.164 1871.11 543.792C1858.99 545.621 1846.19 544.77 1841.98 543.058C1809.8 543.952 1779.62 544.388 1756.24 543.558C1728.24 544.983 1701.39 541.219 1670.52 543.569C1642.64 542.505 1609.78 545.802 1584.66 543.494C1557.04 539.496 1523.25 547.131 1499.17 542.963C1466.48 542.484 1440.9 543.622 1413.72 542.814C1380.92 547.11 1354.84 543.845 1327.9 542.952C1297.23 544.515 1268 542.484 1242.01 543.92C1215.71 542.91 1187.76 543.09 1156.69 545.228C1138.15 544.43 1110.35 547.28 1088.11 545.079C1059.54 545.897 1038.69 544.281 1019.82 544.037C998.486 543.431 976.884 541.74 951.783 542.548C929.187 541.41 910.078 538.773 882.959 542.038C854.73 543.973 824.736 549.396 787.766 551.639C773.403 551.14 756.377 553.904 747.953 553.681C730.969 554.383 725.135 552.937 707.972 554C698.861 553.192 682.881 553.915 668.74 553.713C639.243 551.958 614.438 553.234 587.033 550.055C560.58 547.11 533.893 545.345 505.241 544.334C497.674 543.707 484.104 540.815 472.404 541.878C439.335 541.74 408.622 542.761 382.823 540.804C348.401 540.613 326.027 540.326 292.777 539.805C262.297 538.592 230.802 540.517 202.731 539.432C180.621 538.295 156.916 539.751 135.852 539.837C110.476 539.443 89.6664 540.645 67.546 541.081C43.3435 541.591 22.988 541.772 -0.527551 543.431C-21.0098 542.357 -46.47 543.75 -67.6076 546.865" stroke="#2A3C51" stroke-width="2" stroke-miterlimit="10"/>
<path d="M1986.17 522.456C1954.21 525.123 1932.17 520.225 1906.28 520.367C1895.59 521.523 1886.64 519.312 1879.72 519.819C1845.3 523.987 1817.19 521.351 1780.02 522.395C1745.33 522.04 1714.04 522.821 1680.45 522.446C1652.31 519.789 1613.29 522.172 1581.16 520.631C1548.35 518.41 1515.78 519.606 1481.47 518.167C1446.86 517.426 1415.54 517.984 1382.38 515.469C1352.37 511.17 1316.35 512.731 1282.42 513.33C1251.04 512.985 1216.16 510.865 1182.9 512.812C1149.78 512.275 1109.89 515.185 1082.88 514.283C1049.69 517.416 1018.18 515.773 982.761 518.947C946.749 522.841 918.229 523.216 882.47 527.384C847.62 529.25 809.484 532.83 774.148 531.826C758.625 532.475 745.596 529.777 728.193 531.846C690.257 531.116 653.399 529.24 613.34 529.159C580.244 525.255 538.177 526.948 498.625 524.464C483.715 524.454 468.848 524.677 454.624 523.673C422.68 525.173 401.557 523.663 368.144 523.237C334.584 524.2 308.04 521.574 280.988 522.527C257.72 522.121 224.106 522.273 194.085 522.223C150.687 521.543 105.915 523.936 63.8158 522.324C18.6103 523.237 -24.1647 522.212 -66.1684 523.308" stroke="#2A3C51" stroke-width="2" stroke-miterlimit="10"/>
<path d="M1984.73 498.439C1960.4 497.809 1938.78 500.802 1916.56 498.69C1905.42 499.671 1893.31 499.521 1882.78 498.83C1840.28 497.668 1793.57 501.723 1754.32 500.342C1712.48 501.002 1664.45 500.051 1625.72 499.921C1595.87 498.499 1568.12 499.461 1539.95 498.84C1512.78 500.692 1484.32 495.986 1454.41 497.338C1423.84 499.971 1395.64 495.175 1368.44 495.456C1341.84 494.004 1304.09 499.19 1282.54 493.804C1261.32 490.039 1218.19 496.527 1197.12 491.541C1175.3 493.523 1149.14 492.262 1122.86 491C1098.27 491.03 1077.13 491.24 1048.15 492.542C1021.43 495.315 999.655 492.452 973.126 495.526C947.918 497.048 923.692 496.667 899.181 499.551C864.971 500.752 831.206 499.811 800.789 500.972C788.354 497.879 773.277 502.684 761.857 500.332C749.337 499.931 729.19 499.671 719.216 500.472C684.119 499.18 647.014 500.762 612.689 501.082C573.535 504.497 543.234 503.676 506.351 502.915C491.613 503.485 481.291 504.477 468.571 504.056C437.848 502.244 405.17 508.422 379.465 504.887C348.996 503.005 321.093 506.109 289.979 504.887C254.956 503.986 230.192 505.868 200.905 503.876C182.152 503.726 157.071 502.594 134.145 502.805C101.013 502.194 68.0815 501.463 34.0198 501.072C0.528621 499.11 -33.5225 498.74 -66.1685 499.681" stroke="#2A3C51" stroke-width="2" stroke-miterlimit="10"/>
<path d="M1984.73 475.255C1971.14 476.559 1960.5 476.027 1952.98 475.265C1937.9 474.233 1930.94 474.4 1921.35 475.265C1892.34 475.724 1867.46 474.733 1841.05 476.006C1815.73 474.733 1785.95 473.596 1760.53 475.495C1732.52 474.087 1704.91 473.753 1680.04 474.4C1648.63 476.309 1629.54 469.976 1599.87 472.699C1566.88 468.276 1529.82 470.247 1492.84 470.091C1457.19 469.611 1428.2 467.702 1385.8 467.504C1345.48 471.385 1310.38 463.978 1278.94 465.626C1244.28 465.709 1203.7 466.617 1171.42 465C1132.77 468.328 1100.12 465.49 1065.21 465.928C1030.56 464.645 996.438 467.003 958.873 468.829C925.06 473.262 887.537 472.96 851.567 475.505C841.886 475.964 829.36 477.842 818.199 475.484C782.705 476.319 749.135 474.629 714.117 473.45C701.201 474.107 693.887 472.042 681.552 473.534C658.71 473.127 632.434 473.408 600.111 474.17C573.771 475.599 547.959 475.432 518.607 475.787C505.5 473.262 496.865 476.632 479.456 477.039C451.182 477.55 415.138 480.377 387.826 480.586C357.29 481.16 330.611 482.37 297.253 481.89C265.448 482.109 237.385 481.306 206.035 481.462C179.632 481.222 158.122 480.179 137.891 480.304C117.407 480.377 92.0817 476.976 69.1663 478.833C45.7118 478.343 25.2063 476.152 0.758231 477.154C-22.5694 478.207 -43.223 475.234 -67.6076 475.537" stroke="#2A3C51" stroke-width="2" stroke-miterlimit="10"/>
<path d="M1986.17 453.54C1979.53 452.745 1968.17 453.902 1959.15 453.711C1928.03 453.902 1892.94 456.516 1865.4 454.636C1834.52 453.419 1804.26 453.771 1771.87 453.52C1762.22 451.136 1742.18 451.901 1725.15 452.403C1691.02 446.702 1662.86 445.023 1624.13 447.929C1596.85 445.415 1558.79 444.892 1523.1 444.771C1494.2 443.675 1449.06 441.634 1421.75 442.911C1385.51 445.083 1355.16 440.538 1321.05 442.137C1285.43 440.82 1255.8 445.224 1219.67 442.388C1178.97 447.124 1152.87 441.735 1119.06 443.977C1084.74 445.053 1052.52 446.923 1018.22 446.461C983.975 446.29 947.998 447.858 917.199 449.759C900.88 448.834 891.918 450.242 873.982 450.121C857.821 450.422 842.285 448.663 827.488 448.482C806.561 445.586 781.385 445.395 756.959 444.49C731.593 443.535 712.579 438.919 686.452 438.98C674.9 435.661 657.82 442.057 647.05 439.412C621.42 440.347 591.033 441.936 564.959 442.368C541.136 444.138 506.702 445.827 482.836 446.883C473.43 443.585 460.028 447.496 449.934 448.824C423.374 449.859 389.331 454.404 363.912 453.238C335.702 453.711 305.084 453.62 277.403 456.023C244.215 457.572 217.338 456.858 191.169 456.687C148.765 457.009 104.321 454.344 61.8121 455.199C15.8361 453.851 -27.5504 452.122 -67.6077 452.001" stroke="#2A3C51" stroke-width="2" stroke-miterlimit="10"/>
<path d="M1989.05 432.032C1976.21 434.309 1961.62 434.371 1953.43 433.299C1941.88 434.227 1927.04 432.145 1918.25 434C1884.26 433.341 1854.73 433.526 1825.76 429.776C1812.82 425.572 1796.42 428.003 1779.56 428.045C1753.33 426.643 1723.8 425.293 1688.96 425.963C1661.4 427.581 1633.51 424.15 1598.41 424.315C1568.32 423.985 1539.95 426.478 1507.91 423.078C1473.67 421.914 1451.82 424.366 1417.32 422.584C1391.17 421.193 1355.26 422.058 1326.59 422.347C1300.19 420.616 1263.37 422.769 1236.15 423.346C1202.17 426.386 1180.55 423.562 1145.26 424.675C1115.23 427.838 1087.62 424.943 1054.74 427.097C1018.62 430.919 985.76 429.611 955.914 429.034C923.064 428.467 890.955 430.569 857.292 427.138C847.945 426.829 838.303 424.459 824.854 425.706C791.963 421.048 761.672 423.119 727.628 419.451C710.045 419.039 706.842 418.318 690.687 417.854C680.928 416.01 662.436 418.761 651.589 416.793C635.455 418.029 623.032 414.67 607.162 416.628C584.463 416.01 565.326 416.041 540.332 417.576C514.123 416.133 492.438 419.307 473.449 420.214C461.883 418.812 442.63 421.326 428.653 422.079C414.337 422.965 400.561 420.059 382.048 424.521C359.306 426.994 334.418 426.015 312.586 426.829C296.367 425.788 267.282 430.363 242.721 429.085C217.474 431.847 202.344 426.365 172.973 430.219C148.762 432.372 123.133 430.868 103.204 430.136C87.3024 430.342 76.8143 429.301 56.6521 429.631C28.5393 428.22 -5.09247 429.219 -36.6097 427.498C-47.3304 427.962 -55.2812 428.436 -69.0468 427.467" stroke="#2A3C51" stroke-width="2" stroke-miterlimit="10"/>
<path d="M1994.8 409.998C1983.18 409.357 1969.37 411.221 1959.83 411.103C1936.56 411.823 1906.92 412.641 1880.03 410.679C1865.46 409.16 1854.77 407.493 1840.19 408.972C1804.57 408.381 1784.99 405.885 1751.18 403.745C1721.63 399.268 1691.97 400.678 1661.88 401.309C1627.19 398.972 1584.88 401.615 1554.04 400.303C1514.4 401.24 1483.33 399.574 1446.2 401.783C1411.34 400.264 1376.39 403.075 1338.58 404.446C1298.92 404.919 1269.01 406.872 1230.57 408.095C1194.32 410.392 1161.23 408.834 1122.2 411.004C1085.77 412.178 1051.25 411.566 1015 412C977.998 411.162 944.862 412.611 907.486 410.126C871.337 408.864 831.234 408.716 799.557 405.284C785.019 406.211 776.889 403.854 763.281 403.854C723.823 401.871 693.573 396.605 654.57 398.4C642.21 398.558 621.962 400.333 612.69 397.828C575.716 396.694 522.925 400.126 484.45 399.396C468.083 401.299 455.543 392.581 441.661 400.136C421.118 396.763 391.164 404.761 372.64 400.116C351.198 400.037 328.223 399.465 304.307 400.363C284.831 400.175 254.889 404.159 235.868 400.865C216.086 402.296 188.638 401.921 167.006 401.793C143.132 402.493 119.998 403.913 98.4293 402.808C73.2233 402.434 54.4879 402 29.9056 403.104C16.1713 403.587 6.43353 402.256 -8.84447 403.035C-19.5126 402.157 -28.0979 403.124 -38.9564 403.213C-48.6835 403.992 -60.0389 404.14 -69.0471 403.499" stroke="#2A3C51" stroke-width="2" stroke-miterlimit="10"/>
<path d="M1999.12 384.724C1988.4 386.824 1981.81 383.183 1971.3 384.43C1961.37 384.877 1951.84 386.652 1943.51 384.156C1925.76 384.775 1911.18 382.513 1899.12 382.706C1882.25 382.99 1874.56 381.844 1854.83 381.459C1809.71 380.282 1762.77 382.554 1722.8 380.221C1676.91 380.647 1636.44 378.751 1590.79 381.256C1566.2 379.978 1531.76 380.039 1502.79 383.021C1473.62 383.913 1447.09 383.832 1414.74 385.414C1384.86 387.372 1358.9 388.629 1326.8 388.639C1301.26 391.652 1271.25 390.222 1238.74 392.301C1212.14 392.767 1180.03 395.922 1150.82 396.287C1125.16 399.046 1102.58 397.768 1074.91 397.25C1047.82 396.196 1023.73 395.81 998.621 393.751C973.435 392.362 946.547 391.723 922.248 388.132C897.2 388.568 873.049 382.534 846.426 382.087C817.657 381.54 797.396 381.459 773.742 379.988C759.643 378.669 750.057 381.55 730.546 380.018C717.642 378.791 706.037 377.919 694.094 379.947C684.222 380.231 665.768 380.911 656.256 379.765C646.438 378.598 628.217 380.211 613.388 380.576C604.415 381.895 584.619 380.323 571.408 380.961C555.427 381.185 540.282 380.505 529.237 381.144C509.991 382.037 495.004 383.933 486.845 381.327C458.477 382.493 433.312 379.268 408.612 378.071C380.53 379.329 355.883 379.136 330.602 375.414C306.705 372.259 276.393 374.196 252.454 373.933C223.801 373.639 200.105 372.726 174.327 373.081C146.33 374.105 119.759 372.553 96.1373 374.602C68.2455 379.156 47.8049 376.722 18.148 378.416C4.90498 377.838 -9.39496 376.316 -25.5551 378.649C-42.8778 377.341 -53.8168 378.081 -69.0469 379.146" stroke="#2A3C51" stroke-width="2" stroke-miterlimit="10"/>
<path d="M2002 357.488C1989.38 357.653 1979.2 358.243 1969.57 356.569C1951.8 355.195 1925.16 353.076 1906.31 355.04C1893.58 355.157 1882.38 358.649 1874.79 354.769C1853.15 354.179 1822.26 355.834 1802.49 354.963C1778.42 355.369 1754.12 353.937 1730.57 356.25C1707.02 357.488 1686.56 357.895 1658.92 357.914C1635.29 358.146 1606.9 358.136 1586.12 360.149C1551.62 359.152 1524.1 361.571 1490.03 363.139C1457.92 365.344 1424.41 363.603 1399.48 365.006C1369.36 363.613 1336.31 367.347 1308.49 366.389C1274.15 365.731 1251.21 366.525 1217.51 367.047C1187.01 366.418 1160.26 369.205 1126.99 367.357C1099.57 366.863 1069.47 364.435 1036.41 367.018C1005.78 366.738 976.772 366.244 945.548 365.954C915.285 365.838 887.823 361.039 854.622 364.125C826.199 360.816 799.361 361.707 764.194 362.074C747.165 362.519 734.185 362.626 722.632 362.355C706.544 363.603 702.295 359.297 681.059 362.693C664.95 363.4 652.456 367.192 635.1 363.351C618.547 364.299 614.995 362.006 600.229 363.525C587.713 363.729 572.122 362.616 558.73 363.477C547.451 361.677 536.807 364.077 524.26 363.342C510.181 363.109 494.664 363.554 489.178 362.906C452.488 360.913 431.454 359.791 402.375 359.104C372.715 358.175 341.047 357.953 315.72 356.559C283.851 357.014 258.81 357.014 228.833 355.282C198.19 355.882 168.371 354.798 142.284 354.276C111.968 353.434 85.4794 354.789 55.3859 354.76C30.7679 355.669 -2.02103 354.489 -31.1949 355.756C-45.7289 356.085 -52.3881 354.769 -69.0468 355.447" stroke="#2A3C51" stroke-width="2" stroke-miterlimit="10"/>
<path d="M2002 328.277C1966.19 326.501 1922.2 327.256 1885.76 324C1878.81 324.367 1865.82 326.777 1857.2 324.031C1834.8 324.214 1814.32 324.541 1789.23 325.562C1767.14 326.399 1738.81 328.104 1720.29 328.338C1700.6 326.889 1673.53 333.769 1652.34 331.493C1631.37 331.707 1608.71 332.299 1583.47 335.208C1555.29 336.678 1521.86 335.065 1492.29 338.158C1459.13 339.067 1433.3 336.913 1397.71 338.424C1363.79 336.382 1345.67 338.883 1302.96 337.699C1272.81 337.699 1242.75 338.454 1207.93 335.892C1176.75 334.984 1142.71 335.637 1113.82 333.697C1081.77 333.82 1047.42 334.187 1019.26 332.228C987.361 331.707 956.122 332.585 924.681 331.442C888.399 334.075 858.228 333.381 829.959 332.697C795.495 336.249 769.912 337.587 735.342 336.178C717.318 339.179 706.196 335.218 692.982 337.719C666.394 336.709 633.907 340.527 605.321 340.71C588.343 339.935 577.877 342.476 561.449 341.568C553.086 344.048 539.1 340.343 528.402 341.915C517.766 343.732 503.4 342.956 494.435 341.843C463.058 342.65 433.796 341.609 404.977 339.414C376.624 337.035 354.233 340.547 330.362 337.617C303.182 336.27 276.89 339.485 255.715 336.658C223.81 337.872 207.392 333.881 180.709 335.688C152.039 336.229 129.193 338.883 106.517 334.32C75.4575 336.352 60.5937 334.014 32.2933 333.024C8.32728 332.37 -22.7534 336.27 -42.3005 331.013C-55.8005 333.983 -57.9043 327.797 -69.0469 331.094" stroke="#2A3C51" stroke-width="2" stroke-miterlimit="10"/>
<path d="M1997.68 301.062C1964.17 299.041 1922.56 296.049 1886.66 297.681C1874.77 295.544 1872.38 298.691 1859.26 297.953C1814.22 294.077 1772.83 304.083 1729.98 302.266C1686.36 301.897 1647.18 306.337 1600.98 309.125C1578.69 311.35 1552.74 310.3 1524.35 312.768C1500.16 313.409 1463.73 315.916 1447.72 312.039C1414.74 312.69 1387.1 306.939 1349.09 305.628C1313.53 302.402 1282.8 303.685 1250.15 300.333C1216.16 296.777 1192.45 294.932 1151.65 296.515C1110.78 296.816 1083.82 293.941 1053.19 294.31C1037.91 292.726 1025.74 292.454 1009.46 294.184C979.808 294.222 951.935 293.183 922.011 295.583C908.534 296.117 897.055 295.476 878.282 297.215C832.577 299.527 793.826 302.606 747.022 306.395C733.545 310.407 724.106 307.454 711.601 308.843C700.069 312.204 688.622 309.436 676.181 311.486C661.34 309.747 645.665 313.098 629.08 314.973C613.531 315.945 591.017 316.129 582.022 318.723C569.105 320.88 558.249 319.461 548.303 319.209C536.718 320.967 526.021 319.306 514.341 318.888C483.814 319.073 456.48 320.122 427.486 318.218C383.874 314.915 335.04 314.594 297.801 310.922C256.588 308.591 212.056 302.276 167.661 304.258C149.48 301.897 122.157 304.093 96.3126 304.743C68.8936 306.133 51.8863 307.59 24.9641 308.144C3.32699 309.834 -13.2788 308.552 -34.6728 308.474C-44.5981 305.938 -55.2529 307.551 -69.0469 307.211" stroke="#2A3C51" stroke-width="2" stroke-miterlimit="10"/>
<path d="M1991.93 276.278C1964.56 272.341 1935.02 273.343 1907.82 272C1896.7 272.486 1887.69 273.777 1879.91 272.227C1848.43 272.682 1828.01 271.328 1794.32 277.011C1760.73 278.034 1732.45 282.581 1708.74 281.568C1691.11 284.389 1680.36 285.061 1665.95 283.056C1629.05 285.143 1590.85 284.534 1565.13 283.128C1529.83 282.054 1498.37 278.851 1464.34 281.775C1433.95 281.754 1394.18 282.095 1363.52 279.45C1327.53 277.921 1291.12 278.706 1262.78 277.022C1229.18 275.885 1191.67 275.1 1161.94 274.924C1128.87 274.862 1091.05 275.11 1061.11 273.281C1028.73 272.496 993.947 273.023 960.219 272.847C925.181 273.188 889.678 275.389 859.173 275.017C846.219 272.61 826.713 276.257 811.498 276.794C797.793 275.895 777.263 278.148 763.706 279.357C747.339 279.119 732.821 280.039 719.507 280.618C689.045 280.401 662.396 280.08 630.729 284.441C618.8 283.624 614.024 281.516 597.413 284.947C580.127 285.35 560.505 285.763 547.255 285.216C531.258 284.141 516.655 284.792 496.695 284.833C468.98 286.92 438.517 285.66 412.281 285.216C384.999 284.027 353.183 284.968 328.786 282.705C299.866 282.291 273.439 279.698 244.593 279.326C215.515 280.091 187.324 275.999 160.792 275.317C124.592 275.709 95.3969 274.656 67.301 275.441C31.0268 277.58 2.50831 278.479 -26.0736 279.398C-36.5237 278.241 -55.522 280.927 -69.0469 281.041" stroke="#2A3C51" stroke-width="2" stroke-miterlimit="10"/>
<path d="M1987.61 253.949C1948.65 250.35 1917.68 249.636 1882 251.237C1871.5 252.307 1860.57 251.471 1846.95 252.216C1825.41 254.642 1803.85 253.378 1779.32 253.133C1755.43 255.295 1734.74 254.132 1712.06 253.847C1683.64 258.098 1667.38 255.57 1644.22 253.969C1626.91 253.358 1599.92 255.886 1577.16 253.582C1546.24 255.478 1534.94 253.786 1509.52 253.103C1488.69 252.797 1463.06 251.104 1442.26 252.246C1405.77 251.145 1375.95 252.797 1341.38 251.023C1309.26 249.422 1275.8 253.714 1239.87 250.044C1208.16 249.952 1173.18 249.177 1138.93 249.861C1106.22 249.646 1071.91 247.465 1037.44 250.075C1004.83 250.982 971.942 249.443 935.767 251.991C903.366 251.217 867.36 253.827 834.938 255.121C820.857 256.375 801.681 255.468 787.22 256.681C773.657 256.661 764.417 257.945 746.615 257.171C705.409 253.245 666.02 258.476 624.707 258.384C612.815 258.486 600.785 260.097 590.552 257.66C570.128 259.271 557.199 257.843 539.302 255.804C523.435 253.602 502.06 252.45 487.947 252.878C456.17 253.877 426.274 249.952 395.491 250.442C365.68 248.178 331.735 248.423 303.087 246.802C270.306 246.088 242.281 245.12 211.117 243.427C179.034 244.11 149.276 244.243 118.566 242C71.397 244.6 23.4246 247.454 -10.2554 251.176C-13.8708 248.321 -27.1061 250.758 -37.4131 254.397C-51.2086 255.335 -51.9379 252.43 -64.7292 255.468" stroke="#2A3C51" stroke-width="2" stroke-miterlimit="10"/>
<path d="M1983.29 233.328C1960.79 232.998 1940.23 231.017 1926.17 230.607C1917.93 231.137 1905.88 229.987 1897.62 229.897C1863.88 233.448 1835.61 230.197 1806.78 231.077C1778.14 233.078 1750.7 230.107 1715.91 232.528C1691.48 236.078 1664.57 232.197 1645.7 232.397C1622.97 230.347 1598.88 229.617 1576.21 232.157C1560.31 228.567 1528.81 233.638 1506.63 231.237C1482.09 228.987 1459.76 230.117 1436.47 230.857C1408.19 227.707 1372.06 230.917 1343.26 230.147C1312.91 228.657 1286.07 230.887 1250.23 230.117C1215.59 231.627 1190 229.927 1156.69 230.977C1124.88 231.927 1095.18 230.877 1063.19 233.548C1035.35 231.897 1000.02 236.818 969.818 237.518C938.991 239.878 902.489 240.729 868.915 239.308C834.072 237.628 800.381 236.238 768.138 236.868C755.583 236.618 750.194 237.278 736.498 237.118C725.708 234.778 716.619 233.498 697.364 236.608C675.615 234.158 646.585 234.088 618.527 233.928C593.354 236.028 565.201 231.327 539.193 229.887C530.273 228.857 512.942 227.877 499.658 227.237C478.205 228.367 469.433 226.097 450.992 225.196C425.259 225.366 398.86 226.427 373.338 224.696C348.134 223.976 325.36 220.846 295.051 221.606C267.532 221.376 241.83 218.966 216.974 219.016C184.118 218.136 162.253 217.505 139.162 218.526C100.557 219.326 64.3299 219.376 20.906 222.116C11.9231 222.046 5.94161 222.606 -4.36219 223.626C-14.5286 226.087 -18.0371 226.677 -25.942 226.677C-23.0781 226.507 -35.8336 227.477 -47.4584 230.147" stroke="#2A3C51" stroke-width="2" stroke-miterlimit="10"/>
<path d="M1978.97 211.435C1967.62 209.646 1955.39 210.802 1942.77 209.475C1930.3 207.806 1917.86 208.439 1906.19 207.685C1878.29 208.188 1849.59 204.81 1818.55 207.534C1790.16 203.985 1757.49 208.369 1730.4 208.409C1703.22 205.896 1673.07 209.716 1642.73 209.264C1615.02 214.633 1589.93 210.41 1554.98 209.907C1525.68 211.958 1494.25 209.706 1466.89 209.535C1434.35 207.333 1402.97 208.158 1379.06 207.434C1348 207.876 1323.2 205.363 1299.18 205.835C1273.16 204.297 1246.6 204.609 1219.49 206.68C1191.65 206.358 1167.02 208.771 1139.36 209.455C1113.31 209.937 1082.38 214.914 1059.91 213.466C1028.44 213.959 995.449 216.563 971.925 215.889C947.059 215.075 914.32 215.608 884.518 215.326C854.358 215.196 829.967 213.024 796.975 212.964C766.962 213.275 736.876 213.909 709.304 210.279C695.725 211.918 681.881 208.65 669.95 209.425C635.235 207.655 599.526 207.052 571.542 206.861C538.212 204.558 510.513 202.96 473.072 204.257C465.886 205.775 449.442 202.236 448.618 203.814C449.548 203.744 433.062 204.066 431.857 203.794C399.699 205.775 368.45 204.196 337.793 203.764C303.596 203.02 275.454 202.688 243.507 202.165C213.675 200.748 176.381 200.707 149.475 201.592C119.114 200.818 82.042 201.582 54.9779 205.192C41.821 206.539 36.2201 206.75 33.557 206.046C27.1635 207.414 15.4861 207.353 12.1573 206.82C5.43613 206.67 -3.40923 208.278 -11.3456 209.002C-20.5185 211.154 -22.4946 208.208 -32.291 210.179C-40.3014 213.577 -45.2471 212.571 -53.2153 211.405" stroke="#2A3C51" stroke-width="2" stroke-miterlimit="10"/>
<path d="M1976.09 187.772C1944.54 185.477 1915.08 184.894 1882.77 183.915C1848.46 184.715 1821.14 181.583 1789.74 183.36C1767.8 180.896 1738.58 186.737 1715.94 186.69C1695.26 186.944 1667.28 188.393 1642.9 189.239C1626.81 186.841 1598.9 189.766 1569.76 190.152C1540.49 192.597 1517.9 189.079 1496.05 188.063C1448.65 186.455 1409.36 185.815 1365.31 183.981C1323 183.69 1281.06 184.536 1234.57 184.301C1207.45 184.489 1175.92 187.057 1147.41 185.834C1120.1 186.775 1088.3 187.527 1059.9 187.819C1032.81 188.148 998.578 190.076 973.096 189.004C948.914 190.293 928.651 188.374 905.757 188.948C872.352 189.54 837.847 186.944 804.843 187.104C773.477 183.116 740.093 185.185 704.183 185.289C687.745 182.965 676.388 188.543 657.773 185.354C623.269 182.702 584.676 184.555 541.805 185.665C497.665 186.803 464.926 187.527 426.111 186.257C416.73 186.643 410.232 187.48 407.729 185.561C393.118 188.346 378.866 182.674 363.505 183.774C354.356 183.943 353.426 182.589 341.414 183.097C310.65 181.921 275.956 181.075 242.054 181.441C212.24 180.397 184.117 178.356 142.82 182.448C140.4 182.363 130.068 183.247 126.159 182.956C119.525 181.488 107.439 180.369 93.3033 183.708C84.8938 184.988 75.1638 182.175 68.6031 184.489C57.637 184.009 43.7022 182.279 31.5845 185.749C28.151 182.965 9.30367 186.333 -5.37064 187.113C-16.2628 187.264 -22.5382 187.988 -30.0179 188.336C-35.6066 188.045 -52.8375 190.406 -54.6546 189.54" stroke="#2A3C51" stroke-width="2" stroke-miterlimit="10"/>
<path d="M1974.65 165.634C1930.99 165.166 1890.13 162.294 1848.2 162.199C1810.4 162.816 1770.17 163.72 1734.13 163.539C1693.65 166.4 1656.89 164.39 1620.78 163.847C1579.14 164.804 1539.81 165.527 1506.87 163.326C1474.38 162.507 1428.46 162.592 1393.5 162.592C1354.6 163.549 1318.25 162.847 1279.96 161.773C1241 162.294 1206.26 159.774 1166.27 160.667C1128.27 161.805 1091.73 159.614 1052.91 160.306C1015.78 158.508 974.53 158.636 938.974 160.263C899.318 160.572 868.927 160.678 825.554 161.114C787.737 162.114 749.032 161.082 711.522 163.602C696.743 164.889 690.965 166.942 683.328 163.815C673.641 162.262 661.779 163.145 655.007 163.709C641.042 163.262 627.331 162.337 612.321 164.315C580.81 161.539 541.44 164.443 505.503 165.974C472.419 162.454 432.045 167.335 398.443 167.506C390.33 166.591 383.58 165.655 377.591 166.772C371.654 165.825 365.855 166.176 356.675 166.144C329.633 164.496 306.224 162.284 280.587 164.496C257.453 164.049 236.21 164.857 204.509 163.826C194.727 163.177 185.706 165.889 182.621 163.985C157.956 162.082 134.853 164.358 106.459 165.634C83.4518 164.985 56.7792 166.697 30.1488 168.399C26.5678 168.824 14.2613 167.452 12.0007 168.909C3.06406 170.643 -16.6051 170.101 -24.3692 168.739C-34.9221 166.453 -51.7496 168.877 -60.4117 166.846" stroke="#2A3C51" stroke-width="2" stroke-miterlimit="10"/>
<path d="M1974.65 142.893C1961.65 140.431 1944.75 140.531 1925.23 142.473C1891.04 143.534 1858.36 141.082 1822.76 141.802C1788.68 140.161 1752.87 141.532 1720.56 140.711C1689.43 138.64 1653.53 141.552 1618.27 139.621C1583.14 139.09 1550.35 137.369 1515.8 139.16C1481.92 136.758 1447.33 137.839 1413.47 138.57C1377.11 138.59 1345.76 137.369 1311.01 137.959C1274.31 136.928 1241.07 137.199 1208.32 137.499C1175.01 137.249 1137.36 136.778 1106.22 137.249C1072.85 135.697 1037.55 136.428 1003.95 136.878C970.622 134.717 935.655 137.429 901.492 137.169C859.494 136.418 828.165 134.827 787.795 137.449C775.16 137.629 759.067 134.496 738.607 137.349C721.372 137.739 705.839 137.379 689.239 137.609C675.578 137.579 662.615 137.809 652.58 137.449C640.125 138.069 634.066 138.42 616.028 137.489C601.785 137.619 586.813 137.129 572.496 138.019C545.09 138.67 515.304 139.06 484.736 140.021C456.875 141.792 428.241 143.534 396.986 142.133C387.491 140.641 371.546 143.153 362.231 142.433C326.471 142.983 294.528 141.152 260.006 142.173C240.846 141.382 229.194 141.342 213.44 142.383C200.286 142.473 180.683 141.032 170.194 142.683C139.235 143.724 107.789 144.645 80.4984 143.404C69.9566 142.703 48.9259 141.892 33.7 143.764C-1.85882 143.083 -32.7971 143.774 -64.7292 140.781" stroke="#2A3C51" stroke-width="2" stroke-miterlimit="10"/>
<path d="M1974.65 121C1941.92 119.423 1911.91 119.132 1880.82 118.057C1849.71 118.77 1817.97 117.715 1786.41 116.65C1755.75 116.881 1721.34 116.942 1691.76 116.258C1660.89 116.289 1629.65 118.659 1598.09 116.289C1564.49 117.615 1536.04 117.424 1503.67 116.982C1471.83 117.263 1444.23 116.761 1409.65 117.404C1380.6 116.791 1343.88 116.861 1316.03 117.916C1284.3 118.087 1252.88 118.358 1221.04 117.504C1189.93 116.61 1162.08 116.248 1126.83 116.409C1092.05 117.484 1064.43 113.014 1032.22 114.068C1003.3 111.507 971.886 111.175 940.133 113.054C911.613 112.702 878.434 114.018 847.875 114.259C815.17 115.987 787.665 113.064 755.933 114.932C728.956 113.546 695.512 114.32 663.748 112.562C654.323 112.552 643.735 110.09 634.52 111.979C606.888 111.838 570.591 112.441 546.943 110C531.695 110.261 516.288 110.392 500.48 110.161C477.001 110.723 453.754 111.788 430.359 110.844C405.453 111.145 381.033 112.773 360.248 111.778C347.811 112.341 335.184 113.275 320.169 112.592C277.119 113.526 240.336 114.631 199.749 115.455C181.3 118.177 171.409 116.278 157.133 116.299C140.015 116.891 127.103 116.399 111.812 116.891C78.1254 120.417 51.4337 116.319 24.1714 116.751C-0.882481 116.68 -33.1958 114.39 -63.29 114.611" stroke="#2A3C51" stroke-width="2" stroke-miterlimit="10"/>
<path d="M1976.09 98.3299C1945.17 99.5619 1918.28 100.545 1890.09 97.8729C1858.39 97.7437 1833.67 97.2271 1804.77 96.4819C1778.45 97.2768 1746.7 93.71 1719.74 95.4188C1689.23 95.1804 1665.5 93.7298 1633.44 94.4253C1603.05 93.849 1574.27 94.6041 1547.31 94.5545C1520.08 92.6369 1487.79 93.4715 1461.97 95.3294C1432.68 97.6444 1408.47 96.323 1376.34 98.0815C1347.6 99.1843 1317 100.873 1290.24 102.374C1253.87 103.367 1207.91 103.566 1171.4 100.009C1134.22 97.4556 1089.77 96.6011 1052.57 92.4382C1015.01 91.4745 988.408 89.6662 956.877 92.4183C924.269 94.1968 893.225 94.3756 861.398 94.4948C830.322 94.465 799.964 93.1734 766.341 95.1207C731.589 96.8694 702.002 92.5475 670.387 90.9976C654.553 93.0542 650.708 90.3319 637.715 89.7656C609.945 89.0999 579.344 85.5331 553.792 87.6295C523.392 86.6161 499.635 85.9901 469.805 86.0001C452.471 86.7254 439.849 87.391 423.962 86.4372C408.656 86.5167 390.752 88.5236 378.139 87.3811C366.045 85.5232 352.144 87.4506 338.148 88.6528C292.008 89.696 254.267 92.3984 218.131 92.3587C209.87 92.7959 195.779 90.1133 178.255 93.1337C140.344 95.0512 99.6027 92.9747 60.2132 92.6567C24.3939 88.3647 -17.9428 91.9712 -57.5331 90.4312" stroke="#2A3C51" stroke-width="2" stroke-miterlimit="10"/>
<path d="M1981.85 71.7348C1956.69 73.3954 1930.13 72.8912 1910.41 74.453C1886.76 74.0774 1861.71 74.71 1839.33 74.6507C1814.38 75.1449 1793.37 72.2784 1767.72 72.911C1743.61 70.5782 1720.33 69.7381 1696.67 70.4893C1668.53 69.3526 1646.64 68.8485 1625.35 68.4827C1598.06 67.6524 1576.72 69.0461 1553.92 68.3839C1522.42 70.5288 1499.17 71.8534 1474.47 71.8237C1444.31 74.4332 1421.44 74.1366 1394.24 76.6572C1366.32 80.6604 1337.11 79.0196 1314.3 80.8383C1287.05 81.5204 1259.51 82.8449 1234.56 81.2337C1205.71 78.4463 1169.02 76.2322 1130.93 75.303C1099.52 76.42 1076.57 72.3772 1041.57 73.1086C1013.41 72.0115 983.024 70.6375 952.209 71.9423C919.627 73.0197 891.847 71.4283 863.115 70.8451C835.715 71.7347 805.83 71.8731 773.503 69.5008C744.072 69.5107 711.237 67.7315 683.89 66.6837C656.744 63.0759 622.936 63.412 594.807 61.6525C589.488 61.3955 573.488 62.6113 563.04 60.6641C555.457 59.4582 544.755 58.1831 531.293 59.6756C514.723 60.8815 507.447 58.4895 487.83 59.6262C456.56 60.5356 432.026 59.1023 396.643 62.2752C389.6 60.4763 374.53 62.1764 365.256 64.1533C331.564 65.3098 306.967 67.1087 271.118 69.224C259.824 69.906 247.472 71.5963 233.481 70.8253C208.324 71.5469 184.022 72.9208 160.937 72.6836C135.102 72.0312 109.469 74.7593 88.9427 72.6935C65.6883 70.4299 43.6501 71.2009 17.181 71.1614C-5.49174 69.6787 -31.9819 69.8863 -54.6547 67.7809" stroke="#2A3C51" stroke-width="2" stroke-miterlimit="10"/>
<path d="M1984.73 45.8337C1950.6 46.218 1912.05 47.095 1880.2 46.7698C1848.29 45.3903 1808.67 47.4497 1775.72 47.7059C1741.91 49.6865 1709.17 47.4792 1671.48 48.4745C1639.6 49.0755 1598.94 48.6124 1566.67 49.2825C1534.53 49.9033 1497.18 47.7157 1462.22 49.8934C1430.1 49.2233 1390.67 48.642 1357.61 50.0215C1320.4 51.1153 1285.5 48.2281 1252.5 49.8146C1216.95 52.1893 1185.15 49.5879 1148.55 49.3711C1112.73 52.5046 1081.27 51.066 1043.92 48.5434C1008.79 46.7993 977.923 48.0212 939.545 46.7895C900.216 46.4544 859.693 44.9961 823.459 44.3162C783.2 42.8184 745.815 41.636 707.257 41.0644C668.552 39.5962 630.945 38.8178 591.372 36.7091C581.545 36.8372 567.228 37.458 552.836 36.3347C538.74 36.1277 528.184 36.0785 514.257 36.0193C501.82 36.6204 490.587 35.6744 475.287 36.1277C454.195 35.9996 433.812 36.039 408.738 38.2069C397.009 38.5025 386.209 37.4777 368.183 40.8279C329.35 44.6709 290.591 45.4296 246 51.8937C234.641 52.5933 226.705 54.6823 217.723 53.7757C196.991 53.5786 171.346 53.2929 149.61 53.6082C130.125 50.5536 106.773 52.1006 81.2543 51.2729C58.2506 50.8196 35.0355 49.0656 12.9194 48.1C-11.1198 47.3511 -31.5452 45.1833 -54.6546 44.9862" stroke="#2A3C51" stroke-width="2" stroke-miterlimit="10"/>
<path d="M1989.05 19.0433C1942.96 21.7277 1901.22 24.6518 1862.26 25.2558C1833.47 24.5751 1797.86 25.8694 1765.23 24.6422C1732.29 23.3288 1699.61 23.6739 1668.75 22.6193C1638.07 20.7498 1609.96 21.1237 1571.88 21.7661C1539.68 20.5005 1504.7 24.0095 1474.45 24.2971C1441.38 26.0515 1409.61 27.6334 1377.76 28.132C1347.59 29.2057 1312.92 28.5538 1281.07 29.0907C1254.66 28.9948 1226.4 29.3975 1195.19 28.5155C1168.92 28.1703 1139.39 26.5021 1109.25 26.7418C1083.78 25.1312 1051.66 24.1724 1023.37 24.1341C1001.61 23.3671 964.663 24.7668 937.643 21.814C909.292 21.8044 879.545 19.1775 851.743 19.5705C823.709 18.6214 793.318 18.353 766.034 17.4805C740.334 18.1133 704.734 19.1583 680.324 16.704C653.79 15.2179 621.381 16.5601 594.223 16.934C580.814 15.5727 570.891 17.6914 558.845 16.8478C524.016 15.5151 493.339 15.7644 452.868 17.5189C446.855 17.2121 425.097 19.0624 415.154 19.2637C376.943 21.7852 341.829 25.3325 301.515 29.0811C294.308 30.5767 279.895 29.0044 267.774 32.3599C258.824 32.7626 246.049 36.0126 234.15 34.5554C206.528 37.7 183.28 34.795 160.719 34.3636C137.831 32.8968 110.589 34.1527 88.1234 31.7942C62.7307 31.1231 39.8953 28.1223 15.665 27.7388C-10.3195 27.7197 -34.6344 24.2203 -57.5332 22.3316" stroke="#2A3C51" stroke-width="2" stroke-miterlimit="10"/>
<path d="M1990.49 -9.51876C1955.22 -10.1056 1916.92 -6.28602 1885.53 -8.46439C1851.15 -8.89211 1817.98 -6.37555 1780.85 -7.03204C1748.18 -6.57449 1715.69 -5.73894 1685.5 -5.15207C1653.65 -3.73962 1624.93 -2.16802 1590.84 -3.42133C1559.94 -0.397474 1529.96 -3.0135 1496.33 -1.91934C1466.16 -0.77545 1429.5 -0.825178 1401.12 -0.636188C1367.83 -0.397464 1335 -0.496945 1306.57 -0.118965C1275.59 1.01498 1244.07 -0.894811 1211.51 0.0501415C1195.01 2.13899 1180.13 0.627032 1164.1 -0.258242C1145.74 -0.26819 1133.74 -0.248275 1116.67 -0.795354C1102 0.646944 1088.96 -2.87426 1069.24 -1.58117C1039.01 -1.46181 1007.25 -4.29667 974.321 -3.99826C957.707 -4.46576 942.319 -4.8935 926.835 -5.65941C905.211 -7.17133 885.173 -9.45912 860.568 -8.3948C838.723 -8.31523 816.866 -11.5977 794.745 -10.5732C770.765 -9.46907 749.775 -9.3696 729.145 -11.3092C708.905 -12.6322 686.478 -12.0155 662.434 -9.79733C650.375 -12.6919 630.463 -6.485 620.137 -8.69321C611.217 -9.80726 589.72 -8.24561 577.671 -7.24097C565.338 -5.80862 552.412 -5.39086 543.671 -6.3756C531.105 -6.12693 521.805 -5.5102 509.714 -5.39084C495.742 -3.53077 480.565 -5.23171 466.889 -3.64021C439.632 0.328599 410.472 0.626998 380.171 0.985085C350.821 0.318642 324.198 4.16811 293.358 6.44594C282.557 7.61967 267.348 9.53941 254.708 8.88291C224.291 8.76355 202.477 11.7277 175.674 9.55932C148.501 13.2993 127.913 8.89285 96.2383 6.11767C70.7145 4.94394 39.9908 4.745 16.7499 1.67141C-9.86251 0.169425 -33.4311 -2.26754 -61.8508 -1.32259" stroke="#2A3C51" stroke-width="2" stroke-miterlimit="10"/>
</g>
</svg>
