<svg width="1920" height="48" viewBox="0 0 1920 48" fill="none" xmlns="http://www.w3.org/2000/svg">
<path fill-rule="evenodd" clip-rule="evenodd" d="M0 5.76257V48.0002H1920V7.24C1920 7.24 1908.66 6.5712 1893.92 5.52304C1879.81 5.39327 1865.88 5.07379 1851.53 4.11548C1842.32 4.6014 1828.91 4.2484 1818.41 3.97193C1814.24 3.86219 1810.53 3.76451 1807.72 3.73614C1789.83 2.41846 1776.92 2.37849 1759.14 2.57814C1742.93 2.95747 1727.51 2.61808 1710.56 1.71966C1708.19 1.69226 1705.83 1.66456 1703.48 1.63694C1669.83 1.24183 1637.44 0.861474 1600.62 1.57989C1578.94 2.54241 1559.21 2.19689 1540.33 1.86623C1523.38 1.56933 1507.11 1.28441 1490.73 1.96922C1480.79 2.07379 1469.14 2.08585 1456.53 2.09891C1433.02 2.12325 1406.15 2.15106 1380.68 2.78773C1357.14 6.03818 1330.84 5.15506 1304.22 4.26105C1293.15 3.88935 1282.03 3.51576 1271.02 3.43661C1249.41 4.61007 1228.05 4.40774 1206.94 4.20784C1191.6 4.06253 1176.4 3.9185 1161.33 4.30507C1137.89 4.25237 1115.26 4.27869 1094.01 4.3034C1079.03 4.32082 1064.74 4.33744 1051.33 4.32506C1037.64 3.58553 1019.86 3.93605 1001.53 4.29724C980.527 4.71124 958.811 5.13926 941.737 3.9557C914.104 5.12574 889.499 4.42108 860.08 3.57859C851.096 3.32132 841.664 3.0512 831.56 2.81769C817.005 2.81769 802.18 2.24468 787.022 1.65884C765.892 0.842161 744.116 0.0005527 721.531 0.651579C713.646 0.816001 705.569 1.0351 697.43 1.25587C667.521 2.0672 636.777 2.90119 611.629 1.12774C593.166 -1.09835 568.298 0.24928 543.832 2.75488C540.324 2.84121 536.694 2.8884 532.963 2.93688C514.694 3.17434 494.035 3.44284 473.823 8.4913C450.065 13.213 430.685 14.4473 408.026 15.5853C394.131 16.3734 378.472 15.6519 363.357 14.9553C355.307 14.5844 347.411 14.2205 340.017 14.0956C315.544 15.9846 293.467 14.5744 268.247 12.9633C263.746 12.6758 259.145 12.3819 254.412 12.0992C233.282 10.1318 211.705 10.0431 190.12 9.95429C167.896 9.86288 145.663 9.77143 123.901 7.62931C86.3546 4.80641 61.0302 4.98268 37.2965 5.14788C31.8232 5.18598 26.4345 5.22348 20.9999 5.22348C10.1626 4.49588 0.0308777 5.75871 0 5.76257Z" fill="currentcolor"/>
</svg>
