<svg width="140" height="245" viewBox="0 0 140 245" fill="none" xmlns="http://www.w3.org/2000/svg">
<path opacity="0.3" d="M116 21H16C7.16344 21 0 28.1634 0 37V229C0 237.837 7.16344 245 16 245H116C124.837 245 132 237.837 132 229V37C132 28.1634 124.837 21 116 21Z" fill="#2A3C51"/>
<path opacity="0.8" d="M132 12H28C23.5817 12 20 15.5817 20 20V220C20 224.418 23.5817 228 28 228H132C136.418 228 140 224.418 140 220V20C140 15.5817 136.418 12 132 12Z" fill="#2A3C51"/>
<path d="M132 220H28C23.58 220 20 216.42 20 212V8C20 3.58 23.58 0 28 0H132C136.42 0 140 3.58 140 8V212C140 216.42 136.42 220 132 220Z" fill="#F3DFC1"/>
<path d="M28 220C23.58 220 20 216.42 20 212V8C20 3.58 23.58 0 28 0V220Z" fill="#DDBEA8"/>
<path d="M29.87 220H28.14C28.07 220 28.01 216.42 28.01 212V8C28.01 3.58 28.07 0 28.14 0H29.87C29.94 0 30 3.58 30 8V212C30 216.42 29.94 220 29.87 220Z" fill="#F4ECEB"/>
<path d="M131.87 220H130.14C130.07 220 130.01 216.42 130.01 212V8C130.01 3.58 130.07 0 130.14 0H131.87C131.94 0 132 3.58 132 8V212C132 216.42 131.94 220 131.87 220Z" fill="#F4ECEB"/>
<path d="M138 203H22C20.9 203 20 202.1 20 201V61C20 59.9 20.9 59 22 59H138C139.1 59 140 59.9 140 61V201C140 202.1 139.1 203 138 203Z" fill="#364E51"/>
<path d="M29.87 203H28.14C28.07 203 28.01 200.66 28.01 197.76V64.24C28.01 61.35 28.07 59 28.14 59H29.87C29.94 59 30 61.34 30 64.24V197.77C30 200.66 29.94 203 29.87 203Z" fill="#8A9792" fill-opacity="0.4"/>
<path d="M131.87 203H130.14C130.07 203 130.01 200.66 130.01 197.76V64.24C130.01 61.35 130.07 59 130.14 59H131.87C131.94 59 132 61.34 132 64.24V197.77C132 200.66 131.94 203 131.87 203Z" fill="#8A9792" fill-opacity="0.4"/>
<path d="M132 220C136.42 220 140 216.42 140 212V8C140 3.58 136.42 0 132 0V220Z" fill="#DDBEA8"/>
<path d="M27.87 203H20.14C20.07 203 20.01 202.1 20.01 201V61C20.01 59.9 20.07 59 20.14 59H27.87C27.94 59 28 59.9 28 61V201C28 202.1 27.94 203 27.87 203Z" fill="#2A3C51"/>
<path d="M139.87 203H132.14C132.07 203 132.01 202.1 132.01 201V61C132.01 59.9 132.07 59 132.14 59H139.87C139.94 59 140 59.9 140 61V201C140 202.1 139.94 203 139.87 203Z" fill="#2A3C51"/>
</svg>
