<svg width="136" height="236" viewBox="0 0 136 236" fill="none" xmlns="http://www.w3.org/2000/svg" color-interpolation-filters="sRGB">
<g class="fill-shadow">
<path d="M108 16H20C8.95431 16 0 24.9543 0 36V216C0 227.046 8.95431 236 20 236H108C119.046 236 128 227.046 128 216V36C128 24.9543 119.046 16 108 16Z" class="opacity-20"/>
<path d="M124 12H24C17.3726 12 12 17.3726 12 24V212C12 218.627 17.3726 224 24 224H124C130.627 224 136 218.627 136 212V24C136 17.3726 130.627 12 124 12Z" class="opacity-40"/>
</g>
<path d="M128 220H24C19.58 220 16 216.42 16 212V8C16 3.58 19.58 0 24 0H128C132.42 0 136 3.58 136 8V212C136 216.42 132.42 220 128 220Z" fill="#F3DFC1"/>
<path d="M24 220C19.58 220 16 216.42 16 212V8C16 3.58 19.58 0 24 0V220Z" fill="#DDA985"/>
<path d="M25.87 220H24.14C24.07 220 24.01 216.42 24.01 212V8C24.01 3.58 24.07 0 24.14 0H25.87C25.94 0 26 3.58 26 8V212C26 216.42 25.94 220 25.87 220Z" fill="#F4ECEB"/>
<path d="M127.87 220H126.14C126.07 220 126.01 216.42 126.01 212V8C126.01 3.58 126.07 0 126.14 0H127.87C127.94 0 128 3.58 128 8V212C128 216.42 127.94 220 127.87 220Z" fill="#F4ECEB"/>
<path d="M134 203H18C16.9 203 16 202.1 16 201V61C16 59.9 16.9 59 18 59H134C135.1 59 136 59.9 136 61V201C136 202.1 135.1 203 134 203Z" fill="#364E51"/>
<path d="M25.87 203H24.14C24.07 203 24.01 200.66 24.01 197.76V64.24C24.01 61.35 24.07 59 24.14 59H25.87C25.94 59 26 61.34 26 64.24V197.77C26 200.66 25.94 203 25.87 203Z" fill="#8A9792" fill-opacity="0.4"/>
<path d="M127.87 203H126.14C126.07 203 126.01 200.66 126.01 197.76V64.24C126.01 61.35 126.07 59 126.14 59H127.87C127.94 59 128 61.34 128 64.24V197.77C128 200.66 127.94 203 127.87 203Z" fill="#8A9792" fill-opacity="0.4"/>
<path d="M128 220C132.42 220 136 216.42 136 212V8C136 3.58 132.42 0 128 0V220Z" fill="#DDA985"/>
<path d="M23.87 203H16.14C16.07 203 16.01 202.1 16.01 201V61C16.01 59.9 16.07 59 16.14 59H23.87C23.94 59 24 59.9 24 61V201C24 202.1 23.94 203 23.87 203Z" fill="#2A3C51"/>
<path d="M135.87 203H128.14C128.07 203 128.01 202.1 128.01 201V61C128.01 59.9 128.07 59 128.14 59H135.87C135.94 59 136 59.9 136 61V201C136 202.1 135.94 203 135.87 203Z" fill="#2A3C51"/>
</svg>
