<svg width="136" height="236" viewBox="0 0 136 236" fill="none" xmlns="http://www.w3.org/2000/svg">
<rect opacity="0.2" y="12" width="136" height="224" rx="20" fill="#041320"/>
<rect opacity="0.4" x="12" width="124" height="224" rx="12" fill="#041320"/>
<rect x="24" width="104" height="60" fill="#F3DFC1"/>
<path d="M16 8C16 3.58172 19.5817 0 24 0V60H16V8Z" fill="#DDA985"/>
<path d="M128 0C132.418 0 136 3.58172 136 8V60H128V0Z" fill="#DDA985"/>
<path d="M16 204H24V220C19.5817 220 16 216.418 16 212V204Z" fill="#DDA985"/>
<path d="M128 204H136V212C136 216.418 132.418 220 128 220V204Z" fill="#DDA985"/>
<rect x="24" y="204" width="104" height="16" fill="#F3DFC1"/>
<path d="M126 219.985L126 0H128L128 220L126 219.985Z" fill="#F4ECEB"/>
<path d="M24 219.985L24 0H25.9999L26 220L24 219.985Z" fill="#F4ECEB"/>
<path d="M127.98 204H24.0202C23.9747 204 24.0203 60 24.0203 60C58.6734 59.9998 93.3266 60.0625 127.98 60.1C127.98 72.4197 128.025 204 127.98 204Z" fill="#334D50"/>
<path d="M24 203.99L24 60H25.9999L26 204L24 203.99Z" fill="#8A9792" fill-opacity="0.4"/>
<path d="M16.0001 203.99L16 60H23.9996L24 204L16.0001 203.99Z" fill="#2A3C51"/>
<path d="M126 203.99L126 60H128L128 204L126 203.99Z" fill="#8A9792" fill-opacity="0.4"/>
<path d="M128 203.99L128 60H136L136 204L128 203.99Z" fill="#2A3C51"/>
</svg>
