<svg xmlns="http://www.w3.org/2000/svg" width="136" height="236" fill="none" color-interpolation-filters="sRGB">
  <g class="fill-shadow">
    <path d="M108 16H20C8.954 16 0 24.954 0 36v180c0 11.046 8.954 20 20 20h88c11.046 0 20-8.954 20-20V36c0-11.046-8.954-20-20-20z" class="opacity-20"/>
    <path d="M124 12H24c-6.627 0-12 5.373-12 12v188c0 6.627 5.373 12 12 12h100c6.627 0 12-5.373 12-12V24c0-6.627-5.373-12-12-12z" class="opacity-40"/>
  </g>
  <path fill="#F3DFC1" d="M128 220H24c-4.42 0-8-3.58-8-8V8c0-4.42 3.58-8 8-8h104c4.42 0 8 3.58 8 8v204c0 4.42-3.58 8-8 8z"/>
  <path fill="#DDA985" d="M24 220c-4.42 0-8-3.58-8-8V8c0-4.42 3.58-8 8-8v220z"/>
  <path fill="#F4ECEB" d="M25.87 220h-1.73c-.07 0-.13-3.58-.13-8V8c0-4.42.06-8 .13-8h1.73c.07 0 .13 3.58.13 8v204c0 4.42-.06 8-.13 8zM127.87 220h-1.73c-.07 0-.13-3.58-.13-8V8c0-4.42.06-8 .13-8h1.73c.07 0 .13 3.58.13 8v204c0 4.42-.06 8-.13 8z"/>
  <path fill="#334D50" d="M134 203H18c-1.1 0-2-.9-2-2V61c0-1.1.9-2 2-2h116c1.1 0 2 .9 2 2v140c0 1.1-.9 2-2 2z"/>
  <path fill="#8A9792" fill-opacity=".4" d="M25.87 203h-1.73c-.07 0-.13-2.34-.13-5.24V64.24c0-2.89.06-5.24.13-5.24h1.73c.07 0 .13 2.34.13 5.24v133.53c0 2.89-.06 5.23-.13 5.23zM127.87 203h-1.73c-.07 0-.13-2.34-.13-5.24V64.24c0-2.89.06-5.24.13-5.24h1.73c.07 0 .13 2.34.13 5.24v133.53c0 2.89-.06 5.23-.13 5.23z"/>
  <path fill="#DDA985" d="M128 220c4.42 0 8-3.58 8-8V8c0-4.42-3.58-8-8-8v220z"/>
  <path fill="#2A3C51" d="M23.87 203h-7.73c-.07 0-.13-.9-.13-2V61c0-1.1.06-2 .13-2h7.73c.07 0 .13.9.13 2v140c0 1.1-.06 2-.13 2zM135.87 203h-7.73c-.07 0-.13-.9-.13-2V61c0-1.1.06-2 .13-2h7.73c.07 0 .13.9.13 2v140c0 1.1-.06 2-.13 2z"/>
</svg>