<svg width="108" height="160" viewBox="0 0 108 160" fill="none" xmlns="http://www.w3.org/2000/svg">
<path fill-rule="evenodd" clip-rule="evenodd" d="M100 36C100 49.2548 89.2548 60 76 60H52L52 84L52 108V132C52 145.255 41.2548 156 28 156C14.7452 156 4 145.255 4 132C4 118.745 14.7452 108 28 108C14.7452 108 4 97.2548 4 84C4 70.7452 14.7452 60 28 60C14.7452 60 4 49.2548 4 36C4 22.7452 14.7452 12 28 12L52 12L76 12C89.2548 12 100 22.7452 100 36ZM52 84C52 70.7452 62.7452 60 76 60C89.2548 60 100 70.7452 100 84C100 97.2548 89.2548 108 76 108C62.7452 108 52 97.2548 52 84Z" fill="#304451"/>
<path fill-rule="evenodd" clip-rule="evenodd" d="M104 28C104 41.2548 93.2548 52 80 52H56L56 76L56 100V124C56 137.255 45.2548 148 32 148C18.7452 148 8 137.255 8 124C8 110.745 18.7452 100 32 100C18.7452 100 8 89.2548 8 76C8 62.7452 18.7452 52 32 52C18.7452 52 8 41.2548 8 28C8 14.7452 18.7452 4 32 4L56 4L80 4C93.2548 4 104 14.7452 104 28ZM56 76C56 62.7452 66.7452 52 80 52C93.2548 52 104 62.7452 104 76C104 89.2548 93.2548 100 80 100C66.7452 100 56 89.2548 56 76Z" fill="#2B3D51"/>
<path d="M12 24C12 10.7452 22.7452 0 36 0L60 0L60 48L36 48C22.7452 48 12 37.2548 12 24Z" fill="#B66191"/>
<path d="M12 72C12 58.7452 22.7452 48 36 48L60 48L60 96H36C22.7452 96 12 85.2548 12 72Z" fill="#724787"/>
<path d="M12 120C12 106.745 22.7452 96 36 96H60V120C60 133.255 49.2548 144 36 144C22.7452 144 12 133.255 12 120Z" fill="#628A85"/>
<path d="M108 24C108 37.2548 97.2548 48 84 48L60 48L60 -4.19629e-06L84 -2.09815e-06C97.2548 -9.39372e-07 108 10.7452 108 24Z" fill="#DC77A8"/>
<rect x="108" y="96" width="48" height="48" rx="24" transform="rotate(-180 108 96)" fill="#7DB8CA"/>
</svg>
