<svg width="108" height="160" viewBox="0 0 108 160" fill="none" xmlns="http://www.w3.org/2000/svg">
<path opacity="0.2" fill-rule="evenodd" clip-rule="evenodd" d="M108 40C108 53.2548 97.2548 64 84 64H60L60 88L60 112V136C60 149.255 49.2548 160 36 160C22.7452 160 12 149.255 12 136C12 122.745 22.7452 112 36 112C22.7452 112 12 101.255 12 88C12 74.7452 22.7452 64 36 64C22.7452 64 12 53.2548 12 40C12 26.7452 22.7452 16 36 16L60 16L84 16C97.2548 16 108 26.7452 108 40ZM60 88C60 74.7452 70.7452 64 84 64C97.2548 64 108 74.7452 108 88C108 101.255 97.2548 112 84 112C70.7452 112 60 101.255 60 88Z" fill="#041320"/>
<path opacity="0.4" fill-rule="evenodd" clip-rule="evenodd" d="M100 28C100 41.2548 89.2548 52 76 52H52L52 76L52 100V124C52 137.255 41.2548 148 28 148C14.7452 148 4 137.255 4 124C4 110.745 14.7452 100 28 100C14.7452 100 4 89.2548 4 76C4 62.7452 14.7452 52 28 52C14.7452 52 4 41.2548 4 28C4 14.7452 14.7452 4 28 4L52 4L76 4C89.2548 4 100 14.7452 100 28ZM52 76C52 62.7452 62.7452 52 76 52C89.2548 52 100 62.7452 100 76C100 89.2548 89.2548 100 76 100C62.7452 100 52 89.2548 52 76Z" fill="#041320"/>
<path d="M0 24C0 10.7452 10.7452 0 24 0L48 0L48 48L24 48C10.7452 48 0 37.2548 0 24Z" fill="#DC77A8"/>
<path d="M0 72C0 58.7452 10.7452 48 24 48L48 48L48 96H24C10.7452 96 0 85.2548 0 72Z" fill="#58375B"/>
<path d="M0 120C0 106.745 10.7452 96 24 96H48V120C48 133.255 37.2548 144 24 144C10.7452 144 0 133.255 0 120Z" fill="#829994"/>
<path d="M96 24C96 37.2548 85.2548 48 72 48L48 48L48 -4.19629e-06L72 -2.09815e-06C85.2548 -9.39372e-07 96 10.7452 96 24Z" fill="#F49FBC"/>
<rect x="96" y="96" width="48" height="48" rx="24" transform="rotate(-180 96 96)" fill="#7DB8CA"/>
</svg>
