<svg width="110" height="160" viewBox="0 0 110 160" fill="none" xmlns="http://www.w3.org/2000/svg">
<path fill-rule="evenodd" clip-rule="evenodd" d="M96.8176 39.5456C96.8176 52.8004 86.0725 63.5456 72.8176 63.5456H48.8176L48.8176 87.5456L48.8176 111.546V135.546C48.8176 148.8 38.0725 159.546 24.8176 159.546C11.5628 159.546 0.817627 148.8 0.817627 135.546C0.817627 122.291 11.5628 111.546 24.8176 111.546C11.5628 111.546 0.817627 100.8 0.817627 87.5456C0.817627 74.2908 11.5628 63.5456 24.8176 63.5456C11.5628 63.5456 0.817627 52.8004 0.817627 39.5456C0.817627 26.2908 11.5628 15.5456 24.8176 15.5456L48.8176 15.5456L72.8176 15.5456C86.0725 15.5456 96.8176 26.2908 96.8176 39.5456ZM48.8176 87.5456C48.8176 74.2908 59.5628 63.5456 72.8176 63.5456C86.0725 63.5456 96.8176 74.2908 96.8176 87.5456C96.8176 100.8 86.0725 111.546 72.8176 111.546C59.5628 111.546 48.8176 100.8 48.8176 87.5456Z" fill="#304451"/>
<path fill-rule="evenodd" clip-rule="evenodd" d="M105.818 30.5456C105.818 43.8004 95.0725 54.5456 81.8176 54.5456H57.8176L57.8176 78.5456L57.8176 102.546V126.546C57.8176 139.8 47.0725 150.546 33.8176 150.546C20.5628 150.546 9.81763 139.8 9.81763 126.546C9.81763 113.291 20.5628 102.546 33.8176 102.546C20.5628 102.546 9.81763 91.8004 9.81763 78.5456C9.81763 65.2908 20.5628 54.5456 33.8176 54.5456C20.5628 54.5456 9.81763 43.8004 9.81763 30.5456C9.81763 17.2908 20.5628 6.5456 33.8176 6.5456L57.8176 6.54559L81.8176 6.5456C95.0725 6.5456 105.818 17.2908 105.818 30.5456ZM57.8176 78.5456C57.8176 65.2908 68.5628 54.5456 81.8176 54.5456C95.0725 54.5456 105.818 65.2908 105.818 78.5456C105.818 91.8004 95.0725 102.546 81.8176 102.546C68.5628 102.546 57.8176 91.8004 57.8176 78.5456Z" fill="#2B3D51"/>
<path d="M13.8176 24.5456C13.8176 11.2908 24.5628 0.545593 37.8176 0.545593L61.8176 0.545593L61.8176 48.5456L37.8176 48.5456C24.5628 48.5456 13.8176 37.8004 13.8176 24.5456Z" fill="#B66191"/>
<path d="M13.8176 72.5456C13.8176 59.2908 24.5628 48.5456 37.8176 48.5456L61.8176 48.5456L61.8176 96.5456H37.8176C24.5628 96.5456 13.8176 85.8004 13.8176 72.5456Z" fill="#724787"/>
<path d="M13.8176 120.546C13.8176 107.291 24.5628 96.5456 37.8176 96.5456H61.8176V120.546C61.8176 133.8 51.0725 144.546 37.8176 144.546C24.5628 144.546 13.8176 133.8 13.8176 120.546Z" fill="#628A85"/>
<path d="M109.818 24.5456C109.818 37.8004 99.0725 48.5456 85.8176 48.5456L61.8176 48.5456L61.8176 0.545589L85.8176 0.545591C99.0725 0.545592 109.818 11.2908 109.818 24.5456Z" fill="#DC77A8"/>
<rect x="109.818" y="96.5456" width="48" height="48" rx="24" transform="rotate(-180 109.818 96.5456)" fill="#7DB8CA"/>
</svg>
