<svg xmlns="http://www.w3.org/2000/svg" width="108" height="160" fill="none" color-interpolation-filters="sRGB">
  <g class="fill-shadow">
    <path fill="#2A3C51" fill-rule="evenodd" d="M96 40c0 13.255-10.745 24-24 24H48v72c0 13.255-10.745 24-24 24S0 149.255 0 136s10.745-24 24-24c-13.255 0-24-10.745-24-24s10.745-24 24-24C10.745 64 0 53.255 0 40s10.745-24 24-24h48c13.255 0 24 10.745 24 24zM48 88c0-13.255 10.745-24 24-24s24 10.745 24 24-10.745 24-24 24-24-10.745-24-24z" clip-rule="evenodd"  class="opacity-20"/>
    <path fill="#2A3C51" fill-rule="evenodd" d="M104 28c0 13.255-10.745 24-24 24H56v72c0 13.255-10.745 24-24 24S8 137.255 8 124s10.745-24 24-24C18.745 100 8 89.255 8 76s10.745-24 24-24C18.745 52 8 41.255 8 28S18.745 4 32 4h48c13.255 0 24 10.745 24 24zM56 76c0-13.255 10.745-24 24-24s24 10.745 24 24-10.745 24-24 24-24-10.745-24-24z" clip-rule="evenodd"  class="opacity-40"/>
  </g>
  <path fill="#DC77A8" d="M12 24C12 10.745 22.745 0 36 0h24v48H36c-13.255 0-24-10.745-24-24z"/>
  <path fill="#58375B" d="M12 72c0-13.255 10.745-24 24-24h24v48H36c-13.255 0-24-10.745-24-24z"/>
  <path fill="#829994" d="M12 120c0-13.255 10.745-24 24-24h24v24c0 13.255-10.745 24-24 24s-24-10.745-24-24z"/>
  <path fill="#F49FBC" d="M108 24c0 13.255-10.745 24-24 24H60V0h24c13.255 0 24 10.745 24 24z"/>
  <rect width="48" height="48" x="108" y="96" fill="#7DB8CA" rx="24" transform="rotate(-180 108 96)"/>
</svg>