<svg width="952" height="304" viewBox="0 0 952 304" fill="none" xmlns="http://www.w3.org/2000/svg">
<g style="mix-blend-mode:soft-light" opacity="0.2">
<path d="M82 44L82.2224 41.0083L79 40.7687V44V71.7949C79 86.1519 89.9977 98.0447 104.421 98.751C213.353 104.086 680.153 126.979 704.513 128.742C727.576 130.413 745.505 133.987 762.064 140.451C778.631 146.918 793.976 156.334 811.817 169.87C837.677 189.493 870.609 223.68 887.914 241.644C891.742 245.618 894.806 248.798 896.859 250.851C900.902 254.894 906.935 255.651 912.717 254.957C918.602 254.25 924.94 251.975 930.463 249.028C935.958 246.097 940.948 242.342 943.954 238.461C945.452 236.526 946.632 234.337 946.928 232.03C947.244 229.563 946.512 227.179 944.601 225.269C931.365 212.032 885.614 171.668 853.226 145.265C826.05 123.106 806.015 109.747 777.273 100.884C748.697 92.0735 711.643 87.7503 650.541 83.2381C630.987 81.7932 488.908 71.2358 351.716 61.0395C283.12 55.9414 215.747 50.9336 165.523 47.2003L105.038 42.7043L88.1752 41.4508L83.7417 41.1212L82.6061 41.0368L82.3188 41.0154L82.2466 41.0101L82.2284 41.0087C82.2244 41.0084 82.2224 41.0083 82 44Z" fill="#2A3C51"/>
<path d="M82 44L82.2224 41.0083L79 40.7687V44V71.7949C79 86.1519 89.9977 98.0447 104.421 98.751C213.353 104.086 680.153 126.979 704.513 128.742C727.576 130.413 745.505 133.987 762.064 140.451C778.631 146.918 793.976 156.334 811.817 169.87C837.677 189.493 870.609 223.68 887.914 241.644C891.742 245.618 894.806 248.798 896.859 250.851C900.902 254.894 906.935 255.651 912.717 254.957C918.602 254.25 924.94 251.975 930.463 249.028C935.958 246.097 940.948 242.342 943.954 238.461C945.452 236.526 946.632 234.337 946.928 232.03C947.244 229.563 946.512 227.179 944.601 225.269C931.365 212.032 885.614 171.668 853.226 145.265C826.05 123.106 806.015 109.747 777.273 100.884C748.697 92.0735 711.643 87.7503 650.541 83.2381C630.987 81.7932 488.908 71.2358 351.716 61.0395C283.12 55.9414 215.747 50.9336 165.523 47.2003L105.038 42.7043L88.1752 41.4508L83.7417 41.1212L82.6061 41.0368L82.3188 41.0154L82.2466 41.0101L82.2284 41.0087C82.2244 41.0084 82.2224 41.0083 82 44Z" stroke="#2A3C51" stroke-width="6"/>
</g>
<g style="mix-blend-mode:soft-light" opacity="0.2">
<path d="M69.9388 38.2842C67.6223 38.1171 66 39.9765 66 42.299V89.0219C66 93.2922 69.2275 96.8037 73.493 97.007C143.363 100.337 678.896 125.881 704.73 127.75C751.26 131.12 777.7 134.22 813.63 161.48C845.43 185.61 887.83 231.58 898.98 242.73C911.29 255.04 952.36 231.27 942.48 221.39C929.35 208.26 883.69 167.97 851.33 141.59C797.22 97.47 772.6 89.26 650.32 80.23C613.161 77.4841 119.13 41.8338 69.9388 38.2842Z" fill="#1A2D3D"/>
</g>
<path d="M69.9388 30.2842C67.6223 30.1171 66 31.9765 66 34.299V84.836C66 86.9711 67.2852 88.7112 69.418 88.8128C118.422 91.1477 678.301 117.838 704.73 119.75C751.26 123.12 777.7 126.22 813.63 153.48C845.43 177.61 887.83 223.58 898.98 234.73C911.29 247.04 952.36 223.27 942.48 213.39C929.35 200.26 883.69 159.97 851.33 133.59C797.22 89.47 772.6 81.26 650.32 72.23C613.161 69.4841 119.13 33.8338 69.9388 30.2842Z" fill="#2A3C51"/>
<path d="M66 34V92.65C66 92.65 677.09 121.75 704.73 123.75C751.26 127.12 777.7 130.22 813.63 157.48C845.43 181.61 887.83 227.58 898.98 238.73C911.29 251.04 952.36 227.27 942.48 217.39C929.35 204.26 883.69 163.97 851.33 137.59C797.22 93.47 772.6 85.26 650.32 76.23C611.21 73.34 66 34 66 34Z" fill="#1A2D3D"/>
<g style="mix-blend-mode:soft-light" opacity="0.2">
<path d="M251.704 133.724C228.949 135.372 211.367 139.374 195.168 146.175C178.918 152.997 163.786 162.749 145.997 176.249L145.997 176.25C120.359 195.704 87.7104 229.591 70.355 247.605C66.4784 251.629 63.3648 254.861 61.2627 256.963C56.254 261.971 49.063 262.663 42.9252 261.925C36.5819 261.164 29.8865 258.738 24.125 255.665C18.4216 252.623 13.034 248.625 9.67429 244.288C8.00459 242.132 6.48665 239.445 6.09642 236.402C5.66537 233.04 6.69119 229.724 9.27746 227.137C22.6207 213.794 68.4632 173.365 100.878 146.93L100.879 146.929C128.176 124.677 148.563 111.043 177.844 102.016C206.791 93.0921 244.174 88.7557 305.238 84.2463C324.788 82.8017 465.362 72.2446 601.057 62.0481C668.902 56.95 735.526 51.9422 785.188 48.2089C810.019 46.3423 830.609 44.7943 844.992 43.7129L861.665 42.4594L866.048 42.1298L867.171 42.0454L867.455 42.0241L867.526 42.0187L867.544 42.0173C867.548 42.017 867.55 42.0169 868 48L867.55 42.0169L874 41.5319V48V73.7963C874 89.7107 861.776 102.955 845.724 103.749C737.418 109.107 276.002 131.966 251.704 133.724ZM251.704 133.724L251.27 127.74L251.704 133.724Z" fill="#2A3C51"/>
<path d="M251.704 133.724C228.949 135.372 211.367 139.374 195.168 146.175C178.918 152.997 163.786 162.749 145.997 176.249L145.997 176.25C120.359 195.704 87.7104 229.591 70.355 247.605C66.4784 251.629 63.3648 254.861 61.2627 256.963C56.254 261.971 49.063 262.663 42.9252 261.925C36.5819 261.164 29.8865 258.738 24.125 255.665C18.4216 252.623 13.034 248.625 9.67429 244.288C8.00459 242.132 6.48665 239.445 6.09642 236.402C5.66537 233.04 6.69119 229.724 9.27746 227.137C22.6207 213.794 68.4632 173.365 100.878 146.93L100.879 146.929C128.176 124.677 148.563 111.043 177.844 102.016C206.791 93.0921 244.174 88.7557 305.238 84.2463C324.788 82.8017 465.362 72.2446 601.057 62.0481C668.902 56.95 735.526 51.9422 785.188 48.2089C810.019 46.3423 830.609 44.7943 844.992 43.7129L861.665 42.4594L866.048 42.1298L867.171 42.0454L867.455 42.0241L867.526 42.0187L867.544 42.0173C867.548 42.017 867.55 42.0169 868 48L867.55 42.0169L874 41.5319V48V73.7963C874 89.7107 861.776 102.955 845.724 103.749C737.418 109.107 276.002 131.966 251.704 133.724ZM251.704 133.724L251.27 127.74L251.704 133.724Z" stroke="#2A3C51" stroke-width="12"/>
</g>
<g style="mix-blend-mode:soft-light" opacity="0.2">
<path d="M305.68 80.23C183.4 89.26 158.78 97.47 104.67 141.58C72.3101 167.97 26.6501 208.25 13.5201 221.38C3.6401 231.26 44.7101 255.03 57.0201 242.72C68.1701 231.57 110.57 185.6 142.37 161.47C178.3 134.2 204.74 131.11 251.27 127.74C277.104 125.871 812.637 100.327 882.507 96.997C886.773 96.7937 890 93.2822 890 89.0119V38C890 38 344.79 77.34 305.68 80.23Z" fill="#1A2D3D"/>
</g>
<path d="M305.68 72.23C183.4 81.26 158.78 89.47 104.67 133.58C72.3101 159.97 26.6501 200.25 13.5201 213.38C3.6401 223.26 44.7101 247.03 57.0201 234.72C68.1701 223.57 110.57 177.6 142.37 153.47C178.3 126.2 204.74 123.11 251.27 119.74C277.699 117.828 837.578 91.1376 886.582 88.8028C888.715 88.7012 890 86.9611 890 84.8259V34.299C890 31.9765 888.378 30.1171 886.061 30.2842C836.87 33.8338 342.839 69.4841 305.68 72.23Z" fill="#2A3C51"/>
<path d="M305.68 76.23C183.4 85.26 158.78 93.47 104.67 137.58C72.3101 163.97 26.6501 204.25 13.5201 217.38C3.6401 227.26 44.7101 251.03 57.0201 238.72C68.1701 227.57 110.57 181.6 142.37 157.47C178.3 130.2 204.74 127.11 251.27 123.74C277.699 121.828 837.578 95.1376 886.582 92.8028C888.715 92.7012 890 90.9611 890 88.8259V38.299C890 35.9765 888.378 34.1171 886.061 34.2842C836.87 37.8338 342.839 73.4841 305.68 76.23Z" fill="#1A2D3D"/>
<g style="mix-blend-mode:soft-light" opacity="0.2">
<path d="M694 8C584.28 8 541.52 49.1 541.52 49.1C541.52 49.1 512 47.46 478 47.46C444 47.46 414.48 49.1 414.48 49.1C414.48 49.1 371.72 8 262 8C156.411 8 104.62 33.9311 69.9884 35.8839C67.7828 36.0083 66 37.7899 66 39.999C66 50.4767 66 78.891 66 93.0171C66 97.4354 69.6511 100.872 73.9024 102.075C82.8747 104.614 90.6682 111.786 93 125C101.94 175.799 107.259 198.635 131 246C144.61 273.13 191.62 300 265.99 300C345.86 300 395.38 266.29 415.79 218.61C431.36 182.24 448.88 122.27 451.35 112.4C455.092 97.4476 430.98 97.6006 430.98 80.21C430.98 67.88 445 63.77 478 63.77C511 63.77 525.02 67.88 525.02 80.21C525.02 97.5887 500.896 97.4731 504.65 112.4C507.12 122.26 524.65 182.24 540.21 218.61C560.62 266.29 610.14 300 690.01 300C764.38 300 811.39 273.13 825 246C848.741 198.635 854.06 175.799 863 125C865.666 109.894 875.469 102.684 886.012 101.265C888.201 100.97 890 99.2111 890 97.0019C890 85.1404 890 51.5915 890 39.999C890 37.7899 888.217 36.0083 886.012 35.8839C851.38 33.9311 799.589 8 694 8ZM276 268C244.17 268 216.83 267.38 188.85 251.06C130.96 217.29 126.15 136.07 126.15 84.26C126.16 53.02 148.32 17 270 17C410 17 414.42 80.65 414.42 97.42C414.42 178 375 268 276 268ZM767.15 251.06C739.17 267.38 711.83 268 680 268C581 268 541.58 178 541.58 97.42C541.58 80.65 546 17 686 17C807.68 17 829.84 53.02 829.84 84.26C829.84 136.07 825.03 217.29 767.15 251.06Z" fill="#1A2D3D"/>
</g>
<g style="mix-blend-mode:soft-light" opacity="0.2">
<path d="M694 10C584.28 10 541.52 51.1 541.52 51.1C541.52 51.1 512 49.46 478 49.46C444 49.46 414.48 51.1 414.48 51.1C414.48 51.1 371.72 10 262 10C160.382 10 108.592 34.0176 73.97 37.5645C69.5748 38.0148 66 41.5663 66 45.9845C66 55.5083 66 71.3497 66 81.0034C66 85.4217 69.6094 88.9725 73.9371 89.8624C85.2885 92.1968 98.5995 99.397 101 113C102.48 121.41 103.25 129.7 110 154C116.77 178.37 127.93 201.89 134 214C147.61 241.13 187.62 278 265.99 278C349.86 278 393.38 244.29 413.79 196.61C429.36 160.24 440.88 124.27 443.35 114.4C445.82 104.53 436.75 101.25 434.28 101.25C431.81 101.25 430.98 96.32 430.98 92.21C430.98 79.88 445 75.77 478 75.77C511 75.77 525.02 79.88 525.02 92.21C525.02 96.32 524.2 101.25 521.72 101.25C519.24 101.25 510.17 104.54 512.65 114.4C515.12 124.26 526.65 160.24 542.21 196.61C562.62 244.29 606.14 278 690.01 278C768.38 278 808.39 241.13 822 214C828.07 201.89 839.23 178.37 846 154C852.75 129.7 853.52 121.41 855 113C857.401 99.397 870.711 92.1968 882.063 89.8624C886.391 88.9725 890 85.4217 890 81.0034C890 71.3497 890 55.5083 890 45.9845C890 41.5663 886.425 38.0148 882.03 37.5645C847.409 34.0176 795.618 10 694 10ZM276 260C244.17 260 216.83 259.38 188.85 243.06C130.96 209.29 116.15 136.07 116.15 84.26C116.16 53.02 148.32 17 270 17C410 17 424.42 80.65 424.42 97.42C424.42 178 375 260 276 260ZM767.15 243.06C739.17 259.38 711.83 260 680 260C581 260 531.58 188 531.58 107.42C531.58 90.65 546 17 686 17C807.68 17 839.84 63.02 839.84 94.26C839.84 146.07 825.03 209.29 767.15 243.06Z" fill="#1A2D3D"/>
</g>
<path d="M694 0C584.28 0 541.52 41.1 541.52 41.1C541.52 41.1 512 39.46 478 39.46C444 39.46 414.48 41.1 414.48 41.1C414.48 41.1 371.72 0 262 0C164.192 0 112.545 22.2504 77.9382 27.0816C71.3744 27.9979 66 33.3598 66 39.9872C66 51.2272 66 67.4093 66 75.022C66 77.2312 67.7906 78.9904 69.9871 79.2263C82.3007 80.5491 100.309 87.752 103 103C104.48 111.41 105.25 119.7 112 144C118.77 168.37 129.93 191.89 136 204C149.61 231.13 187.62 268 265.99 268C349.86 268 391.38 234.29 411.79 186.61C427.36 150.24 440.88 114.27 443.35 104.4C446.467 91.9444 430.98 94.0208 430.98 82.21C430.98 69.88 445 65.77 478 65.77C511 65.77 525.02 69.88 525.02 82.21C525.02 94.0187 509.518 91.9493 512.65 104.4C515.12 114.26 528.65 150.24 544.21 186.61C564.62 234.29 606.14 268 690.01 268C768.38 268 806.39 231.13 820 204C826.07 191.89 837.23 168.37 844 144C850.75 119.7 851.52 111.41 853 103C855.691 87.752 873.699 80.5491 886.013 79.2263C888.209 78.9904 890 77.2312 890 75.022C890 67.4093 890 51.2272 890 39.9872C890 33.3598 884.626 27.9979 878.062 27.0816C843.455 22.2504 791.808 0 694 0ZM276 260C244.17 260 214.83 262.38 186.85 246.06C128.96 212.29 121.15 136.07 121.15 84.26C121.16 53.02 148.32 17 270 17C410 17 420.42 80.65 420.42 97.42C420.42 178 375 260 276 260ZM771.15 242.06C743.17 258.38 709.83 260 678 260C579 260 534.58 178 534.58 97.42C534.58 80.65 546 17 686 17C807.68 17 836.84 53.02 836.84 84.26C836.84 136.07 829.03 208.29 771.15 242.06Z" fill="#2A3C51"/>
<path d="M694 5C584.28 5 541.52 46.1 541.52 46.1C541.52 46.1 512 44.46 478 44.46C444 44.46 414.48 46.1 414.48 46.1C414.48 46.1 371.72 5 262 5C156.411 5 104.62 30.9311 69.9884 32.8839C67.7828 33.0083 66 34.7724 66 36.9815C66 46.4546 66 70.2698 66 80.022C66 82.2312 67.7906 83.9904 69.9871 84.2263C82.3007 85.5491 100.309 92.752 103 108C104.48 116.41 105.25 124.7 112 149C118.77 173.37 129.93 196.89 136 209C149.61 236.13 187.62 273 265.99 273C349.86 273 391.38 239.29 411.79 191.61C427.36 155.24 440.88 119.27 443.35 109.4C446.467 96.9444 430.98 99.0208 430.98 87.21C430.98 74.88 445 70.77 478 70.77C511 70.77 525.02 74.88 525.02 87.21C525.02 99.0187 509.518 96.9493 512.65 109.4C515.12 119.26 528.65 155.24 544.21 191.61C564.62 239.29 606.14 273 690.01 273C768.38 273 806.39 236.13 820 209C826.07 196.89 837.23 173.37 844 149C850.75 124.7 851.52 116.41 853 108C855.691 92.752 873.699 85.5491 886.013 84.2263C888.209 83.9904 890 82.2312 890 80.022C890 70.2698 890 46.4546 890 36.9815C890 34.7724 888.217 33.0083 886.012 32.8839C851.38 30.9311 799.589 5 694 5ZM276 255C244.17 255 216.83 254.38 188.85 238.06C130.96 204.29 126.15 141.07 126.15 89.26C126.16 58.02 148.32 22 270 22C410 22 414.42 85.65 414.42 102.42C414.42 183 375 255 276 255ZM767.15 238.06C739.17 254.38 711.83 255 680 255C581 255 541.58 183 541.58 102.42C541.58 85.65 546 22 686 22C807.68 22 829.84 58.02 829.84 89.26C829.84 141.07 825.03 204.29 767.15 238.06Z" fill="#1A2D3D"/>
<g style="mix-blend-mode:soft-light" opacity="0.1">
<path d="M680 253C634.29 253 599.04 237.75 575.24 207.69C554.53 181.54 543.59 145.14 543.59 102.42C543.59 84.79 550.02 69.63 562.69 57.36C585.55 35.22 627.04 24 686 24C740.25 24 779.44 31.27 802.49 45.62C819.55 56.23 827.84 70.51 827.84 89.27C827.84 146.96 820.36 204.71 766.13 236.34C739.62 251.8 713.71 253 680 253Z" fill="#FFDC7F"/>
</g>
<g style="mix-blend-mode:soft-light" opacity="0.1">
<path d="M276 253C242.29 253 216.38 251.8 189.86 236.33C135.63 204.7 128.15 146.95 128.15 89.26C128.15 70.5 136.44 56.22 153.5 45.61C176.56 31.27 215.75 24 270 24C328.96 24 370.45 35.22 393.32 57.36C405.99 69.63 412.42 84.79 412.42 102.42C412.42 145.14 401.48 181.54 380.77 207.69C356.96 237.75 321.71 253 276 253Z" fill="#FFDC7F"/>
</g>
<g style="mix-blend-mode:soft-light" opacity="0.2">
<path d="M270 25C301.91 25 328.97 28.37 350.44 35.03C367.97 40.46 381.93 48.12 391.92 57.8C404.19 69.68 410.41 84.35 410.41 101.42C410.41 143.68 399.61 179.65 379.19 205.45C368.06 219.51 354.11 230.41 337.73 237.86C320 245.91 299.23 250 276 250C241.55 250 217.02 248.86 190.87 233.61C165.72 218.94 148.95 197.55 139.61 168.22C134.94 153.54 130.16 132.56 130.16 88.27C130.16 70.26 138.14 56.54 154.56 46.32C177.29 32.17 216.13 25 270 25ZM270 21C148.32 21 126.16 57.02 126.16 88.26C126.16 140.07 130.97 203.29 188.86 237.06C216.83 253.38 244.17 254 276 254C375 254 414.42 182 414.42 101.42C414.42 84.65 410 21 270 21Z" fill="#2A3C51"/>
</g>
<g style="mix-blend-mode:soft-light" opacity="0.2">
<path d="M686 26C739.87 26 778.71 33.17 801.44 47.31C817.86 57.53 825.84 71.25 825.84 89.26C825.84 114.12 824.72 143.05 816.39 169.21C807.05 198.54 790.28 219.93 765.13 234.6C738.98 249.86 714.45 251 680 251C656.77 251 636 246.91 618.26 238.85C601.88 231.4 587.93 220.5 576.8 206.44C556.38 180.65 545.58 144.68 545.58 102.41C545.58 85.34 551.8 70.66 564.07 58.79C574.06 49.12 588.02 41.46 605.55 36.02C627.03 29.37 654.09 26 686 26ZM686 22C546 22 541.58 85.65 541.58 102.42C541.58 183 581 255 680 255C711.83 255 739.17 254.38 767.14 238.06C825.03 204.29 829.84 141.07 829.84 89.26C829.84 58.02 807.68 22 686 22Z" fill="#2A3C51"/>
</g>
<path d="M97 52C99.2091 52 101 50.2091 101 48C101 45.7909 99.2091 44 97 44C94.7909 44 93 45.7909 93 48C93 50.2091 94.7909 52 97 52Z" fill="#2A3C51"/>
<path d="M97 76C99.2091 76 101 74.2091 101 72C101 69.7909 99.2091 68 97 68C94.7909 68 93 69.7909 93 72C93 74.2091 94.7909 76 97 76Z" fill="#2A3C51"/>
<path d="M863 52C865.209 52 867 50.2091 867 48C867 45.7909 865.209 44 863 44C860.791 44 859 45.7909 859 48C859 50.2091 860.791 52 863 52Z" fill="#2A3C51"/>
<path d="M863 76C865.209 76 867 74.2091 867 72C867 69.7909 865.209 68 863 68C860.791 68 859 69.7909 859 72C859 74.2091 860.791 76 863 76Z" fill="#2A3C51"/>
</svg>
