<svg xmlns="http://www.w3.org/2000/svg" width="952" height="304" color-interpolation-filters="sRGB">
  <g class="fill-shadow opacity-20">
    <path d="M82 44l.222-2.992-3.222-.24v31.027c0 14.357 10.998 26.25 25.421 26.956 108.932 5.335 575.732 28.228 600.092 29.991 23.063 1.671 40.992 5.245 57.551 11.709 16.567 6.467 31.912 15.883 49.753 29.419 25.861 19.623 58.792 53.81 76.097 71.774 3.828 3.974 6.892 7.155 8.945 9.207 4.043 4.043 10.076 4.8 15.858 4.106 5.885-.707 12.223-2.982 17.746-5.929 5.495-2.931 10.485-6.686 13.491-10.567 1.498-1.935 2.678-4.124 2.974-6.431.316-2.467-.416-4.851-2.327-6.761-13.236-13.237-58.987-53.601-91.375-80.004-27.176-22.159-47.211-35.518-75.953-44.381-28.576-8.81-65.63-13.134-126.732-17.646-19.554-1.445-161.633-12.002-298.825-22.199C283.12 55.941 215.747 50.934 165.523 47.2l-60.485-4.496-16.863-1.253-4.433-.33-1.136-.084-.287-.022-.072-.005-.019-.001c-.004 0-.006 0-.228 2.991z"/>
    <path stroke="#2A3C51" stroke-width="6" d="M82 44l.222-2.992-3.222-.24v31.027c0 14.357 10.998 26.25 25.421 26.956 108.932 5.335 575.732 28.228 600.092 29.991 23.063 1.671 40.992 5.245 57.551 11.709 16.567 6.467 31.912 15.883 49.753 29.419 25.861 19.623 58.792 53.81 76.097 71.774 3.828 3.974 6.892 7.155 8.945 9.207 4.043 4.043 10.076 4.8 15.858 4.106 5.885-.707 12.223-2.982 17.746-5.929 5.495-2.931 10.485-6.686 13.491-10.567 1.498-1.935 2.678-4.124 2.974-6.431.316-2.467-.416-4.851-2.327-6.761-13.236-13.237-58.987-53.601-91.375-80.004-27.176-22.159-47.211-35.518-75.953-44.381-28.576-8.81-65.63-13.134-126.732-17.646-19.554-1.445-161.633-12.002-298.825-22.199C283.12 55.941 215.747 50.934 165.523 47.2l-60.485-4.496-16.863-1.253-4.433-.33-1.136-.084-.287-.022-.072-.005-.019-.001c-.004 0-.006 0-.228 2.991z"/>
  </g>
  <path fill="#1A2D3D" d="M69.939 38.284C67.622 38.117 66 39.977 66 42.3v46.723c0 4.27 3.228 7.782 7.493 7.985 69.87 3.33 605.403 28.874 631.237 30.743 46.53 3.37 72.97 6.47 108.9 33.73 31.8 24.13 74.2 70.1 85.35 81.25 12.31 12.31 53.38-11.46 43.5-21.34-13.13-13.13-58.79-53.42-91.15-79.8-54.11-44.12-78.73-52.33-201.01-61.36-37.159-2.746-531.19-38.396-580.381-41.946z" opacity=".2"/>
  <path fill="#2A3C51" d="M69.939 30.284C67.622 30.117 66 31.977 66 34.3v50.537c0 2.135 1.285 3.875 3.418 3.977 49.004 2.335 608.883 29.025 635.312 30.937 46.53 3.37 72.97 6.47 108.9 33.73 31.8 24.13 74.2 70.1 85.35 81.25 12.31 12.31 53.38-11.46 43.5-21.34-13.13-13.13-58.79-53.42-91.15-79.8-54.11-44.12-78.73-52.33-201.01-61.36-37.159-2.746-531.19-38.396-580.381-41.946z"/>
  <path fill="#1A2D3D" d="M66 34v58.65s611.09 29.1 638.73 31.1c46.53 3.37 72.97 6.47 108.9 33.73 31.8 24.13 74.2 70.1 85.35 81.25 12.31 12.31 53.38-11.46 43.5-21.34-13.13-13.13-58.79-53.42-91.15-79.8-54.11-44.12-78.73-52.33-201.01-61.36C611.21 73.34 66 34 66 34z"/>
  <g class="fill-shadow opacity-20">
    <path d="M251.704 133.724c-22.755 1.648-40.337 5.65-56.536 12.451-16.25 6.822-31.382 16.574-49.171 30.074v.001c-25.638 19.454-58.287 53.341-75.642 71.355-3.877 4.024-6.99 7.256-9.092 9.358-5.009 5.008-12.2 5.7-18.338 4.962-6.343-.761-13.038-3.187-18.8-6.26-5.703-3.042-11.091-7.04-14.45-11.377-1.67-2.156-3.188-4.843-3.579-7.886-.43-3.362.595-6.678 3.181-9.265 13.344-13.343 59.186-53.772 91.601-80.207l.001-.001c27.297-22.252 47.684-35.886 76.965-44.913 28.947-8.924 66.33-13.26 127.394-17.77 19.55-1.444 160.124-12.001 295.819-22.198a6208150.881 6208150.881 0 00243.935-18.335l16.673-1.254 4.383-.33 1.123-.084.284-.02.071-.006.018-.002c.004 0 .006 0 .456 5.983l-.45-5.983 6.45-.485V73.796c0 15.915-12.224 29.159-28.276 29.953-108.306 5.358-569.722 28.217-594.02 29.975zm0 0l-.434-5.984.434 5.984z"/>
    <path stroke="#2A3C51" stroke-width="12" d="M251.704 133.724c-22.755 1.648-40.337 5.65-56.536 12.451-16.25 6.822-31.382 16.574-49.171 30.074v.001c-25.638 19.454-58.287 53.341-75.642 71.355-3.877 4.024-6.99 7.256-9.092 9.358-5.009 5.008-12.2 5.7-18.338 4.962-6.343-.761-13.038-3.187-18.8-6.26-5.703-3.042-11.091-7.04-14.45-11.377-1.67-2.156-3.188-4.843-3.579-7.886-.43-3.362.595-6.678 3.181-9.265 13.344-13.343 59.186-53.772 91.601-80.207l.001-.001c27.297-22.252 47.684-35.886 76.965-44.913 28.947-8.924 66.33-13.26 127.394-17.77 19.55-1.444 160.124-12.001 295.819-22.198a6208150.881 6208150.881 0 00243.935-18.335l16.673-1.254 4.383-.33 1.123-.084.284-.02.071-.006.018-.002c.004 0 .006 0 .456 5.983l-.45-5.983 6.45-.485V73.796c0 15.915-12.224 29.159-28.276 29.953-108.306 5.358-569.722 28.217-594.02 29.975zm0 0l-.434-5.984.434 5.984z"/>
  </g>
  <path fill="#1A2D3D" d="M305.68 80.23c-122.28 9.03-146.9 17.24-201.01 61.35-32.36 26.39-78.02 66.67-91.15 79.8-9.88 9.88 31.19 33.65 43.5 21.34 11.15-11.15 53.55-57.12 85.35-81.25 35.93-27.27 62.37-30.36 108.9-33.73 25.834-1.869 561.367-27.413 631.237-30.743 4.266-.203 7.493-3.715 7.493-7.985V38S344.79 77.34 305.68 80.23z" opacity=".2"/>
  <path fill="#2A3C51" d="M305.68 72.23c-122.28 9.03-146.9 17.24-201.01 61.35-32.36 26.39-78.02 66.67-91.15 79.8-9.88 9.88 31.19 33.65 43.5 21.34 11.15-11.15 53.55-57.12 85.35-81.25 35.93-27.27 62.37-30.36 108.9-33.73 26.429-1.912 586.308-28.602 635.312-30.937C888.715 88.7 890 86.96 890 84.826V34.299c0-2.322-1.622-4.182-3.939-4.015-49.191 3.55-543.222 39.2-580.381 41.946z"/>
  <path fill="#1A2D3D" d="M305.68 76.23c-122.28 9.03-146.9 17.24-201.01 61.35-32.36 26.39-78.02 66.67-91.15 79.8-9.88 9.88 31.19 33.65 43.5 21.34 11.15-11.15 53.55-57.12 85.35-81.25 35.93-27.27 62.37-30.36 108.9-33.73 26.429-1.912 586.308-28.602 635.312-30.937C888.715 92.7 890 90.96 890 88.826V38.299c0-2.322-1.622-4.182-3.939-4.015-49.191 3.55-543.222 39.2-580.381 41.946z"/>
  <path fill="#1A2D3D" d="M694 8C584.28 8 541.52 49.1 541.52 49.1S512 47.46 478 47.46s-63.52 1.64-63.52 1.64S371.72 8 262 8C156.411 8 104.62 33.931 69.988 35.884 67.783 36.008 66 37.79 66 39.999v53.018c0 4.418 3.651 7.855 7.902 9.058C82.875 104.614 90.668 111.786 93 125c8.94 50.799 14.259 73.635 38 121 13.61 27.13 60.62 54 134.99 54 79.87 0 129.39-33.71 149.8-81.39 15.57-36.37 33.09-96.34 35.56-106.21 3.742-14.952-20.37-14.8-20.37-32.19 0-12.33 14.02-16.44 47.02-16.44s47.02 4.11 47.02 16.44c0 17.379-24.124 17.263-20.37 32.19 2.47 9.86 20 69.84 35.56 106.21 20.41 47.68 69.93 81.39 149.8 81.39 74.37 0 121.38-26.87 134.99-54 23.741-47.365 29.06-70.201 38-121 2.666-15.106 12.469-22.316 23.012-23.735 2.189-.295 3.988-2.054 3.988-4.263V39.999c0-2.21-1.783-3.99-3.988-4.115C851.38 33.93 799.589 8 694 8zM276 268c-31.83 0-59.17-.62-87.15-16.94-57.89-33.77-62.7-114.99-62.7-166.8C126.16 53.02 148.32 17 270 17c140 0 144.42 63.65 144.42 80.42C414.42 178 375 268 276 268zm491.15-16.94C739.17 267.38 711.83 268 680 268c-99 0-138.42-90-138.42-170.58C541.58 80.65 546 17 686 17c121.68 0 143.84 36.02 143.84 67.26 0 51.81-4.81 133.03-62.69 166.8z" opacity=".2"/>
  <path fill="#1A2D3D" d="M694 10c-109.72 0-152.48 41.1-152.48 41.1S512 49.46 478 49.46s-63.52 1.64-63.52 1.64S371.72 10 262 10C160.382 10 108.592 34.018 73.97 37.565c-4.395.45-7.97 4.001-7.97 8.42v35.018c0 4.419 3.61 7.97 7.937 8.86C85.29 92.197 98.6 99.397 101 113c1.48 8.41 2.25 16.7 9 41 6.77 24.37 17.93 47.89 24 60 13.61 27.13 53.62 64 131.99 64 83.87 0 127.39-33.71 147.8-81.39 15.57-36.37 27.09-72.34 29.56-82.21 2.47-9.87-6.6-13.15-9.07-13.15-2.47 0-3.3-4.93-3.3-9.04 0-12.33 14.02-16.44 47.02-16.44s47.02 4.11 47.02 16.44c0 4.11-.82 9.04-3.3 9.04s-11.55 3.29-9.07 13.15c2.47 9.86 14 45.84 29.56 82.21 20.41 47.68 63.93 81.39 147.8 81.39 78.37 0 118.38-36.87 131.99-64 6.07-12.11 17.23-35.63 24-60 6.75-24.3 7.52-32.59 9-41 2.401-13.603 15.711-20.803 27.063-23.138 4.328-.89 7.937-4.44 7.937-8.859V45.984c0-4.418-3.575-7.97-7.97-8.42C847.408 34.019 795.618 10 694 10zM276 260c-31.83 0-59.17-.62-87.15-16.94-57.89-33.77-72.7-106.99-72.7-158.8C116.16 53.02 148.32 17 270 17c140 0 154.42 63.65 154.42 80.42C424.42 178 375 260 276 260zm491.15-16.94C739.17 259.38 711.83 260 680 260c-99 0-148.42-72-148.42-152.58C531.58 90.65 546 17 686 17c121.68 0 153.84 46.02 153.84 77.26 0 51.81-14.81 115.03-72.69 148.8z" opacity=".2"/>
  <path fill="#2A3C51" d="M694 0C584.28 0 541.52 41.1 541.52 41.1S512 39.46 478 39.46s-63.52 1.64-63.52 1.64S371.72 0 262 0C164.192 0 112.545 22.25 77.938 27.082 71.374 27.998 66 33.36 66 39.987v35.035c0 2.21 1.79 3.968 3.987 4.204C82.301 80.55 100.31 87.752 103 103c1.48 8.41 2.25 16.7 9 41 6.77 24.37 17.93 47.89 24 60 13.61 27.13 51.62 64 129.99 64 83.87 0 125.39-33.71 145.8-81.39 15.57-36.37 29.09-72.34 31.56-82.21 3.117-12.456-12.37-10.38-12.37-22.19 0-12.33 14.02-16.44 47.02-16.44s47.02 4.11 47.02 16.44c0 11.809-15.502 9.74-12.37 22.19 2.47 9.86 16 45.84 31.56 82.21 20.41 47.68 61.93 81.39 145.8 81.39 78.37 0 116.38-36.87 129.99-64 6.07-12.11 17.23-35.63 24-60 6.75-24.3 7.52-32.59 9-41 2.691-15.248 20.699-22.45 33.013-23.774 2.196-.236 3.987-1.995 3.987-4.204V39.987c0-6.627-5.374-11.99-11.938-12.905C843.455 22.25 791.808 0 694 0zM276 260c-31.83 0-61.17 2.38-89.15-13.94-57.89-33.77-65.7-109.99-65.7-161.8C121.16 53.02 148.32 17 270 17c140 0 150.42 63.65 150.42 80.42C420.42 178 375 260 276 260zm495.15-17.94C743.17 258.38 709.83 260 678 260c-99 0-143.42-82-143.42-162.58C534.58 80.65 546 17 686 17c121.68 0 150.84 36.02 150.84 67.26 0 51.81-7.81 124.03-65.69 157.8z"/>
  <path fill="#1A2D3D" d="M694 5C584.28 5 541.52 46.1 541.52 46.1S512 44.46 478 44.46s-63.52 1.64-63.52 1.64S371.72 5 262 5C156.411 5 104.62 30.931 69.988 32.884 67.783 33.008 66 34.772 66 36.98v43.041c0 2.21 1.79 3.968 3.987 4.204C82.301 85.55 100.31 92.752 103 108c1.48 8.41 2.25 16.7 9 41 6.77 24.37 17.93 47.89 24 60 13.61 27.13 51.62 64 129.99 64 83.87 0 125.39-33.71 145.8-81.39 15.57-36.37 29.09-72.34 31.56-82.21 3.117-12.456-12.37-10.38-12.37-22.19 0-12.33 14.02-16.44 47.02-16.44s47.02 4.11 47.02 16.44c0 11.809-15.502 9.74-12.37 22.19 2.47 9.86 16 45.84 31.56 82.21 20.41 47.68 61.93 81.39 145.8 81.39 78.37 0 116.38-36.87 129.99-64 6.07-12.11 17.23-35.63 24-60 6.75-24.3 7.52-32.59 9-41 2.691-15.248 20.699-22.45 33.013-23.774 2.196-.236 3.987-1.995 3.987-4.204v-43.04c0-2.21-1.783-3.974-3.988-4.098C851.38 30.93 799.589 5 694 5zM276 255c-31.83 0-59.17-.62-87.15-16.94-57.89-33.77-62.7-96.99-62.7-148.8C126.16 58.02 148.32 22 270 22c140 0 144.42 63.65 144.42 80.42C414.42 183 375 255 276 255zm491.15-16.94C739.17 254.38 711.83 255 680 255c-99 0-138.42-72-138.42-152.58C541.58 85.65 546 22 686 22c121.68 0 143.84 36.02 143.84 67.26 0 51.81-4.81 115.03-62.69 148.8z"/>
  <path fill="#FFDC7F" d="M680 253c-45.71 0-80.96-15.25-104.76-45.31-20.71-26.15-31.65-62.55-31.65-105.27 0-17.63 6.43-32.79 19.1-45.06C585.55 35.22 627.04 24 686 24c54.25 0 93.44 7.27 116.49 21.62 17.06 10.61 25.35 24.89 25.35 43.65 0 57.69-7.48 115.44-61.71 147.07C739.62 251.8 713.71 253 680 253zM276 253c-33.71 0-59.62-1.2-86.14-16.67-54.23-31.63-61.71-89.38-61.71-147.07 0-18.76 8.29-33.04 25.35-43.65C176.56 31.27 215.75 24 270 24c58.96 0 100.45 11.22 123.32 33.36 12.67 12.27 19.1 27.43 19.1 45.06 0 42.72-10.94 79.12-31.65 105.27C356.96 237.75 321.71 253 276 253z" opacity=".1"/>
  <path fill="#2A3C51" d="M270 25c31.91 0 58.97 3.37 80.44 10.03 17.53 5.43 31.49 13.09 41.48 22.77 12.27 11.88 18.49 26.55 18.49 43.62 0 42.26-10.8 78.23-31.22 104.03-11.13 14.06-25.08 24.96-41.46 32.41C320 245.91 299.23 250 276 250c-34.45 0-58.98-1.14-85.13-16.39-25.15-14.67-41.92-36.06-51.26-65.39-4.67-14.68-9.45-35.66-9.45-79.95 0-18.01 7.98-31.73 24.4-41.95C177.29 32.17 216.13 25 270 25zm0-4c-121.68 0-143.84 36.02-143.84 67.26 0 51.81 4.81 115.03 62.7 148.8C216.83 253.38 244.17 254 276 254c99 0 138.42-72 138.42-152.58C414.42 84.65 410 21 270 21zM686 26c53.87 0 92.71 7.17 115.44 21.31 16.42 10.22 24.4 23.94 24.4 41.95 0 24.86-1.12 53.79-9.45 79.95-9.34 29.33-26.11 50.72-51.26 65.39C738.98 249.86 714.45 251 680 251c-23.23 0-44-4.09-61.74-12.15-16.38-7.45-30.33-18.35-41.46-32.41-20.42-25.79-31.22-61.76-31.22-104.03 0-17.07 6.22-31.75 18.49-43.62 9.99-9.67 23.95-17.33 41.48-22.77C627.03 29.37 654.09 26 686 26zm0-4c-140 0-144.42 63.65-144.42 80.42C541.58 183 581 255 680 255c31.83 0 59.17-.62 87.14-16.94 57.89-33.77 62.7-96.99 62.7-148.8C829.84 58.02 807.68 22 686 22z" opacity=".2"/>
  <path fill="#2A3C51" d="M97 52a4 4 0 100-8 4 4 0 000 8zM97 76a4 4 0 100-8 4 4 0 000 8zM863 52a4 4 0 100-8 4 4 0 000 8zM863 76a4 4 0 100-8 4 4 0 000 8z"/>
</svg>