<svg width="141" height="148" viewBox="0 0 141 148" fill="none" xmlns="http://www.w3.org/2000/svg">
<path opacity="0.4" d="M116 8H16C7.16344 8 0 15.1634 0 24V132C0 140.837 7.16344 148 16 148H116C124.837 148 132 140.837 132 132V24C132 15.1634 124.837 8 116 8Z" fill="#2A3C51"/>
<path opacity="0.8" d="M133 8H21C16.5817 8 13 11.5817 13 16V128C13 132.418 16.5817 136 21 136H133C137.418 136 141 132.418 141 128V16C141 11.5817 137.418 8 133 8Z" fill="#2A3C51"/>
<path d="M133 128H21C16.6 128 13 124.4 13 120V8C13 3.6 16.6 0 21 0H133C137.4 0 141 3.6 141 8V120C141 124.4 137.4 128 133 128Z" fill="#D89F31"/>
<path d="M76.7101 80H62.1201L59.8201 87.86H47.0801L63.5901 42H75.2401L91.6901 88H79.0201L76.7101 80ZM73.5801 69.05L69.4801 55.93H69.3501L65.2501 69.05H73.5801Z" fill="#B27C26"/>
<path opacity="0.1" d="M133 0H21C16.6 0 13 3.6 13 8H141C141 3.6 137.4 0 133 0Z" fill="white"/>
<path opacity="0.4" d="M13 120C13 124.4 16.6 128 21 128H133C137.4 128 141 124.4 141 120H13Z" fill="#6E5C3C"/>
<path d="M93.8 46.49C93.8 43.1 96.55 40 100.39 40C104.23 40 106.92 43.04 106.92 46.49C106.92 50.07 104.23 53 100.39 53C96.55 53 93.8 50.01 93.8 46.49ZM94 56.22H107V88H94V56.22Z" fill="#B27C26"/>
</svg>
