<svg xmlns="http://www.w3.org/2000/svg" width="144" height="148" fill="none" color-interpolation-filters="sRGB">
  <g class="fill-shadow">
    <path d="M124 8H32c-11.046 0-20 8.954-20 20v100c0 11.046 8.954 20 20 20h92c11.046 0 20-8.954 20-20V28c0-11.046-8.954-20-20-20z" class="opacity-20"/>
    <path d="M120 8H12C5.373 8 0 13.373 0 20v100c0 6.627 5.373 12 12 12h108c6.627 0 12-5.373 12-12V20c0-6.627-5.373-12-12-12z" class="opacity-40"/>
  </g>
  <path fill="#D89F31" d="M120 128H8c-4.4 0-8-3.6-8-8V8c0-4.4 3.6-8 8-8h112c4.4 0 8 3.6 8 8v112c0 4.4-3.6 8-8 8z"/>
  <path fill="#D89F31" stroke="#D89F31" stroke-width="4" d="M120 126H8c-3.295 0-6-2.705-6-6V8c0-3.295 2.705-6 6-6h112c3.295 0 6 2.705 6 6v112c0 3.295-2.705 6-6 6z"/>
  <path fill="#B27C26" d="M80.8 46.49c0-3.39 2.75-6.49 6.59-6.49s6.53 3.04 6.53 6.49c0 3.58-2.69 6.51-6.53 6.51-3.84 0-6.59-2.99-6.59-6.51zm.2 9.73h13V88H81V56.22zM63.71 80H49.12l-2.3 7.86H34.08L50.59 42h11.65l16.45 46H66.02l-2.31-8zm-3.13-10.95l-4.1-13.12h-.13l-4.1 13.12h8.33z"/>
  <path fill="#FFDC7F" d="M0 8a8 8 0 018-8h112a8 8 0 018 8H0z" opacity=".2"/>
  <path fill="#6E5C3C" d="M0 120h128a8 8 0 01-8 8H8a8 8 0 01-8-8z" opacity=".4"/>
</svg>