<svg width="144" height="148" viewBox="0 0 144 148" fill="none" xmlns="http://www.w3.org/2000/svg">
<path opacity="0.4" d="M124 8H32C20.9543 8 12 16.9543 12 28V128C12 139.046 20.9543 148 32 148H124C135.046 148 144 139.046 144 128V28C144 16.9543 135.046 8 124 8Z" fill="#2A3C51"/>
<path opacity="0.8" d="M120 8H12C5.37258 8 0 13.3726 0 20V120C0 126.627 5.37258 132 12 132H120C126.627 132 132 126.627 132 120V20C132 13.3726 126.627 8 120 8Z" fill="#2A3C51"/>
<path d="M120 128H8C3.6 128 0 124.4 0 120V8C0 3.6 3.6 0 8 0H120C124.4 0 128 3.6 128 8V120C128 124.4 124.4 128 120 128Z" fill="#D89F31"/>
<path d="M63.7101 80H49.1201L46.8201 87.86H34.0801L50.5901 42H62.2401L78.6901 88H66.0201L63.7101 80ZM60.5801 69.05L56.4801 55.93H56.3501L52.2501 69.05H60.5801Z" fill="#B27C26"/>
<path opacity="0.1" d="M120 0H8C3.6 0 0 3.6 0 8H128C128 3.6 124.4 0 120 0Z" fill="white"/>
<path opacity="0.4" d="M0 120C0 124.4 3.6 128 8 128H120C124.4 128 128 124.4 128 120H0Z" fill="#6E5C3C"/>
<path d="M80.8 46.49C80.8 43.1 83.55 40 87.39 40C91.23 40 93.92 43.04 93.92 46.49C93.92 50.07 91.23 53 87.39 53C83.55 53 80.8 50.01 80.8 46.49ZM81 56.22H94V88H81V56.22Z" fill="#B27C26"/>
</svg>
