<svg width="144" height="144" viewBox="0 0 144 144" fill="none" xmlns="http://www.w3.org/2000/svg">
<rect opacity="0.4" width="132" height="132" rx="12" fill="#041320"/>
<rect opacity="0.2" x="12" y="12" width="132" height="132" rx="20" fill="#041320"/>
<path d="M120 128H8C3.6 128 0 124.4 0 120V8C0 3.6 3.6 0 8 0H120C124.4 0 128 3.6 128 8V120C128 124.4 124.4 128 120 128Z" fill="#D89F31"/>
<path d="M120 126H8C4.70457 126 2 123.295 2 120V8C2 4.70457 4.70457 2 8 2H120C123.295 2 126 4.70457 126 8V120C126 123.295 123.295 126 120 126Z" fill="#D89F31" stroke="#D89F31" stroke-width="4"/>
<path d="M80.8 46.49C80.8 43.1 83.55 40 87.39 40C91.23 40 93.92 43.04 93.92 46.49C93.92 50.07 91.23 53 87.39 53C83.55 53 80.8 50.01 80.8 46.49ZM81 56.22H94V88H81V56.22Z" fill="#B27C26"/>
<path d="M63.7101 80H49.1201L46.8201 87.86H34.0801L50.5901 42H62.2401L78.6901 88H66.0201L63.7101 80ZM60.5801 69.05L56.4801 55.93H56.3501L52.2501 69.05H60.5801Z" fill="#B27C26"/>
<path opacity="0.2" d="M0 8C0 3.58172 3.58172 0 8 0H120C124.418 0 128 3.58172 128 8H0Z" fill="#FFDC7F"/>
<path opacity="0.4" d="M0 120H128C128 124.418 124.418 128 120 128H8C3.58172 128 0 124.418 0 120Z" fill="#6E5C3C"/>
</svg>
