<svg width="1186" height="1534" viewBox="0 0 1186 1534" fill="none" xmlns="http://www.w3.org/2000/svg">
<path opacity="0.2" d="M1056 2.00004C1122.27 2.00005 1176 55.7259 1176 122L1176 1414C1176 1480.27 1122.27 1534 1056 1534H120C53.7258 1534 2.4963e-06 1480.27 5.57565e-06 1414L6.56068e-05 122C6.86861e-05 55.7258 53.7259 2 120 2L1056 2.00004Z" fill="#041320"/>
<path opacity="0.4" d="M1088 14C1137.71 14 1178 54.2944 1178 104L1178 1404C1178 1453.71 1137.71 1494 1088 1494H126C76.2943 1494 36 1453.71 36 1404L36.0001 104C36.0001 54.2944 76.2944 14 126 14L1088 14Z" fill="#041320"/>
<rect x="1184" y="2" width="1482" height="1140" rx="84" transform="rotate(90 1184 2)" fill="#334D50"/>
<rect x="1176" y="10" width="1466" height="1124" rx="76" transform="rotate(90 1176 10)" fill="black"/>
<rect x="1127" y="59" width="1368" height="1026" rx="25" transform="rotate(90 1127 59)" fill="#121212" stroke="#242424" stroke-width="2"/>
<path d="M1028 4C1027.45 4 1027 3.55228 1027 3L1027 2L1099 2L1099 3C1099 3.55228 1098.55 4 1098 4L1028 4Z" fill="#263F42"/>
<path d="M1027 2L1027 1C1027 0.447715 1027.45 -1.95703e-08 1028 -4.37114e-08L1098 -3.10351e-06C1098.55 -3.12765e-06 1099 0.447712 1099 0.999997L1099 2L1027 2Z" fill="#3C5D61"/>
<path d="M1182 133C1182 132.448 1182.45 132 1183 132H1184V204H1183C1182.45 204 1182 203.552 1182 203V133Z" fill="#263F42"/>
<path d="M1184 132H1185C1185.55 132 1186 132.448 1186 133V203C1186 203.552 1185.55 204 1185 204H1184V132Z" fill="#3C5D61"/>
<path d="M1182 212C1182 211.448 1182.45 211 1183 211H1184V283H1183C1182.45 283 1182 282.552 1182 282V212Z" fill="#263F42"/>
<path d="M1184 211H1185C1185.55 211 1186 211.448 1186 212V282C1186 282.552 1185.55 283 1185 283H1184V211Z" fill="#3C5D61"/>
<rect x="484" y="28" width="16" height="16" rx="8" transform="rotate(90 484 28)" fill="url(#paint0_linear)"/>
<rect x="480.5" y="31.5" width="9" height="9" rx="4.5" transform="rotate(90 480.5 31.5)" fill="#002848" stroke="black"/>
<g clip-path="url(#clip0)">
<rect x="102" y="84" width="1024" height="1342" fill="#121212"/>
</g>
<path d="M102 84C102 70.7452 112.745 60 126 60H1100C1113.25 60 1124 70.7452 1124 84V84H102V84Z" fill="#121212"/>
<path fill-rule="evenodd" clip-rule="evenodd" d="M1023.08 67.6173C1023 67.8011 1023 68.0341 1023 68.5V75.5C1023 75.9659 1023 76.1989 1023.08 76.3827C1023.18 76.6277 1023.37 76.8224 1023.62 76.9239C1023.8 77 1024.04 77 1024.5 77C1024.97 77 1025.2 77 1025.38 76.9239C1025.63 76.8224 1025.82 76.6277 1025.92 76.3827C1026 76.1989 1026 75.9659 1026 75.5V68.5C1026 68.0341 1026 67.8011 1025.92 67.6173C1025.82 67.3723 1025.63 67.1776 1025.38 67.0761C1025.2 67 1024.97 67 1024.5 67C1024.04 67 1023.8 67 1023.62 67.0761C1023.37 67.1776 1023.18 67.3723 1023.08 67.6173ZM1018.5 70.5C1018.5 70.0341 1018.5 69.8011 1018.58 69.6173C1018.68 69.3723 1018.87 69.1776 1019.12 69.0761C1019.3 69 1019.54 69 1020 69C1020.47 69 1020.7 69 1020.88 69.0761C1021.13 69.1776 1021.32 69.3723 1021.42 69.6173C1021.5 69.8011 1021.5 70.0341 1021.5 70.5V75.5C1021.5 75.9659 1021.5 76.1989 1021.42 76.3827C1021.32 76.6277 1021.13 76.8224 1020.88 76.9239C1020.7 77 1020.47 77 1020 77C1019.54 77 1019.3 77 1019.12 76.9239C1018.87 76.8224 1018.68 76.6277 1018.58 76.3827C1018.5 76.1989 1018.5 75.9659 1018.5 75.5V70.5ZM1014.08 71.6173C1014 71.8011 1014 72.0341 1014 72.5V75.5C1014 75.9659 1014 76.1989 1014.08 76.3827C1014.18 76.6277 1014.37 76.8224 1014.62 76.9239C1014.8 77 1015.04 77 1015.5 77C1015.97 77 1016.2 77 1016.38 76.9239C1016.63 76.8224 1016.82 76.6277 1016.92 76.3827C1017 76.1989 1017 75.9659 1017 75.5V72.5C1017 72.0341 1017 71.8011 1016.92 71.6173C1016.82 71.3723 1016.63 71.1776 1016.38 71.0761C1016.2 71 1015.97 71 1015.5 71C1015.04 71 1014.8 71 1014.62 71.0761C1014.37 71.1776 1014.18 71.3723 1014.08 71.6173ZM1009.58 73.1173C1009.5 73.3011 1009.5 73.5341 1009.5 74V75.5C1009.5 75.9659 1009.5 76.1989 1009.58 76.3827C1009.68 76.6277 1009.87 76.8224 1010.12 76.9239C1010.3 77 1010.54 77 1011 77C1011.47 77 1011.7 77 1011.88 76.9239C1012.13 76.8224 1012.32 76.6277 1012.42 76.3827C1012.5 76.1989 1012.5 75.9659 1012.5 75.5V74C1012.5 73.5341 1012.5 73.3011 1012.42 73.1173C1012.32 72.8723 1012.13 72.6776 1011.88 72.5761C1011.7 72.5 1011.47 72.5 1011 72.5C1010.54 72.5 1010.3 72.5 1010.12 72.5761C1009.87 72.6776 1009.68 72.8723 1009.58 73.1173Z" fill="white"/>
<path fill-rule="evenodd" clip-rule="evenodd" d="M1042.98 70.9958C1043.09 71.1023 1043.27 71.1028 1043.38 70.9928L1044.44 69.9288C1044.55 69.8138 1044.56 69.6243 1044.44 69.5128C1042.63 67.8003 1040.19 66.7498 1037.5 66.7498C1034.81 66.7498 1032.37 67.8003 1030.56 69.5128C1030.44 69.6243 1030.44 69.8138 1030.56 69.9288L1031.62 70.9928C1031.73 71.1028 1031.91 71.1023 1032.02 70.9958C1033.46 69.6513 1035.38 68.8268 1037.5 68.8268C1039.62 68.8268 1041.54 69.6513 1042.98 70.9958ZM1040.53 73.4462C1040.65 73.5492 1040.82 73.5502 1040.93 73.4407L1041.99 72.3782C1042.11 72.2627 1042.11 72.0702 1041.99 71.9597C1040.81 70.8742 1039.23 70.2112 1037.5 70.2112C1035.77 70.2112 1034.19 70.8742 1033.01 71.9597C1032.89 72.0702 1032.89 72.2627 1033.01 72.3782L1034.07 73.4407C1034.18 73.5502 1034.35 73.5492 1034.47 73.4462C1035.27 72.7267 1036.34 72.2882 1037.5 72.2882C1038.66 72.2882 1039.72 72.7267 1040.53 73.4462ZM1039.53 74.4109C1039.66 74.5159 1039.66 74.7114 1039.54 74.8274L1037.7 76.6654C1037.59 76.7779 1037.41 76.7779 1037.3 76.6654L1035.46 74.8274C1035.34 74.7114 1035.34 74.5159 1035.47 74.4109C1036.02 73.9504 1036.73 73.6729 1037.5 73.6729C1038.27 73.6729 1038.98 73.9504 1039.53 74.4109Z" fill="white"/>
<path d="M1051.07 76H1052.38V67.5449H1051.07L1048.84 69.127V70.416L1050.97 68.8984H1051.07V76ZM1057.73 76.2051C1059.7 76.2051 1060.84 74.582 1060.84 71.7812C1060.84 68.9746 1059.68 67.3398 1057.73 67.3398C1055.76 67.3398 1054.6 68.9746 1054.6 71.7637C1054.6 74.5762 1055.75 76.2051 1057.73 76.2051ZM1057.73 75.1152C1056.58 75.1152 1055.92 73.9434 1055.92 71.7637C1055.92 69.6133 1056.59 68.4355 1057.73 68.4355C1058.86 68.4355 1059.52 69.6016 1059.52 71.7637C1059.52 73.9492 1058.88 75.1152 1057.73 75.1152ZM1065.42 76.2051C1067.39 76.2051 1068.54 74.582 1068.54 71.7812C1068.54 68.9746 1067.37 67.3398 1065.42 67.3398C1063.46 67.3398 1062.29 68.9746 1062.29 71.7637C1062.29 74.5762 1063.45 76.2051 1065.42 76.2051ZM1065.42 75.1152C1064.27 75.1152 1063.62 73.9434 1063.62 71.7637C1063.62 69.6133 1064.28 68.4355 1065.42 68.4355C1066.56 68.4355 1067.21 69.6016 1067.21 71.7637C1067.21 73.9492 1066.57 75.1152 1065.42 75.1152ZM1071.47 71.4121C1072.66 71.4121 1073.37 70.6621 1073.37 69.3965C1073.37 68.1543 1072.64 67.3867 1071.47 67.3867C1070.29 67.3867 1069.57 68.1543 1069.57 69.3965C1069.57 70.6621 1070.28 71.4121 1071.47 71.4121ZM1072.02 76L1077.78 67.5449H1076.69L1070.92 76H1072.02ZM1071.47 70.5566C1070.93 70.5566 1070.63 70.1348 1070.63 69.4023C1070.63 68.6816 1070.94 68.2539 1071.47 68.2539C1071.99 68.2539 1072.3 68.6816 1072.3 69.4023C1072.3 70.1289 1072 70.5566 1071.47 70.5566ZM1077.24 76.0879C1078.43 76.0879 1079.14 75.3379 1079.14 74.0723C1079.14 72.8242 1078.42 72.0625 1077.24 72.0625C1076.07 72.0625 1075.35 72.8301 1075.35 74.0723C1075.35 75.332 1076.06 76.0879 1077.24 76.0879ZM1077.24 75.2266C1076.72 75.2266 1076.41 74.8105 1076.41 74.0781C1076.41 73.3574 1076.72 72.9238 1077.24 72.9238C1077.78 72.9238 1078.08 73.3574 1078.08 74.0781C1078.08 74.8047 1077.78 75.2266 1077.24 75.2266Z" fill="white"/>
<g opacity="0.4">
<mask id="path-20-inside-1" fill="white">
<path fill-rule="evenodd" clip-rule="evenodd" d="M1086.68 67H1100.28C1101.2 67 1101.84 67.0008 1102.33 67.041C1102.81 67.0802 1103.07 67.1519 1103.25 67.2452C1103.67 67.461 1104.02 67.8052 1104.23 68.2285C1104.33 68.4117 1104.4 68.6667 1104.44 69.1468C1104.48 69.6386 1104.48 70.2734 1104.48 71.2V72.8C1104.48 73.7266 1104.48 74.3614 1104.44 74.8532C1104.4 75.3333 1104.33 75.5883 1104.23 75.7715C1104.02 76.1948 1103.67 76.539 1103.25 76.7548C1103.07 76.8481 1102.81 76.9198 1102.33 76.959C1101.84 76.9992 1101.2 77 1100.28 77H1086.68C1085.75 77 1085.12 76.9992 1084.62 76.959C1084.14 76.9198 1083.89 76.8481 1083.71 76.7548C1083.28 76.539 1082.94 76.1948 1082.72 75.7715C1082.63 75.5883 1082.56 75.3333 1082.52 74.8532C1082.48 74.3614 1082.48 73.7266 1082.48 72.8V71.2C1082.48 70.2734 1082.48 69.6386 1082.52 69.1468C1082.56 68.6667 1082.63 68.4117 1082.72 68.2285C1082.94 67.8052 1083.28 67.461 1083.71 67.2452C1083.89 67.1519 1084.14 67.0802 1084.62 67.041C1085.12 67.0008 1085.75 67 1086.68 67ZM1081.48 71.2C1081.48 69.3798 1081.48 68.4697 1081.83 67.7745C1082.14 67.163 1082.64 66.6658 1083.25 66.3542C1083.95 66 1084.86 66 1086.68 66H1100.28C1102.1 66 1103.01 66 1103.7 66.3542C1104.31 66.6658 1104.81 67.163 1105.12 67.7745C1105.48 68.4697 1105.48 69.3798 1105.48 71.2V72.8C1105.48 74.6202 1105.48 75.5303 1105.12 76.2255C1104.81 76.837 1104.31 77.3342 1103.7 77.6458C1103.01 78 1102.1 78 1100.28 78H1086.68C1084.86 78 1083.95 78 1083.25 77.6458C1082.64 77.3342 1082.14 76.837 1081.83 76.2255C1081.48 75.5303 1081.48 74.6202 1081.48 72.8V71.2ZM1107.98 72C1107.98 71.0681 1107.34 70.285 1106.48 70.063V73.937C1107.34 73.715 1107.98 72.9319 1107.98 72Z"/>
</mask>
<path d="M1102.33 67.041L1102.25 68.0376L1102.25 68.0376L1102.33 67.041ZM1103.25 67.2452L1102.8 68.1362L1102.8 68.1362L1103.25 67.2452ZM1104.23 68.2285L1105.12 67.7745L1105.12 67.7745L1104.23 68.2285ZM1104.44 69.1468L1103.44 69.2283L1103.44 69.2283L1104.44 69.1468ZM1104.44 74.8532L1103.44 74.7717L1103.44 74.7717L1104.44 74.8532ZM1104.23 75.7715L1105.12 76.2255L1105.12 76.2255L1104.23 75.7715ZM1103.25 76.7548L1102.8 75.8638L1102.8 75.8638L1103.25 76.7548ZM1102.33 76.959L1102.41 77.9557L1102.41 77.9557L1102.33 76.959ZM1084.62 76.959L1084.54 77.9557L1084.54 77.9557L1084.62 76.959ZM1083.71 76.7548L1084.16 75.8638L1084.16 75.8638L1083.71 76.7548ZM1082.72 75.7715L1081.83 76.2255L1081.83 76.2255L1082.72 75.7715ZM1082.52 74.8532L1083.52 74.7717L1083.52 74.7717L1082.52 74.8532ZM1082.52 69.1468L1083.52 69.2283L1083.52 69.2283L1082.52 69.1468ZM1082.72 68.2285L1083.61 68.6825L1083.61 68.6825L1082.72 68.2285ZM1083.71 67.2452L1084.16 68.1362L1084.16 68.1362L1083.71 67.2452ZM1084.62 67.041L1084.71 68.0376L1084.71 68.0376L1084.62 67.041ZM1081.83 67.7745L1082.72 68.2285L1081.83 67.7745ZM1083.25 66.3542L1083.71 67.2452L1083.25 66.3542ZM1103.7 66.3542L1104.16 65.4632L1104.16 65.4632L1103.7 66.3542ZM1105.12 67.7745L1104.23 68.2285L1104.23 68.2285L1105.12 67.7745ZM1105.12 76.2255L1104.23 75.7715L1104.23 75.7715L1105.12 76.2255ZM1103.7 77.6458L1103.25 76.7548L1103.25 76.7548L1103.7 77.6458ZM1083.25 77.6458L1083.71 76.7548L1083.71 76.7548L1083.25 77.6458ZM1081.83 76.2255L1080.94 76.6795L1080.94 76.6795L1081.83 76.2255ZM1106.48 70.063L1106.73 69.0946L1105.48 68.773V70.063H1106.48ZM1106.48 73.937H1105.48V75.227L1106.73 74.9054L1106.48 73.937ZM1100.28 66H1086.68V68H1100.28V66ZM1102.41 66.0443C1101.87 66 1101.19 66 1100.28 66V68C1101.22 68 1101.81 68.0016 1102.25 68.0376L1102.41 66.0443ZM1103.7 66.3542C1103.36 66.177 1102.95 66.0885 1102.41 66.0443L1102.25 68.0376C1102.67 68.0718 1102.78 68.1268 1102.8 68.1362L1103.7 66.3542ZM1105.12 67.7745C1104.81 67.163 1104.31 66.6658 1103.7 66.3542L1102.8 68.1362C1103.03 68.2561 1103.22 68.4473 1103.34 68.6825L1105.12 67.7745ZM1105.43 69.0654C1105.39 68.5239 1105.3 68.1224 1105.12 67.7745L1103.34 68.6825C1103.35 68.7009 1103.41 68.8096 1103.44 69.2283L1105.43 69.0654ZM1105.48 71.2C1105.48 70.2903 1105.48 69.6074 1105.43 69.0654L1103.44 69.2283C1103.48 69.6698 1103.48 70.2565 1103.48 71.2H1105.48ZM1105.48 72.8V71.2H1103.48V72.8H1105.48ZM1105.43 74.9346C1105.48 74.3926 1105.48 73.7097 1105.48 72.8H1103.48C1103.48 73.7435 1103.48 74.3302 1103.44 74.7717L1105.43 74.9346ZM1105.12 76.2255C1105.3 75.8776 1105.39 75.4761 1105.43 74.9346L1103.44 74.7717C1103.41 75.1904 1103.35 75.2991 1103.34 75.3175L1105.12 76.2255ZM1103.7 77.6458C1104.31 77.3342 1104.81 76.837 1105.12 76.2255L1103.34 75.3175C1103.22 75.5527 1103.03 75.7439 1102.8 75.8638L1103.7 77.6458ZM1102.41 77.9557C1102.95 77.9115 1103.36 77.823 1103.7 77.6458L1102.8 75.8638C1102.78 75.8732 1102.67 75.9282 1102.25 75.9624L1102.41 77.9557ZM1100.28 78C1101.19 78 1101.87 78 1102.41 77.9557L1102.25 75.9624C1101.81 75.9984 1101.22 76 1100.28 76V78ZM1086.68 78H1100.28V76H1086.68V78ZM1084.54 77.9557C1085.08 78 1085.77 78 1086.68 78V76C1085.73 76 1085.15 75.9984 1084.71 75.9624L1084.54 77.9557ZM1083.25 77.6458C1083.6 77.823 1084 77.9115 1084.54 77.9557L1084.71 75.9624C1084.29 75.9282 1084.18 75.8732 1084.16 75.8638L1083.25 77.6458ZM1081.83 76.2255C1082.14 76.837 1082.64 77.3342 1083.25 77.6458L1084.16 75.8638C1083.92 75.7439 1083.73 75.5527 1083.61 75.3175L1081.83 76.2255ZM1081.52 74.9346C1081.57 75.4761 1081.65 75.8776 1081.83 76.2255L1083.61 75.3175C1083.6 75.2991 1083.55 75.1904 1083.52 74.7717L1081.52 74.9346ZM1081.48 72.8C1081.48 73.7097 1081.48 74.3926 1081.52 74.9346L1083.52 74.7717C1083.48 74.3302 1083.48 73.7435 1083.48 72.8H1081.48ZM1081.48 71.2V72.8H1083.48V71.2H1081.48ZM1081.52 69.0654C1081.48 69.6074 1081.48 70.2903 1081.48 71.2H1083.48C1083.48 70.2565 1083.48 69.6698 1083.52 69.2283L1081.52 69.0654ZM1081.83 67.7745C1081.65 68.1224 1081.57 68.5239 1081.52 69.0654L1083.52 69.2283C1083.55 68.8096 1083.6 68.7009 1083.61 68.6825L1081.83 67.7745ZM1083.25 66.3542C1082.64 66.6658 1082.14 67.163 1081.83 67.7745L1083.61 68.6825C1083.73 68.4473 1083.92 68.2561 1084.16 68.1362L1083.25 66.3542ZM1084.54 66.0443C1084 66.0885 1083.6 66.177 1083.25 66.3542L1084.16 68.1362C1084.18 68.1268 1084.29 68.0718 1084.71 68.0376L1084.54 66.0443ZM1086.68 66C1085.77 66 1085.08 66 1084.54 66.0443L1084.71 68.0376C1085.15 68.0016 1085.73 68 1086.68 68V66ZM1080.94 67.3205C1080.68 67.8326 1080.57 68.3802 1080.53 68.984C1080.48 69.5761 1080.48 70.3064 1080.48 71.2H1082.48C1082.48 70.2734 1082.48 69.6386 1082.52 69.1468C1082.56 68.6667 1082.63 68.4117 1082.72 68.2285L1080.94 67.3205ZM1082.8 65.4632C1082 65.8707 1081.35 66.5209 1080.94 67.3205L1082.72 68.2285C1082.94 67.8052 1083.28 67.461 1083.71 67.2452L1082.8 65.4632ZM1086.68 65C1085.78 65 1085.05 64.9992 1084.46 65.0476C1083.86 65.0969 1083.31 65.2023 1082.8 65.4632L1083.71 67.2452C1083.89 67.1519 1084.14 67.0802 1084.62 67.041C1085.12 67.0008 1085.75 67 1086.68 67V65ZM1100.28 65H1086.68V67H1100.28V65ZM1104.16 65.4632C1103.64 65.2023 1103.1 65.0969 1102.49 65.0476C1101.9 64.9992 1101.17 65 1100.28 65V67C1101.2 67 1101.84 67.0008 1102.33 67.041C1102.81 67.0802 1103.07 67.1519 1103.25 67.2452L1104.16 65.4632ZM1106.01 67.3205C1105.61 66.5209 1104.96 65.8707 1104.16 65.4632L1103.25 67.2452C1103.67 67.461 1104.02 67.8052 1104.23 68.2285L1106.01 67.3205ZM1106.48 71.2C1106.48 70.3064 1106.48 69.5761 1106.43 68.984C1106.38 68.3802 1106.28 67.8326 1106.01 67.3205L1104.23 68.2285C1104.33 68.4117 1104.4 68.6667 1104.44 69.1468C1104.48 69.6386 1104.48 70.2734 1104.48 71.2H1106.48ZM1106.48 72.8V71.2H1104.48V72.8H1106.48ZM1106.01 76.6795C1106.28 76.1674 1106.38 75.6198 1106.43 75.016C1106.48 74.4239 1106.48 73.6936 1106.48 72.8H1104.48C1104.48 73.7266 1104.48 74.3614 1104.44 74.8532C1104.4 75.3333 1104.33 75.5883 1104.23 75.7715L1106.01 76.6795ZM1104.16 78.5368C1104.96 78.1293 1105.61 77.4791 1106.01 76.6795L1104.23 75.7715C1104.02 76.1948 1103.67 76.539 1103.25 76.7548L1104.16 78.5368ZM1100.28 79C1101.17 79 1101.9 79.0008 1102.49 78.9524C1103.1 78.9031 1103.64 78.7977 1104.16 78.5368L1103.25 76.7548C1103.07 76.8481 1102.81 76.9198 1102.33 76.959C1101.84 76.9992 1101.2 77 1100.28 77V79ZM1086.68 79H1100.28V77H1086.68V79ZM1082.8 78.5368C1083.31 78.7977 1083.86 78.9031 1084.46 78.9524C1085.05 79.0008 1085.78 79 1086.68 79V77C1085.75 77 1085.12 76.9992 1084.62 76.959C1084.14 76.9198 1083.89 76.8481 1083.71 76.7548L1082.8 78.5368ZM1080.94 76.6795C1081.35 77.4791 1082 78.1293 1082.8 78.5368L1083.71 76.7548C1083.28 76.539 1082.94 76.1948 1082.72 75.7715L1080.94 76.6795ZM1080.48 72.8C1080.48 73.6936 1080.48 74.4239 1080.53 75.016C1080.57 75.6198 1080.68 76.1674 1080.94 76.6795L1082.72 75.7715C1082.63 75.5883 1082.56 75.3333 1082.52 74.8532C1082.48 74.3614 1082.48 73.7266 1082.48 72.8H1080.48ZM1080.48 71.2V72.8H1082.48V71.2H1080.48ZM1106.23 71.0314C1106.66 71.1425 1106.98 71.5354 1106.98 72H1108.98C1108.98 70.6007 1108.02 69.4275 1106.73 69.0946L1106.23 71.0314ZM1107.48 73.937V70.063H1105.48V73.937H1107.48ZM1106.98 72C1106.98 72.4646 1106.66 72.8575 1106.23 72.9686L1106.73 74.9054C1108.02 74.5725 1108.98 73.3993 1108.98 72H1106.98Z" fill="white" mask="url(#path-20-inside-1)"/>
</g>
<rect x="1083.48" y="68" width="20" height="8" rx="1.5" fill="white"/>
<path d="M160.615 76V67.5449H159.08L156.385 74.1602H156.285L153.596 67.5449H152.061V76H153.279V69.8066H153.361L155.84 75.8477H156.836L159.314 69.8066H159.396V76H160.615ZM165.285 76.123C167.148 76.123 168.291 74.875 168.291 72.8184C168.291 70.7617 167.143 69.5137 165.285 69.5137C163.422 69.5137 162.273 70.7676 162.273 72.8184C162.273 74.875 163.416 76.123 165.285 76.123ZM165.285 75.0508C164.189 75.0508 163.574 74.2363 163.574 72.8184C163.574 71.4004 164.189 70.5801 165.285 70.5801C166.375 70.5801 166.996 71.4004 166.996 72.8184C166.996 74.2305 166.375 75.0508 165.285 75.0508ZM169.809 76H171.068V72.2676C171.068 71.2422 171.66 70.6094 172.592 70.6094C173.523 70.6094 173.969 71.125 173.969 72.1797V76H175.229V71.8809C175.229 70.3633 174.443 69.5137 173.02 69.5137C172.059 69.5137 171.426 69.9414 171.115 70.6445H171.021V69.6367H169.809V76ZM179.852 73.8555C179.852 75.2734 180.9 76.2051 182.43 76.2051C184.059 76.2051 185.043 75.2383 185.043 73.5566V67.5449H183.73V73.5508C183.73 74.5176 183.256 75.0332 182.418 75.0332C181.668 75.0332 181.158 74.5586 181.141 73.8555H179.852ZM192.391 69.6367H191.131V73.3691C191.131 74.3945 190.574 75.0156 189.555 75.0156C188.629 75.0156 188.213 74.5117 188.213 73.457V69.6367H186.953V73.7676C186.953 75.2617 187.738 76.123 189.15 76.123C190.117 76.123 190.768 75.7129 191.078 74.9922H191.178V76H192.391V69.6367ZM194.219 76H195.479V72.2676C195.479 71.2422 196.07 70.6094 197.002 70.6094C197.934 70.6094 198.379 71.125 198.379 72.1797V76H199.639V71.8809C199.639 70.3633 198.854 69.5137 197.43 69.5137C196.469 69.5137 195.836 69.9414 195.525 70.6445H195.432V69.6367H194.219V76ZM206.564 72.1738H207.619C208.721 72.1738 209.4 72.7363 209.4 73.6387C209.4 74.5176 208.674 75.1035 207.637 75.1035C206.611 75.1035 205.902 74.5703 205.826 73.7383H204.566C204.637 75.2266 205.867 76.2051 207.654 76.2051C209.418 76.2051 210.748 75.1504 210.748 73.709C210.748 72.5488 210.021 71.7988 208.896 71.6289V71.5293C209.781 71.2832 210.42 70.6094 210.426 69.5898C210.432 68.3887 209.441 67.3398 207.695 67.3398C205.914 67.3398 204.812 68.3652 204.725 69.8008H205.967C206.043 68.916 206.658 68.418 207.619 68.418C208.568 68.418 209.131 69.0098 209.131 69.7539C209.131 70.5684 208.498 71.1426 207.584 71.1426H206.564V72.1738Z" fill="white"/>
<path d="M121.756 76.1992C123.871 76.1992 125.107 74.5234 125.107 71.6523C125.107 68.8164 123.748 67.3398 121.809 67.3398C120.016 67.3398 118.744 68.5645 118.744 70.2812C118.744 71.9102 119.916 73.0996 121.527 73.0996C122.529 73.0996 123.338 72.6309 123.742 71.8223H123.842C123.807 73.9199 123.062 75.0918 121.768 75.0918C120.994 75.0918 120.391 74.6699 120.191 73.9727H118.867C119.119 75.332 120.256 76.1992 121.756 76.1992ZM121.814 72.0391C120.771 72.0391 120.051 71.3066 120.051 70.2402C120.051 69.2207 120.812 68.4355 121.826 68.4355C122.834 68.4355 123.596 69.2324 123.596 70.2754C123.596 71.3008 122.852 72.0391 121.814 72.0391ZM127.469 70.416C127.967 70.416 128.33 70.041 128.33 69.5723C128.33 69.0918 127.967 68.7227 127.469 68.7227C126.977 68.7227 126.608 69.0918 126.608 69.5723C126.608 70.041 126.977 70.416 127.469 70.416ZM127.469 74.8164C127.967 74.8164 128.33 74.4414 128.33 73.9668C128.33 73.4922 127.967 73.123 127.469 73.123C126.977 73.123 126.608 73.4922 126.608 73.9668C126.608 74.4414 126.977 74.8164 127.469 74.8164ZM133.926 76H135.192V74.3184H136.358V73.2051H135.192V67.5449H133.323C132.157 69.2969 130.915 71.2949 129.801 73.2051V74.3184H133.926V76ZM131.061 73.1465C131.928 71.6641 132.959 70.0176 133.868 68.6523H133.944V73.2285H131.061V73.1465ZM139.616 76H140.928V67.5449H139.622L137.395 69.127V70.416L139.516 68.8984H139.616V76Z" fill="white"/>
<defs>
<linearGradient id="paint0_linear" x1="492" y1="28" x2="492" y2="44" gradientUnits="userSpaceOnUse">
<stop/>
<stop offset="1" stop-color="#212121"/>
</linearGradient>
<clipPath id="clip0">
<path d="M1126 84L1126 1426L126 1426C112.745 1426 102 1415.25 102 1402L102 108C102 94.7452 112.745 84 126 84L1126 84Z" fill="white"/>
</clipPath>
</defs>
</svg>
