<svg xmlns="http://www.w3.org/2000/svg" width="1534" height="1192" viewBox="0 0 1534 1192" fill="none" color-interpolation-filters="sRGB">
  <rect width="1532" height="1176" y="16" style="fill:var(--color-madison);opacity:.2;mix-blend-mode:overlay" rx="120"/>
  <rect width="1494" height="1142" x="40" y="10" style="fill:var(--color-madison);opacity:.4;mix-blend-mode:overlay" rx="88"/>
  <rect width="1484" height="1140" x="50" y="2" fill="#334D50" rx="84"/>
  <rect width="1466" height="1124" x="58" y="10" fill="#000" rx="76"/>
  <rect width="1368" height="1026" x="107" y="59" fill="#121212" stroke="#242424" stroke-width="2" rx="21"/>
  <g clip-path="url(#clip0)">
    <path fill="#121212" d="M108 84h1366v1000H108z"/>
  </g>
  <path fill="#121212" d="M108 80c0-11.046 8.954-20 20-20h1326c11.05 0 20 8.954 20 20v4H108v-4z"/>
  <path fill="#fff" fill-rule="evenodd" d="M1373.08 67.617c-.08.184-.08.417-.08.883v7c0 .466 0 .699.08.883.1.245.29.44.54.54.18.077.42.077.88.077.47 0 .7 0 .88-.076a.978.978 0 00.54-.541c.08-.184.08-.417.08-.883v-7c0-.466 0-.699-.08-.883a.978.978 0 00-.54-.54c-.18-.077-.41-.077-.88-.077-.46 0-.7 0-.88.076a.978.978 0 00-.54.541zm-4.58 2.883c0-.466 0-.699.08-.883.1-.245.29-.44.54-.54.18-.077.42-.077.88-.077.47 0 .7 0 .88.076.25.102.44.296.54.541.08.184.08.417.08.883v5c0 .466 0 .699-.08.883-.1.245-.29.44-.54.54-.18.077-.41.077-.88.077-.46 0-.7 0-.88-.076a.978.978 0 01-.54-.541c-.08-.184-.08-.417-.08-.883v-5zm-4.42 1.117c-.08.184-.08.417-.08.883v3c0 .466 0 .699.08.883.1.245.29.44.54.54.18.077.42.077.88.077.47 0 .7 0 .88-.076a.978.978 0 00.54-.541c.08-.184.08-.417.08-.883v-3c0-.466 0-.699-.08-.883a.978.978 0 00-.54-.54c-.18-.077-.41-.077-.88-.077-.46 0-.7 0-.88.076a.978.978 0 00-.54.541zm-4.5 1.5c-.08.184-.08.417-.08.883v1.5c0 .466 0 .699.08.883.1.245.29.44.54.54.18.077.42.077.88.077.47 0 .7 0 .88-.076a.978.978 0 00.54-.541c.08-.184.08-.417.08-.883V74c0-.466 0-.699-.08-.883a.978.978 0 00-.54-.54c-.18-.077-.41-.077-.88-.077-.46 0-.7 0-.88.076a.978.978 0 00-.54.541zm33.4-2.121c.11.106.29.107.4-.003l1.06-1.064a.285.285 0 000-.416 10.06 10.06 0 00-6.94-2.763c-2.69 0-5.13 1.05-6.94 2.763a.285.285 0 000 .416l1.06 1.064c.11.11.29.11.4.003a7.996 7.996 0 015.48-2.17c2.12 0 4.04.825 5.48 2.17zm-2.45 2.45a.29.29 0 00.4-.005l1.06-1.063a.288.288 0 000-.418 6.615 6.615 0 00-4.49-1.749c-1.73 0-3.31.663-4.49 1.749a.288.288 0 000 .418l1.06 1.063c.11.11.28.108.4.005a4.53 4.53 0 013.03-1.158c1.16 0 2.22.439 3.03 1.158zm-1 .965c.13.105.13.3.01.416l-1.83 1.838a.291.291 0 01-.41 0l-1.84-1.838a.278.278 0 01.01-.416 3.159 3.159 0 014.06 0z" clip-rule="evenodd"/>
  <path fill="#fff" d="M1401.07 76h1.31v-8.455h-1.31l-2.23 1.582v1.289l2.13-1.518h.1V76zm6.66.205c1.97 0 3.11-1.623 3.11-4.424 0-2.806-1.16-4.441-3.11-4.441-1.97 0-3.13 1.635-3.13 4.424 0 2.812 1.15 4.441 3.13 4.441zm0-1.09c-1.15 0-1.81-1.172-1.81-3.351 0-2.15.67-3.328 1.81-3.328 1.13 0 1.79 1.166 1.79 3.328 0 2.185-.64 3.351-1.79 3.351zm7.69 1.09c1.97 0 3.12-1.623 3.12-4.424 0-2.806-1.17-4.441-3.12-4.441-1.96 0-3.13 1.635-3.13 4.424 0 2.812 1.16 4.441 3.13 4.441zm0-1.09c-1.15 0-1.8-1.172-1.8-3.351 0-2.15.66-3.328 1.8-3.328 1.14 0 1.79 1.166 1.79 3.328 0 2.185-.64 3.351-1.79 3.351zm6.05-3.703c1.19 0 1.9-.75 1.9-2.016 0-1.242-.73-2.01-1.9-2.01-1.18 0-1.9.768-1.9 2.01 0 1.266.71 2.016 1.9 2.016zm.55 4.588l5.76-8.455h-1.09L1420.92 76h1.1zm-.55-5.443c-.54 0-.84-.422-.84-1.155 0-.72.31-1.148.84-1.148.52 0 .83.428.83 1.148 0 .727-.3 1.155-.83 1.155zm5.77 5.53c1.19 0 1.9-.75 1.9-2.015 0-1.248-.72-2.01-1.9-2.01-1.17 0-1.89.768-1.89 2.01 0 1.26.71 2.016 1.89 2.016zm0-.86c-.52 0-.83-.416-.83-1.149 0-.72.31-1.154.83-1.154.54 0 .84.433.84 1.154 0 .727-.3 1.149-.84 1.149z"/>
  <g fill="#fff" opacity=".4">
    <mask id="a">
      <path fill-rule="evenodd" d="M1436.68 67h13.6c.92 0 1.56 0 2.05.041.48.04.74.11.92.204.42.216.77.56.98.983.1.184.17.439.21.919.04.492.04 1.126.04 2.053v1.6c0 .927 0 1.561-.04 2.053-.04.48-.11.735-.21.919-.21.423-.56.767-.98.983-.18.093-.44.165-.92.204-.49.04-1.13.041-2.05.041h-13.6c-.93 0-1.56 0-2.06-.041-.48-.04-.73-.11-.91-.204-.43-.216-.77-.56-.99-.983-.09-.184-.16-.439-.2-.919-.04-.492-.04-1.126-.04-2.053v-1.6c0-.927 0-1.561.04-2.053.04-.48.11-.735.2-.919.22-.423.56-.767.99-.983.18-.093.43-.165.91-.204.5-.04 1.13-.041 2.06-.041zm-5.2 4.2c0-1.82 0-2.73.35-3.425a3.25 3.25 0 011.42-1.42c.7-.355 1.61-.355 3.43-.355h13.6c1.82 0 2.73 0 3.42.354a3.25 3.25 0 011.42 1.42c.36.696.36 1.606.36 3.426v1.6c0 1.82 0 2.73-.36 3.425a3.25 3.25 0 01-1.42 1.42c-.69.355-1.6.355-3.42.355h-13.6c-1.82 0-2.73 0-3.43-.354a3.25 3.25 0 01-1.42-1.42c-.35-.696-.35-1.606-.35-3.426v-1.6zm26.5.8c0-.932-.64-1.715-1.5-1.937v3.874a2.004 2.004 0 001.5-1.937z" clip-rule="evenodd"/>
    </mask>
    <path d="M1452.33 67.041l-.08.997.08-.997zm.92.204l-.45.891.45-.89zm.98.983l.89-.453-.89.453zm.21.919l-1 .081 1-.081zm0 5.706l-1-.081 1 .081zm-.21.919l.89.453-.89-.453zm-.98.983l-.45-.891.45.89zm-.92.204l.08.997-.08-.997zm-17.71 0l-.08.997.08-.997zm-.91-.204l.45-.891-.45.89zm-.99-.983l-.89.453.89-.453zm-.2-.919l1-.081-1 .081zm0-5.706l1 .081-1-.081zm.2-.919l.89.455-.89-.455zm.99-.983l.45.891-.45-.89zm.91-.204l.09.997-.09-.997zm-2.79.734l.89.453-.89-.453zm1.42-1.42l.46.89-.46-.89zm20.45 0l.46-.892-.46.891zm1.42 1.42l-.89.453.89-.453zm0 8.45l-.89-.453.89.453zm-1.42 1.42l-.45-.89.45.89zm-20.45 0l.46-.89-.46.89zm-1.42-1.42l-.89.455.89-.455zm24.65-6.162l.25-.968-1.25-.322v1.29h1zm0 3.874h-1v1.29l1.25-.322-.25-.968zm-6.2-7.937h-13.6v2h13.6v-2zm2.13.044c-.54-.044-1.22-.044-2.13-.044v2c.94 0 1.53.002 1.97.038l.16-1.994zm1.29.31c-.34-.177-.75-.266-1.29-.31l-.16 1.994c.42.034.53.089.55.098l.9-1.782zm1.42 1.42a3.25 3.25 0 00-1.42-1.42l-.9 1.782c.23.12.42.311.54.547l1.78-.909zm.31 1.291c-.04-.541-.13-.943-.31-1.29l-1.78.907c.01.019.07.128.1.546l1.99-.163zm.05 2.135c0-.91 0-1.593-.05-2.135l-1.99.163c.04.442.04 1.029.04 1.972h2zm0 1.6v-1.6h-2v1.6h2zm-.05 2.135c.05-.542.05-1.225.05-2.135h-2c0 .944 0 1.53-.04 1.972l1.99.163zm-.31 1.29c.18-.347.27-.749.31-1.29l-1.99-.163c-.03.418-.09.527-.1.545l1.78.909zm-1.42 1.42a3.25 3.25 0 001.42-1.42l-1.78-.907c-.12.235-.31.426-.54.546l.9 1.782zm-1.29.31c.54-.043.95-.132 1.29-.31l-.9-1.781c-.02.01-.13.064-.55.098l.16 1.994zm-2.13.045c.91 0 1.59 0 2.13-.044l-.16-1.994c-.44.036-1.03.038-1.97.038v2zm-13.6 0h13.6v-2h-13.6v2zm-2.14-.044c.54.044 1.23.044 2.14.044v-2c-.95 0-1.53-.002-1.97-.038l-.17 1.994zm-1.29-.31c.35.177.75.266 1.29.31l.17-1.994c-.42-.034-.53-.089-.55-.098l-.91 1.782zm-1.42-1.42a3.25 3.25 0 001.42 1.42l.91-1.782c-.24-.12-.43-.311-.55-.547l-1.78.909zm-.31-1.291c.05.541.13.943.31 1.29l1.78-.907c-.01-.019-.06-.128-.09-.546l-2 .163zm-.04-2.135c0 .91 0 1.593.04 2.135l2-.163c-.04-.442-.04-1.029-.04-1.972h-2zm0-1.6v1.6h2v-1.6h-2zm.04-2.135c-.04.542-.04 1.225-.04 2.135h2c0-.944 0-1.53.04-1.972l-2-.163zm.31-1.29c-.18.347-.26.749-.31 1.29l2 .163c.03-.418.08-.527.09-.545l-1.78-.909zm1.42-1.42a3.25 3.25 0 00-1.42 1.42l1.78.907c.12-.235.31-.426.55-.546l-.91-1.782zm1.29-.31c-.54.043-.94.132-1.29.31l.91 1.781c.02-.01.13-.064.55-.098l-.17-1.994zm2.14-.045c-.91 0-1.6 0-2.14.044l.17 1.994c.44-.036 1.02-.038 1.97-.038v-2zm-5.74 1.32c-.26.513-.37 1.06-.41 1.664-.05.592-.05 1.322-.05 2.216h2c0-.927 0-1.561.04-2.053.04-.48.11-.735.2-.919l-1.78-.907zm1.86-1.857a4.268 4.268 0 00-1.86 1.858l1.78.907c.22-.423.56-.767.99-.983l-.91-1.782zm3.88-.463c-.9 0-1.63 0-2.22.048-.6.049-1.15.154-1.66.415l.91 1.782c.18-.093.43-.165.91-.204.5-.04 1.13-.041 2.06-.041v-2zm13.6 0h-13.6v2h13.6v-2zm3.88.463c-.52-.26-1.06-.366-1.67-.415-.59-.049-1.32-.048-2.21-.048v2c.92 0 1.56 0 2.05.041.48.04.74.11.92.204l.91-1.782zm1.85 1.858c-.4-.8-1.05-1.45-1.85-1.858l-.91 1.782c.42.216.77.56.98.983l1.78-.907zm.47 3.879c0-.894 0-1.624-.05-2.216-.05-.604-.15-1.151-.42-1.663l-1.78.907c.1.184.17.439.21.919.04.492.04 1.126.04 2.053h2zm0 1.6v-1.6h-2v1.6h2zm-.47 3.88c.27-.513.37-1.06.42-1.664.05-.592.05-1.322.05-2.216h-2c0 .927 0 1.561-.04 2.053-.04.48-.11.735-.21.919l1.78.907zm-1.85 1.857a4.195 4.195 0 001.85-1.858l-1.78-.907c-.21.423-.56.767-.98.983l.91 1.782zm-3.88.463c.89 0 1.62 0 2.21-.048.61-.049 1.15-.154 1.67-.415l-.91-1.782c-.18.093-.44.165-.92.204-.49.04-1.13.041-2.05.041v2zm-13.6 0h13.6v-2h-13.6v2zm-3.88-.463c.51.26 1.06.366 1.66.415.59.049 1.32.048 2.22.048v-2c-.93 0-1.56 0-2.06-.041-.48-.04-.73-.11-.91-.204l-.91 1.782zm-1.86-1.858c.41.8 1.06 1.45 1.86 1.858l.91-1.782c-.43-.216-.77-.56-.99-.983l-1.78.907zm-.46-3.879c0 .894 0 1.624.05 2.216.04.604.15 1.151.41 1.663l1.78-.907c-.09-.184-.16-.439-.2-.919-.04-.492-.04-1.126-.04-2.053h-2zm0-1.6v1.6h2v-1.6h-2zm25.75-.169c.43.111.75.504.75.969h2c0-1.4-.96-2.573-2.25-2.905l-.5 1.936zm1.25 2.906v-3.874h-2v3.874h2zm-.5-1.937c0 .465-.32.858-.75.969l.5 1.936a3.004 3.004 0 002.25-2.905h-2z" mask="url(#a)"/>
  </g>
  <rect width="20" height="8" x="1433.48" y="68" fill="#fff" rx="1.5"/>
  <path fill="#fff" d="M166.615 76v-8.455h-1.535l-2.695 6.615h-.1l-2.689-6.615h-1.535V76h1.218v-6.193h.082l2.479 6.04h.996l2.478-6.04h.082V76h1.219zm4.67.123c1.863 0 3.006-1.248 3.006-3.305 0-2.056-1.148-3.304-3.006-3.304-1.863 0-3.012 1.254-3.012 3.304 0 2.057 1.143 3.305 3.012 3.305zm0-1.072c-1.096 0-1.711-.815-1.711-2.233 0-1.418.615-2.238 1.711-2.238 1.09 0 1.711.82 1.711 2.238 0 1.413-.621 2.233-1.711 2.233zm4.524.949h1.259v-3.732c0-1.026.592-1.659 1.524-1.659.931 0 1.377.516 1.377 1.57V76h1.26v-4.12c0-1.517-.786-2.366-2.209-2.366-.961 0-1.594.427-1.905 1.13h-.094v-1.007h-1.212V76zm10.043-2.144c0 1.417 1.048 2.35 2.578 2.35 1.629 0 2.613-.968 2.613-2.65v-6.011h-1.313v6.006c0 .967-.474 1.482-1.312 1.482-.75 0-1.26-.474-1.277-1.177h-1.289zm12.539-4.22h-1.26v3.733c0 1.025-.557 1.647-1.576 1.647-.926 0-1.342-.504-1.342-1.559v-3.82h-1.26v4.13c0 1.495.785 2.356 2.197 2.356.967 0 1.618-.41 1.928-1.13h.1V76h1.213v-6.363zM200.219 76h1.26v-3.732c0-1.026.591-1.659 1.523-1.659.932 0 1.377.516 1.377 1.57V76h1.26v-4.12c0-1.517-.785-2.366-2.209-2.366-.961 0-1.594.427-1.905 1.13h-.093v-1.007h-1.213V76zm12.345-3.826h1.055c1.102 0 1.781.562 1.781 1.465 0 .879-.726 1.465-1.763 1.465-1.026 0-1.735-.534-1.811-1.366h-1.26c.071 1.489 1.301 2.467 3.088 2.467 1.764 0 3.094-1.055 3.094-2.496 0-1.16-.727-1.91-1.852-2.08v-.1c.885-.246 1.524-.92 1.53-1.94.006-1.2-.985-2.25-2.731-2.25-1.781 0-2.883 1.026-2.97 2.462h1.242c.076-.885.691-1.383 1.652-1.383.949 0 1.512.592 1.512 1.336 0 .814-.633 1.389-1.547 1.389h-1.02v1.03zM127.756 76.2c2.115 0 3.351-1.677 3.351-4.548 0-2.836-1.359-4.312-3.298-4.312-1.793 0-3.065 1.224-3.065 2.941 0 1.63 1.172 2.819 2.783 2.819 1.002 0 1.811-.47 2.215-1.278h.1c-.035 2.098-.78 3.27-2.074 3.27-.774 0-1.377-.422-1.577-1.12h-1.324c.252 1.36 1.389 2.227 2.889 2.227zm.058-4.16c-1.043 0-1.763-.733-1.763-1.8 0-1.02.761-1.804 1.775-1.804 1.008 0 1.77.796 1.77 1.84 0 1.025-.744 1.763-1.782 1.763zm5.655-1.624a.837.837 0 00.861-.844c0-.48-.363-.85-.861-.85a.838.838 0 00-.861.85.84.84 0 00.861.844zm0 4.4a.838.838 0 00.861-.85c0-.474-.363-.843-.861-.843a.837.837 0 00-.861.844c0 .474.369.85.861.85zM139.926 76h1.266v-1.682h1.166v-1.113h-1.166v-5.66h-1.869a115.987 115.987 0 00-3.522 5.66v1.113h4.125V76zm-2.865-2.853a95.844 95.844 0 012.807-4.495h.076v4.576h-2.883v-.081zM145.616 76h1.312v-8.455h-1.306l-2.227 1.582v1.289l2.121-1.518h.1V76z"/>
  <rect width="16" height="16" x="76" y="702" fill="url(#paint0_linear)" rx="8"/>
  <rect width="9" height="9" x="79.5" y="705.5" fill="#002848" stroke="#000" rx="4.5"/>
  <path fill="#263F42" d="M52 158a1 1 0 01-1 1h-1V87h1a1 1 0 011 1v70z"/>
  <path fill="#3C5D61" d="M50 159h-1a1 1 0 01-1-1V88a1 1 0 011-1h1v72z"/>
  <path fill="#263F42" d="M181 4a1 1 0 01-1-1V2h72v1a1 1 0 01-1 1h-70z"/>
  <path fill="#3C5D61" d="M180 2V1a1 1 0 011-1h70a1 1 0 011 1v1h-72z"/>
  <path fill="#263F42" d="M260 4a1 1 0 01-1-1V2h72v1a1 1 0 01-1 1h-70z"/>
  <path fill="#3C5D61" d="M259 2V1a1 1 0 011-1h70a1 1 0 011 1v1h-72z"/>
  <defs>
    <linearGradient id="paint0_linear" x1="84" x2="84" y1="702" y2="718" gradientUnits="userSpaceOnUse">
      <stop/>
      <stop offset="1" stop-color="#212121"/>
    </linearGradient>
    <clipPath id="clip0">
      <rect width="1366" height="1000" x="108" y="84" fill="#fff" rx="24"/>
    </clipPath>
  </defs>
</svg>
