<svg width="1534" height="1192" viewBox="0 0 1534 1192" fill="none" xmlns="http://www.w3.org/2000/svg">
<rect opacity="0.2" y="16" width="1532" height="1176" rx="120" fill="#041320"/>
<rect opacity="0.4" x="40" y="10" width="1494" height="1142" rx="88" fill="#041320"/>
<rect x="50" y="2" width="1484" height="1140" rx="84" fill="#334D50"/>
<rect x="58" y="10" width="1466" height="1124" rx="76" fill="black"/>
<rect x="107" y="59" width="1368" height="1026" rx="21" fill="#121212" stroke="#242424" stroke-width="2"/>
<rect x="108" y="84" width="1366" height="1000" rx="21" fill="#121212"/>
<path d="M108 84C108 70.7452 118.745 60 132 60H1450C1463.25 60 1474 70.7452 1474 84V84H108V84Z" fill="#121212"/>
<path fill-rule="evenodd" clip-rule="evenodd" d="M1373.08 67.6173C1373 67.8011 1373 68.0341 1373 68.5V75.5C1373 75.9659 1373 76.1989 1373.08 76.3827C1373.18 76.6277 1373.37 76.8224 1373.62 76.9239C1373.8 77 1374.04 77 1374.5 77C1374.97 77 1375.2 77 1375.38 76.9239C1375.63 76.8224 1375.82 76.6277 1375.92 76.3827C1376 76.1989 1376 75.9659 1376 75.5V68.5C1376 68.0341 1376 67.8011 1375.92 67.6173C1375.82 67.3723 1375.63 67.1776 1375.38 67.0761C1375.2 67 1374.97 67 1374.5 67C1374.04 67 1373.8 67 1373.62 67.0761C1373.37 67.1776 1373.18 67.3723 1373.08 67.6173ZM1368.5 70.5C1368.5 70.0341 1368.5 69.8011 1368.58 69.6173C1368.68 69.3723 1368.87 69.1776 1369.12 69.0761C1369.3 69 1369.54 69 1370 69C1370.47 69 1370.7 69 1370.88 69.0761C1371.13 69.1776 1371.32 69.3723 1371.42 69.6173C1371.5 69.8011 1371.5 70.0341 1371.5 70.5V75.5C1371.5 75.9659 1371.5 76.1989 1371.42 76.3827C1371.32 76.6277 1371.13 76.8224 1370.88 76.9239C1370.7 77 1370.47 77 1370 77C1369.54 77 1369.3 77 1369.12 76.9239C1368.87 76.8224 1368.68 76.6277 1368.58 76.3827C1368.5 76.1989 1368.5 75.9659 1368.5 75.5V70.5ZM1364.08 71.6173C1364 71.8011 1364 72.0341 1364 72.5V75.5C1364 75.9659 1364 76.1989 1364.08 76.3827C1364.18 76.6277 1364.37 76.8224 1364.62 76.9239C1364.8 77 1365.04 77 1365.5 77C1365.97 77 1366.2 77 1366.38 76.9239C1366.63 76.8224 1366.82 76.6277 1366.92 76.3827C1367 76.1989 1367 75.9659 1367 75.5V72.5C1367 72.0341 1367 71.8011 1366.92 71.6173C1366.82 71.3723 1366.63 71.1776 1366.38 71.0761C1366.2 71 1365.97 71 1365.5 71C1365.04 71 1364.8 71 1364.62 71.0761C1364.37 71.1776 1364.18 71.3723 1364.08 71.6173ZM1359.58 73.1173C1359.5 73.3011 1359.5 73.5341 1359.5 74V75.5C1359.5 75.9659 1359.5 76.1989 1359.58 76.3827C1359.68 76.6277 1359.87 76.8224 1360.12 76.9239C1360.3 77 1360.54 77 1361 77C1361.47 77 1361.7 77 1361.88 76.9239C1362.13 76.8224 1362.32 76.6277 1362.42 76.3827C1362.5 76.1989 1362.5 75.9659 1362.5 75.5V74C1362.5 73.5341 1362.5 73.3011 1362.42 73.1173C1362.32 72.8723 1362.13 72.6776 1361.88 72.5761C1361.7 72.5 1361.47 72.5 1361 72.5C1360.54 72.5 1360.3 72.5 1360.12 72.5761C1359.87 72.6776 1359.68 72.8723 1359.58 73.1173Z" fill="white"/>
<path fill-rule="evenodd" clip-rule="evenodd" d="M1392.98 70.9958C1393.09 71.1023 1393.27 71.1028 1393.38 70.9928L1394.44 69.9288C1394.55 69.8138 1394.56 69.6243 1394.44 69.5128C1392.63 67.8003 1390.19 66.7498 1387.5 66.7498C1384.81 66.7498 1382.37 67.8003 1380.56 69.5128C1380.44 69.6243 1380.44 69.8138 1380.56 69.9288L1381.62 70.9928C1381.73 71.1028 1381.91 71.1023 1382.02 70.9958C1383.46 69.6513 1385.38 68.8268 1387.5 68.8268C1389.62 68.8268 1391.54 69.6513 1392.98 70.9958ZM1390.53 73.4462C1390.65 73.5492 1390.82 73.5502 1390.93 73.4407L1391.99 72.3782C1392.11 72.2627 1392.11 72.0702 1391.99 71.9597C1390.81 70.8742 1389.23 70.2112 1387.5 70.2112C1385.77 70.2112 1384.19 70.8742 1383.01 71.9597C1382.89 72.0702 1382.89 72.2627 1383.01 72.3782L1384.07 73.4407C1384.18 73.5502 1384.35 73.5492 1384.47 73.4462C1385.27 72.7267 1386.34 72.2882 1387.5 72.2882C1388.66 72.2882 1389.72 72.7267 1390.53 73.4462ZM1389.53 74.4109C1389.66 74.5159 1389.66 74.7114 1389.54 74.8274L1387.7 76.6654C1387.59 76.7779 1387.41 76.7779 1387.3 76.6654L1385.46 74.8274C1385.34 74.7114 1385.34 74.5159 1385.47 74.4109C1386.02 73.9504 1386.73 73.6729 1387.5 73.6729C1388.27 73.6729 1388.98 73.9504 1389.53 74.4109Z" fill="white"/>
<path d="M1401.07 76H1402.38V67.5449H1401.07L1398.84 69.127V70.416L1400.97 68.8984H1401.07V76ZM1407.73 76.2051C1409.7 76.2051 1410.84 74.582 1410.84 71.7812C1410.84 68.9746 1409.68 67.3398 1407.73 67.3398C1405.76 67.3398 1404.6 68.9746 1404.6 71.7637C1404.6 74.5762 1405.75 76.2051 1407.73 76.2051ZM1407.73 75.1152C1406.58 75.1152 1405.92 73.9434 1405.92 71.7637C1405.92 69.6133 1406.59 68.4355 1407.73 68.4355C1408.86 68.4355 1409.52 69.6016 1409.52 71.7637C1409.52 73.9492 1408.88 75.1152 1407.73 75.1152ZM1415.42 76.2051C1417.39 76.2051 1418.54 74.582 1418.54 71.7812C1418.54 68.9746 1417.37 67.3398 1415.42 67.3398C1413.46 67.3398 1412.29 68.9746 1412.29 71.7637C1412.29 74.5762 1413.45 76.2051 1415.42 76.2051ZM1415.42 75.1152C1414.27 75.1152 1413.62 73.9434 1413.62 71.7637C1413.62 69.6133 1414.28 68.4355 1415.42 68.4355C1416.56 68.4355 1417.21 69.6016 1417.21 71.7637C1417.21 73.9492 1416.57 75.1152 1415.42 75.1152ZM1421.47 71.4121C1422.66 71.4121 1423.37 70.6621 1423.37 69.3965C1423.37 68.1543 1422.64 67.3867 1421.47 67.3867C1420.29 67.3867 1419.57 68.1543 1419.57 69.3965C1419.57 70.6621 1420.28 71.4121 1421.47 71.4121ZM1422.02 76L1427.78 67.5449H1426.69L1420.92 76H1422.02ZM1421.47 70.5566C1420.93 70.5566 1420.63 70.1348 1420.63 69.4023C1420.63 68.6816 1420.94 68.2539 1421.47 68.2539C1421.99 68.2539 1422.3 68.6816 1422.3 69.4023C1422.3 70.1289 1422 70.5566 1421.47 70.5566ZM1427.24 76.0879C1428.43 76.0879 1429.14 75.3379 1429.14 74.0723C1429.14 72.8242 1428.42 72.0625 1427.24 72.0625C1426.07 72.0625 1425.35 72.8301 1425.35 74.0723C1425.35 75.332 1426.06 76.0879 1427.24 76.0879ZM1427.24 75.2266C1426.72 75.2266 1426.41 74.8105 1426.41 74.0781C1426.41 73.3574 1426.72 72.9238 1427.24 72.9238C1427.78 72.9238 1428.08 73.3574 1428.08 74.0781C1428.08 74.8047 1427.78 75.2266 1427.24 75.2266Z" fill="white"/>
<g opacity="0.4">
<mask id="path-12-inside-1" fill="white">
<path fill-rule="evenodd" clip-rule="evenodd" d="M1436.68 67H1450.28C1451.2 67 1451.84 67.0008 1452.33 67.041C1452.81 67.0802 1453.07 67.1519 1453.25 67.2452C1453.67 67.461 1454.02 67.8052 1454.23 68.2285C1454.33 68.4117 1454.4 68.6667 1454.44 69.1468C1454.48 69.6386 1454.48 70.2734 1454.48 71.2V72.8C1454.48 73.7266 1454.48 74.3614 1454.44 74.8532C1454.4 75.3333 1454.33 75.5883 1454.23 75.7715C1454.02 76.1948 1453.67 76.539 1453.25 76.7548C1453.07 76.8481 1452.81 76.9198 1452.33 76.959C1451.84 76.9992 1451.2 77 1450.28 77H1436.68C1435.75 77 1435.12 76.9992 1434.62 76.959C1434.14 76.9198 1433.89 76.8481 1433.71 76.7548C1433.28 76.539 1432.94 76.1948 1432.72 75.7715C1432.63 75.5883 1432.56 75.3333 1432.52 74.8532C1432.48 74.3614 1432.48 73.7266 1432.48 72.8V71.2C1432.48 70.2734 1432.48 69.6386 1432.52 69.1468C1432.56 68.6667 1432.63 68.4117 1432.72 68.2285C1432.94 67.8052 1433.28 67.461 1433.71 67.2452C1433.89 67.1519 1434.14 67.0802 1434.62 67.041C1435.12 67.0008 1435.75 67 1436.68 67ZM1431.48 71.2C1431.48 69.3798 1431.48 68.4697 1431.83 67.7745C1432.14 67.163 1432.64 66.6658 1433.25 66.3542C1433.95 66 1434.86 66 1436.68 66H1450.28C1452.1 66 1453.01 66 1453.7 66.3542C1454.31 66.6658 1454.81 67.163 1455.12 67.7745C1455.48 68.4697 1455.48 69.3798 1455.48 71.2V72.8C1455.48 74.6202 1455.48 75.5303 1455.12 76.2255C1454.81 76.837 1454.31 77.3342 1453.7 77.6458C1453.01 78 1452.1 78 1450.28 78H1436.68C1434.86 78 1433.95 78 1433.25 77.6458C1432.64 77.3342 1432.14 76.837 1431.83 76.2255C1431.48 75.5303 1431.48 74.6202 1431.48 72.8V71.2ZM1457.98 72C1457.98 71.0681 1457.34 70.285 1456.48 70.063V73.937C1457.34 73.715 1457.98 72.9319 1457.98 72Z"/>
</mask>
<path d="M1452.33 67.041L1452.25 68.0376L1452.25 68.0376L1452.33 67.041ZM1453.25 67.2452L1452.8 68.1362L1452.8 68.1362L1453.25 67.2452ZM1454.23 68.2285L1455.12 67.7745L1455.12 67.7745L1454.23 68.2285ZM1454.44 69.1468L1453.44 69.2283L1453.44 69.2283L1454.44 69.1468ZM1454.44 74.8532L1453.44 74.7717L1453.44 74.7717L1454.44 74.8532ZM1454.23 75.7715L1455.12 76.2255L1455.12 76.2255L1454.23 75.7715ZM1453.25 76.7548L1452.8 75.8638L1452.8 75.8638L1453.25 76.7548ZM1452.33 76.959L1452.41 77.9557L1452.41 77.9557L1452.33 76.959ZM1434.62 76.959L1434.54 77.9557L1434.54 77.9557L1434.62 76.959ZM1433.71 76.7548L1434.16 75.8638L1434.16 75.8638L1433.71 76.7548ZM1432.72 75.7715L1431.83 76.2255L1431.83 76.2255L1432.72 75.7715ZM1432.52 74.8532L1433.52 74.7717L1433.52 74.7717L1432.52 74.8532ZM1432.52 69.1468L1433.52 69.2283L1433.52 69.2283L1432.52 69.1468ZM1432.72 68.2285L1433.61 68.6825L1433.61 68.6825L1432.72 68.2285ZM1433.71 67.2452L1434.16 68.1362L1434.16 68.1362L1433.71 67.2452ZM1434.62 67.041L1434.71 68.0376L1434.71 68.0376L1434.62 67.041ZM1431.83 67.7745L1432.72 68.2285L1431.83 67.7745ZM1433.25 66.3542L1433.71 67.2452L1433.25 66.3542ZM1453.7 66.3542L1454.16 65.4632L1454.16 65.4632L1453.7 66.3542ZM1455.12 67.7745L1454.23 68.2285L1454.23 68.2285L1455.12 67.7745ZM1455.12 76.2255L1454.23 75.7715L1454.23 75.7715L1455.12 76.2255ZM1453.7 77.6458L1453.25 76.7548L1453.25 76.7548L1453.7 77.6458ZM1433.25 77.6458L1433.71 76.7548L1433.71 76.7548L1433.25 77.6458ZM1431.83 76.2255L1430.94 76.6795L1430.94 76.6795L1431.83 76.2255ZM1456.48 70.063L1456.73 69.0946L1455.48 68.773V70.063H1456.48ZM1456.48 73.937H1455.48V75.227L1456.73 74.9054L1456.48 73.937ZM1450.28 66H1436.68V68H1450.28V66ZM1452.41 66.0443C1451.87 66 1451.19 66 1450.28 66V68C1451.22 68 1451.81 68.0016 1452.25 68.0376L1452.41 66.0443ZM1453.7 66.3542C1453.36 66.177 1452.95 66.0885 1452.41 66.0443L1452.25 68.0376C1452.67 68.0718 1452.78 68.1268 1452.8 68.1362L1453.7 66.3542ZM1455.12 67.7745C1454.81 67.163 1454.31 66.6658 1453.7 66.3542L1452.8 68.1362C1453.03 68.2561 1453.22 68.4473 1453.34 68.6825L1455.12 67.7745ZM1455.43 69.0654C1455.39 68.5239 1455.3 68.1224 1455.12 67.7745L1453.34 68.6825C1453.35 68.7009 1453.41 68.8096 1453.44 69.2283L1455.43 69.0654ZM1455.48 71.2C1455.48 70.2903 1455.48 69.6074 1455.43 69.0654L1453.44 69.2283C1453.48 69.6698 1453.48 70.2565 1453.48 71.2H1455.48ZM1455.48 72.8V71.2H1453.48V72.8H1455.48ZM1455.43 74.9346C1455.48 74.3926 1455.48 73.7097 1455.48 72.8H1453.48C1453.48 73.7435 1453.48 74.3302 1453.44 74.7717L1455.43 74.9346ZM1455.12 76.2255C1455.3 75.8776 1455.39 75.4761 1455.43 74.9346L1453.44 74.7717C1453.41 75.1904 1453.35 75.2991 1453.34 75.3175L1455.12 76.2255ZM1453.7 77.6458C1454.31 77.3342 1454.81 76.837 1455.12 76.2255L1453.34 75.3175C1453.22 75.5527 1453.03 75.7439 1452.8 75.8638L1453.7 77.6458ZM1452.41 77.9557C1452.95 77.9115 1453.36 77.823 1453.7 77.6458L1452.8 75.8638C1452.78 75.8732 1452.67 75.9282 1452.25 75.9624L1452.41 77.9557ZM1450.28 78C1451.19 78 1451.87 78 1452.41 77.9557L1452.25 75.9624C1451.81 75.9984 1451.22 76 1450.28 76V78ZM1436.68 78H1450.28V76H1436.68V78ZM1434.54 77.9557C1435.08 78 1435.77 78 1436.68 78V76C1435.73 76 1435.15 75.9984 1434.71 75.9624L1434.54 77.9557ZM1433.25 77.6458C1433.6 77.823 1434 77.9115 1434.54 77.9557L1434.71 75.9624C1434.29 75.9282 1434.18 75.8732 1434.16 75.8638L1433.25 77.6458ZM1431.83 76.2255C1432.14 76.837 1432.64 77.3342 1433.25 77.6458L1434.16 75.8638C1433.92 75.7439 1433.73 75.5527 1433.61 75.3175L1431.83 76.2255ZM1431.52 74.9346C1431.57 75.4761 1431.65 75.8776 1431.83 76.2255L1433.61 75.3175C1433.6 75.2991 1433.55 75.1904 1433.52 74.7717L1431.52 74.9346ZM1431.48 72.8C1431.48 73.7097 1431.48 74.3926 1431.52 74.9346L1433.52 74.7717C1433.48 74.3302 1433.48 73.7435 1433.48 72.8H1431.48ZM1431.48 71.2V72.8H1433.48V71.2H1431.48ZM1431.52 69.0654C1431.48 69.6074 1431.48 70.2903 1431.48 71.2H1433.48C1433.48 70.2565 1433.48 69.6698 1433.52 69.2283L1431.52 69.0654ZM1431.83 67.7745C1431.65 68.1224 1431.57 68.5239 1431.52 69.0654L1433.52 69.2283C1433.55 68.8096 1433.6 68.7009 1433.61 68.6825L1431.83 67.7745ZM1433.25 66.3542C1432.64 66.6658 1432.14 67.163 1431.83 67.7745L1433.61 68.6825C1433.73 68.4473 1433.92 68.2561 1434.16 68.1362L1433.25 66.3542ZM1434.54 66.0443C1434 66.0885 1433.6 66.177 1433.25 66.3542L1434.16 68.1362C1434.18 68.1268 1434.29 68.0718 1434.71 68.0376L1434.54 66.0443ZM1436.68 66C1435.77 66 1435.08 66 1434.54 66.0443L1434.71 68.0376C1435.15 68.0016 1435.73 68 1436.68 68V66ZM1430.94 67.3205C1430.68 67.8326 1430.57 68.3802 1430.53 68.984C1430.48 69.5761 1430.48 70.3064 1430.48 71.2H1432.48C1432.48 70.2734 1432.48 69.6386 1432.52 69.1468C1432.56 68.6667 1432.63 68.4117 1432.72 68.2285L1430.94 67.3205ZM1432.8 65.4632C1432 65.8707 1431.35 66.5209 1430.94 67.3205L1432.72 68.2285C1432.94 67.8052 1433.28 67.461 1433.71 67.2452L1432.8 65.4632ZM1436.68 65C1435.78 65 1435.05 64.9992 1434.46 65.0476C1433.86 65.0969 1433.31 65.2023 1432.8 65.4632L1433.71 67.2452C1433.89 67.1519 1434.14 67.0802 1434.62 67.041C1435.12 67.0008 1435.75 67 1436.68 67V65ZM1450.28 65H1436.68V67H1450.28V65ZM1454.16 65.4632C1453.64 65.2023 1453.1 65.0969 1452.49 65.0476C1451.9 64.9992 1451.17 65 1450.28 65V67C1451.2 67 1451.84 67.0008 1452.33 67.041C1452.81 67.0802 1453.07 67.1519 1453.25 67.2452L1454.16 65.4632ZM1456.01 67.3205C1455.61 66.5209 1454.96 65.8707 1454.16 65.4632L1453.25 67.2452C1453.67 67.461 1454.02 67.8052 1454.23 68.2285L1456.01 67.3205ZM1456.48 71.2C1456.48 70.3064 1456.48 69.5761 1456.43 68.984C1456.38 68.3802 1456.28 67.8326 1456.01 67.3205L1454.23 68.2285C1454.33 68.4117 1454.4 68.6667 1454.44 69.1468C1454.48 69.6386 1454.48 70.2734 1454.48 71.2H1456.48ZM1456.48 72.8V71.2H1454.48V72.8H1456.48ZM1456.01 76.6795C1456.28 76.1674 1456.38 75.6198 1456.43 75.016C1456.48 74.4239 1456.48 73.6936 1456.48 72.8H1454.48C1454.48 73.7266 1454.48 74.3614 1454.44 74.8532C1454.4 75.3333 1454.33 75.5883 1454.23 75.7715L1456.01 76.6795ZM1454.16 78.5368C1454.96 78.1293 1455.61 77.4791 1456.01 76.6795L1454.23 75.7715C1454.02 76.1948 1453.67 76.539 1453.25 76.7548L1454.16 78.5368ZM1450.28 79C1451.17 79 1451.9 79.0008 1452.49 78.9524C1453.1 78.9031 1453.64 78.7977 1454.16 78.5368L1453.25 76.7548C1453.07 76.8481 1452.81 76.9198 1452.33 76.959C1451.84 76.9992 1451.2 77 1450.28 77V79ZM1436.68 79H1450.28V77H1436.68V79ZM1432.8 78.5368C1433.31 78.7977 1433.86 78.9031 1434.46 78.9524C1435.05 79.0008 1435.78 79 1436.68 79V77C1435.75 77 1435.12 76.9992 1434.62 76.959C1434.14 76.9198 1433.89 76.8481 1433.71 76.7548L1432.8 78.5368ZM1430.94 76.6795C1431.35 77.4791 1432 78.1293 1432.8 78.5368L1433.71 76.7548C1433.28 76.539 1432.94 76.1948 1432.72 75.7715L1430.94 76.6795ZM1430.48 72.8C1430.48 73.6936 1430.48 74.4239 1430.53 75.016C1430.57 75.6198 1430.68 76.1674 1430.94 76.6795L1432.72 75.7715C1432.63 75.5883 1432.56 75.3333 1432.52 74.8532C1432.48 74.3614 1432.48 73.7266 1432.48 72.8H1430.48ZM1430.48 71.2V72.8H1432.48V71.2H1430.48ZM1456.23 71.0314C1456.66 71.1425 1456.98 71.5354 1456.98 72H1458.98C1458.98 70.6007 1458.02 69.4275 1456.73 69.0946L1456.23 71.0314ZM1457.48 73.937V70.063H1455.48V73.937H1457.48ZM1456.98 72C1456.98 72.4646 1456.66 72.8575 1456.23 72.9686L1456.73 74.9054C1458.02 74.5725 1458.98 73.3993 1458.98 72H1456.98Z" fill="white" mask="url(#path-12-inside-1)"/>
</g>
<rect x="1433.48" y="68" width="20" height="8" rx="1.5" fill="white"/>
<path d="M166.615 76V67.5449H165.08L162.385 74.1602H162.285L159.596 67.5449H158.061V76H159.279V69.8066H159.361L161.84 75.8477H162.836L165.314 69.8066H165.396V76H166.615ZM171.285 76.123C173.148 76.123 174.291 74.875 174.291 72.8184C174.291 70.7617 173.143 69.5137 171.285 69.5137C169.422 69.5137 168.273 70.7676 168.273 72.8184C168.273 74.875 169.416 76.123 171.285 76.123ZM171.285 75.0508C170.189 75.0508 169.574 74.2363 169.574 72.8184C169.574 71.4004 170.189 70.5801 171.285 70.5801C172.375 70.5801 172.996 71.4004 172.996 72.8184C172.996 74.2305 172.375 75.0508 171.285 75.0508ZM175.809 76H177.068V72.2676C177.068 71.2422 177.66 70.6094 178.592 70.6094C179.523 70.6094 179.969 71.125 179.969 72.1797V76H181.229V71.8809C181.229 70.3633 180.443 69.5137 179.02 69.5137C178.059 69.5137 177.426 69.9414 177.115 70.6445H177.021V69.6367H175.809V76ZM185.852 73.8555C185.852 75.2734 186.9 76.2051 188.43 76.2051C190.059 76.2051 191.043 75.2383 191.043 73.5566V67.5449H189.73V73.5508C189.73 74.5176 189.256 75.0332 188.418 75.0332C187.668 75.0332 187.158 74.5586 187.141 73.8555H185.852ZM198.391 69.6367H197.131V73.3691C197.131 74.3945 196.574 75.0156 195.555 75.0156C194.629 75.0156 194.213 74.5117 194.213 73.457V69.6367H192.953V73.7676C192.953 75.2617 193.738 76.123 195.15 76.123C196.117 76.123 196.768 75.7129 197.078 74.9922H197.178V76H198.391V69.6367ZM200.219 76H201.479V72.2676C201.479 71.2422 202.07 70.6094 203.002 70.6094C203.934 70.6094 204.379 71.125 204.379 72.1797V76H205.639V71.8809C205.639 70.3633 204.854 69.5137 203.43 69.5137C202.469 69.5137 201.836 69.9414 201.525 70.6445H201.432V69.6367H200.219V76ZM212.564 72.1738H213.619C214.721 72.1738 215.4 72.7363 215.4 73.6387C215.4 74.5176 214.674 75.1035 213.637 75.1035C212.611 75.1035 211.902 74.5703 211.826 73.7383H210.566C210.637 75.2266 211.867 76.2051 213.654 76.2051C215.418 76.2051 216.748 75.1504 216.748 73.709C216.748 72.5488 216.021 71.7988 214.896 71.6289V71.5293C215.781 71.2832 216.42 70.6094 216.426 69.5898C216.432 68.3887 215.441 67.3398 213.695 67.3398C211.914 67.3398 210.812 68.3652 210.725 69.8008H211.967C212.043 68.916 212.658 68.418 213.619 68.418C214.568 68.418 215.131 69.0098 215.131 69.7539C215.131 70.5684 214.498 71.1426 213.584 71.1426H212.564V72.1738Z" fill="white"/>
<path d="M127.756 76.1992C129.871 76.1992 131.107 74.5234 131.107 71.6523C131.107 68.8164 129.748 67.3398 127.809 67.3398C126.016 67.3398 124.744 68.5645 124.744 70.2812C124.744 71.9102 125.916 73.0996 127.527 73.0996C128.529 73.0996 129.338 72.6309 129.742 71.8223H129.842C129.807 73.9199 129.062 75.0918 127.768 75.0918C126.994 75.0918 126.391 74.6699 126.191 73.9727H124.867C125.119 75.332 126.256 76.1992 127.756 76.1992ZM127.814 72.0391C126.771 72.0391 126.051 71.3066 126.051 70.2402C126.051 69.2207 126.812 68.4355 127.826 68.4355C128.834 68.4355 129.596 69.2324 129.596 70.2754C129.596 71.3008 128.852 72.0391 127.814 72.0391ZM133.469 70.416C133.967 70.416 134.33 70.041 134.33 69.5723C134.33 69.0918 133.967 68.7227 133.469 68.7227C132.977 68.7227 132.608 69.0918 132.608 69.5723C132.608 70.041 132.977 70.416 133.469 70.416ZM133.469 74.8164C133.967 74.8164 134.33 74.4414 134.33 73.9668C134.33 73.4922 133.967 73.123 133.469 73.123C132.977 73.123 132.608 73.4922 132.608 73.9668C132.608 74.4414 132.977 74.8164 133.469 74.8164ZM139.926 76H141.192V74.3184H142.358V73.2051H141.192V67.5449H139.323C138.157 69.2969 136.915 71.2949 135.801 73.2051V74.3184H139.926V76ZM137.061 73.1465C137.928 71.6641 138.959 70.0176 139.868 68.6523H139.944V73.2285H137.061V73.1465ZM145.616 76H146.928V67.5449H145.622L143.395 69.127V70.416L145.516 68.8984H145.616V76Z" fill="white"/>
<rect x="76" y="702" width="16" height="16" rx="8" fill="url(#paint0_linear)"/>
<rect x="79.5" y="705.5" width="9" height="9" rx="4.5" fill="#002848" stroke="black"/>
<path d="M52 158C52 158.552 51.5523 159 51 159L50 159L50 87L51 87C51.5523 87 52 87.4477 52 88L52 158Z" fill="#263F42"/>
<path d="M50 159L49 159C48.4477 159 48 158.552 48 158L48 88C48 87.4477 48.4477 87 49 87L50 87L50 159Z" fill="#3C5D61"/>
<path d="M181 4C180.448 4 180 3.55228 180 3L180 2L252 2L252 3C252 3.55228 251.552 4 251 4L181 4Z" fill="#263F42"/>
<path d="M180 2L180 1C180 0.447715 180.448 -1.95703e-08 181 -4.37114e-08L251 -3.10351e-06C251.552 -3.12765e-06 252 0.447712 252 0.999997L252 2L180 2Z" fill="#3C5D61"/>
<path d="M260 4C259.448 4 259 3.55228 259 3L259 2L331 2L331 3C331 3.55228 330.552 4 330 4L260 4Z" fill="#263F42"/>
<path d="M259 2L259 1C259 0.447715 259.448 -1.95703e-08 260 -4.37114e-08L330 -3.10351e-06C330.552 -3.12765e-06 331 0.447712 331 0.999997L331 2L259 2Z" fill="#3C5D61"/>
<defs>
<linearGradient id="paint0_linear" x1="84" y1="702" x2="84" y2="718" gradientUnits="userSpaceOnUse">
<stop/>
<stop offset="1" stop-color="#212121"/>
</linearGradient>
</defs>
</svg>
