<svg xmlns="http://www.w3.org/2000/svg" width="64" height="1028" fill="none" color-interpolation-filters="sRGB">
  <path fill="#364E51" d="M56 128H24v53h32v-53z"/>
  <g class="fill-shadow">
    <path d="M46 138c0-5 2-12 2-24V45c0-1.1-.9-2-2-2V14c0-2.21-1.79-4-4-4H6c-2.21 0-4 1.79-4 4v29c-1.1 0-2 .9-2 2v69c0 12 2 19 2 24v21c-1.1 0-2 .9-2 2s.9 2 2 2v14c-1.1 0-2 .9-2 2s.9 2 2 2v740l29 102 15-102V181c1.1 0 2-.9 2-2s-.9-2-2-2v-14c1.1 0 2-.9 2-2s-.9-2-2-2v-21z" class="opacity-20"/>
    <path d="M58 128c0-5 2-12 2-24V35c0-1.1-.9-2-2-2V4c0-2.21-1.79-4-4-4H18c-2.21 0-4 1.79-4 4v29c-1.1 0-2 .9-2 2v69c0 12 2 19 2 24v21c-1.1 0-2 .9-2 2s.9 2 2 2v14c-1.1 0-2 .9-2 2s.9 2 2 2v747l21 110 23-110V171c1.1 0 2-.9 2-2s-.9-2-2-2v-14c1.1 0 2-.9 2-2s-.9-2-2-2v-21z" class="opacity-40"/>
  </g>
  <path fill="#DDA985" d="M18 918h12l10 6 10-6h12l-22 110-22-110z"/>
  <path fill="#854C39" d="M22.08 918H18l22 110 2.04-10.11L22.08 918z" opacity=".6"/>
  <path fill="#854C39" d="M62 918H50l-10 49-10-49H18l22 110 22-110z" opacity=".2"/>
  <path fill="#564C5C" d="M47.27 992l-7.28 36-7.26-36h14.54z"/>
  <path fill="#272F39" d="M36.81 992h-4.08l7.27 35.98 2.04-10.1L36.81 992z" opacity=".8"/>
  <path fill="#564C5C" d="M32.64 992l7.26 36 .01-.02L32.65 992h-.01z"/>
  <path fill="#272F39" d="M39.91 1027.98v.02l2.04-10.11v-.02l-2.04 10.11z" opacity=".1"/>
  <path fill="#DBD4BF" d="M62 181H18.09L18 918h12l10 6 10-6h11.91L62 181z"/>
  <path fill="#829994" d="M62 918V181H50v737l5 5 7-5z"/>
  <path fill="#628A85" d="M30 181H18v737l7 5 5-5V181z"/>
  <path fill="#F4ECEB" d="M30 918V181h2v738.2l-2-1.2zM48 919.2V181h2v737l-2 1.2z"/>
  <path fill="#D89F31" d="M18 4v29h44V4c0-2.21-1.79-4-4-4H22c-2.21 0-4 1.79-4 4z"/>
  <path fill="#6E5C3C" d="M58 0h-2v33h6V4c0-2.21-1.79-4-4-4z" opacity=".4"/>
  <path fill="#2A3C51" d="M24 128h-6v53h6v-53zM62 128h-6v53h6v-53z"/>
  <path fill="#6E5C3C" d="M24 0h-2c-2.21 0-4 1.79-4 4v29h6V0z" opacity=".4"/>
  <path fill="#2A3C51" d="M62 128H18v2h44v-2z"/>
  <path fill="#334D50" d="M64 104V35c0-1.1-.9-2-2-2h-7.38c-.38 0-.73-.21-.89-.55l-1.45-2.89a1 1 0 00-.89-.55H28.63c-.38 0-.73.21-.89.55l-1.45 2.89a1 1 0 01-.89.55H18c-1.1 0-2 .9-2 2v69c0 12 2 19 2 24v53h44v-53c0-5 2-12 2-24z"/>
  <path fill="#2A3C51" d="M18 128c0-5-2-12-2-24V35c0-1.1.9-2 2-2v95zM62 128c0-5 2-12 2-24V35c0-1.1-.9-2-2-2v95z"/>
  <path fill="#2A3C51" d="M16 104c0 12 2 19 2 24h44c0-5 2-12 2-24 0 26.67-48 26.67-48 0z"/>
  <path fill="#2A3C51" d="M50 181h12v-10c1.1 0 2-.9 2-2s-.9-2-2-2v-14c1.1 0 2-.9 2-2s-.9-2-2-2v-21c0-5 2-12 2-24V37c0-2.21-1.79-4-4-4v62c0 25.39-40 25.39-40 0V33c-2.21 0-4 1.79-4 4v67c0 12 2 19 2 24v21c-1.1 0-2 .9-2 2s.9 2 2 2v14c-1.1 0-2 .9-2 2s.9 2 2 2v10h12v-10h20v10zm-20-51h20v19H30v-19zm0 37v-14h20v14H30z"/>
  <path fill="#8A9792" d="M50 148V66c0-.55.45-1 1-1s1 .45 1 1v82c0 .55-.45 1-1 1s-1-.45-1-1zM49 34H31c-.55 0-1-.45-1-1s.45-1 1-1h18c.55 0 1 .45 1 1s-.45 1-1 1z" opacity=".4"/>
</svg>