<svg width="80" height="132" viewBox="0 0 80 132" fill="none" xmlns="http://www.w3.org/2000/svg">
<path opacity="0.4" d="M64.2501 72.84L34.5001 17.06C33.7501 15.65 31.7301 15.65 30.9701 17.05L1.23009 72.41C0.920094 72.99 0.910105 73.68 1.2101 74.26L18.2901 107.88C18.5701 108.43 18.5801 109.09 18.3101 109.65L10.0901 126.9C9.46009 128.23 10.4301 129.76 11.9001 129.76H53.5601C55.0301 129.76 56.0001 128.23 55.3701 126.9L47.1601 109.65C46.8901 109.09 46.9001 108.43 47.1901 107.88L64.2601 74.69C64.5601 74.11 64.5601 73.42 64.2501 72.84Z" fill="#2A3C51"/>
<path opacity="0.8" d="M72.0101 65.08L42.2601 9.29997C41.5101 7.88997 39.4901 7.88996 38.7301 9.28996L8.99011 64.65C8.68011 65.23 8.67011 65.92 8.97011 66.5L26.0501 100.12C26.3301 100.67 26.3401 101.33 26.0701 101.89L17.8501 119.14C17.2201 120.47 18.1901 122 19.6601 122H61.3201C62.7901 122 63.7601 120.47 63.1301 119.14L54.9201 101.89C54.6501 101.33 54.6601 100.67 54.9501 100.12L72.0201 66.93C72.3201 66.35 72.3201 65.65 72.0101 65.08Z" fill="#2A3C51"/>
<path d="M36 61C36 58.39 37.67 56.17 40 55.35V5.71997L11.98 57.89C10.74 60.2 10.71 62.96 11.9 65.3L28 97L19.36 115.14C18.73 116.47 19.7 118 21.17 118H42V67C38.69 67 36 64.31 36 61Z" fill="#F4ECEB"/>
<path opacity="0.6" d="M16.74 59.85L40 5.71997L11.98 57.89C10.74 60.2 10.71 62.96 11.9 65.3L28 97L19.36 115.14C18.73 116.47 19.7 118 21.17 118H24L34 97L16.85 63.24C16.31 62.19 16.27 60.94 16.74 59.85Z" fill="#DBD4BF"/>
<path d="M56 97L72.08 65.73C73.28 63.4 73.26 60.62 72.02 58.31L44 5.75V55.35C46.33 56.17 48 58.39 48 61C48 64.31 45.31 67 42 67V118H62.83C64.3 118 65.27 116.47 64.64 115.14L56 97Z" fill="#DBD4BF"/>
<path opacity="0.6" d="M67.26 59.85L44 5.71997L72.02 57.89C73.26 60.2 73.29 62.96 72.1 65.3L56 97L64.64 115.14C65.27 116.47 64.3 118 62.83 118H60L50 97L67.15 63.24C67.69 62.19 67.73 60.94 67.26 59.85Z" fill="#628A85"/>
<path d="M56.95 99L56 97L57.03 95H26.98L28 97L27.05 99H56.95Z" fill="#829994"/>
</svg>
