<svg xmlns="http://www.w3.org/2000/svg" width="80" height="132" fill="none" color-interpolation-filters="sRGB">
  <g class="fill-shadow">
    <path d="M63.259 72.84l-29.75-55.78c-.75-1.41-2.77-1.41-3.53-.01L.239 72.41c-.31.58-.32 1.27-.02 1.85l17.08 33.62c.28.55.29 1.21.02 1.77l-8.22 17.25c-.63 1.33.34 2.86 1.81 2.86h41.66c1.47 0 2.44-1.53 1.81-2.86l-8.21-17.25a1.97 1.97 0 01.03-1.77l17.07-33.19c.3-.58.3-1.27-.01-1.85z" class="opacity-20"/>
    <path d="M71.259 64.839l-29.75-55.78c-.75-1.41-2.77-1.41-3.53-.01l-29.74 55.36c-.31.58-.32 1.27-.02 1.85l17.08 33.62c.28.55.29 1.21.02 1.77l-8.22 17.25c-.63 1.33.34 2.86 1.81 2.86h41.66c1.47 0 2.44-1.53 1.81-2.86l-8.21-17.25a1.97 1.97 0 01.03-1.77l17.07-33.19c.3-.58.3-1.28-.01-1.85z" class="opacity-40"/>
  </g>
  <path fill="#F4ECEB" d="M36 61a5.99 5.99 0 014-5.65V5.72L11.98 57.89a7.988 7.988 0 00-.08 7.41L28 97l-8.64 18.14c-.63 1.33.34 2.86 1.81 2.86H42V67c-3.31 0-6-2.69-6-6z"/>
  <path fill="#382E4D" d="M16.74 59.85L40 5.72 11.98 57.89a7.988 7.988 0 00-.08 7.41L28 97l-8.64 18.14c-.63 1.33.34 2.86 1.81 2.86H24l10-21-17.15-33.76c-.54-1.05-.58-2.3-.11-3.39z" opacity=".2"/>
  <path fill="#fff" d="M56 97l16.08-31.27a7.98 7.98 0 00-.06-7.42L44 5.75v49.6c2.33.82 4 3.04 4 5.65 0 3.31-2.69 6-6 6v51h20.83c1.47 0 2.44-1.53 1.81-2.86L56 97z"/>
  <path fill="#58375B" d="M67.26 59.85L44 5.72l28.02 52.17a7.988 7.988 0 01.08 7.41L56 97l8.64 18.14c.63 1.33-.34 2.86-1.81 2.86H60L50 97l17.15-33.76c.54-1.05.58-2.3.11-3.39z" opacity=".2"/>
  <path fill="#382E4D" d="M56.95 99L56 97l1.03-2H26.98L28 97l-.95 2h29.9z"/>
</svg>