<svg width="65" height="1028" viewBox="0 0 65 1028" fill="none" xmlns="http://www.w3.org/2000/svg">
<path d="M57 128H25V181H57V128Z" fill="#364E51"/>
<path opacity="0.4" d="M46 128C46 123 48 116 48 104V37V35C48 33.9 47.1 33 46 33V4C46 1.79 44.21 0 42 0H6C3.79 0 2 1.79 2 4V33C0.9 33 0 33.9 0 35V104C0 116 2 123 2 128V149C0.9 149 0 149.9 0 151C0 152.1 0.9 153 2 153V167C0.9 167 0 167.9 0 169C0 170.1 0.9 171 2 171V911L31 1013L46 911V171C47.1 171 48 170.1 48 169C48 167.9 47.1 167 46 167V153C47.1 153 48 152.1 48 151C48 149.9 47.1 149 46 149V128Z" fill="#2A3C51"/>
<path opacity="0.8" d="M59 128C59 123 61 116 61 104V35C61 33.9 60.1 33 59 33V4C59 1.79 57.21 0 55 0H19C16.79 0 15 1.79 15 4V33C13.9 33 13 33.9 13 35V104C13 116 15 123 15 128V130V149C13.9 149 13 149.9 13 151C13 152.1 13.9 153 15 153V167C13.9 167 13 167.9 13 169C13 170.1 13.9 171 15 171V918L36 1028L59 918V171C60.1 171 61 170.1 61 169C61 167.9 60.1 167 59 167V153C60.1 153 61 152.1 61 151C61 149.9 60.1 149 59 149V130V128Z" fill="#2A3C51"/>
<path d="M19 918H31L41 924L51 918H63L41 1028L19 918Z" fill="#D2AE91"/>
<path opacity="0.6" d="M23.08 918H19L41 1028L43.04 1017.89L23.08 918Z" fill="#854C39"/>
<path opacity="0.2" d="M63 918H51L41 967L31 918H19L41 1028L63 918Z" fill="#854C39"/>
<path d="M48.27 992L40.99 1028L33.73 992H48.27Z" fill="#564C5C"/>
<path opacity="0.8" d="M37.81 992H33.73L41 1027.98L43.04 1017.88L37.81 992Z" fill="#272F39"/>
<path d="M33.6401 992L40.9001 1028L40.9101 1027.98L33.6501 992H33.6401Z" fill="#564C5C"/>
<path opacity="0.1" d="M40.9099 1027.98V1028L42.95 1017.89V1017.87L40.9099 1027.98Z" fill="#272F39"/>
<path d="M63 181H19.09L19 918H31L41 924L51 918H62.91L63 181Z" fill="#DBD4BF"/>
<path d="M63 918V181H51V918L56 923L63 918Z" fill="#829994"/>
<path d="M31 181H19V918L26 923L31 918V181Z" fill="#628A85"/>
<path d="M31 918V181H33V919.2L31 918Z" fill="#F4ECEB"/>
<path d="M49 919.2V181H51V918L49 919.2Z" fill="#F4ECEB"/>
<path d="M19 4V33H63V4C63 1.79 61.21 0 59 0H23C20.79 0 19 1.79 19 4Z" fill="#D89F31"/>
<path d="M59 0H57V33H63V4C63 1.79 61.21 0 59 0Z" fill="#937C26"/>
<path d="M25 128H19V181H25V128Z" fill="#2A3C51"/>
<path d="M63 128H57V181H63V128Z" fill="#2A3C51"/>
<path d="M25 0H23C20.79 0 19 1.79 19 4V33H25V0Z" fill="#937C26"/>
<path d="M63 128H19V130H63V128Z" fill="#2A3C51"/>
<path d="M65 104V35C65 33.9 64.1 33 63 33H55.62C55.24 33 54.89 32.79 54.73 32.45L53.28 29.56C53.11 29.22 52.76 29.01 52.39 29.01H29.63C29.25 29.01 28.9 29.22 28.74 29.56L27.29 32.45C27.12 32.79 26.77 33 26.4 33H19C17.9 33 17 33.9 17 35V104C17 116 19 123 19 128V181H63V128C63 123 65 116 65 104Z" fill="#364E51"/>
<path d="M19 128C19 123 17 116 17 104V35C17 33.9 17.9 33 19 33V128Z" fill="#2A3C51"/>
<path d="M63 128C63 123 65 116 65 104V35C65 33.9 64.1 33 63 33V128Z" fill="#2A3C51"/>
<path d="M17 104C17 116 19 123 19 128H63C63 123 65 116 65 104C65 130.67 17 130.67 17 104Z" fill="#2A3C51"/>
<path d="M51 181H63V171C64.1 171 65 170.1 65 169C65 167.9 64.1 167 63 167V153C64.1 153 65 152.1 65 151C65 149.9 64.1 149 63 149V130V128C63 123 65 116 65 104V37C65 34.79 63.21 33 61 33V95C61 120.39 21 120.39 21 95V33C18.79 33 17 34.79 17 37V104C17 116 19 123 19 128V130V149C17.9 149 17 149.9 17 151C17 152.1 17.9 153 19 153V167C17.9 167 17 167.9 17 169C17 170.1 17.9 171 19 171V181H31V171H51V181ZM31 130H51V149H31V130ZM31 167V153H51V167H31Z" fill="#2A3C51"/>
<path opacity="0.4" d="M51 148V66C51 65.45 51.45 65 52 65C52.55 65 53 65.45 53 66V148C53 148.55 52.55 149 52 149C51.45 149 51 148.55 51 148Z" fill="#8A9792"/>
<path opacity="0.4" d="M50 34H32C31.45 34 31 33.55 31 33C31 32.45 31.45 32 32 32H50C50.55 32 51 32.45 51 33C51 33.55 50.55 34 50 34Z" fill="#8A9792"/>
</svg>
