<svg xmlns="http://www.w3.org/2000/svg" width="60" height="960" fill="none" color-interpolation-filters="sRGB">
  <g class="fill-shadow">
    <path d="M4 8c-2.21 0-4 1.79-4 4v838l31 110 13-110V12c0-2.21-1.79-4-4-4H4z" class="opacity-20"/>
    <path d="M16 0c-2.21 0-4 1.79-4 4v846l22 110 22-110V4c0-2.21-1.79-4-4-4H16z" class="opacity-40"/>
  </g>
  <path fill="#F3DFC1" d="M60 32H16v80h44V32z"/>
  <path fill="#F49FBC" d="M16 4v28h44V4c0-2.21-1.79-4-4-4H20c-2.21 0-4 1.79-4 4z"/>
  <path fill="#DDA985" d="M28 32H16v80h12V32z"/>
  <path fill="#DDBEA8" d="M60 32H48v80h12V32z" opacity=".6"/>
  <path fill="#F4ECEB" d="M30 32h-2v80h2V32z"/>
  <path fill="#B8628D" d="M56 0h-8v32h12V4c0-2.21-1.79-4-4-4z" opacity=".7"/>
  <path fill="#B8628D" d="M28 0h-8c-2.21 0-4 1.79-4 4v28h12V0z"/>
  <path fill="#F4ECEB" d="M48 32h-2v80h2V32z"/>
  <path fill="#DDA985" d="M60 94H16v4h44v-4zM60 86H16v4h44v-4zM60 52H16v4h44v-4zM60 44H16v4h44v-4z"/>
  <path fill="#D2AE91" d="M16 850h12l10 6 10-6h12L38 960 16 850z"/>
  <path fill="#854C39" d="M20.08 850H16l22 110 2.04-10.11L20.08 850z" opacity=".6"/>
  <path fill="#854C39" d="M60 850H48l-10 49-10-49H16l22 110 22-110z" opacity=".2"/>
  <path fill="#564C5C" d="M45.27 924l-7.28 36-7.26-36h14.54z"/>
  <path fill="#272F39" d="M34.81 924h-4.08L38 959.98l2.04-10.1L34.81 924z" opacity=".8"/>
  <path fill="#564C5C" d="M30.64 924l7.26 36 .01-.02L30.65 924h-.01z"/>
  <path fill="#CA8A7D" d="M60 112H16.09L16 850h12l10 6 10-6h11.91L60 112z"/>
  <path fill="#AA6F62" d="M60 850V112H48v738l5 5 7-5z"/>
  <path fill="#58375B" d="M60 850V112H48v738l5 5 7-5z" opacity=".6"/>
  <path fill="#A76659" d="M28 112H16v738l7 5 5-5V112z"/>
  <path fill="#382E4D" d="M28 112H16v738l7 5 5-5V112z" opacity=".6"/>
  <path fill="#F9C6BB" d="M28 850V112h2v739.2l-2-1.2zM46 851.2V112h2v738l-2 1.2z" opacity=".6"/>
</svg>