<svg width="59" height="960" viewBox="0 0 59 960" fill="none" xmlns="http://www.w3.org/2000/svg">
<path opacity="0.4" d="M4 0C1.79 0 0 1.79 0 4V86V90V94V98V112V850L31 960L44 850V112V98V94V90V86V4C44 1.79 42.21 0 40 0H4Z" fill="#2A3C51"/>
<path opacity="0.8" d="M15 0C12.79 0 11 1.79 11 4V32V44V48V52V56V86V90V94V98V112V850L33 960L55 850V112V98V94V90V86V56V52V48V44V32V4C55 1.79 53.21 0 51 0H15Z" fill="#2A3C51"/>
<path d="M59 32H15V112H59V32Z" fill="#F3DFC1"/>
<path d="M15 4V32H59V4C59 1.79 57.21 0 55 0H19C16.79 0 15 1.79 15 4Z" fill="#DC77A8"/>
<path d="M27 32H15V112H27V32Z" fill="#DDA985"/>
<path opacity="0.6" d="M59 32H47V112H59V32Z" fill="#DDBEA8"/>
<path d="M29 32H27V112H29V32Z" fill="#F4ECEB"/>
<path opacity="0.4" d="M55 0H47V32H59V4C59 1.79 57.21 0 55 0Z" fill="#69406E"/>
<path opacity="0.4" d="M27 0H19C16.79 0 15 1.79 15 4V32H27V0Z" fill="#66296E"/>
<path d="M47 32H45V112H47V32Z" fill="#F4ECEB"/>
<path d="M59 94H15V98H59V94Z" fill="#DDA985"/>
<path d="M59 86H15V90H59V86Z" fill="#DDA985"/>
<path d="M59 52H15V56H59V52Z" fill="#DDA985"/>
<path d="M59 44H15V48H59V44Z" fill="#DDA985"/>
<path d="M15 850H27L37 856L47 850H59L37 960L15 850Z" fill="#D2AE91"/>
<path opacity="0.6" d="M19.08 850H15L37 960L39.04 949.89L19.08 850Z" fill="#854C39"/>
<path opacity="0.2" d="M59 850H47L37 899L27 850H15L37 960L59 850Z" fill="#854C39"/>
<path d="M44.27 924L36.99 960L29.73 924H44.27Z" fill="#564C5C"/>
<path opacity="0.8" d="M33.81 924H29.73L37 959.98L39.04 949.88L33.81 924Z" fill="#272F39"/>
<path d="M29.6401 924L36.9001 960L36.9101 959.98L29.6501 924H29.6401Z" fill="#564C5C"/>
<path d="M59 112H15.09L15 850H27L37 856L47 850H58.91L59 112Z" fill="#CA8A7D"/>
<path d="M59 850V112H47V850L52 855L59 850Z" fill="#AA6F62"/>
<path opacity="0.6" d="M59 850V112H47V850L52 855L59 850Z" fill="#58375B"/>
<path d="M27 112H15V850L22 855L27 850V112Z" fill="#A76659"/>
<path opacity="0.6" d="M27 112H15V850L22 855L27 850V112Z" fill="#382E4D"/>
<path opacity="0.3" d="M27 850V112H29V851.2L27 850Z" fill="#F9D4A1"/>
<path opacity="0.3" d="M45 851.2V112H47V850L45 851.2Z" fill="#F9D4A1"/>
</svg>
