<svg width="60" height="960" viewBox="0 0 60 960" fill="none" xmlns="http://www.w3.org/2000/svg">
<path opacity="0.2" d="M4 8C1.79 8 0 9.79 0 12V86V90V94V98V112V850L31 960L44 850V112V98V94V90V86V12C44 9.79 42.21 8 40 8H4Z" fill="#041320"/>
<path opacity="0.4" d="M16 0C13.79 0 12 1.79 12 4V850L34 960L56 850V4C56 1.79 54.21 0 52 0H16Z" fill="#041320"/>
<path d="M60 32H16V112H60V32Z" fill="#F3DFC1"/>
<path d="M16 4V32H60V4C60 1.79 58.21 0 56 0H20C17.79 0 16 1.79 16 4Z" fill="#F49FBC"/>
<path d="M28 32H16V112H28V32Z" fill="#DDA985"/>
<path opacity="0.6" d="M60 32H48V112H60V32Z" fill="#DDBEA8"/>
<path d="M30 32H28V112H30V32Z" fill="#F4ECEB"/>
<path opacity="0.7" d="M56 0H48V32H60V4C60 1.79 58.21 0 56 0Z" fill="#B8628D"/>
<path d="M28 0H20C17.79 0 16 1.79 16 4V32H28V0Z" fill="#B8628D"/>
<path d="M48 32H46V112H48V32Z" fill="#F4ECEB"/>
<path d="M60 94H16V98H60V94Z" fill="#DDA985"/>
<path d="M60 86H16V90H60V86Z" fill="#DDA985"/>
<path d="M60 52H16V56H60V52Z" fill="#DDA985"/>
<path d="M60 44H16V48H60V44Z" fill="#DDA985"/>
<path d="M16 850H28L38 856L48 850H60L38 960L16 850Z" fill="#D2AE91"/>
<path opacity="0.6" d="M20.08 850H16L38 960L40.04 949.89L20.08 850Z" fill="#854C39"/>
<path opacity="0.2" d="M60 850H48L38 899L28 850H16L38 960L60 850Z" fill="#854C39"/>
<path d="M45.27 924L37.99 960L30.73 924H45.27Z" fill="#564C5C"/>
<path opacity="0.8" d="M34.81 924H30.73L38 959.98L40.04 949.88L34.81 924Z" fill="#272F39"/>
<path d="M30.6401 924L37.9001 960L37.9101 959.98L30.6501 924H30.6401Z" fill="#564C5C"/>
<path d="M60 112H16.09L16 850H28L38 856L48 850H59.91L60 112Z" fill="#CA8A7D"/>
<path d="M60 850V112H48V850L53 855L60 850Z" fill="#AA6F62"/>
<path opacity="0.6" d="M60 850V112H48V850L53 855L60 850Z" fill="#58375B"/>
<path d="M28 112H16V850L23 855L28 850V112Z" fill="#A76659"/>
<path opacity="0.6" d="M28 112H16V850L23 855L28 850V112Z" fill="#382E4D"/>
<path opacity="0.6" d="M28 850V112H30V851.2L28 850Z" fill="#F9C6BB"/>
<path opacity="0.6" d="M46 851.2V112H48V850L46 851.2Z" fill="#F9C6BB"/>
</svg>
