<svg width="404" height="825" viewBox="0 0 404 825" fill="none" xmlns="http://www.w3.org/2000/svg">
<path opacity="0.2" d="M301 8H92C41.1898 8 0 49.1898 0 100V733C0 783.81 41.1898 825 92 825H301C351.81 825 393 783.81 393 733V100C393 49.1898 351.81 8 301 8Z" fill="#041320"/>
<path opacity="0.4" d="M324 1C365.974 1 400 35.0264 400 77V717C400 758.974 365.974 793 324 793H101C59.0264 793 25 758.974 25 717V77C25 35.0264 59.0264 1 101 1H324Z" fill="#041320"/>
<rect x="33" width="368" height="784" rx="72" fill="#334D50"/>
<rect x="41" y="8" width="352" height="768" rx="64" fill="black"/>
<path d="M57 107H377V691.6C377 693.84 377 694.96 376.564 695.816C376.181 696.569 375.569 697.181 374.816 697.564C373.96 698 372.84 698 370.6 698H63.4C61.1598 698 60.0397 698 59.184 697.564C58.4314 697.181 57.8195 696.569 57.436 695.816C57 694.96 57 693.84 57 691.6V107Z" fill="#121212"/>
<path d="M400 187C400 186.448 400.448 186 401 186H402V258H401C400.448 258 400 257.552 400 257V187Z" fill="#263F42"/>
<path d="M402 186H403C403.552 186 404 186.448 404 187V257C404 257.552 403.552 258 403 258H402V186Z" fill="#3C5D61"/>
<path d="M402 186H403C403.552 186 404 186.448 404 187V188H402V186Z" fill="#263F42"/>
<path d="M402 256H404V257C404 257.552 403.552 258 403 258H402V256Z" fill="#263F42"/>
<path d="M35 251C35 250.448 34.5523 250 34 250H33V298H34C34.5523 298 35 297.552 35 297V251Z" fill="#263F42"/>
<path d="M33 250H32C31.4477 250 31 250.448 31 251V297C31 297.552 31.4477 298 32 298H33V250Z" fill="#3C5D61"/>
<path d="M35 187C35 186.448 34.5523 186 34 186H33V234H34C34.5523 234 35 233.552 35 233V187Z" fill="#263F42"/>
<path d="M33 186H32C31.4477 186 31 186.448 31 187V233C31 233.552 31.4477 234 32 234H33V186Z" fill="#3C5D61"/>
<path d="M35 131C35 130.448 34.5523 130 34 130H33V162H34C34.5523 162 35 161.552 35 161V131Z" fill="#263F42"/>
<path d="M33 130H32C31.4477 130 31 130.448 31 131V161C31 161.552 31.4477 162 32 162H33V130Z" fill="#3C5D61"/>
<rect x="33" y="684" width="8" height="8" fill="#2A3C51"/>
<rect x="393" y="684" width="8" height="8" fill="#2A3C51"/>
<rect x="33" y="96" width="8" height="8" fill="#2A3C51"/>
<rect x="393" y="96" width="8" height="8" fill="#2A3C51"/>
<path d="M57 89C57 86.7909 58.7909 85 61 85H373C375.209 85 377 86.7909 377 89V107H57V89Z" fill="#121212"/>
<path d="M208.397 101.205C210.548 101.205 211.825 99.5234 211.825 96.6699C211.825 93.8691 210.466 92.334 208.444 92.334C206.604 92.334 205.304 93.5703 205.304 95.2988C205.304 96.9219 206.475 98.1055 208.087 98.1055C209.077 98.1055 209.88 97.6484 210.278 96.8457H210.378C210.36 98.832 209.651 99.9688 208.415 99.9688C207.688 99.9688 207.108 99.5703 206.927 98.9258H205.421C205.667 100.303 206.85 101.205 208.397 101.205ZM208.45 96.9395C207.466 96.9395 206.786 96.248 206.786 95.252C206.786 94.2969 207.501 93.5645 208.456 93.5645C209.411 93.5645 210.126 94.3086 210.126 95.2812C210.126 96.2422 209.429 96.9395 208.45 96.9395ZM214.179 95.5273C214.736 95.5273 215.117 95.1406 215.117 94.6191C215.117 94.0977 214.736 93.7109 214.179 93.7109C213.629 93.7109 213.242 94.0977 213.242 94.6191C213.242 95.1406 213.629 95.5273 214.179 95.5273ZM214.179 99.8281C214.736 99.8281 215.117 99.4355 215.117 98.9199C215.117 98.3984 214.736 98.0117 214.179 98.0117C213.629 98.0117 213.242 98.3984 213.242 98.9199C213.242 99.4355 213.629 99.8281 214.179 99.8281ZM220.659 101H222.106V99.377H223.248V98.1289H222.106V92.5449H219.973C218.825 94.291 217.623 96.2363 216.528 98.1406V99.377H220.659V101ZM217.928 98.0762C218.754 96.6406 219.733 95.0762 220.6 93.752H220.682V98.1641H217.928V98.0762ZM226.411 101H227.923V92.5449H226.417L224.208 94.0977V95.5215L226.312 94.0332H226.411V101Z" fill="white"/>
<rect x="344.5" y="92.5" width="16" height="8" rx="2.16667" stroke="white"/>
<path d="M362 95V98C362.606 97.7459 363 97.1548 363 96.5C363 95.8452 362.606 95.2541 362 95" fill="white"/>
<rect x="346" y="94" width="13" height="5" rx="0.33" fill="white"/>
<path fill-rule="evenodd" clip-rule="evenodd" d="M97.0003 93.1184C98.7414 93.1185 100.416 93.7869 101.678 94.9856C101.773 95.0781 101.925 95.0769 102.018 94.983L102.927 94.067C102.974 94.0194 103 93.9548 103 93.8876C103 93.8204 102.972 93.7562 102.924 93.7091C99.6125 90.5377 94.3876 90.5377 91.0756 93.7091C91.0277 93.7561 91.0004 93.8204 91 93.8876C90.9996 93.9547 91.0259 94.0193 91.0733 94.067L91.9819 94.983C92.0754 95.0771 92.2274 95.0783 92.3223 94.9856C93.5843 93.7869 95.2591 93.1184 97.0003 93.1184ZM97.0003 96.0982C97.9569 96.0982 98.8794 96.4535 99.5885 97.095C99.6844 97.1861 99.8355 97.1841 99.9289 97.0906L100.836 96.1747C100.884 96.1266 100.91 96.0614 100.91 95.9937C100.909 95.926 100.881 95.8614 100.833 95.8143C98.6732 93.8074 95.3292 93.8074 93.1698 95.8143C93.121 95.8614 93.0932 95.926 93.0926 95.9938C93.0919 96.0615 93.1185 96.1267 93.1664 96.1747L94.0734 97.0906C94.1669 97.1841 94.318 97.1861 94.4139 97.095C95.1225 96.4539 96.0443 96.0986 97.0003 96.0982ZM98.8178 98.1032C98.8192 98.1711 98.7925 98.2366 98.744 98.2842L97.1746 99.8666C97.1286 99.9131 97.0659 99.9393 97.0004 99.9393C96.935 99.9393 96.8722 99.9131 96.8262 99.8666L95.2566 98.2842C95.2081 98.2365 95.1814 98.171 95.1829 98.1031C95.1843 98.0352 95.2137 97.9709 95.2642 97.9254C96.2665 97.0784 97.7344 97.0784 98.7366 97.9254C98.787 97.9709 98.8164 98.0353 98.8178 98.1032Z" fill="white"/>
<path fill-rule="evenodd" clip-rule="evenodd" d="M82.1767 91.6667H81.3531C80.8983 91.6667 80.5296 92.0355 80.5296 92.4903V99.6275C80.5296 100.082 80.8983 100.451 81.3531 100.451H82.1767C82.6315 100.451 83.0002 100.082 83.0002 99.6275V92.4903C83.0002 92.0355 82.6315 91.6667 82.1767 91.6667ZM77.5092 93.5882H78.3328C78.7876 93.5882 79.1563 93.9569 79.1563 94.4117V99.6274C79.1563 100.082 78.7876 100.451 78.3328 100.451H77.5092C77.0544 100.451 76.6857 100.082 76.6857 99.6274V94.4117C76.6857 93.9569 77.0544 93.5882 77.5092 93.5882ZM74.491 95.5099H73.6674C73.2126 95.5099 72.8439 95.8786 72.8439 96.3334V99.6275C72.8439 100.082 73.2126 100.451 73.6674 100.451H74.491C74.9458 100.451 75.3145 100.082 75.3145 99.6275V96.3334C75.3145 95.8786 74.9458 95.5099 74.491 95.5099ZM70.6471 97.1571H69.8235C69.3687 97.1571 69 97.5258 69 97.9806V99.6276C69 100.082 69.3687 100.451 69.8235 100.451H70.6471C71.1019 100.451 71.4706 100.082 71.4706 99.6276V97.9806C71.4706 97.5258 71.1019 97.1571 70.6471 97.1571Z" fill="white"/>
<rect x="190" y="710" width="54" height="54" rx="27" fill="url(#paint0_linear)"/>
<rect x="193.5" y="713.5" width="47" height="47" rx="23.5" fill="black" stroke="black"/>
<rect x="164" y="44" width="72" height="8" rx="4" fill="#212121"/>
<rect x="249" y="40" width="16" height="16" rx="8" fill="url(#paint1_linear)"/>
<rect x="252.5" y="43.5" width="9" height="9" rx="4.5" fill="#002848" stroke="black"/>
<defs>
<linearGradient id="paint0_linear" x1="217" y1="710" x2="217" y2="764" gradientUnits="userSpaceOnUse">
<stop/>
<stop offset="1" stop-color="#212121"/>
</linearGradient>
<linearGradient id="paint1_linear" x1="257" y1="40" x2="257" y2="56" gradientUnits="userSpaceOnUse">
<stop/>
<stop offset="1" stop-color="#212121"/>
</linearGradient>
</defs>
</svg>
