<svg width="520" height="1006" viewBox="0 0 520 1006" fill="none" xmlns="http://www.w3.org/2000/svg">
<path opacity="0.2" d="M424 62H96C42.9807 62 0 104.981 0 158V910C0 963.019 42.9807 1006 96 1006H424C477.019 1006 520 963.019 520 910V158C520 104.981 477.019 62 424 62Z" fill="#2A3C51"/>
<path opacity="0.4" d="M409 30H115C68.6081 30 31 67.6081 31 114V890C31 936.392 68.6081 974 115 974H409C455.392 974 493 936.392 493 890V114C493 67.6081 455.392 30 409 30Z" fill="#2A3C51"/>
<path opacity="0.8" d="M129 8H431C475.18 8 511 43.82 511 88V872C511 916.18 475.18 952 431 952H129C84.82 952 49 916.18 49 872V88C49 43.82 84.82 8 129 8Z" fill="#2A3C51"/>
<path d="M129 0H447C486.76 0 519 32.24 519 72V872C519 911.76 486.76 944 447 944H129C89.24 944 57 911.76 57 872V72C57 32.24 89.24 0 129 0Z" fill="#62736D"/>
<path d="M129 8H447C482.35 8 511 36.65 511 72V872C511 907.35 482.35 936 447 936H129C93.65 936 65 907.35 65 872V72C65 36.65 93.65 8 129 8Z" fill="black"/>
<path d="M129 24H447C473.51 24 495 45.49 495 72V872C495 898.51 473.51 920 447 920H129C102.49 920 81 898.51 81 872V72C81 45.49 102.49 24 129 24Z" fill="#121212"/>
<rect x="57" y="810" width="8" height="8" fill="#869690"/>
<rect x="511" y="810" width="8" height="8" fill="#869690"/>
<rect x="57" y="120" width="8" height="8" fill="#869690"/>
<rect x="511" y="120" width="8" height="8" fill="#869690"/>
</svg>
