<svg width="498" height="980" fill="none" xmlns="http://www.w3.org/2000/svg" color-interpolation-filters="sRGB">
  <g class="fill-shadow">
    <path d="M388 8H92C41.19 8 0 49.19 0 100v788c0 50.81 41.19 92 92 92h296c50.81 0 92-41.19 92-92V100c0-50.81-41.19-92-92-92z" class="opacity-20"/>
    <path d="M106.385 1h307.23C458.56 1 495 37.086 495 81.593v789.814C495 915.914 458.56 952 413.615 952h-307.23C61.44 952 25 915.914 25 871.407V81.593C25 37.086 61.44 1 106.385 1z" class="opacity-40"/>
  </g>
  <rect x="33" width="462" height="944" rx="72" fill="#334D50"/>
  <rect x="41" y="8" width="446" height="928" rx="64" fill="#000"/>
  <rect x="57" y="24" width="414" height="896" rx="44" fill="#121212"/>
  <path d="M494 187a1 1 0 011-1h1v72h-1a1 1 0 01-1-1v-70z" fill="#263F42"/>
  <path d="M496 186h1a1 1 0 011 1v70a1 1 0 01-1 1h-1v-72z" fill="#3C5D61"/>
  <path d="M35 251a1 1 0 00-1-1h-1v48h1a1 1 0 001-1v-46z" fill="#263F42"/>
  <path d="M33 250h-1a1 1 0 00-1 1v46a1 1 0 001 1h1v-48z" fill="#3C5D61"/>
  <path d="M35 187a1 1 0 00-1-1h-1v48h1a1 1 0 001-1v-46z" fill="#263F42"/>
  <path d="M33 186h-1a1 1 0 00-1 1v46a1 1 0 001 1h1v-48z" fill="#3C5D61"/>
  <path d="M35 131a1 1 0 00-1-1h-1v32h1a1 1 0 001-1v-30z" fill="#263F42"/>
  <path d="M33 130h-1a1 1 0 00-1 1v30a1 1 0 001 1h1v-32z" fill="#3C5D61"/>
  <path fill="#2A3C51" d="M33 834h8v8h-8zM487 834h8v8h-8zM33 96h8v8h-8zM487 96h8v8h-8z"/>
  <rect x="196" y="907" width="134" height="5" rx="2.5" fill="#fff" class="home-area"/>
  <path d="M57 68c0-24.3 19.7-44 44-44h326c24.301 0 44 19.7 44 44H57z" fill="#121212"/>
  <g class="status-bar">
    <path d="M94.134 52.256c2.688 0 4.285-2.102 4.285-5.669 0-3.5-1.7-5.42-4.226-5.42-2.3 0-3.926 1.546-3.926 3.706 0 2.03 1.465 3.509 3.479 3.509 1.238 0 2.241-.572 2.74-1.575h.124c-.022 2.483-.909 3.904-2.454 3.904-.908 0-1.633-.498-1.86-1.304h-1.883c.308 1.721 1.788 2.85 3.721 2.85zm.066-5.332c-1.23 0-2.08-.864-2.08-2.11 0-1.193.893-2.108 2.087-2.108 1.194 0 2.088.93 2.088 2.146 0 1.2-.872 2.072-2.095 2.072zm7.237-1.765c.695 0 1.171-.483 1.171-1.135s-.476-1.135-1.171-1.135c-.689 0-1.172.483-1.172 1.135s.483 1.135 1.172 1.135zm0 5.376c.695 0 1.171-.49 1.171-1.135 0-.652-.476-1.135-1.171-1.135-.689 0-1.172.483-1.172 1.135 0 .644.483 1.135 1.172 1.135zM109.611 52h1.809v-2.029h1.428v-1.56h-1.428v-6.98h-2.666a140.658 140.658 0 00-4.307 6.995v1.545h5.164V52zm-3.413-3.655a115.513 115.513 0 013.339-5.405h.103v5.515h-3.442v-.11zM116.877 52h1.889V41.431h-1.882l-2.761 1.941v1.78l2.629-1.86h.125V52z" fill="currentcolor"/>
    <rect opacity=".35" x="432.833" y="41.833" width="21" height="10.333" rx="2.167" stroke="currentcolor"/>
    <path opacity=".4" d="M455.333 45v4a2.17 2.17 0 000-4z" fill="#fff"/>
    <rect x="434.333" y="43.333" width="18" height="7.333" rx="1.333" fill="#fff"/>
    <path fill-rule="evenodd" clip-rule="evenodd" d="M419.667 43.615a8.68 8.68 0 015.977 2.386.31.31 0 00.435-.003l1.16-1.17a.321.321 0 00-.002-.457c-4.232-4.053-10.908-4.053-15.14-.001a.322.322 0 00-.003.457l1.161 1.17c.119.12.313.122.435.004a8.677 8.677 0 015.977-2.386zm0 3.808a4.93 4.93 0 013.307 1.273.312.312 0 00.435-.005l1.16-1.17a.325.325 0 00-.005-.46 7.192 7.192 0 00-9.791-.001.321.321 0 00-.005.46l1.159 1.17c.12.12.313.123.435.006a4.932 4.932 0 013.305-1.273zm2.322 2.562a.314.314 0 01-.094.23l-2.005 2.023a.314.314 0 01-.445 0l-2.006-2.022a.314.314 0 01.01-.459 3.438 3.438 0 014.437 0c.064.059.102.14.103.228zM406 41.667h-1a1 1 0 00-1 1v8.666a1 1 0 001 1h1a1 1 0 001-1v-8.666a1 1 0 00-1-1zM400.333 44h1a1 1 0 011 1v6.333a1 1 0 01-1 1h-1a1 1 0 01-1-1V45a1 1 0 011-1zm-3.666 2.333h-1a1 1 0 00-1 1v4a1 1 0 001 1h1a1 1 0 001-1v-4a1 1 0 00-1-1zm-4.667 2h-1a1 1 0 00-1 1v2a1 1 0 001 1h1a1 1 0 001-1v-2a1 1 0 00-1-1z" fill="currentcolor"/>
  </g>
  <path d="M158 24h212c-4.493.576-5.179 3.975-5.179 7.158C364.821 41.052 357.612 53 342 53H186c-15.612 0-22.821-11.948-22.821-21.842 0-3.183-.686-6.582-5.179-7.158z" fill="#000"/>
  <rect x="221" y="35" width="72" height="8" rx="4" fill="#212121"/>
  <rect x="306" y="31" width="16" height="16" rx="8" fill="url(#paint0_linear)"/>
  <rect x="309.5" y="34.5" width="9" height="9" rx="4.5" fill="#002848" stroke="#000"/>
  <path d="M496 186h1a1 1 0 011 1v1h-2v-2zM496 256h2v1a1 1 0 01-1 1h-1v-2z" fill="#263F42"/>
  <defs>
    <linearGradient id="paint0_linear" x1="314" y1="31" x2="314" y2="47" gradientUnits="userSpaceOnUse">
      <stop/>
      <stop offset="1" stop-color="#212121"/>
    </linearGradient>
  </defs>
</svg>
