<svg xmlns="http://www.w3.org/2000/svg" width="134" height="756" fill="none" color-interpolation-filters="sRGB">
  <g class="fill-shadow">
    <rect width="110" height="728" x="4" y="5" class="opacity-40" rx="16"/>
    <rect width="110" height="728" x="24" y="28" class="opacity-20" rx="16"/>
  </g>
  <path fill="#1A2D3D" d="M4 11h100v706a8 8 0 01-8 8H12a8 8 0 01-8-8V11z"/>
  <path fill="#092135" d="M4 191h20v534H12a8 8 0 01-8-8V191z" opacity=".8"/>
  <path fill="#092135" d="M84 191h20v526a8 8 0 01-8 8H84V191z"/>
  <path fill="#DC77A8" stroke="#1A2D3D" stroke-width="3" d="M75.56 347.115l1.036-.337v-13.93l-2.019.745-44.096 16.256-.981.361v13.034l.98.363 44.095 16.32 2.021.748v-14.003l-1.044-.333-9.196-2.931v-13.302l9.204-2.991zm-20.908 6.779v5.804l-9.024-2.883 9.024-2.921z"/>
  <path fill="#FFDC7F" stroke="#1A2D3D" stroke-width="3" d="M67.303 370.282l-1.22-.836-.853 1.21-5.504 7.808-.902 1.279 1.317.847c3.2 2.057 5.071 4.997 5.071 9.106 0 6.627-5.117 11.172-11.684 11.172-6.517 0-11.492-4.689-11.492-11.236 0-4.044 1.87-6.989 5.017-9.049l1.292-.846-.882-1.266-5.44-7.808-.85-1.221-1.229.84C33.667 374.581 29.5 381.818 29.5 390.08c0 13.256 10.795 23.9 24.028 23.9 13.356 0 24.156-10.639 24.156-23.9 0-8.253-4.096-15.494-10.38-19.798z"/>
  <path fill="#CAD4BF" stroke="#1A2D3D" stroke-width="3" d="M48.126 417.713v.001l-1.408 4.608-.005.016-.005.016c-.52 1.851-1.167 2.611-1.58 2.927-.39.299-.736.331-1.008.331-1.41 0-2.852-1.169-2.852-3.684 0-1.388.439-2.229.974-2.73.553-.518 1.374-.826 2.39-.826h1.5v-13.048h-1.5c-4.693 0-8.523 1.783-11.161 4.801-2.619 2.995-3.971 7.096-3.971 11.611 0 9.335 5.808 17.052 14.812 17.052 2.298 0 5.16-.514 7.82-2.426 2.667-1.919 4.975-5.133 6.358-10.244l1.588-5.209c.601-1.829 1.218-2.773 1.732-3.255.459-.43.905-.562 1.446-.562.941 0 1.577.377 2.03 1.021.495.701.822 1.806.822 3.239 0 2.979-1.817 4.772-3.492 4.772h-1.5v13.048h1.5c4.496 0 8.324-1.819 11.006-4.967 2.665-3.129 4.126-7.48 4.126-12.469 0-4.253-1.059-8.65-3.481-12.026-2.464-3.435-6.287-5.73-11.523-5.73-4.471 0-7.69 1.817-10.008 4.504-2.263 2.624-3.632 6.034-4.61 9.229z"/>
  <path fill="#7DB8CA" stroke="#1A2D3D" stroke-width="3" d="M77.748 453.136c0-13.258-10.862-23.964-24.156-23.964-13.3 0-24.092 10.711-24.092 23.964 0 13.448 10.795 24.028 24.092 24.028 13.292 0 24.156-10.575 24.156-24.028zm-12.472.064c0 6.464-5.015 10.852-11.684 10.852-6.66 0-11.62-4.379-11.62-10.852 0-6.424 4.977-10.916 11.62-10.916 6.653 0 11.684 4.501 11.684 10.916z"/>
  <path fill="#DC77A8" stroke="#1A2D3D" stroke-width="3" d="M29.5 501.688v1.5h47.096V490.14H61.62v-6.628c0-5.497-1.938-9.633-5.003-12.381-3.035-2.722-7.046-3.967-11.025-3.967-3.949 0-7.972 1.246-11.029 3.963-3.086 2.744-5.063 6.879-5.063 12.385v18.176zm20.352-17.728v6.18h-8.584v-6.244c0-1.391.535-2.219 1.248-2.746.775-.572 1.888-.874 3.076-.874 1.188 0 2.277.301 3.03.872.694.525 1.23 1.367 1.23 2.812z"/>
  <path fill="#CAE5EE" d="M23 195h16v530H23zm77 0h4v528a2 2 0 11-4 0V195z" opacity=".4"/>
  <path fill="#fff" d="M59.198 555.178c0-3.726-.99-5.868-2.952-6.462v-.036c1.044 0 2.124.036 2.754.054v-4.824h-8.892v4.824h2.826c1.998 0 2.898 1.854 2.898 4.32 0 2.718-.702 3.402-2.322 3.402h-3.402v4.824h4.752c2.664 0 4.338-1.89 4.338-6.102zM59 542.294v-4.824h-2.952c-1.89 0-2.808-1.728-2.808-4.14 0-2.61.792-3.6 2.448-3.6H59v-4.824h-4.482c-3.006 0-4.644 1.836-4.644 6.228 0 3.78 1.188 5.652 3.132 6.318v.036l-2.898-.018v4.824H59zm-9.864-19.023v-4.824H46.58v4.824h2.556zm9.864 0v-4.824h-8.892v4.824H59z"/>
  <path fill="#092135" d="M22 191h64v4H22z"/>
  <path fill="#CA8A7D" d="M0 17C0 10.373 5.373 5 12 5h84c6.627 0 12 5.373 12 12v174H0V17z"/>
  <path fill="#382E4D" d="M0 17C0 10.373 5.373 5 12 5h10v186H0V17zM22 5h64v6H22V5z" opacity=".3"/>
  <path fill="#58375B" d="M86 5h10c6.627 0 12 5.373 12 12v174H86V5z" opacity=".4"/>
  <path fill="#F9C6BB" d="M22 11h16v180H22V11z" opacity=".6"/>
  <path fill="#1A2D3D" d="M30 4a4 4 0 014-4h40a4 4 0 014 4v122a4 4 0 01-4 4H34a4 4 0 01-4-4V4z" opacity=".4"/>
  <rect width="48" height="124" x="30" y="2" fill="#1A2D3D" rx="4"/>
  <path fill="#2A3C51" d="M30 5h48v2H30V5z" opacity=".6"/>
  <path fill="#F9C6BB" d="M100 15a2 2 0 114 0v174a2 2 0 11-4 0V15z" opacity=".2"/>
  <path fill="#fff" d="M59.198 104.178c0-3.726-.99-5.868-2.952-6.462v-.036c1.044 0 2.124.036 2.754.054V92.91h-8.892v4.824h2.826c1.998 0 2.898 1.854 2.898 4.32 0 2.718-.702 3.402-2.322 3.402h-3.402v4.824h4.752c2.664 0 4.338-1.89 4.338-6.102zM59 91.294V86.47h-2.952c-1.89 0-2.808-1.728-2.808-4.14 0-2.61.792-3.6 2.448-3.6H59v-4.824h-4.482c-3.006 0-4.644 1.836-4.644 6.228 0 3.78 1.188 5.652 3.132 6.318v.036l-2.898-.018v4.824H59zM49.136 72.27v-4.824H46.58v4.824h2.556zm9.864 0v-4.824h-8.892v4.824H59z"/>
</svg>