<svg width="134" height="755" viewBox="0 0 134 755" fill="none" xmlns="http://www.w3.org/2000/svg" color-interpolation-filters="sRGB">
  <g class="fill-shadow">
    <rect x="4" y="3" width="110" height="728" rx="16" class="opacity-40"/>
    <rect x="12" y="9" width="122" height="746" rx="24" class="opacity-20"/>
  </g>
<path d="M4 9H104V715C104 719.418 100.418 723 96 723H12C7.58172 723 4 719.418 4 715V9Z" fill="#1A2D3D"/>
<path opacity="0.8" d="M4 189H24V723H12C7.58172 723 4 719.418 4 715V189Z" fill="#092135"/>
<path d="M84 189H104V715C104 719.418 100.418 723 96 723H84V189Z" fill="#092135"/>
<path d="M75.5596 345.115L76.596 344.778L76.596 343.688L76.596 333L76.596 330.848L74.5772 331.593L30.4812 347.849L29.5 348.21L29.5 349.256L29.5 360.2L29.5 361.244L30.4794 361.607L74.5754 377.927L76.596 378.675L76.596 376.52L76.596 365.768L76.596 364.672L75.5515 364.339L66.356 361.408L66.356 348.106L75.5596 345.115ZM54.652 351.894L54.652 357.698L45.6278 354.815L54.652 351.894Z" fill="#DC77A8" stroke="#1A2D3D" stroke-width="3"/>
<path d="M67.3035 368.282L66.0826 367.446L65.23 368.656L59.726 376.464L58.8241 377.743L60.1409 378.59C63.3414 380.647 65.212 383.587 65.212 387.696C65.212 394.323 60.0954 398.868 53.528 398.868C47.0107 398.868 42.036 394.179 42.036 387.632C42.036 383.588 43.9061 380.643 47.0535 378.583L48.3454 377.737L47.4627 376.471L42.0227 368.663L41.1722 367.442L39.9445 368.282C33.6675 372.581 29.5 379.818 29.5 388.08C29.5 401.336 40.2947 411.98 53.528 411.98C66.8837 411.98 77.684 401.341 77.684 388.08C77.684 379.827 73.5879 372.586 67.3035 368.282Z" fill="#FFDC7F" stroke="#1A2D3D" stroke-width="3"/>
<path d="M48.1257 415.713L48.1255 415.714L46.7175 420.322L46.7126 420.338L46.708 420.354C46.1873 422.205 45.5411 422.965 45.1279 423.281C44.7378 423.58 44.3916 423.612 44.12 423.612C42.7099 423.612 41.268 422.443 41.268 419.928C41.268 418.54 41.7069 417.699 42.2416 417.198C42.7953 416.68 43.6161 416.372 44.632 416.372L46.132 416.372L46.132 414.872L46.132 404.824L46.132 403.324L44.632 403.324C39.9386 403.324 36.1091 405.107 33.4707 408.125C30.8521 411.12 29.5 415.221 29.5 419.736C29.5 429.071 35.3082 436.788 44.312 436.788C46.6098 436.788 49.4721 436.274 52.1318 434.362C54.7993 432.443 57.1067 429.229 58.4898 424.118L60.0782 418.909C60.6794 417.08 61.296 416.136 61.8103 415.654C62.2685 415.224 62.715 415.092 63.256 415.092C64.197 415.092 64.8326 415.469 65.2863 416.113C65.7811 416.814 66.108 417.919 66.108 419.352C66.108 422.331 64.2913 424.124 62.616 424.124L61.116 424.124L61.116 425.624L61.116 435.672L61.116 437.172L62.616 437.172C67.1117 437.172 70.9398 435.353 73.6219 432.205C76.2873 429.076 77.748 424.725 77.748 419.736C77.748 415.483 76.689 411.086 74.2669 407.71C71.803 404.275 67.98 401.98 62.744 401.98C58.2729 401.98 55.0534 403.797 52.7361 406.484C50.4732 409.108 49.1036 412.518 48.1257 415.713Z" fill="#CAD4BF" stroke="#1A2D3D" stroke-width="3"/>
<path d="M77.748 451.136C77.748 437.878 66.8865 427.172 53.592 427.172C40.2919 427.172 29.5 437.883 29.5 451.136C29.5 464.584 40.2947 475.164 53.592 475.164C66.8837 475.164 77.748 464.589 77.748 451.136ZM65.276 451.2C65.276 457.664 60.2613 462.052 53.592 462.052C46.9326 462.052 41.972 457.673 41.972 451.2C41.972 444.776 46.9488 440.284 53.592 440.284C60.2451 440.284 65.276 444.785 65.276 451.2Z" fill="#7DB8CA" stroke="#1A2D3D" stroke-width="3"/>
<path d="M29.5 499.688L29.5 501.188L31 501.188L75.096 501.188L76.596 501.188L76.596 499.688L76.596 489.64L76.596 488.14L75.096 488.14L61.62 488.14L61.62 481.512C61.62 476.015 59.6816 471.879 56.6174 469.131C53.5818 466.409 49.571 465.164 45.592 465.164C41.6434 465.164 37.6202 466.41 34.5635 469.127C31.4766 471.871 29.5 476.006 29.5 481.512L29.5 499.688ZM49.852 481.96L49.852 488.14L41.268 488.14L41.268 481.896C41.268 480.505 41.8027 479.677 42.5156 479.15C43.2905 478.578 44.4037 478.276 45.592 478.276C46.7795 478.276 47.8688 478.577 48.6224 479.148C49.3155 479.673 49.852 480.515 49.852 481.96Z" fill="#DC77A8" stroke="#1A2D3D" stroke-width="3"/>
<g style="mix-blend-mode:soft-light" opacity="0.4">
<rect x="24" y="193" width="16" height="530" fill="#CAE5EE"/>
</g>
<g style="mix-blend-mode:soft-light" opacity="0.4">
<path d="M100 193H104V709C104 710.105 103.105 711 102 711V711C100.895 711 100 710.105 100 709V193Z" fill="#CAE5EE"/>
</g>
<path d="M59.198 553.178C59.198 549.452 58.208 547.31 56.246 546.716L56.246 546.68C57.29 546.68 58.37 546.716 59 546.734L59 541.91L50.108 541.91L50.108 546.734L52.934 546.734C54.932 546.734 55.832 548.588 55.832 551.054C55.832 553.772 55.13 554.456 53.51 554.456L50.108 554.456L50.108 559.28L54.86 559.28C57.524 559.28 59.198 557.39 59.198 553.178ZM59 540.294L59 535.47L56.048 535.47C54.158 535.47 53.24 533.742 53.24 531.33C53.24 528.72 54.032 527.73 55.688 527.73L59 527.73L59 522.906L54.518 522.906C51.512 522.906 49.874 524.742 49.874 529.134C49.874 532.914 51.062 534.786 53.006 535.452L53.006 535.488L50.108 535.47L50.108 540.294L59 540.294ZM49.136 521.271L49.136 516.447L46.58 516.447L46.58 521.271L49.136 521.271ZM59 521.271L59 516.447L50.108 516.447L50.108 521.271L59 521.271Z" fill="white"/>
<rect x="22" y="189" width="64" height="4" fill="#092135"/>
<path d="M0 15C0 8.37258 5.37258 3 12 3H96C102.627 3 108 8.37258 108 15V189H0V15Z" fill="#CA8A7D"/>
<path opacity="0.3" d="M0 15C0 8.37258 5.37258 3 12 3H22V189H0V15Z" fill="#382E4D"/>
<path opacity="0.3" d="M22 3H86V9H22V3Z" fill="#382E4D"/>
<path opacity="0.4" d="M86 3H96C102.627 3 108 8.37258 108 15V189H86V3Z" fill="#58375B"/>
<path opacity="0.6" d="M22 9H38V189H22V9Z" fill="#F9C6BB"/>
<g style="mix-blend-mode:soft-light" opacity="0.4">
<path d="M30 4C30 1.79086 31.7909 0 34 0H74C76.2091 0 78 1.79086 78 4V124C78 126.209 76.2091 128 74 128H34C31.7909 128 30 126.209 30 124V4Z" fill="#1A2D3D"/>
</g>
<rect x="30" width="48" height="124" rx="4" fill="#1A2D3D"/>
<path opacity="0.6" d="M30 3H78V5H30V3Z" fill="#2A3C51"/>
<path opacity="0.2" d="M100 13C100 11.8954 100.895 11 102 11C103.105 11 104 11.8954 104 13V187C104 188.105 103.105 189 102 189C100.895 189 100 188.105 100 187V13Z" fill="#F9C6BB"/>
<path d="M59.198 102.178C59.198 98.452 58.208 96.31 56.246 95.716L56.246 95.68C57.29 95.68 58.37 95.716 59 95.734L59 90.91L50.108 90.91L50.108 95.734L52.934 95.734C54.932 95.734 55.832 97.588 55.832 100.054C55.832 102.772 55.13 103.456 53.51 103.456L50.108 103.456L50.108 108.28L54.86 108.28C57.524 108.28 59.198 106.39 59.198 102.178ZM59 89.2939L59 84.4699L56.048 84.4699C54.158 84.4699 53.24 82.7419 53.24 80.3299C53.24 77.7199 54.032 76.7299 55.688 76.7299L59 76.7299L59 71.9059L54.518 71.9059C51.512 71.9059 49.874 73.7419 49.874 78.1339C49.874 81.9139 51.062 83.7859 53.006 84.4519L53.006 84.4879L50.108 84.4699L50.108 89.2939L59 89.2939ZM49.136 70.271L49.136 65.447L46.58 65.447L46.58 70.271L49.136 70.271ZM59 70.271L59 65.447L50.108 65.447L50.108 70.271L59 70.271Z" fill="white"/>
</svg>