<svg width="944" height="176" viewBox="0 0 944 176" fill="none" xmlns="http://www.w3.org/2000/svg">
<rect opacity="0.2" y="12" width="936" height="164" rx="16" fill="#041320"/>
<rect opacity="0.4" x="12" width="932" height="164" rx="8" fill="#041320"/>
<rect x="16" width="928" height="160" rx="4" fill="#D89F31"/>
<path d="M48 160V112" stroke="#B27C26" stroke-width="2" stroke-miterlimit="10"/>
<path d="M96 160V112" stroke="#B27C26" stroke-width="2" stroke-miterlimit="10"/>
<path d="M144 160V112" stroke="#B27C26" stroke-width="2" stroke-miterlimit="10"/>
<path d="M192 160V112" stroke="#B27C26" stroke-width="2" stroke-miterlimit="10"/>
<path d="M240 160V112" stroke="#B27C26" stroke-width="2" stroke-miterlimit="10"/>
<path d="M288 160V112" stroke="#B27C26" stroke-width="2" stroke-miterlimit="10"/>
<path d="M336 160V112" stroke="#B27C26" stroke-width="2" stroke-miterlimit="10"/>
<path d="M384 160V112" stroke="#B27C26" stroke-width="2" stroke-miterlimit="10"/>
<path d="M432 160V112" stroke="#B27C26" stroke-width="2" stroke-miterlimit="10"/>
<path d="M480 160V112" stroke="#B27C26" stroke-width="2" stroke-miterlimit="10"/>
<path d="M528 160V112" stroke="#B27C26" stroke-width="2" stroke-miterlimit="10"/>
<path d="M576 160V112" stroke="#B27C26" stroke-width="2" stroke-miterlimit="10"/>
<path d="M624 160V112" stroke="#B27C26" stroke-width="2" stroke-miterlimit="10"/>
<path d="M672 160V112" stroke="#B27C26" stroke-width="2" stroke-miterlimit="10"/>
<path d="M720 160V112" stroke="#B27C26" stroke-width="2" stroke-miterlimit="10"/>
<path d="M768 160V112" stroke="#B27C26" stroke-width="2" stroke-miterlimit="10"/>
<path d="M816 160V112" stroke="#B27C26" stroke-width="2" stroke-miterlimit="10"/>
<path d="M864 160V112" stroke="#B27C26" stroke-width="2" stroke-miterlimit="10"/>
<path d="M912 160V112" stroke="#B27C26" stroke-width="2" stroke-miterlimit="10"/>
<path d="M72 160V128" stroke="#B27C26" stroke-width="2" stroke-miterlimit="10"/>
<path d="M96 160V128" stroke="#B27C26" stroke-width="2" stroke-miterlimit="10"/>
<path d="M120 160V128" stroke="#B27C26" stroke-width="2" stroke-miterlimit="10"/>
<path d="M144 160V128" stroke="#B27C26" stroke-width="2" stroke-miterlimit="10"/>
<path d="M168 160V128" stroke="#B27C26" stroke-width="2" stroke-miterlimit="10"/>
<path d="M192 160V128" stroke="#B27C26" stroke-width="2" stroke-miterlimit="10"/>
<path d="M216 160V128" stroke="#B27C26" stroke-width="2" stroke-miterlimit="10"/>
<path d="M240 160V128" stroke="#B27C26" stroke-width="2" stroke-miterlimit="10"/>
<path d="M264 160V128" stroke="#B27C26" stroke-width="2" stroke-miterlimit="10"/>
<path d="M288 160V128" stroke="#B27C26" stroke-width="2" stroke-miterlimit="10"/>
<path d="M312 160V128" stroke="#B27C26" stroke-width="2" stroke-miterlimit="10"/>
<path d="M336 160V128" stroke="#B27C26" stroke-width="2" stroke-miterlimit="10"/>
<path d="M360 160V128" stroke="#B27C26" stroke-width="2" stroke-miterlimit="10"/>
<path d="M384 160V128" stroke="#B27C26" stroke-width="2" stroke-miterlimit="10"/>
<path d="M408 160V128" stroke="#B27C26" stroke-width="2" stroke-miterlimit="10"/>
<path d="M432 160V128" stroke="#B27C26" stroke-width="2" stroke-miterlimit="10"/>
<path d="M456 160V128" stroke="#B27C26" stroke-width="2" stroke-miterlimit="10"/>
<path d="M480 160V128" stroke="#B27C26" stroke-width="2" stroke-miterlimit="10"/>
<path d="M504 160V128" stroke="#B27C26" stroke-width="2" stroke-miterlimit="10"/>
<path d="M528 160V128" stroke="#B27C26" stroke-width="2" stroke-miterlimit="10"/>
<path d="M552 160V128" stroke="#B27C26" stroke-width="2" stroke-miterlimit="10"/>
<path d="M576 160V128" stroke="#B27C26" stroke-width="2" stroke-miterlimit="10"/>
<path d="M600 160V128" stroke="#B27C26" stroke-width="2" stroke-miterlimit="10"/>
<path d="M624 160V128" stroke="#B27C26" stroke-width="2" stroke-miterlimit="10"/>
<path d="M648 160V128" stroke="#B27C26" stroke-width="2" stroke-miterlimit="10"/>
<path d="M672 160V128" stroke="#B27C26" stroke-width="2" stroke-miterlimit="10"/>
<path d="M696 160V128" stroke="#B27C26" stroke-width="2" stroke-miterlimit="10"/>
<path d="M720 160V128" stroke="#B27C26" stroke-width="2" stroke-miterlimit="10"/>
<path d="M744 160V128" stroke="#B27C26" stroke-width="2" stroke-miterlimit="10"/>
<path d="M768 160V128" stroke="#B27C26" stroke-width="2" stroke-miterlimit="10"/>
<path d="M792 160V128" stroke="#B27C26" stroke-width="2" stroke-miterlimit="10"/>
<path d="M816 160V128" stroke="#B27C26" stroke-width="2" stroke-miterlimit="10"/>
<path d="M840 160V128" stroke="#B27C26" stroke-width="2" stroke-miterlimit="10"/>
<path d="M864 160V128" stroke="#B27C26" stroke-width="2" stroke-miterlimit="10"/>
<path d="M888 160V128" stroke="#B27C26" stroke-width="2" stroke-miterlimit="10"/>
<path d="M48 160V144.22" stroke="#B27C26" stroke-width="2" stroke-miterlimit="10"/>
<path d="M56 160V144.22" stroke="#B27C26" stroke-width="2" stroke-miterlimit="10"/>
<path d="M64 160V144.22" stroke="#B27C26" stroke-width="2" stroke-miterlimit="10"/>
<path d="M72 160V144.22" stroke="#B27C26" stroke-width="2" stroke-miterlimit="10"/>
<path d="M80 160V144.21" stroke="#B27C26" stroke-width="2" stroke-miterlimit="10"/>
<path d="M88 160V144.21" stroke="#B27C26" stroke-width="2" stroke-miterlimit="10"/>
<path d="M96 160V144.21" stroke="#B27C26" stroke-width="2" stroke-miterlimit="10"/>
<path d="M104 160V144.21" stroke="#B27C26" stroke-width="2" stroke-miterlimit="10"/>
<path d="M112 160V144.21" stroke="#B27C26" stroke-width="2" stroke-miterlimit="10"/>
<path d="M120 160V144.2" stroke="#B27C26" stroke-width="2" stroke-miterlimit="10"/>
<path d="M128 160V144.2" stroke="#B27C26" stroke-width="2" stroke-miterlimit="10"/>
<path d="M136 160V144.2" stroke="#B27C26" stroke-width="2" stroke-miterlimit="10"/>
<path d="M144 160V144.2" stroke="#B27C26" stroke-width="2" stroke-miterlimit="10"/>
<path d="M152 160V144.2" stroke="#B27C26" stroke-width="2" stroke-miterlimit="10"/>
<path d="M160 160V144.19" stroke="#B27C26" stroke-width="2" stroke-miterlimit="10"/>
<path d="M168 160V144.19" stroke="#B27C26" stroke-width="2" stroke-miterlimit="10"/>
<path d="M176 160V144.19" stroke="#B27C26" stroke-width="2" stroke-miterlimit="10"/>
<path d="M184 160V144.19" stroke="#B27C26" stroke-width="2" stroke-miterlimit="10"/>
<path d="M192 160V144.18" stroke="#B27C26" stroke-width="2" stroke-miterlimit="10"/>
<path d="M200 160V144.18" stroke="#B27C26" stroke-width="2" stroke-miterlimit="10"/>
<path d="M208 160V144.18" stroke="#B27C26" stroke-width="2" stroke-miterlimit="10"/>
<path d="M216 160V144.18" stroke="#B27C26" stroke-width="2" stroke-miterlimit="10"/>
<path d="M224 160V144.18" stroke="#B27C26" stroke-width="2" stroke-miterlimit="10"/>
<path d="M232 160V144.17" stroke="#B27C26" stroke-width="2" stroke-miterlimit="10"/>
<path d="M240 160V144.17" stroke="#B27C26" stroke-width="2" stroke-miterlimit="10"/>
<path d="M248 160V144.17" stroke="#B27C26" stroke-width="2" stroke-miterlimit="10"/>
<path d="M256 160V144.17" stroke="#B27C26" stroke-width="2" stroke-miterlimit="10"/>
<path d="M264 160V144.17" stroke="#B27C26" stroke-width="2" stroke-miterlimit="10"/>
<path d="M272 160V144.16" stroke="#B27C26" stroke-width="2" stroke-miterlimit="10"/>
<path d="M280 160V144.16" stroke="#B27C26" stroke-width="2" stroke-miterlimit="10"/>
<path d="M288 160V144.16" stroke="#B27C26" stroke-width="2" stroke-miterlimit="10"/>
<path d="M296 160V144.16" stroke="#B27C26" stroke-width="2" stroke-miterlimit="10"/>
<path d="M304 160V144.16" stroke="#B27C26" stroke-width="2" stroke-miterlimit="10"/>
<path d="M312 160V144.15" stroke="#B27C26" stroke-width="2" stroke-miterlimit="10"/>
<path d="M320 160V144.15" stroke="#B27C26" stroke-width="2" stroke-miterlimit="10"/>
<path d="M328 160V144.15" stroke="#B27C26" stroke-width="2" stroke-miterlimit="10"/>
<path d="M336 160V144.15" stroke="#B27C26" stroke-width="2" stroke-miterlimit="10"/>
<path d="M344 160V144.15" stroke="#B27C26" stroke-width="2" stroke-miterlimit="10"/>
<path d="M352 160V144.14" stroke="#B27C26" stroke-width="2" stroke-miterlimit="10"/>
<path d="M360 160V144.14" stroke="#B27C26" stroke-width="2" stroke-miterlimit="10"/>
<path d="M368 160V144.14" stroke="#B27C26" stroke-width="2" stroke-miterlimit="10"/>
<path d="M376 160V144.14" stroke="#B27C26" stroke-width="2" stroke-miterlimit="10"/>
<path d="M384 160V144.14" stroke="#B27C26" stroke-width="2" stroke-miterlimit="10"/>
<path d="M392 160V144.13" stroke="#B27C26" stroke-width="2" stroke-miterlimit="10"/>
<path d="M400 160V144.13" stroke="#B27C26" stroke-width="2" stroke-miterlimit="10"/>
<path d="M408 160V144.13" stroke="#B27C26" stroke-width="2" stroke-miterlimit="10"/>
<path d="M416 160V144.13" stroke="#B27C26" stroke-width="2" stroke-miterlimit="10"/>
<path d="M424 160V144.12" stroke="#B27C26" stroke-width="2" stroke-miterlimit="10"/>
<path d="M432 160V144.12" stroke="#B27C26" stroke-width="2" stroke-miterlimit="10"/>
<path d="M440 160V144.12" stroke="#B27C26" stroke-width="2" stroke-miterlimit="10"/>
<path d="M448 160V144.12" stroke="#B27C26" stroke-width="2" stroke-miterlimit="10"/>
<path d="M456 160V144.12" stroke="#B27C26" stroke-width="2" stroke-miterlimit="10"/>
<path d="M464 160V144.11" stroke="#B27C26" stroke-width="2" stroke-miterlimit="10"/>
<path d="M472 160V144.11" stroke="#B27C26" stroke-width="2" stroke-miterlimit="10"/>
<path d="M480 160V144.11" stroke="#B27C26" stroke-width="2" stroke-miterlimit="10"/>
<path d="M488 160V144.11" stroke="#B27C26" stroke-width="2" stroke-miterlimit="10"/>
<path d="M496 160V144.11" stroke="#B27C26" stroke-width="2" stroke-miterlimit="10"/>
<path d="M504 160V144.1" stroke="#B27C26" stroke-width="2" stroke-miterlimit="10"/>
<path d="M512 160V144.1" stroke="#B27C26" stroke-width="2" stroke-miterlimit="10"/>
<path d="M520 160V144.1" stroke="#B27C26" stroke-width="2" stroke-miterlimit="10"/>
<path d="M528 160V144.1" stroke="#B27C26" stroke-width="2" stroke-miterlimit="10"/>
<path d="M536 160V144.1" stroke="#B27C26" stroke-width="2" stroke-miterlimit="10"/>
<path d="M544 160V144.09" stroke="#B27C26" stroke-width="2" stroke-miterlimit="10"/>
<path d="M552 160V144.09" stroke="#B27C26" stroke-width="2" stroke-miterlimit="10"/>
<path d="M560 160V144.09" stroke="#B27C26" stroke-width="2" stroke-miterlimit="10"/>
<path d="M568 160V144.09" stroke="#B27C26" stroke-width="2" stroke-miterlimit="10"/>
<path d="M576 160V144.09" stroke="#B27C26" stroke-width="2" stroke-miterlimit="10"/>
<path d="M584 160V144.08" stroke="#B27C26" stroke-width="2" stroke-miterlimit="10"/>
<path d="M592 160V144.08" stroke="#B27C26" stroke-width="2" stroke-miterlimit="10"/>
<path d="M600 160V144.08" stroke="#B27C26" stroke-width="2" stroke-miterlimit="10"/>
<path d="M608 160V144.08" stroke="#B27C26" stroke-width="2" stroke-miterlimit="10"/>
<path d="M616 160V144.07" stroke="#B27C26" stroke-width="2" stroke-miterlimit="10"/>
<path d="M624 160V144.07" stroke="#B27C26" stroke-width="2" stroke-miterlimit="10"/>
<path d="M632 160V144.07" stroke="#B27C26" stroke-width="2" stroke-miterlimit="10"/>
<path d="M640 160V144.07" stroke="#B27C26" stroke-width="2" stroke-miterlimit="10"/>
<path d="M648 160V144.07" stroke="#B27C26" stroke-width="2" stroke-miterlimit="10"/>
<path d="M656 160V144.06" stroke="#B27C26" stroke-width="2" stroke-miterlimit="10"/>
<path d="M664 160V144.06" stroke="#B27C26" stroke-width="2" stroke-miterlimit="10"/>
<path d="M672 160V144.06" stroke="#B27C26" stroke-width="2" stroke-miterlimit="10"/>
<path d="M680 160V144.06" stroke="#B27C26" stroke-width="2" stroke-miterlimit="10"/>
<path d="M688 160V144.06" stroke="#B27C26" stroke-width="2" stroke-miterlimit="10"/>
<path d="M696 160V144.05" stroke="#B27C26" stroke-width="2" stroke-miterlimit="10"/>
<path d="M704 160V144.05" stroke="#B27C26" stroke-width="2" stroke-miterlimit="10"/>
<path d="M712 160V144.05" stroke="#B27C26" stroke-width="2" stroke-miterlimit="10"/>
<path d="M720 160V144.05" stroke="#B27C26" stroke-width="2" stroke-miterlimit="10"/>
<path d="M728 160V144.05" stroke="#B27C26" stroke-width="2" stroke-miterlimit="10"/>
<path d="M736 160V144.04" stroke="#B27C26" stroke-width="2" stroke-miterlimit="10"/>
<path d="M744 160V144.04" stroke="#B27C26" stroke-width="2" stroke-miterlimit="10"/>
<path d="M752 160V144.04" stroke="#B27C26" stroke-width="2" stroke-miterlimit="10"/>
<path d="M760 160V144.04" stroke="#B27C26" stroke-width="2" stroke-miterlimit="10"/>
<path d="M768 160V144.04" stroke="#B27C26" stroke-width="2" stroke-miterlimit="10"/>
<path d="M776 160V144.03" stroke="#B27C26" stroke-width="2" stroke-miterlimit="10"/>
<path d="M784 160V144.03" stroke="#B27C26" stroke-width="2" stroke-miterlimit="10"/>
<path d="M792 160V144.03" stroke="#B27C26" stroke-width="2" stroke-miterlimit="10"/>
<path d="M800 160V144.03" stroke="#B27C26" stroke-width="2" stroke-miterlimit="10"/>
<path d="M808 160V144.02" stroke="#B27C26" stroke-width="2" stroke-miterlimit="10"/>
<path d="M816 160V144.02" stroke="#B27C26" stroke-width="2" stroke-miterlimit="10"/>
<path d="M824 160V144.02" stroke="#B27C26" stroke-width="2" stroke-miterlimit="10"/>
<path d="M832 160V144.02" stroke="#B27C26" stroke-width="2" stroke-miterlimit="10"/>
<path d="M840 160V144.02" stroke="#B27C26" stroke-width="2" stroke-miterlimit="10"/>
<path d="M848 160V144.01" stroke="#B27C26" stroke-width="2" stroke-miterlimit="10"/>
<path d="M856 160V144.01" stroke="#B27C26" stroke-width="2" stroke-miterlimit="10"/>
<path d="M864 160V144.01" stroke="#B27C26" stroke-width="2" stroke-miterlimit="10"/>
<path d="M872 160V144.01" stroke="#B27C26" stroke-width="2" stroke-miterlimit="10"/>
<path d="M880 160V144.01" stroke="#B27C26" stroke-width="2" stroke-miterlimit="10"/>
<path d="M888 160V144" stroke="#B27C26" stroke-width="2" stroke-miterlimit="10"/>
<path d="M896 160V144" stroke="#B27C26" stroke-width="2" stroke-miterlimit="10"/>
<path d="M904 160V144" stroke="#B27C26" stroke-width="2" stroke-miterlimit="10"/>
<path d="M48 0V48" stroke="#B27C26" stroke-width="2" stroke-miterlimit="10"/>
<path d="M96 0V48" stroke="#B27C26" stroke-width="2" stroke-miterlimit="10"/>
<path d="M144 0V48" stroke="#B27C26" stroke-width="2" stroke-miterlimit="10"/>
<path d="M192 0V48" stroke="#B27C26" stroke-width="2" stroke-miterlimit="10"/>
<path d="M240 0V48" stroke="#B27C26" stroke-width="2" stroke-miterlimit="10"/>
<path d="M288 0V48" stroke="#B27C26" stroke-width="2" stroke-miterlimit="10"/>
<path d="M336 0V48" stroke="#B27C26" stroke-width="2" stroke-miterlimit="10"/>
<path d="M384 0V48" stroke="#B27C26" stroke-width="2" stroke-miterlimit="10"/>
<path d="M432 0V48" stroke="#B27C26" stroke-width="2" stroke-miterlimit="10"/>
<path d="M480 0V48" stroke="#B27C26" stroke-width="2" stroke-miterlimit="10"/>
<path d="M528 0V48" stroke="#B27C26" stroke-width="2" stroke-miterlimit="10"/>
<path d="M576 0V48" stroke="#B27C26" stroke-width="2" stroke-miterlimit="10"/>
<path d="M624 0V48" stroke="#B27C26" stroke-width="2" stroke-miterlimit="10"/>
<path d="M672 0V48" stroke="#B27C26" stroke-width="2" stroke-miterlimit="10"/>
<path d="M720 0V48" stroke="#B27C26" stroke-width="2" stroke-miterlimit="10"/>
<path d="M768 0V48" stroke="#B27C26" stroke-width="2" stroke-miterlimit="10"/>
<path d="M816 0V48" stroke="#B27C26" stroke-width="2" stroke-miterlimit="10"/>
<path d="M864 0V48" stroke="#B27C26" stroke-width="2" stroke-miterlimit="10"/>
<path d="M912 0V48" stroke="#B27C26" stroke-width="2" stroke-miterlimit="10"/>
<path d="M72 0V32" stroke="#B27C26" stroke-width="2" stroke-miterlimit="10"/>
<path d="M96 0V32" stroke="#B27C26" stroke-width="2" stroke-miterlimit="10"/>
<path d="M120 0V32" stroke="#B27C26" stroke-width="2" stroke-miterlimit="10"/>
<path d="M144 0V32" stroke="#B27C26" stroke-width="2" stroke-miterlimit="10"/>
<path d="M168 0V32" stroke="#B27C26" stroke-width="2" stroke-miterlimit="10"/>
<path d="M192 0V32" stroke="#B27C26" stroke-width="2" stroke-miterlimit="10"/>
<path d="M216 0V32" stroke="#B27C26" stroke-width="2" stroke-miterlimit="10"/>
<path d="M240 0V32" stroke="#B27C26" stroke-width="2" stroke-miterlimit="10"/>
<path d="M264 0V32" stroke="#B27C26" stroke-width="2" stroke-miterlimit="10"/>
<path d="M288 0V32" stroke="#B27C26" stroke-width="2" stroke-miterlimit="10"/>
<path d="M312 0V32" stroke="#B27C26" stroke-width="2" stroke-miterlimit="10"/>
<path d="M336 0V32" stroke="#B27C26" stroke-width="2" stroke-miterlimit="10"/>
<path d="M360 0V32" stroke="#B27C26" stroke-width="2" stroke-miterlimit="10"/>
<path d="M384 0V32" stroke="#B27C26" stroke-width="2" stroke-miterlimit="10"/>
<path d="M408 0V32" stroke="#B27C26" stroke-width="2" stroke-miterlimit="10"/>
<path d="M432 0V32" stroke="#B27C26" stroke-width="2" stroke-miterlimit="10"/>
<path d="M456 0V32" stroke="#B27C26" stroke-width="2" stroke-miterlimit="10"/>
<path d="M480 0V32" stroke="#B27C26" stroke-width="2" stroke-miterlimit="10"/>
<path d="M504 0V32" stroke="#B27C26" stroke-width="2" stroke-miterlimit="10"/>
<path d="M528 0V32" stroke="#B27C26" stroke-width="2" stroke-miterlimit="10"/>
<path d="M552 0V32" stroke="#B27C26" stroke-width="2" stroke-miterlimit="10"/>
<path d="M576 0V32" stroke="#B27C26" stroke-width="2" stroke-miterlimit="10"/>
<path d="M600 0V32" stroke="#B27C26" stroke-width="2" stroke-miterlimit="10"/>
<path d="M624 0V32" stroke="#B27C26" stroke-width="2" stroke-miterlimit="10"/>
<path d="M648 0V32" stroke="#B27C26" stroke-width="2" stroke-miterlimit="10"/>
<path d="M672 0V32" stroke="#B27C26" stroke-width="2" stroke-miterlimit="10"/>
<path d="M696 0V32" stroke="#B27C26" stroke-width="2" stroke-miterlimit="10"/>
<path d="M720 0V32" stroke="#B27C26" stroke-width="2" stroke-miterlimit="10"/>
<path d="M744 0V32" stroke="#B27C26" stroke-width="2" stroke-miterlimit="10"/>
<path d="M768 0V32" stroke="#B27C26" stroke-width="2" stroke-miterlimit="10"/>
<path d="M792 0V32" stroke="#B27C26" stroke-width="2" stroke-miterlimit="10"/>
<path d="M816 0V32" stroke="#B27C26" stroke-width="2" stroke-miterlimit="10"/>
<path d="M840 0V32" stroke="#B27C26" stroke-width="2" stroke-miterlimit="10"/>
<path d="M864 0V32" stroke="#B27C26" stroke-width="2" stroke-miterlimit="10"/>
<path d="M888 0V32" stroke="#B27C26" stroke-width="2" stroke-miterlimit="10"/>
<path d="M48 0V15.78" stroke="#B27C26" stroke-width="2" stroke-miterlimit="10"/>
<path d="M56 0V15.78" stroke="#B27C26" stroke-width="2" stroke-miterlimit="10"/>
<path d="M64 0V15.78" stroke="#B27C26" stroke-width="2" stroke-miterlimit="10"/>
<path d="M72 0V15.78" stroke="#B27C26" stroke-width="2" stroke-miterlimit="10"/>
<path d="M80 0V15.79" stroke="#B27C26" stroke-width="2" stroke-miterlimit="10"/>
<path d="M88 0V15.79" stroke="#B27C26" stroke-width="2" stroke-miterlimit="10"/>
<path d="M96 0V15.79" stroke="#B27C26" stroke-width="2" stroke-miterlimit="10"/>
<path d="M104 0V15.79" stroke="#B27C26" stroke-width="2" stroke-miterlimit="10"/>
<path d="M112 0V15.79" stroke="#B27C26" stroke-width="2" stroke-miterlimit="10"/>
<path d="M120 0V15.8" stroke="#B27C26" stroke-width="2" stroke-miterlimit="10"/>
<path d="M128 0V15.8" stroke="#B27C26" stroke-width="2" stroke-miterlimit="10"/>
<path d="M136 0V15.8" stroke="#B27C26" stroke-width="2" stroke-miterlimit="10"/>
<path d="M144 0V15.8" stroke="#B27C26" stroke-width="2" stroke-miterlimit="10"/>
<path d="M152 0V15.8" stroke="#B27C26" stroke-width="2" stroke-miterlimit="10"/>
<path d="M160 0V15.81" stroke="#B27C26" stroke-width="2" stroke-miterlimit="10"/>
<path d="M168 0V15.81" stroke="#B27C26" stroke-width="2" stroke-miterlimit="10"/>
<path d="M176 0V15.81" stroke="#B27C26" stroke-width="2" stroke-miterlimit="10"/>
<path d="M184 0V15.81" stroke="#B27C26" stroke-width="2" stroke-miterlimit="10"/>
<path d="M192 0V15.82" stroke="#B27C26" stroke-width="2" stroke-miterlimit="10"/>
<path d="M200 0V15.82" stroke="#B27C26" stroke-width="2" stroke-miterlimit="10"/>
<path d="M208 0V15.82" stroke="#B27C26" stroke-width="2" stroke-miterlimit="10"/>
<path d="M216 0V15.82" stroke="#B27C26" stroke-width="2" stroke-miterlimit="10"/>
<path d="M224 0V15.82" stroke="#B27C26" stroke-width="2" stroke-miterlimit="10"/>
<path d="M232 0V15.83" stroke="#B27C26" stroke-width="2" stroke-miterlimit="10"/>
<path d="M240 0V15.83" stroke="#B27C26" stroke-width="2" stroke-miterlimit="10"/>
<path d="M248 0V15.83" stroke="#B27C26" stroke-width="2" stroke-miterlimit="10"/>
<path d="M256 0V15.83" stroke="#B27C26" stroke-width="2" stroke-miterlimit="10"/>
<path d="M264 0V15.83" stroke="#B27C26" stroke-width="2" stroke-miterlimit="10"/>
<path d="M272 0V15.84" stroke="#B27C26" stroke-width="2" stroke-miterlimit="10"/>
<path d="M280 0V15.84" stroke="#B27C26" stroke-width="2" stroke-miterlimit="10"/>
<path d="M288 0V15.84" stroke="#B27C26" stroke-width="2" stroke-miterlimit="10"/>
<path d="M296 0V15.84" stroke="#B27C26" stroke-width="2" stroke-miterlimit="10"/>
<path d="M304 0V15.84" stroke="#B27C26" stroke-width="2" stroke-miterlimit="10"/>
<path d="M312 0V15.85" stroke="#B27C26" stroke-width="2" stroke-miterlimit="10"/>
<path d="M320 0V15.85" stroke="#B27C26" stroke-width="2" stroke-miterlimit="10"/>
<path d="M328 0V15.85" stroke="#B27C26" stroke-width="2" stroke-miterlimit="10"/>
<path d="M336 0V15.85" stroke="#B27C26" stroke-width="2" stroke-miterlimit="10"/>
<path d="M344 0V15.85" stroke="#B27C26" stroke-width="2" stroke-miterlimit="10"/>
<path d="M352 0V15.86" stroke="#B27C26" stroke-width="2" stroke-miterlimit="10"/>
<path d="M360 0V15.86" stroke="#B27C26" stroke-width="2" stroke-miterlimit="10"/>
<path d="M368 0V15.86" stroke="#B27C26" stroke-width="2" stroke-miterlimit="10"/>
<path d="M376 0V15.86" stroke="#B27C26" stroke-width="2" stroke-miterlimit="10"/>
<path d="M384 0V15.86" stroke="#B27C26" stroke-width="2" stroke-miterlimit="10"/>
<path d="M392 0V15.87" stroke="#B27C26" stroke-width="2" stroke-miterlimit="10"/>
<path d="M400 0V15.87" stroke="#B27C26" stroke-width="2" stroke-miterlimit="10"/>
<path d="M408 0V15.87" stroke="#B27C26" stroke-width="2" stroke-miterlimit="10"/>
<path d="M416 0V15.87" stroke="#B27C26" stroke-width="2" stroke-miterlimit="10"/>
<path d="M424 0V15.88" stroke="#B27C26" stroke-width="2" stroke-miterlimit="10"/>
<path d="M432 0V15.88" stroke="#B27C26" stroke-width="2" stroke-miterlimit="10"/>
<path d="M440 0V15.88" stroke="#B27C26" stroke-width="2" stroke-miterlimit="10"/>
<path d="M448 0V15.88" stroke="#B27C26" stroke-width="2" stroke-miterlimit="10"/>
<path d="M456 0V15.88" stroke="#B27C26" stroke-width="2" stroke-miterlimit="10"/>
<path d="M464 0V15.89" stroke="#B27C26" stroke-width="2" stroke-miterlimit="10"/>
<path d="M472 0V15.89" stroke="#B27C26" stroke-width="2" stroke-miterlimit="10"/>
<path d="M480 0V15.89" stroke="#B27C26" stroke-width="2" stroke-miterlimit="10"/>
<path d="M488 0V15.89" stroke="#B27C26" stroke-width="2" stroke-miterlimit="10"/>
<path d="M496 0V15.89" stroke="#B27C26" stroke-width="2" stroke-miterlimit="10"/>
<path d="M504 0V15.9" stroke="#B27C26" stroke-width="2" stroke-miterlimit="10"/>
<path d="M512 0V15.9" stroke="#B27C26" stroke-width="2" stroke-miterlimit="10"/>
<path d="M520 0V15.9" stroke="#B27C26" stroke-width="2" stroke-miterlimit="10"/>
<path d="M528 0V15.9" stroke="#B27C26" stroke-width="2" stroke-miterlimit="10"/>
<path d="M536 0V15.9" stroke="#B27C26" stroke-width="2" stroke-miterlimit="10"/>
<path d="M544 0V15.91" stroke="#B27C26" stroke-width="2" stroke-miterlimit="10"/>
<path d="M552 0V15.91" stroke="#B27C26" stroke-width="2" stroke-miterlimit="10"/>
<path d="M560 0V15.91" stroke="#B27C26" stroke-width="2" stroke-miterlimit="10"/>
<path d="M568 0V15.91" stroke="#B27C26" stroke-width="2" stroke-miterlimit="10"/>
<path d="M576 0V15.91" stroke="#B27C26" stroke-width="2" stroke-miterlimit="10"/>
<path d="M584 0V15.92" stroke="#B27C26" stroke-width="2" stroke-miterlimit="10"/>
<path d="M592 0V15.92" stroke="#B27C26" stroke-width="2" stroke-miterlimit="10"/>
<path d="M600 0V15.92" stroke="#B27C26" stroke-width="2" stroke-miterlimit="10"/>
<path d="M608 0V15.92" stroke="#B27C26" stroke-width="2" stroke-miterlimit="10"/>
<path d="M616 0V15.93" stroke="#B27C26" stroke-width="2" stroke-miterlimit="10"/>
<path d="M624 0V15.93" stroke="#B27C26" stroke-width="2" stroke-miterlimit="10"/>
<path d="M632 0V15.93" stroke="#B27C26" stroke-width="2" stroke-miterlimit="10"/>
<path d="M640 0V15.93" stroke="#B27C26" stroke-width="2" stroke-miterlimit="10"/>
<path d="M648 0V15.93" stroke="#B27C26" stroke-width="2" stroke-miterlimit="10"/>
<path d="M656 0V15.94" stroke="#B27C26" stroke-width="2" stroke-miterlimit="10"/>
<path d="M664 0V15.94" stroke="#B27C26" stroke-width="2" stroke-miterlimit="10"/>
<path d="M672 0V15.94" stroke="#B27C26" stroke-width="2" stroke-miterlimit="10"/>
<path d="M680 0V15.94" stroke="#B27C26" stroke-width="2" stroke-miterlimit="10"/>
<path d="M688 0V15.94" stroke="#B27C26" stroke-width="2" stroke-miterlimit="10"/>
<path d="M696 0V15.95" stroke="#B27C26" stroke-width="2" stroke-miterlimit="10"/>
<path d="M704 0V15.95" stroke="#B27C26" stroke-width="2" stroke-miterlimit="10"/>
<path d="M712 0V15.95" stroke="#B27C26" stroke-width="2" stroke-miterlimit="10"/>
<path d="M720 0V15.95" stroke="#B27C26" stroke-width="2" stroke-miterlimit="10"/>
<path d="M728 0V15.95" stroke="#B27C26" stroke-width="2" stroke-miterlimit="10"/>
<path d="M736 0V15.96" stroke="#B27C26" stroke-width="2" stroke-miterlimit="10"/>
<path d="M744 0V15.96" stroke="#B27C26" stroke-width="2" stroke-miterlimit="10"/>
<path d="M752 0V15.96" stroke="#B27C26" stroke-width="2" stroke-miterlimit="10"/>
<path d="M760 0V15.96" stroke="#B27C26" stroke-width="2" stroke-miterlimit="10"/>
<path d="M768 0V15.96" stroke="#B27C26" stroke-width="2" stroke-miterlimit="10"/>
<path d="M776 0V15.97" stroke="#B27C26" stroke-width="2" stroke-miterlimit="10"/>
<path d="M784 0V15.97" stroke="#B27C26" stroke-width="2" stroke-miterlimit="10"/>
<path d="M792 0V15.97" stroke="#B27C26" stroke-width="2" stroke-miterlimit="10"/>
<path d="M800 0V15.97" stroke="#B27C26" stroke-width="2" stroke-miterlimit="10"/>
<path d="M808 0V15.98" stroke="#B27C26" stroke-width="2" stroke-miterlimit="10"/>
<path d="M816 0V15.98" stroke="#B27C26" stroke-width="2" stroke-miterlimit="10"/>
<path d="M824 0V15.98" stroke="#B27C26" stroke-width="2" stroke-miterlimit="10"/>
<path d="M832 0V15.98" stroke="#B27C26" stroke-width="2" stroke-miterlimit="10"/>
<path d="M840 0V15.98" stroke="#B27C26" stroke-width="2" stroke-miterlimit="10"/>
<path d="M848 0V15.99" stroke="#B27C26" stroke-width="2" stroke-miterlimit="10"/>
<path d="M856 0V15.99" stroke="#B27C26" stroke-width="2" stroke-miterlimit="10"/>
<path d="M864 0V15.99" stroke="#B27C26" stroke-width="2" stroke-miterlimit="10"/>
<path d="M872 0V15.99" stroke="#B27C26" stroke-width="2" stroke-miterlimit="10"/>
<path d="M880 0V15.99" stroke="#B27C26" stroke-width="2" stroke-miterlimit="10"/>
<path d="M888 0V16" stroke="#B27C26" stroke-width="2" stroke-miterlimit="10"/>
<path d="M896 0V16" stroke="#B27C26" stroke-width="2" stroke-miterlimit="10"/>
<path d="M904 0V16" stroke="#B27C26" stroke-width="2" stroke-miterlimit="10"/>
<path d="M16 152H944V156C944 158.209 942.209 160 940 160H20C17.7909 160 16 158.209 16 156V152Z" fill="#6E5C3C" fill-opacity="0.4"/>
<path d="M16 4C16 1.79086 17.7909 0 20 0H940C942.209 0 944 1.79086 944 4V8H16V4Z" fill="white" fill-opacity="0.1"/>
</svg>
