<svg xmlns="http://www.w3.org/2000/svg" width="944" height="176" fill="none" color-interpolation-filters="sRGB">
  <g class="fill-shadow">
    <path d="M920 12H16C7.163 12 0 19.163 0 28v132c0 8.837 7.163 16 16 16h904c8.837 0 16-7.163 16-16V28c0-8.837-7.163-16-16-16z" class="opacity-20"/>
    <path d="M936 8H20a8 8 0 00-8 8v140a8 8 0 008 8h916a8 8 0 008-8V16a8 8 0 00-8-8z" class="opacity-40"/>
  </g>
  <path fill="#D89F31" d="M940 160H20c-2.2 0-4-1.8-4-4V4c0-2.2 1.8-4 4-4h920c2.2 0 4 1.8 4 4v152c0 2.2-1.8 4-4 4z"/>
  <path stroke="#B27C26" stroke-miterlimit="10" stroke-width="2" d="M48 160v-48M96 160v-48M144 160v-48M192 160v-48M240 160v-48M288 160v-48M336 160v-48M384 160v-48M432 160v-48M480 160v-48M528 160v-48M576 160v-48M624 160v-48M672 160v-48M720 160v-48M768 160v-48M816 160v-48M864 160v-48M912 160v-48M72 160v-32M96 160v-32M120 160v-32M144 160v-32M168 160v-32M192 160v-32M216 160v-32M240 160v-32M264 160v-32M288 160v-32M312 160v-32M336 160v-32M360 160v-32M384 160v-32M408 160v-32M432 160v-32M456 160v-32M480 160v-32M504 160v-32M528 160v-32M552 160v-32M576 160v-32M600 160v-32M624 160v-32M648 160v-32M672 160v-32M696 160v-32M720 160v-32M744 160v-32M768 160v-32M792 160v-32M816 160v-32M840 160v-32M864 160v-32M888 160v-32M48 160v-15.78M56 160v-15.78M64 160v-15.78M72 160v-15.78M80 160v-15.79M88 160v-15.79M96 160v-15.79M104 160v-15.79M112 160v-15.79M120 160v-15.8M128 160v-15.8M136 160v-15.8M144 160v-15.8M152 160v-15.8M160 160v-15.81M168 160v-15.81M176 160v-15.81M184 160v-15.81M192 160v-15.82M200 160v-15.82M208 160v-15.82M216 160v-15.82M224 160v-15.82M232 160v-15.83M240 160v-15.83M248 160v-15.83M256 160v-15.83M264 160v-15.83M272 160v-15.84M280 160v-15.84M288 160v-15.84M296 160v-15.84M304 160v-15.84M312 160v-15.85M320 160v-15.85M328 160v-15.85M336 160v-15.85M344 160v-15.85M352 160v-15.86M360 160v-15.86M368 160v-15.86M376 160v-15.86M384 160v-15.86M392 160v-15.87M400 160v-15.87M408 160v-15.87M416 160v-15.87M424 160v-15.88M432 160v-15.88M440 160v-15.88M448 160v-15.88M456 160v-15.88M464 160v-15.89M472 160v-15.89M480 160v-15.89M488 160v-15.89M496 160v-15.89M504 160v-15.9M512 160v-15.9M520 160v-15.9M528 160v-15.9M536 160v-15.9M544 160v-15.91M552 160v-15.91M560 160v-15.91M568 160v-15.91M576 160v-15.91M584 160v-15.92M592 160v-15.92M600 160v-15.92M608 160v-15.92M616 160v-15.93M624 160v-15.93M632 160v-15.93M640 160v-15.93M648 160v-15.93M656 160v-15.94M664 160v-15.94M672 160v-15.94M680 160v-15.94M688 160v-15.94M696 160v-15.95M704 160v-15.95M712 160v-15.95M720 160v-15.95M728 160v-15.95M736 160v-15.96M744 160v-15.96M752 160v-15.96M760 160v-15.96M768 160v-15.96M776 160v-15.97M784 160v-15.97M792 160v-15.97M800 160v-15.97M808 160v-15.98M816 160v-15.98M824 160v-15.98M832 160v-15.98M840 160v-15.98M848 160v-15.99M856 160v-15.99M864 160v-15.99M872 160v-15.99M880 160v-15.99M888 160v-16M896 160v-16M904 160v-16M48 0v48M96 0v48M144 0v48M192 0v48M240 0v48M288 0v48M336 0v48M384 0v48M432 0v48M480 0v48M528 0v48M576 0v48M624 0v48M672 0v48M720 0v48M768 0v48M816 0v48M864 0v48M912 0v48M72 0v32M96 0v32M120 0v32M144 0v32M168 0v32M192 0v32M216 0v32M240 0v32M264 0v32M288 0v32M312 0v32M336 0v32M360 0v32M384 0v32M408 0v32M432 0v32M456 0v32M480 0v32M504 0v32M528 0v32M552 0v32M576 0v32M600 0v32M624 0v32M648 0v32M672 0v32M696 0v32M720 0v32M744 0v32M768 0v32M792 0v32M816 0v32M840 0v32M864 0v32M888 0v32M48 0v15.78M56 0v15.78M64 0v15.78M72 0v15.78M80 0v15.79M88 0v15.79M96 0v15.79M104 0v15.79M112 0v15.79M120 0v15.8M128 0v15.8M136 0v15.8M144 0v15.8M152 0v15.8M160 0v15.81M168 0v15.81M176 0v15.81M184 0v15.81M192 0v15.82M200 0v15.82M208 0v15.82M216 0v15.82M224 0v15.82M232 0v15.83M240 0v15.83M248 0v15.83M256 0v15.83M264 0v15.83M272 0v15.84M280 0v15.84M288 0v15.84M296 0v15.84M304 0v15.84M312 0v15.85M320 0v15.85M328 0v15.85M336 0v15.85M344 0v15.85M352 0v15.86M360 0v15.86M368 0v15.86M376 0v15.86M384 0v15.86M392 0v15.87M400 0v15.87M408 0v15.87M416 0v15.87M424 0v15.88M432 0v15.88M440 0v15.88M448 0v15.88M456 0v15.88M464 0v15.89M472 0v15.89M480 0v15.89M488 0v15.89M496 0v15.89M504 0v15.9M512 0v15.9M520 0v15.9M528 0v15.9M536 0v15.9M544 0v15.91M552 0v15.91M560 0v15.91M568 0v15.91M576 0v15.91M584 0v15.92M592 0v15.92M600 0v15.92M608 0v15.92M616 0v15.93M624 0v15.93M632 0v15.93M640 0v15.93M648 0v15.93M656 0v15.94M664 0v15.94M672 0v15.94M680 0v15.94M688 0v15.94M696 0v15.95M704 0v15.95M712 0v15.95M720 0v15.95M728 0v15.95M736 0v15.96M744 0v15.96M752 0v15.96M760 0v15.96M768 0v15.96M776 0v15.97M784 0v15.97M792 0v15.97M800 0v15.97M808 0v15.98M816 0v15.98M824 0v15.98M832 0v15.98M840 0v15.98M848 0v15.99M856 0v15.99M864 0v15.99M872 0v15.99M880 0v15.99M888 0v16M896 0v16M904 0v16"/>
  <path fill="#6E5C3C" d="M940 160H20c-2.21 0-4-1.79-4-4v-4h928v4c0 2.21-1.79 4-4 4z" opacity=".4"/>
  <path fill="#fff" d="M944 0H16v8.89h928V0z" opacity=".1"/>
</svg>