<svg xmlns="http://www.w3.org/2000/svg" width="188" height="192" fill="none" color-interpolation-filters="sRGB">
  <g class="fill-shadow">
    <circle cx="98" cy="102" r="90" class="opacity-20"/>
    <circle cx="90" cy="90" r="90" class="opacity-40"/>
  </g>
  <circle cx="88" cy="88" r="84" fill="#7DB8CA" stroke="#F4ECEB" stroke-miterlimit="10" stroke-width="8"/>
  <path stroke="#CAD4BF" stroke-linecap="round" stroke-linejoin="round" stroke-miterlimit="10" stroke-width="8" d="M172 88c0 46.392-37.608 84-84 84S4 134.392 4 88"/>
  <circle cx="88" cy="88" r="77" fill="#7DB8CA" stroke="#2A3C51" stroke-miterlimit="10" stroke-width="8"/>
  <path stroke="#F4ECEB" stroke-linecap="round" stroke-linejoin="round" stroke-miterlimit="10" stroke-width="8" d="M45 130.25L88.25 87"/>
  <path stroke="#DC77A8" stroke-linecap="round" stroke-linejoin="round" stroke-width="8" d="M88 87.25L131.25 44"/>
  <g stroke="#F4ECEB" stroke-linecap="round" stroke-linejoin="round" stroke-width="2">
    <path d="M88 23v14M88 139v14M152 89h-14M36 89H22M132.255 134.669l-9.9-9.899M50.23 52.645l-9.899-9.9M142.792 121.366l-5.196-3M35.405 59.366l-5.196-3M149.527 105.789l-5.796-1.553M29.752 73.696l-5.796-1.553M150.044 72.143l-5.795 1.553M30.27 104.236l-5.796 1.553M143.792 56.366l-5.196 3M36.404 118.366l-5.196 3M120.366 32.208l-3 5.196M58.366 139.596l-3 5.196M104.789 25.474l-1.553 5.795M72.695 145.249l-1.553 5.795M71.143 24.956l1.553 5.796M103.236 144.731l1.553 5.796M55.366 31.208l3 5.196M117.366 138.596l3 5.196"/>
  </g>
</svg>