<svg width="188" height="192" viewBox="0 0 188 192" fill="none" xmlns="http://www.w3.org/2000/svg" color-interpolation-filters="sRGB">
<g class="fill-shadow">
<circle cx="98" cy="102" r="90" class="opacity-20"/>
<circle cx="90" cy="90" r="90" class="opacity-40"/>
</g>
<circle cx="88" cy="88" r="84" fill="#7DB8CA" stroke="#F4ECEB" stroke-width="8" stroke-miterlimit="10"/>
<path d="M172 88C172 134.392 134.392 172 88 172C41.6081 172 4 134.392 4 88" stroke="#CAD4BF" stroke-width="8" stroke-miterlimit="10" stroke-linecap="round" stroke-linejoin="round"/>
<circle cx="88" cy="88" r="77" fill="#7DB8CA" stroke="#2A3C51" stroke-width="8" stroke-miterlimit="10"/>
<path d="M45 130.25L88.25 87" stroke="#F4ECEB" stroke-width="8" stroke-miterlimit="10" stroke-linecap="round" stroke-linejoin="round"/>
<path d="M88 87.25L131.25 44" stroke="#DC77A8" stroke-width="8" stroke-linecap="round" stroke-linejoin="round"/>
<g stroke="#F4ECEB" stroke-width="2" stroke-linecap="round" stroke-linejoin="round">
<line x1="88" y1="23" x2="88" y2="37"/>
<line x1="88" y1="139" x2="88" y2="153"/>
<line x1="152" y1="89" x2="138" y2="89"/>
<line x1="36" y1="89" x2="22" y2="89"/>
<line x1="132.255" y1="134.669" x2="122.355" y2="124.77"/>
<line x1="50.2303" y1="52.6447" x2="40.3308" y2="42.7452"/>
<line x1="142.792" y1="121.366" x2="137.596" y2="118.366"/>
<line x1="35.405" y1="59.366" x2="30.2088" y2="56.366"/>
<line x1="149.527" y1="105.789" x2="143.731" y2="104.236"/>
<line x1="29.7518" y1="73.6956" x2="23.9563" y2="72.1427"/>
<line x1="150.044" y1="72.1427" x2="144.249" y2="73.6956"/>
<line x1="30.2695" y1="104.236" x2="24.4739" y2="105.789"/>
<line x1="143.792" y1="56.3661" x2="138.596" y2="59.3661"/>
<line x1="36.4045" y1="118.366" x2="31.2083" y2="121.366"/>
<line x1="120.366" y1="32.2083" x2="117.366" y2="37.4045"/>
<line x1="58.366" y1="139.596" x2="55.366" y2="144.792"/>
<line x1="104.789" y1="25.4736" x2="103.236" y2="31.2692"/>
<line x1="72.6954" y1="145.249" x2="71.1425" y2="151.044"/>
<line x1="71.1427" y1="24.956" x2="72.6956" y2="30.7516"/>
<line x1="103.236" y1="144.731" x2="104.789" y2="150.527"/>
<line x1="55.366" y1="31.2083" x2="58.366" y2="36.4045"/>
<line x1="117.366" y1="138.596" x2="120.366" y2="143.792"/>
</g>
</svg>
