<svg width="196" height="196" viewBox="0 0 196 196" fill="none" xmlns="http://www.w3.org/2000/svg">
<circle opacity="0.2" cx="102" cy="102" r="94" fill="#041320"/>
<g style="mix-blend-mode:soft-light" opacity="0.4">
<circle cx="91" cy="91" r="91" fill="#041320"/>
</g>
<circle cx="88" cy="88" r="84" fill="#7DB8CA" stroke="#F4ECEB" stroke-width="8" stroke-miterlimit="10"/>
<path d="M172 88C172 134.392 134.392 172 88 172C41.6081 172 4 134.392 4 88" stroke="#CAD4BF" stroke-width="8" stroke-miterlimit="10" stroke-linecap="round" stroke-linejoin="round"/>
<circle cx="88" cy="88" r="77" fill="#7DB8CA" stroke="#2A3C51" stroke-width="8" stroke-miterlimit="10"/>
<path d="M45 130.25L88.25 87" stroke="#F4ECEB" stroke-width="8" stroke-miterlimit="10" stroke-linecap="round" stroke-linejoin="round"/>
<path d="M88 87.25L131.25 44" stroke="#DC77A8" stroke-width="8" stroke-linecap="round" stroke-linejoin="round"/>
<line x1="88" y1="23" x2="88" y2="37" stroke="#F4ECEB" stroke-width="2" stroke-linecap="round" stroke-linejoin="round"/>
<line x1="88" y1="139" x2="88" y2="153" stroke="#F4ECEB" stroke-width="2" stroke-linecap="round" stroke-linejoin="round"/>
<line x1="152" y1="89" x2="138" y2="89" stroke="#F4ECEB" stroke-width="2" stroke-linecap="round" stroke-linejoin="round"/>
<line x1="36" y1="89" x2="22" y2="89" stroke="#F4ECEB" stroke-width="2" stroke-linecap="round" stroke-linejoin="round"/>
<line x1="132.255" y1="134.669" x2="122.355" y2="124.77" stroke="#F4ECEB" stroke-width="2" stroke-linecap="round" stroke-linejoin="round"/>
<line x1="50.2306" y1="52.6447" x2="40.3311" y2="42.7452" stroke="#F4ECEB" stroke-width="2" stroke-linecap="round" stroke-linejoin="round"/>
<line x1="142.792" y1="121.366" x2="137.596" y2="118.366" stroke="#F4ECEB" stroke-width="2" stroke-linecap="round" stroke-linejoin="round"/>
<line x1="35.4045" y1="59.366" x2="30.2083" y2="56.366" stroke="#F4ECEB" stroke-width="2" stroke-linecap="round" stroke-linejoin="round"/>
<line x1="149.526" y1="105.789" x2="143.731" y2="104.236" stroke="#F4ECEB" stroke-width="2" stroke-linecap="round" stroke-linejoin="round"/>
<line x1="29.7516" y1="73.6956" x2="23.956" y2="72.1427" stroke="#F4ECEB" stroke-width="2" stroke-linecap="round" stroke-linejoin="round"/>
<line x1="150.044" y1="72.1427" x2="144.248" y2="73.6956" stroke="#F4ECEB" stroke-width="2" stroke-linecap="round" stroke-linejoin="round"/>
<line x1="30.269" y1="104.236" x2="24.4734" y2="105.789" stroke="#F4ECEB" stroke-width="2" stroke-linecap="round" stroke-linejoin="round"/>
<line x1="143.791" y1="56.366" x2="138.595" y2="59.366" stroke="#F4ECEB" stroke-width="2" stroke-linecap="round" stroke-linejoin="round"/>
<line x1="36.4042" y1="118.366" x2="31.2081" y2="121.366" stroke="#F4ECEB" stroke-width="2" stroke-linecap="round" stroke-linejoin="round"/>
<line x1="120.366" y1="32.2083" x2="117.366" y2="37.4045" stroke="#F4ECEB" stroke-width="2" stroke-linecap="round" stroke-linejoin="round"/>
<line x1="58.3658" y1="139.596" x2="55.3658" y2="144.792" stroke="#F4ECEB" stroke-width="2" stroke-linecap="round" stroke-linejoin="round"/>
<line x1="104.789" y1="25.4736" x2="103.236" y2="31.2692" stroke="#F4ECEB" stroke-width="2" stroke-linecap="round" stroke-linejoin="round"/>
<line x1="72.6954" y1="145.249" x2="71.1425" y2="151.044" stroke="#F4ECEB" stroke-width="2" stroke-linecap="round" stroke-linejoin="round"/>
<line x1="71.1425" y1="24.956" x2="72.6954" y2="30.7516" stroke="#F4ECEB" stroke-width="2" stroke-linecap="round" stroke-linejoin="round"/>
<line x1="103.236" y1="144.731" x2="104.789" y2="150.527" stroke="#F4ECEB" stroke-width="2" stroke-linecap="round" stroke-linejoin="round"/>
<line x1="55.3658" y1="31.2083" x2="58.3658" y2="36.4045" stroke="#F4ECEB" stroke-width="2" stroke-linecap="round" stroke-linejoin="round"/>
<line x1="117.366" y1="138.596" x2="120.366" y2="143.792" stroke="#F4ECEB" stroke-width="2" stroke-linecap="round" stroke-linejoin="round"/>
</svg>
