<svg width="92" height="144" viewBox="0 0 92 144" fill="none" xmlns="http://www.w3.org/2000/svg">
<path opacity="0.2" d="M92 124C92 135.046 83.0457 144 72 144H20C8.95431 144 0 135.046 0 124V32C0 20.9543 8.95431 12 20 12H72C83.0457 12 92 20.9543 92 32V124Z" fill="#041320"/>
<path opacity="0.4" d="M92 79.2V124C92 128.418 88.4183 132 84 132H20C15.5817 132 12 128.418 12 124V79.2V8C12 3.58173 15.5817 0 20 0H84C88.4183 0 92 3.58172 92 8V79.2Z" fill="#041320"/>
<path d="M88 128H20C17.79 128 16 126.21 16 124V90C16 90 21 78 21 64C21 50 16 38 16 38V4C16 1.79 17.79 0 20 0H88C90.21 0 92 1.79 92 4V38C92 38 87 51 87 64C87 76 92 90 92 90V124C92 126.21 90.21 128 88 128Z" fill="#334D50"/>
<path d="M50.5 104C36.97 104 26 93.03 26 79.5V0H75V79.5C75 93.03 64.03 104 50.5 104Z" fill="#2A3C51"/>
<path d="M39 0V101.13C42.43 102.96 46.34 104 50.5 104C64.03 104 75 93.03 75 79.5V0H39Z" fill="#F8F1F0"/>
<path opacity="0.2" d="M59 58C62.3137 58 65 55.3137 65 52C65 48.6863 62.3137 46 59 46C55.6863 46 53 48.6863 53 52C53 55.3137 55.6863 58 59 58Z" fill="#A5597E"/>
<path d="M59 57C62.3137 57 65 54.3137 65 51C65 47.6863 62.3137 45 59 45C55.6863 45 53 47.6863 53 51C53 54.3137 55.6863 57 59 57Z" fill="white"/>
<path d="M54 51H64" stroke="#F3E2E8" stroke-width="2" stroke-miterlimit="10"/>
<path d="M59 46V56" stroke="#F3E2E8" stroke-width="2" stroke-miterlimit="10"/>
<path d="M47 0H39V78H47V0Z" fill="white"/>
<path d="M75 6L39 14V0H75V6Z" fill="white"/>
<path opacity="0.2" d="M50.5 104C36.97 104 26 93.03 26 79.5V78H75V79.5C75 93.03 64.03 104 50.5 104Z" fill="#2A3C51"/>
</svg>
