<svg width="92" height="144" viewBox="0 0 92 144" fill="none" xmlns="http://www.w3.org/2000/svg" color-interpolation-filters="sRGB">
<g class="fill-shadow">
<path d="M92 124C92 135.046 83.0457 144 72 144H20C8.95431 144 0 135.046 0 124V32C0 20.9543 8.95431 12 20 12H72C83.0457 12 92 20.9543 92 32V124Z" opacity=".2"/>
<path d="M92 82.4V124C92 128.418 88.4183 132 84 132H20C15.5817 132 12 128.418 12 124V82.4V16C12 11.5817 15.5817 8 20 8H84C88.4183 8 92 11.5817 92 16V82.4Z" opacity=".4" />
</g>
<path d="M88 128H20C17.79 128 16 126.21 16 124V90C16 90 21 78 21 64C21 50 16 38 16 38V4C16 1.79 17.79 0 20 0H88C90.21 0 92 1.79 92 4V38C92 38 87 51 87 64C87 76 92 90 92 90V124C92 126.21 90.21 128 88 128Z" fill="#364E51"/>
<path d="M50.5 104C36.97 104 26 93.03 26 79.5V0H75V79.5C75 93.03 64.03 104 50.5 104Z" fill="#2A3C51"/>
<path d="M39 0V101.13C42.43 102.96 46.34 104 50.5 104C64.03 104 75 93.03 75 79.5V0H39Z" fill="#F8F1F0"/>
<path opacity="0.2" d="M59 58C62.3137 58 65 55.3137 65 52C65 48.6863 62.3137 46 59 46C55.6863 46 53 48.6863 53 52C53 55.3137 55.6863 58 59 58Z" fill="#A5597E"/>
<path d="M59 57C62.3137 57 65 54.3137 65 51C65 47.6863 62.3137 45 59 45C55.6863 45 53 47.6863 53 51C53 54.3137 55.6863 57 59 57Z" fill="white"/>
<path d="M54 51H64" stroke="#F3E2E8" stroke-width="2" stroke-miterlimit="10"/>
<path d="M59 46V56" stroke="#F3E2E8" stroke-width="2" stroke-miterlimit="10"/>
<path d="M47 0H39V78H47V0Z" fill="white"/>
<g opacity="0.8">
<path opacity="0.8" d="M43.07 102.85C43.04 102.84 43.01 102.83 42.98 102.82C43.01 102.83 43.04 102.84 43.07 102.85Z" fill="#2A3C51"/>
<path opacity="0.8" d="M41.7502 102.38C41.6802 102.35 41.6003 102.32 41.5303 102.29C41.6003 102.33 41.6802 102.36 41.7502 102.38Z" fill="#2A3C51"/>
<path opacity="0.8" d="M47.65 103.83C47.5 103.81 47.3399 103.79 47.1899 103.77C47.3399 103.79 47.49 103.81 47.65 103.83Z" fill="#2A3C51"/>
<path opacity="0.8" d="M44.5198 103.26C44.4998 103.26 44.4897 103.25 44.4697 103.25C44.4897 103.25 44.4998 103.26 44.5198 103.26Z" fill="#2A3C51"/>
<path opacity="0.8" d="M46.1901 103.61C46.0601 103.59 45.9301 103.57 45.8101 103.54C45.9401 103.57 46.0601 103.59 46.1901 103.61Z" fill="#2A3C51"/>
<path opacity="0.8" d="M49.0701 103.96C48.9301 103.95 48.7901 103.94 48.6401 103.93C48.7901 103.93 48.9301 103.95 49.0701 103.96Z" fill="#2A3C51"/>
<path opacity="0.8" d="M40.42 101.83C40.36 101.8 40.29 101.77 40.23 101.74C40.29 101.77 40.36 101.8 40.42 101.83Z" fill="#2A3C51"/>
<path opacity="0.4" d="M50.4998 104C50.0198 104 49.5498 103.98 49.0698 103.96C49.5498 103.98 50.0198 104 50.4998 104Z" fill="#2A3C51"/>
<path opacity="0.4" d="M47.1899 103.77C46.8499 103.72 46.5199 103.67 46.1899 103.61C46.5199 103.67 46.8499 103.73 47.1899 103.77Z" fill="#2A3C51"/>
<path opacity="0.4" d="M48.6499 103.92C48.3099 103.89 47.9799 103.86 47.6499 103.83C47.9799 103.87 48.3099 103.9 48.6499 103.92Z" fill="#2A3C51"/>
<path opacity="0.4" d="M41.5302 102.3C41.1602 102.15 40.7902 102 40.4302 101.83C40.7902 101.99 41.1502 102.15 41.5302 102.3Z" fill="#2A3C51"/>
<path opacity="0.4" d="M42.98 102.82C42.56 102.69 42.15 102.54 41.75 102.39C42.16 102.54 42.57 102.69 42.98 102.82Z" fill="#2A3C51"/>
<path opacity="0.4" d="M44.4698 103.25C43.9998 103.13 43.5298 103 43.0698 102.85C43.5298 103 43.9998 103.13 44.4698 103.25Z" fill="#2A3C51"/>
<path opacity="0.4" d="M45.81 103.55C45.37 103.47 44.94 103.37 44.52 103.26C44.94 103.37 45.37 103.46 45.81 103.55Z" fill="#2A3C51"/>
</g>
<path d="M75 6L39 14V0H75V6Z" fill="white"/>
<path opacity="0.2" d="M50.5 104C36.97 104 26 93.03 26 79.5V78H75V79.5C75 93.03 64.03 104 50.5 104Z" fill="#2A3C51"/>
</svg>
