<svg xmlns="http://www.w3.org/2000/svg" width="92" height="144" fill="none" color-interpolation-filters="sRGB">
  <g class="fill-shadow">
    <path fill="#2A3C51" d="M92 124c0 11.046-8.954 20-20 20H20c-11.046 0-20-8.954-20-20V32c0-11.046 8.954-20 20-20h52c11.046 0 20 8.954 20 20v92z"  class="opacity-20"/>
    <path fill="#2A3C51" d="M92 82.4V124a8 8 0 01-8 8H20a8 8 0 01-8-8V16a8 8 0 018-8h64a8 8 0 018 8v66.4z"  class="opacity-40"/>
  </g>
  <path fill="#334D50" d="M88 128H20c-2.21 0-4-1.79-4-4V90s5-12 5-26-5-26-5-26V4c0-2.21 1.79-4 4-4h68c2.21 0 4 1.79 4 4v34s-5 13-5 26c0 12 5 26 5 26v34c0 2.21-1.79 4-4 4z"/>
  <path fill="#2A3C51" d="M50.5 104C36.97 104 26 93.03 26 79.5V0h49v79.5C75 93.03 64.03 104 50.5 104z"/>
  <path fill="#F8F1F0" d="M39 0v101.13c3.43 1.83 7.34 2.87 11.5 2.87C64.03 104 75 93.03 75 79.5V0H39z"/>
  <path fill="#A5597E" d="M59 58a6 6 0 100-12 6 6 0 000 12z" opacity=".2"/>
  <path fill="#fff" d="M59 57a6 6 0 100-12 6 6 0 000 12z"/>
  <path stroke="#F3E2E8" stroke-miterlimit="10" stroke-width="2" d="M54 51h10M59 46v10"/>
  <path fill="#fff" d="M47 0h-8v78h8V0z"/>
  <path fill="#fff" d="M75 6l-36 8V0h36v6z"/>
  <path fill="#2A3C51" d="M50.5 104C36.97 104 26 93.03 26 79.5V78h49v1.5C75 93.03 64.03 104 50.5 104z" opacity=".2"/>
</svg>