<svg width="257" height="199" viewBox="0 0 257 199" fill="none" xmlns="http://www.w3.org/2000/svg">
<path opacity="0.4" d="M241 11H16C7.16344 11 0 18.1634 0 27V183C0 191.837 7.16344 199 16 199H241C249.837 199 257 191.837 257 183V27C257 18.1634 249.837 11 241 11Z" fill="#2A3C51"/>
<path opacity="0.8" d="M249 108H21C16.5817 108 13 111.582 13 116V180C13 184.418 16.5817 188 21 188H249C253.418 188 257 184.418 257 180V116C257 111.582 253.418 108 249 108Z" fill="#2A3C51"/>
<path d="M247 172H23C21.9 172 21 171.1 21 170V10C21 8.9 21.9 8 23 8H247C248.1 8 249 8.9 249 10V170C249 171.1 248.1 172 247 172Z" fill="#364E51" stroke="#2A3C51" stroke-width="8" stroke-miterlimit="10"/>
<path d="M43.5 32L51.5 38L43.5 44" stroke="#D89F31" stroke-width="4" stroke-miterlimit="10" stroke-linecap="round" stroke-linejoin="round"/>
<path d="M55.5 46H66.5" stroke="#D89F31" stroke-width="4" stroke-miterlimit="10" stroke-linecap="round" stroke-linejoin="round"/>
<path d="M246 178H24C19.05 178 15 173.95 15 169V11C15 6.05 19.05 2 24 2H246C250.95 2 255 6.05 255 11V169C255 173.95 250.95 178 246 178Z" stroke="#CAD4BF" stroke-width="4" stroke-miterlimit="10"/>
<path d="M15 11C15 6.05 19.05 2 24 2H246C250.95 2 255 6.05 255 11" stroke="#F4ECEB" stroke-width="4" stroke-miterlimit="10" stroke-linecap="round" stroke-linejoin="round"/>
<path d="M255 169C255 173.95 250.95 178 246 178H24C19.05 178 15 173.95 15 169" stroke="#829994" stroke-width="4" stroke-miterlimit="10"/>
<path d="M255 169C255 173.95 250.95 178 246 178H24C19.05 178 15 173.95 15 169" stroke="#628A85" stroke-width="4" stroke-miterlimit="10" stroke-linecap="round" stroke-linejoin="round"/>
</svg>
