<svg xmlns="http://www.w3.org/2000/svg" width="266" height="200" fill="none" color-interpolation-filters="sRGB">
  <g class="fill-shadow">
    <path fill="#2A3C51" d="M244 12H30C17.85 12 8 21.85 8 34v144c0 12.15 9.85 22 22 22h214c12.15 0 22-9.85 22-22V34c0-12.15-9.85-22-22-22z" opacity=".2"/>
    <path fill="#2A3C51" d="M234 0H18C8.059 0 0 8.059 0 18v152c0 9.941 8.059 18 18 18h216c9.941 0 18-8.059 18-18V18c0-9.941-8.059-18-18-18z" opacity=".4"/>
  </g>
  <path fill="#1A2D3D" stroke="#092135" stroke-miterlimit="10" stroke-width="8" d="M234 172H10c-1.1 0-2-.9-2-2V10c0-1.1.9-2 2-2h224c1.1 0 2 .9 2 2v160c0 1.1-.9 2-2 2z"/>
  <path stroke="#F49FBC" stroke-linecap="round" stroke-linejoin="round" stroke-miterlimit="10" stroke-width="6" d="M34 122l8 8-8 8M54 138h12"/>
  <path stroke="#DBD4BF" stroke-miterlimit="10" stroke-width="4" d="M233 178H11c-4.95 0-9-4.05-9-9V11c0-4.95 4.05-9 9-9h222c4.95 0 9 4.05 9 9v158c0 4.95-4.05 9-9 9z"/>
  <path stroke="#F4ECEB" stroke-linecap="round" stroke-linejoin="round" stroke-miterlimit="10" stroke-width="4" d="M2 11c0-4.95 4.05-9 9-9h222c4.95 0 9 4.05 9 9"/>
  <path stroke="#628A85" stroke-linecap="round" stroke-linejoin="round" stroke-miterlimit="10" stroke-width="4" d="M242 169c0 4.95-4.05 9-9 9H11c-4.95 0-9-4.05-9-9" opacity=".3"/>
  <rect width="32" height="8" x="47" y="36" fill="#7DB8CA" rx="4"/>
  <rect width="8" height="8" x="31" y="36" fill="#CAE5EE" rx="4"/>
  <rect width="16" height="8" x="39" y="52" fill="#FFDC7F" rx="4"/>
  <rect width="32" height="8" x="63" y="52" fill="#F4ECEB" rx="4"/>
  <rect width="8" height="8" x="87" y="36" fill="#F49FBC" rx="4"/>
  <rect width="8" height="8" x="31" y="68" fill="#F49FBC" rx="4"/>
  <rect width="8" height="8" x="103" y="52" fill="#CAE5EE" rx="4"/>
</svg>