<svg width="1356" height="884" viewBox="0 0 1356 884" fill="none" xmlns="http://www.w3.org/2000/svg">
<path d="M1081.05 879.144C1085.12 879.144 1085.79 877.668 1085.79 876.42C1085.79 875.664 1085.36 875.04 1084.6 874.728C1083.93 874.452 1082.95 874.356 1081.8 874.284C1080.91 874.224 1079.72 874.176 1079.29 874.044C1078.95 873.936 1078.78 873.756 1078.78 873.456C1078.78 872.892 1079.44 872.544 1081.03 872.544C1082.66 872.544 1083.37 872.964 1083.37 873.684H1085.43C1085.43 872.256 1084.78 870.96 1081.03 870.96C1077.9 870.96 1076.48 872.16 1076.48 873.624C1076.48 874.392 1076.86 874.956 1077.44 875.256C1078.09 875.592 1079.24 875.724 1080.28 875.784C1081.16 875.832 1082.37 875.88 1082.86 875.988C1083.28 876.084 1083.49 876.276 1083.49 876.6C1083.49 877.14 1083.14 877.56 1081.05 877.56C1079.07 877.56 1078.59 877.02 1078.59 876.348H1076.53C1076.53 877.404 1076.95 879.144 1081.05 879.144ZM1093.68 879.144C1097.05 879.144 1098.3 877.452 1098.3 875.916C1098.3 875.892 1098.3 875.808 1098.29 875.748H1096.23V875.82C1096.23 876.696 1095.41 877.44 1093.77 877.44C1091.87 877.44 1091.12 876.324 1091.12 875.064C1091.12 873.708 1092.03 872.664 1093.76 872.664C1095.47 872.664 1096.2 873.588 1096.2 874.32V874.368H1098.25C1098.26 874.296 1098.26 874.2 1098.26 874.176C1098.26 872.856 1097.13 870.96 1093.65 870.96C1090.37 870.96 1088.7 872.724 1088.7 875.064C1088.7 877.104 1089.93 879.144 1093.68 879.144ZM1109.13 879H1111.81L1107.51 871.104H1104.77L1100.48 879H1102.85L1103.67 877.392H1108.31L1109.13 879ZM1104.34 876.048L1105.97 872.832H1105.99L1107.63 876.048H1104.34ZM1114.73 879H1121.72V877.176H1117.04V871.104H1114.73V879ZM1124.7 879H1132.29V877.296H1127.01V875.7H1130.97V874.356H1127.01V872.808H1132.17V871.104H1124.7V879ZM1135.39 879H1139.76C1143.09 879 1144.36 877.584 1144.36 875.052C1144.36 872.82 1143.12 871.104 1139.41 871.104H1135.39V879ZM1137.69 877.296V872.808H1139.53C1141.39 872.808 1142.06 873.804 1142.06 875.052C1142.06 876.504 1141.39 877.296 1139.68 877.296H1137.69ZM1153.06 879H1155.37V876.024H1159.48V874.56H1155.37V872.808H1160.32V871.104H1153.06V879ZM1167.86 879.144C1171.54 879.144 1173.04 877.26 1173.04 875.016C1173.04 872.832 1171.42 870.96 1167.86 870.96C1164.29 870.96 1162.67 872.832 1162.67 875.016C1162.67 877.38 1164.28 879.144 1167.86 879.144ZM1167.86 877.44C1165.97 877.44 1165.1 876.444 1165.1 875.028C1165.1 873.744 1165.99 872.664 1167.86 872.664C1169.73 872.664 1170.62 873.744 1170.62 875.028C1170.62 876.384 1169.79 877.44 1167.86 877.44ZM1176.14 879H1178.45V876.156H1181.3C1182.29 876.156 1182.6 876.528 1182.6 877.344V879H1184.9V877.344C1184.9 876.516 1184.77 875.64 1183.52 875.352V875.328C1184.61 875.004 1184.95 874.236 1184.95 873.444C1184.95 872.028 1184.04 871.104 1181.11 871.104H1176.14V879ZM1178.45 874.812V872.808H1181.01C1182.35 872.808 1182.77 873.216 1182.77 873.78C1182.77 874.392 1182.36 874.812 1181.22 874.812H1178.45ZM1193.89 879H1198.26C1201.59 879 1202.86 877.584 1202.86 875.052C1202.86 872.82 1201.62 871.104 1197.91 871.104H1193.89V879ZM1196.19 877.296V872.808H1198.03C1199.89 872.808 1200.56 873.804 1200.56 875.052C1200.56 876.504 1199.89 877.296 1198.18 877.296H1196.19ZM1205.97 879H1208.27V876.156H1211.13C1212.11 876.156 1212.42 876.528 1212.42 877.344V879H1214.73V877.344C1214.73 876.516 1214.59 875.64 1213.35 875.352V875.328C1214.44 875.004 1214.77 874.236 1214.77 873.444C1214.77 872.028 1213.86 871.104 1210.93 871.104H1205.97V879ZM1208.27 874.812V872.808H1210.84C1212.17 872.808 1212.59 873.216 1212.59 873.78C1212.59 874.392 1212.18 874.812 1211.04 874.812H1208.27ZM1226.32 879H1229L1224.7 871.104H1221.97L1217.67 879H1220.05L1220.86 877.392H1225.51L1226.32 879ZM1221.53 876.048L1223.17 872.832H1223.18L1224.82 876.048H1221.53ZM1231.93 879H1234.16V872.676H1234.18L1236.69 879H1238.84L1241.33 872.676H1241.36V879H1243.66V871.104H1239.99L1237.9 876.6H1237.89L1235.75 871.104H1231.93V879ZM1255.24 879H1257.91L1253.62 871.104H1250.88L1246.58 879H1248.96L1249.78 877.392H1254.42L1255.24 879ZM1250.45 876.048L1252.08 872.832H1252.09L1253.74 876.048H1250.45ZM1261.53 879H1263.83V872.808H1266.94V871.104H1258.42V872.808H1261.53V879ZM1269.98 879H1272.28V871.104H1269.98V879ZM1280.08 879.144C1284.15 879.144 1284.82 877.668 1284.82 876.42C1284.82 875.664 1284.39 875.04 1283.64 874.728C1282.96 874.452 1281.98 874.356 1280.83 874.284C1279.94 874.224 1278.75 874.176 1278.32 874.044C1277.98 873.936 1277.82 873.756 1277.82 873.456C1277.82 872.892 1278.48 872.544 1280.06 872.544C1281.69 872.544 1282.4 872.964 1282.4 873.684H1284.46C1284.46 872.256 1283.82 870.96 1280.06 870.96C1276.93 870.96 1275.51 872.16 1275.51 873.624C1275.51 874.392 1275.9 874.956 1276.47 875.256C1277.12 875.592 1278.27 875.724 1279.32 875.784C1280.19 875.832 1281.4 875.88 1281.9 875.988C1282.32 876.084 1282.52 876.276 1282.52 876.6C1282.52 877.14 1282.17 877.56 1280.08 877.56C1278.1 877.56 1277.62 877.02 1277.62 876.348H1275.56C1275.56 877.404 1275.98 879.144 1280.08 879.144ZM1295.84 879H1298.51L1294.22 871.104H1291.48L1287.19 879H1289.56L1290.38 877.392H1295.02L1295.84 879ZM1291.05 876.048L1292.68 872.832H1292.69L1294.34 876.048H1291.05ZM1302.13 879H1304.43V872.808H1307.54V871.104H1299.02V872.808H1302.13V879ZM1310.58 879H1312.88V871.104H1310.58V879ZM1321.24 879.144C1324.92 879.144 1326.42 877.26 1326.42 875.016C1326.42 872.832 1324.8 870.96 1321.24 870.96C1317.67 870.96 1316.05 872.832 1316.05 875.016C1316.05 877.38 1317.66 879.144 1321.24 879.144ZM1321.24 877.44C1319.35 877.44 1318.48 876.444 1318.48 875.028C1318.48 873.744 1319.36 872.664 1321.24 872.664C1323.11 872.664 1324 873.744 1324 875.028C1324 876.384 1323.17 877.44 1321.24 877.44ZM1329.52 879H1331.75V873.192H1331.76L1336.91 879H1339.19V871.104H1336.96V875.856H1336.95L1332.74 871.104H1329.52V879Z" fill="#628A85"/>
<rect width="1356" height="848" rx="32" fill="#092135"/>
<path d="M1200 667H1176C1174.35 667 1173 668.35 1173 670V694C1173 695.65 1174.35 697 1176 697H1200C1201.65 697 1203 695.65 1203 694V670C1203 668.35 1201.65 667 1200 667Z" stroke="#FEDA75" stroke-width="4" stroke-miterlimit="10" stroke-linecap="round" stroke-linejoin="round"/>
<path d="M1188 685H1164C1162.35 685 1161 683.65 1161 682V658C1161 656.35 1162.35 655 1164 655H1188C1189.65 655 1191 656.35 1191 658V682C1191 683.65 1189.65 685 1188 685Z" fill="#FEDA75" stroke="#FEDA75" stroke-width="4" stroke-miterlimit="10" stroke-linecap="round" stroke-linejoin="round"/>
<path d="M1036.5 698.5L1023 694L1032 685L1036.5 698.5Z" stroke="#FEDA75" stroke-width="4" stroke-miterlimit="10" stroke-linecap="round" stroke-linejoin="round"/>
<path d="M1035.99 697L1036.5 698.5L1035 697.99L1035.99 697Z" fill="#FEDA75" stroke="#FEDA75" stroke-width="4" stroke-miterlimit="10" stroke-linejoin="round"/>
<path d="M1010.99 664.004L1002 672.999L1023 693.999L1031.99 685.005L1010.99 664.004Z" stroke="#FEDA75" stroke-width="4" stroke-miterlimit="10" stroke-linecap="round" stroke-linejoin="round"/>
<path d="M1001.99 655.007L993 664.001L1001.99 672.996L1010.99 664.001L1001.99 655.007Z" fill="#FEDA75" stroke="#FEDA75" stroke-width="4" stroke-miterlimit="10" stroke-linecap="round" stroke-linejoin="round"/>
<path d="M840 682L825 697" stroke="#FEDA75" stroke-width="4" stroke-miterlimit="10" stroke-linecap="round" stroke-linejoin="round"/>
<path d="M825 697L855 694L861 670L852 661L828 667L825 697Z" stroke="#FEDA75" stroke-width="4" stroke-miterlimit="10" stroke-linecap="round" stroke-linejoin="round"/>
<path d="M866.337 674.752L847.245 655.661L843.003 659.903L862.094 678.995L866.337 674.752Z" fill="#FEDA75" stroke="#FEDA75" stroke-width="4" stroke-miterlimit="10" stroke-linecap="round" stroke-linejoin="round"/>
<path d="M657 655L672.42 697L679.41 677.41L699 668.44L657 655Z" stroke="#FEDA75" stroke-width="4" stroke-miterlimit="10" stroke-linecap="round" stroke-linejoin="round"/>
<path d="M487.5 653.5L495 686.5L502.5 679L516.75 693.25C519.66 696.16 524.34 696.16 527.25 693.25C530.16 690.34 530.16 685.66 527.25 682.75L513 668.5L520.5 661L487.5 653.5Z" stroke="#FEDA75" stroke-width="4" stroke-miterlimit="10" stroke-linecap="round" stroke-linejoin="round"/>
<path d="M342 688L330 676C335.94 670.06 357.57 651.43 362.07 655.93C366.57 660.43 347.94 682.06 342 688Z" stroke="#FEDA75" stroke-width="4" stroke-miterlimit="10" stroke-linecap="round" stroke-linejoin="round"/>
<path d="M330 676C321 676 321 688 321 697C330 697 342 697 342 688L330 676Z" fill="#FEDA75" stroke="#FEDA75" stroke-width="4" stroke-miterlimit="10" stroke-linecap="round" stroke-linejoin="round"/>
<path d="M189 673C189 673 186 667 180 667C180 669.67 180 685 180 685L186 688V697H162V688L168 685C168 685 168 669.67 168 667C162 667 159 673 159 673H153V655H195V673H189Z" stroke="#FEDA75" stroke-width="4" stroke-miterlimit="10" stroke-linecap="round" stroke-linejoin="round"/>
<path d="M1168.5 521.5L1195.5 494.5" stroke="#27CBA4" stroke-width="4" stroke-miterlimit="10" stroke-linecap="round" stroke-linejoin="round"/>
<path d="M1195.5 521.5L1168.5 494.5" stroke="#27CBA4" stroke-width="4" stroke-miterlimit="10" stroke-linecap="round" stroke-linejoin="round"/>
<path d="M1014 487V529" stroke="#27CBA4" stroke-width="4" stroke-miterlimit="10" stroke-linecap="round" stroke-linejoin="round"/>
<path d="M1026 517L1014 529L1002 517" stroke="#27CBA4" stroke-width="4" stroke-miterlimit="10" stroke-linecap="round" stroke-linejoin="round"/>
<path d="M846 529V487" stroke="#27CBA4" stroke-width="4" stroke-miterlimit="10" stroke-linecap="round" stroke-linejoin="round"/>
<path d="M834 499L846 487L858 499" stroke="#27CBA4" stroke-width="4" stroke-miterlimit="10" stroke-linecap="round" stroke-linejoin="round"/>
<path d="M699 508H657" stroke="#27CBA4" stroke-width="4" stroke-miterlimit="10" stroke-linecap="round" stroke-linejoin="round"/>
<path d="M669 520L657 508L669 496" stroke="#27CBA4" stroke-width="4" stroke-miterlimit="10" stroke-linecap="round" stroke-linejoin="round"/>
<path d="M489 508H531" stroke="#27CBA4" stroke-width="4" stroke-miterlimit="10" stroke-linecap="round" stroke-linejoin="round"/>
<path d="M519 496L531 508L519 520" stroke="#27CBA4" stroke-width="4" stroke-miterlimit="10" stroke-linecap="round" stroke-linejoin="round"/>
<path d="M324 529H360" stroke="#27CBA4" stroke-width="4" stroke-miterlimit="10" stroke-linecap="round" stroke-linejoin="round"/>
<path d="M327 508L336 517L357 496" stroke="#27CBA4" stroke-width="4" stroke-miterlimit="10" stroke-linecap="round" stroke-linejoin="round"/>
<path d="M154.5 508L166.5 520L193.5 493" stroke="#27CBA4" stroke-width="4" stroke-miterlimit="10" stroke-linecap="round" stroke-linejoin="round"/>
<path d="M1203 355H1173V331H1197L1203 337V355Z" stroke="#FEDA75" stroke-width="4" stroke-miterlimit="10" stroke-linecap="round" stroke-linejoin="round"/>
<path d="M1197 331V337H1203L1197 331Z" fill="#FEDA75" stroke="#FEDA75" stroke-width="4" stroke-miterlimit="10" stroke-linecap="round" stroke-linejoin="round"/>
<path d="M1161 331H1164" stroke="#FEDA75" stroke-width="4" stroke-miterlimit="10" stroke-linecap="round" stroke-linejoin="round"/>
<path d="M1173 319V322" stroke="#FEDA75" stroke-width="4" stroke-miterlimit="10" stroke-linecap="round" stroke-linejoin="round"/>
<path d="M999 352C999 343.72 1005.72 337 1014 337C1022.28 337 1029 343.72 1029 352" stroke="#FEDA75" stroke-width="4" stroke-miterlimit="10" stroke-linecap="round" stroke-linejoin="round"/>
<path d="M996 337H1032" stroke="#FEDA75" stroke-width="4" stroke-miterlimit="10" stroke-linecap="round" stroke-linejoin="round"/>
<path d="M1032 340C1033.66 340 1035 338.657 1035 337C1035 335.343 1033.66 334 1032 334C1030.34 334 1029 335.343 1029 337C1029 338.657 1030.34 340 1032 340Z" stroke="#FEDA75" stroke-width="4" stroke-miterlimit="10" stroke-linecap="round" stroke-linejoin="round"/>
<path d="M1017 334H1011V340H1017V334Z" stroke="#FEDA75" stroke-width="4" stroke-miterlimit="10" stroke-linecap="round" stroke-linejoin="round"/>
<path d="M996 340C997.657 340 999 338.657 999 337C999 335.343 997.657 334 996 334C994.343 334 993 335.343 993 337C993 338.657 994.343 340 996 340Z" stroke="#FEDA75" stroke-width="4" stroke-miterlimit="10" stroke-linecap="round" stroke-linejoin="round"/>
<path d="M828 361H864" stroke="#FEDA75" stroke-width="4" stroke-miterlimit="10" stroke-linecap="round" stroke-linejoin="round"/>
<path d="M837 340L846 349L855 340" stroke="#FEDA75" stroke-width="4" stroke-miterlimit="10" stroke-linecap="round" stroke-linejoin="round"/>
<path d="M846 319V346" stroke="#FEDA75" stroke-width="4" stroke-miterlimit="10" stroke-linecap="round" stroke-linejoin="round"/>
<path d="M678 359.5C687.113 359.5 694.5 352.113 694.5 343C694.5 333.887 687.113 326.5 678 326.5C668.887 326.5 661.5 333.887 661.5 343C661.5 352.113 668.887 359.5 678 359.5Z" stroke="#FEDA75" stroke-width="4" stroke-miterlimit="10" stroke-linecap="round" stroke-linejoin="round"/>
<path d="M678 337V343H684" stroke="#FEDA75" stroke-width="4" stroke-miterlimit="10" stroke-linecap="round" stroke-linejoin="round"/>
<path d="M696 326.5L690 320.5" stroke="#FEDA75" stroke-width="4" stroke-miterlimit="10" stroke-linecap="round" stroke-linejoin="round"/>
<path d="M660 326.5L666 320.5" stroke="#FEDA75" stroke-width="4" stroke-miterlimit="10" stroke-linecap="round" stroke-linejoin="round"/>
<path d="M528 358H492C490.35 358 489 356.65 489 355V334H531V355C531 356.65 529.65 358 528 358Z" stroke="#FEDA75" stroke-width="4" stroke-miterlimit="10" stroke-linecap="round" stroke-linejoin="round"/>
<path d="M531 334H489V325C489 323.35 490.35 322 492 322H507L509.01 325H528C529.65 325 531 326.35 531 328V334Z" stroke="#FEDA75" stroke-width="4" stroke-miterlimit="10" stroke-linecap="round" stroke-linejoin="round"/>
<path d="M360 358H324C322.35 358 321 356.65 321 355V325C321 323.35 322.35 322 324 322H360C361.65 322 363 323.35 363 325V355C363 356.65 361.65 358 360 358Z" stroke="#FEDA75" stroke-width="4" stroke-miterlimit="10" stroke-linecap="round" stroke-linejoin="round"/>
<path d="M345 346H351" stroke="#FEDA75" stroke-width="4" stroke-miterlimit="10" stroke-linecap="round" stroke-linejoin="round"/>
<path d="M333 334L339 340L333 346" stroke="#FEDA75" stroke-width="4" stroke-miterlimit="10" stroke-linecap="round" stroke-linejoin="round"/>
<path d="M192 361H156C154.35 361 153 359.65 153 358V325H195V358C195 359.65 193.65 361 192 361Z" stroke="#FEDA75" stroke-width="4" stroke-miterlimit="10" stroke-linecap="round" stroke-linejoin="round"/>
<path d="M183 352C181.35 352 180 350.65 180 349C180 347.35 181.35 346 183 346C184.65 346 186 347.35 186 349C186 350.65 184.65 352 183 352Z" fill="#FEDA75"/>
<path d="M174 352C172.35 352 171 350.65 171 349C171 347.35 172.35 346 174 346C175.65 346 177 347.35 177 349C177 350.65 175.65 352 174 352Z" fill="#FEDA75"/>
<path d="M165 352C163.35 352 162 350.65 162 349C162 347.35 163.35 346 165 346C166.65 346 168 347.35 168 349C168 350.65 166.65 352 165 352Z" fill="#FEDA75"/>
<path d="M183 343C181.35 343 180 341.65 180 340C180 338.35 181.35 337 183 337C184.65 337 186 338.35 186 340C186 341.65 184.65 343 183 343Z" fill="#FEDA75"/>
<path d="M174 343C172.35 343 171 341.65 171 340C171 338.35 172.35 337 174 337C175.65 337 177 338.35 177 340C177 341.65 175.65 343 174 343Z" fill="#FEDA75"/>
<path d="M165 343C163.35 343 162 341.65 162 340C162 338.35 163.35 337 165 337C166.65 337 168 338.35 168 340C168 341.65 166.65 343 165 343Z" fill="#FEDA75"/>
<path d="M195 325H153V322C153 320.35 154.35 319 156 319H192C193.65 319 195 320.35 195 322V325Z" fill="#FEDA75" stroke="#FEDA75" stroke-width="4" stroke-miterlimit="10" stroke-linecap="round" stroke-linejoin="round"/>
<path d="M1161 169L1182 151L1203 169" stroke="#FD7F71" stroke-width="4" stroke-miterlimit="10" stroke-linecap="round" stroke-linejoin="round"/>
<path d="M1188 190V193H1200V167.5" stroke="#FD7F71" stroke-width="4" stroke-miterlimit="10" stroke-linecap="round" stroke-linejoin="round"/>
<path d="M1188 175H1176V190H1188V175Z" stroke="#FD7F71" stroke-width="4" stroke-miterlimit="10" stroke-linecap="round" stroke-linejoin="round"/>
<path d="M1164 167.5V193H1176V190" stroke="#FD7F71" stroke-width="4" stroke-miterlimit="10" stroke-linecap="round" stroke-linejoin="round"/>
<path d="M1018.38 188.23C1016.01 190.75 1011.99 190.75 1009.62 188.23L995.4 173.08C991.41 167.77 992.49 160.27 997.8 156.28C1002.84 152.5 1009.92 153.28 1014 157.93C1018.11 153.28 1025.16 152.5 1030.2 156.28C1035.51 160.27 1036.56 167.77 1032.6 173.08L1018.38 188.23Z" stroke="#FD7F71" stroke-width="4" stroke-miterlimit="10" stroke-linecap="round" stroke-linejoin="round"/>
<path d="M828 163.869L825 165.999V192.999H867V165.999L864 163.839" stroke="#FD7F71" stroke-width="4" stroke-miterlimit="10" stroke-linecap="round" stroke-linejoin="round"/>
<path d="M825 169L846 181L867 169" stroke="#FD7F71" stroke-width="4" stroke-miterlimit="10" stroke-linecap="round" stroke-linejoin="round"/>
<path d="M854.4 157L846 151" stroke="#FD7F71" stroke-width="4" stroke-miterlimit="10" stroke-linecap="round" stroke-linejoin="round"/>
<path d="M846.001 151L837.601 157" stroke="#FD7F71" stroke-width="4" stroke-miterlimit="10" stroke-linecap="round" stroke-linejoin="round"/>
<path d="M828 169V157H864V169" stroke="#FD7F71" stroke-width="4" stroke-miterlimit="10" stroke-linecap="round" stroke-linejoin="round"/>
<path d="M687.51 181.51L696 190" stroke="#FD7F71" stroke-width="4" stroke-miterlimit="10" stroke-linecap="round"/>
<path d="M672 181C680.285 181 687 174.284 687 166C687 157.716 680.285 151 672 151C663.716 151 657 157.716 657 166C657 174.284 663.716 181 672 181Z" stroke="#FD7F71" stroke-width="4" stroke-miterlimit="10"/>
<path d="M684 178L687.51 181.51" stroke="#FD7F71" stroke-width="4" stroke-miterlimit="10"/>
<path d="M492 184C491.61 184 491.22 183.91 490.86 183.76C490.5 183.61 490.17 183.4 489.87 183.1C489.75 182.98 489.63 182.83 489.51 182.65C489.39 182.5 489.3 182.32 489.24 182.14C489.15 181.96 489.09 181.78 489.06 181.57C489.03 181.39 489 181.18 489 181C489 180.79 489.03 180.61 489.06 180.4C489.09 180.22 489.15 180.04 489.24 179.83C489.3 179.65 489.39 179.5 489.51 179.32C489.63 179.17 489.75 179.02 489.87 178.87C490.17 178.6 490.5 178.36 490.86 178.21C491.58 177.91 492.42 177.91 493.14 178.21C493.53 178.36 493.83 178.6 494.13 178.87C494.25 179.02 494.37 179.17 494.49 179.32C494.61 179.5 494.7 179.65 494.76 179.83C494.85 180.04 494.91 180.22 494.94 180.4C494.97 180.61 495 180.79 495 181C495 181.18 494.97 181.39 494.94 181.57C494.91 181.78 494.85 181.96 494.76 182.14C494.7 182.32 494.61 182.5 494.49 182.65C494.37 182.83 494.25 182.98 494.13 183.1C493.83 183.4 493.53 183.61 493.14 183.76C492.78 183.91 492.39 184 492 184Z" fill="#FD7F71"/>
<path d="M492 172H489" stroke="#FD7F71" stroke-width="4" stroke-miterlimit="10" stroke-linecap="round" stroke-linejoin="round"/>
<path d="M492 166C491.61 166 491.22 165.91 490.86 165.76C490.5 165.61 490.17 165.4 489.87 165.1C489.75 164.98 489.63 164.83 489.51 164.65C489.39 164.5 489.3 164.32 489.24 164.14C489.15 163.96 489.09 163.78 489.06 163.57C489.03 163.39 489 163.18 489 163C489 162.79 489.03 162.61 489.06 162.4C489.09 162.22 489.15 162.01 489.24 161.83C489.3 161.65 489.39 161.5 489.51 161.32C489.63 161.17 489.75 161.02 489.87 160.87C490.17 160.6 490.5 160.36 490.86 160.21C491.58 159.91 492.42 159.91 493.14 160.21C493.53 160.36 493.83 160.6 494.13 160.87C494.25 161.02 494.37 161.17 494.49 161.32C494.61 161.5 494.7 161.65 494.76 161.83C494.85 162.01 494.91 162.22 494.94 162.4C494.97 162.61 495 162.79 495 163C495 163.18 494.97 163.39 494.94 163.57C494.91 163.78 494.85 163.96 494.76 164.14C494.7 164.32 494.61 164.5 494.49 164.65C494.37 164.83 494.25 164.98 494.13 165.1C493.83 165.4 493.53 165.61 493.14 165.76C492.78 165.91 492.39 166 492 166Z" fill="#FD7F71"/>
<path d="M531 172L501 190V178L510 172L501 166V154L531 172Z" stroke="#FD7F71" stroke-width="4" stroke-miterlimit="10" stroke-linecap="round" stroke-linejoin="round"/>
<path d="M525 172H510" stroke="#FD7F71" stroke-width="4" stroke-miterlimit="10" stroke-linecap="round" stroke-linejoin="round"/>
<path d="M347.52 177.1V177.01C350.22 174.85 351.99 171.19 351.99 167.02V161.02C351.99 157.39 351.99 155.02 349.98 153.01C348 151 345.99 151 344.01 151C342.21 151 342.03 152.62 339.09 152.95C335.01 153.4 332.01 157.06 332.01 161.2V167.02C332.01 171.19 333.78 174.88 336.48 177.01V177.1C336.21 180.73 333.69 180.73 330.21 181.81C328.35 182.38 326.79 183.01 325.53 183.58C323.4 184.57 322.02 186.7 322.02 189.04V190C322.02 191.65 323.37 193 325.02 193H359.01C360.66 193 362.01 191.65 362.01 190V189.04C362.01 186.7 360.66 184.57 358.5 183.58C357.24 183.01 355.65 182.38 353.82 181.81C350.34 180.73 347.79 180.73 347.52 177.1Z" stroke="#FD7F71" stroke-width="4" stroke-miterlimit="10" stroke-linecap="round" stroke-linejoin="round"/>
<path d="M162 193H186V187H162V193Z" fill="#FD7F71" stroke="#FD7F71" stroke-width="4" stroke-miterlimit="10" stroke-linecap="round" stroke-linejoin="round"/>
<path d="M182.01 187.99H165.99L159 169L174 151L189 169L182.01 187.99Z" stroke="#FD7F71" stroke-width="4" stroke-miterlimit="10" stroke-linecap="round" stroke-linejoin="round"/>
<path d="M174 151V172" stroke="#FD7F71" stroke-width="4" stroke-miterlimit="10" stroke-linecap="round" stroke-linejoin="round"/>
</svg>
