<svg width="1360" height="848" viewBox="0 0 1360 848" fill="none" xmlns="http://www.w3.org/2000/svg">
<rect width="1360" height="848" fill="#092135"/>
<path d="M1202 667H1178C1176.35 667 1175 668.35 1175 670V694C1175 695.65 1176.35 697 1178 697H1202C1203.65 697 1205 695.65 1205 694V670C1205 668.35 1203.65 667 1202 667Z" stroke="#FEDA75" stroke-width="4" stroke-miterlimit="10" stroke-linecap="round" stroke-linejoin="round"/>
<path d="M1190 685H1166C1164.35 685 1163 683.65 1163 682V658C1163 656.35 1164.35 655 1166 655H1190C1191.65 655 1193 656.35 1193 658V682C1193 683.65 1191.65 685 1190 685Z" fill="#FEDA75" stroke="#FEDA75" stroke-width="4" stroke-miterlimit="10" stroke-linecap="round" stroke-linejoin="round"/>
<path d="M1038.5 698.5L1025 694L1034 685L1038.5 698.5Z" stroke="#FEDA75" stroke-width="4" stroke-miterlimit="10" stroke-linecap="round" stroke-linejoin="round"/>
<path d="M1037.99 697L1038.5 698.5L1037 697.99L1037.99 697Z" fill="#FEDA75" stroke="#FEDA75" stroke-width="4" stroke-miterlimit="10" stroke-linejoin="round"/>
<path d="M1012.99 664.004L1004 672.999L1025 693.999L1033.99 685.005L1012.99 664.004Z" stroke="#FEDA75" stroke-width="4" stroke-miterlimit="10" stroke-linecap="round" stroke-linejoin="round"/>
<path d="M1003.99 655.007L995 664.001L1003.99 672.996L1012.99 664.001L1003.99 655.007Z" fill="#FEDA75" stroke="#FEDA75" stroke-width="4" stroke-miterlimit="10" stroke-linecap="round" stroke-linejoin="round"/>
<path d="M842 682L827 697" stroke="#FEDA75" stroke-width="4" stroke-miterlimit="10" stroke-linecap="round" stroke-linejoin="round"/>
<path d="M827 697L857 694L863 670L854 661L830 667L827 697Z" stroke="#FEDA75" stroke-width="4" stroke-miterlimit="10" stroke-linecap="round" stroke-linejoin="round"/>
<path d="M868.337 674.752L849.245 655.661L845.003 659.903L864.094 678.995L868.337 674.752Z" fill="#FEDA75" stroke="#FEDA75" stroke-width="4" stroke-miterlimit="10" stroke-linecap="round" stroke-linejoin="round"/>
<path d="M659 655L674.42 697L681.41 677.41L701 668.44L659 655Z" stroke="#FEDA75" stroke-width="4" stroke-miterlimit="10" stroke-linecap="round" stroke-linejoin="round"/>
<path d="M489.5 653.5L497 686.5L504.5 679L518.75 693.25C521.66 696.16 526.34 696.16 529.25 693.25C532.16 690.34 532.16 685.66 529.25 682.75L515 668.5L522.5 661L489.5 653.5Z" stroke="#FEDA75" stroke-width="4" stroke-miterlimit="10" stroke-linecap="round" stroke-linejoin="round"/>
<path d="M344 688L332 676C337.94 670.06 359.57 651.43 364.07 655.93C368.57 660.43 349.94 682.06 344 688Z" stroke="#FEDA75" stroke-width="4" stroke-miterlimit="10" stroke-linecap="round" stroke-linejoin="round"/>
<path d="M332 676C323 676 323 688 323 697C332 697 344 697 344 688L332 676Z" fill="#FEDA75" stroke="#FEDA75" stroke-width="4" stroke-miterlimit="10" stroke-linecap="round" stroke-linejoin="round"/>
<path d="M191 673C191 673 188 667 182 667C182 669.67 182 685 182 685L188 688V697H164V688L170 685C170 685 170 669.67 170 667C164 667 161 673 161 673H155V655H197V673H191Z" stroke="#FEDA75" stroke-width="4" stroke-miterlimit="10" stroke-linecap="round" stroke-linejoin="round"/>
<path d="M1170.5 521.5L1197.5 494.5" stroke="#27CBA4" stroke-width="4" stroke-miterlimit="10" stroke-linecap="round" stroke-linejoin="round"/>
<path d="M1197.5 521.5L1170.5 494.5" stroke="#27CBA4" stroke-width="4" stroke-miterlimit="10" stroke-linecap="round" stroke-linejoin="round"/>
<path d="M1016 487V529" stroke="#27CBA4" stroke-width="4" stroke-miterlimit="10" stroke-linecap="round" stroke-linejoin="round"/>
<path d="M1028 517L1016 529L1004 517" stroke="#27CBA4" stroke-width="4" stroke-miterlimit="10" stroke-linecap="round" stroke-linejoin="round"/>
<path d="M848 529V487" stroke="#27CBA4" stroke-width="4" stroke-miterlimit="10" stroke-linecap="round" stroke-linejoin="round"/>
<path d="M836 499L848 487L860 499" stroke="#27CBA4" stroke-width="4" stroke-miterlimit="10" stroke-linecap="round" stroke-linejoin="round"/>
<path d="M701 508H659" stroke="#27CBA4" stroke-width="4" stroke-miterlimit="10" stroke-linecap="round" stroke-linejoin="round"/>
<path d="M671 520L659 508L671 496" stroke="#27CBA4" stroke-width="4" stroke-miterlimit="10" stroke-linecap="round" stroke-linejoin="round"/>
<path d="M491 508H533" stroke="#27CBA4" stroke-width="4" stroke-miterlimit="10" stroke-linecap="round" stroke-linejoin="round"/>
<path d="M521 496L533 508L521 520" stroke="#27CBA4" stroke-width="4" stroke-miterlimit="10" stroke-linecap="round" stroke-linejoin="round"/>
<path d="M326 529H362" stroke="#27CBA4" stroke-width="4" stroke-miterlimit="10" stroke-linecap="round" stroke-linejoin="round"/>
<path d="M329 508L338 517L359 496" stroke="#27CBA4" stroke-width="4" stroke-miterlimit="10" stroke-linecap="round" stroke-linejoin="round"/>
<path d="M156.5 508L168.5 520L195.5 493" stroke="#27CBA4" stroke-width="4" stroke-miterlimit="10" stroke-linecap="round" stroke-linejoin="round"/>
<path d="M1205 355H1175V331H1199L1205 337V355Z" stroke="#FEDA75" stroke-width="4" stroke-miterlimit="10" stroke-linecap="round" stroke-linejoin="round"/>
<path d="M1199 331V337H1205L1199 331Z" fill="#FEDA75" stroke="#FEDA75" stroke-width="4" stroke-miterlimit="10" stroke-linecap="round" stroke-linejoin="round"/>
<path d="M1163 331H1166" stroke="#FEDA75" stroke-width="4" stroke-miterlimit="10" stroke-linecap="round" stroke-linejoin="round"/>
<path d="M1175 319V322" stroke="#FEDA75" stroke-width="4" stroke-miterlimit="10" stroke-linecap="round" stroke-linejoin="round"/>
<path d="M1001 352C1001 343.72 1007.72 337 1016 337C1024.28 337 1031 343.72 1031 352" stroke="#FEDA75" stroke-width="4" stroke-miterlimit="10" stroke-linecap="round" stroke-linejoin="round"/>
<path d="M998 337H1034" stroke="#FEDA75" stroke-width="4" stroke-miterlimit="10" stroke-linecap="round" stroke-linejoin="round"/>
<path d="M1034 340C1035.66 340 1037 338.657 1037 337C1037 335.343 1035.66 334 1034 334C1032.34 334 1031 335.343 1031 337C1031 338.657 1032.34 340 1034 340Z" stroke="#FEDA75" stroke-width="4" stroke-miterlimit="10" stroke-linecap="round" stroke-linejoin="round"/>
<path d="M1019 334H1013V340H1019V334Z" stroke="#FEDA75" stroke-width="4" stroke-miterlimit="10" stroke-linecap="round" stroke-linejoin="round"/>
<path d="M998 340C999.657 340 1001 338.657 1001 337C1001 335.343 999.657 334 998 334C996.343 334 995 335.343 995 337C995 338.657 996.343 340 998 340Z" stroke="#FEDA75" stroke-width="4" stroke-miterlimit="10" stroke-linecap="round" stroke-linejoin="round"/>
<path d="M830 361H866" stroke="#FEDA75" stroke-width="4" stroke-miterlimit="10" stroke-linecap="round" stroke-linejoin="round"/>
<path d="M839 340L848 349L857 340" stroke="#FEDA75" stroke-width="4" stroke-miterlimit="10" stroke-linecap="round" stroke-linejoin="round"/>
<path d="M848 319V346" stroke="#FEDA75" stroke-width="4" stroke-miterlimit="10" stroke-linecap="round" stroke-linejoin="round"/>
<path d="M680 359.5C689.113 359.5 696.5 352.113 696.5 343C696.5 333.887 689.113 326.5 680 326.5C670.887 326.5 663.5 333.887 663.5 343C663.5 352.113 670.887 359.5 680 359.5Z" stroke="#FEDA75" stroke-width="4" stroke-miterlimit="10" stroke-linecap="round" stroke-linejoin="round"/>
<path d="M680 337V343H686" stroke="#FEDA75" stroke-width="4" stroke-miterlimit="10" stroke-linecap="round" stroke-linejoin="round"/>
<path d="M698 326.5L692 320.5" stroke="#FEDA75" stroke-width="4" stroke-miterlimit="10" stroke-linecap="round" stroke-linejoin="round"/>
<path d="M662 326.5L668 320.5" stroke="#FEDA75" stroke-width="4" stroke-miterlimit="10" stroke-linecap="round" stroke-linejoin="round"/>
<path d="M530 358H494C492.35 358 491 356.65 491 355V334H533V355C533 356.65 531.65 358 530 358Z" stroke="#FEDA75" stroke-width="4" stroke-miterlimit="10" stroke-linecap="round" stroke-linejoin="round"/>
<path d="M533 334H491V325C491 323.35 492.35 322 494 322H509L511.01 325H530C531.65 325 533 326.35 533 328V334Z" stroke="#FEDA75" stroke-width="4" stroke-miterlimit="10" stroke-linecap="round" stroke-linejoin="round"/>
<path d="M362 358H326C324.35 358 323 356.65 323 355V325C323 323.35 324.35 322 326 322H362C363.65 322 365 323.35 365 325V355C365 356.65 363.65 358 362 358Z" stroke="#FEDA75" stroke-width="4" stroke-miterlimit="10" stroke-linecap="round" stroke-linejoin="round"/>
<path d="M347 346H353" stroke="#FEDA75" stroke-width="4" stroke-miterlimit="10" stroke-linecap="round" stroke-linejoin="round"/>
<path d="M335 334L341 340L335 346" stroke="#FEDA75" stroke-width="4" stroke-miterlimit="10" stroke-linecap="round" stroke-linejoin="round"/>
<path d="M194 361H158C156.35 361 155 359.65 155 358V325H197V358C197 359.65 195.65 361 194 361Z" stroke="#FEDA75" stroke-width="4" stroke-miterlimit="10" stroke-linecap="round" stroke-linejoin="round"/>
<path d="M185 352C183.35 352 182 350.65 182 349C182 347.35 183.35 346 185 346C186.65 346 188 347.35 188 349C188 350.65 186.65 352 185 352Z" fill="#FEDA75"/>
<path d="M176 352C174.35 352 173 350.65 173 349C173 347.35 174.35 346 176 346C177.65 346 179 347.35 179 349C179 350.65 177.65 352 176 352Z" fill="#FEDA75"/>
<path d="M167 352C165.35 352 164 350.65 164 349C164 347.35 165.35 346 167 346C168.65 346 170 347.35 170 349C170 350.65 168.65 352 167 352Z" fill="#FEDA75"/>
<path d="M185 343C183.35 343 182 341.65 182 340C182 338.35 183.35 337 185 337C186.65 337 188 338.35 188 340C188 341.65 186.65 343 185 343Z" fill="#FEDA75"/>
<path d="M176 343C174.35 343 173 341.65 173 340C173 338.35 174.35 337 176 337C177.65 337 179 338.35 179 340C179 341.65 177.65 343 176 343Z" fill="#FEDA75"/>
<path d="M167 343C165.35 343 164 341.65 164 340C164 338.35 165.35 337 167 337C168.65 337 170 338.35 170 340C170 341.65 168.65 343 167 343Z" fill="#FEDA75"/>
<path d="M197 325H155V322C155 320.35 156.35 319 158 319H194C195.65 319 197 320.35 197 322V325Z" fill="#FEDA75" stroke="#FEDA75" stroke-width="4" stroke-miterlimit="10" stroke-linecap="round" stroke-linejoin="round"/>
<path d="M1163 169L1184 151L1205 169" stroke="#FD7F71" stroke-width="4" stroke-miterlimit="10" stroke-linecap="round" stroke-linejoin="round"/>
<path d="M1190 190V193H1202V167.5" stroke="#FD7F71" stroke-width="4" stroke-miterlimit="10" stroke-linecap="round" stroke-linejoin="round"/>
<path d="M1190 175H1178V190H1190V175Z" stroke="#FD7F71" stroke-width="4" stroke-miterlimit="10" stroke-linecap="round" stroke-linejoin="round"/>
<path d="M1166 167.5V193H1178V190" stroke="#FD7F71" stroke-width="4" stroke-miterlimit="10" stroke-linecap="round" stroke-linejoin="round"/>
<path d="M1020.38 188.23C1018.01 190.75 1013.99 190.75 1011.62 188.23L997.4 173.08C993.41 167.77 994.49 160.27 999.8 156.28C1004.84 152.5 1011.92 153.28 1016 157.93C1020.11 153.28 1027.16 152.5 1032.2 156.28C1037.51 160.27 1038.56 167.77 1034.6 173.08L1020.38 188.23Z" stroke="#FD7F71" stroke-width="4" stroke-miterlimit="10" stroke-linecap="round" stroke-linejoin="round"/>
<path d="M830 163.869L827 165.999V192.999H869V165.999L866 163.839" stroke="#FD7F71" stroke-width="4" stroke-miterlimit="10" stroke-linecap="round" stroke-linejoin="round"/>
<path d="M827 169L848 181L869 169" stroke="#FD7F71" stroke-width="4" stroke-miterlimit="10" stroke-linecap="round" stroke-linejoin="round"/>
<path d="M856.4 157L848 151" stroke="#FD7F71" stroke-width="4" stroke-miterlimit="10" stroke-linecap="round" stroke-linejoin="round"/>
<path d="M848.001 151L839.601 157" stroke="#FD7F71" stroke-width="4" stroke-miterlimit="10" stroke-linecap="round" stroke-linejoin="round"/>
<path d="M830 169V157H866V169" stroke="#FD7F71" stroke-width="4" stroke-miterlimit="10" stroke-linecap="round" stroke-linejoin="round"/>
<path d="M689.51 181.51L698 190" stroke="#FD7F71" stroke-width="4" stroke-miterlimit="10" stroke-linecap="round"/>
<path d="M674 181C682.285 181 689 174.284 689 166C689 157.716 682.285 151 674 151C665.716 151 659 157.716 659 166C659 174.284 665.716 181 674 181Z" stroke="#FD7F71" stroke-width="4" stroke-miterlimit="10"/>
<path d="M686 178L689.51 181.51" stroke="#FD7F71" stroke-width="4" stroke-miterlimit="10"/>
<path d="M494 184C493.61 184 493.22 183.91 492.86 183.76C492.5 183.61 492.17 183.4 491.87 183.1C491.75 182.98 491.63 182.83 491.51 182.65C491.39 182.5 491.3 182.32 491.24 182.14C491.15 181.96 491.09 181.78 491.06 181.57C491.03 181.39 491 181.18 491 181C491 180.79 491.03 180.61 491.06 180.4C491.09 180.22 491.15 180.04 491.24 179.83C491.3 179.65 491.39 179.5 491.51 179.32C491.63 179.17 491.75 179.02 491.87 178.87C492.17 178.6 492.5 178.36 492.86 178.21C493.58 177.91 494.42 177.91 495.14 178.21C495.53 178.36 495.83 178.6 496.13 178.87C496.25 179.02 496.37 179.17 496.49 179.32C496.61 179.5 496.7 179.65 496.76 179.83C496.85 180.04 496.91 180.22 496.94 180.4C496.97 180.61 497 180.79 497 181C497 181.18 496.97 181.39 496.94 181.57C496.91 181.78 496.85 181.96 496.76 182.14C496.7 182.32 496.61 182.5 496.49 182.65C496.37 182.83 496.25 182.98 496.13 183.1C495.83 183.4 495.53 183.61 495.14 183.76C494.78 183.91 494.39 184 494 184Z" fill="#FD7F71"/>
<path d="M494 172H491" stroke="#FD7F71" stroke-width="4" stroke-miterlimit="10" stroke-linecap="round" stroke-linejoin="round"/>
<path d="M494 166C493.61 166 493.22 165.91 492.86 165.76C492.5 165.61 492.17 165.4 491.87 165.1C491.75 164.98 491.63 164.83 491.51 164.65C491.39 164.5 491.3 164.32 491.24 164.14C491.15 163.96 491.09 163.78 491.06 163.57C491.03 163.39 491 163.18 491 163C491 162.79 491.03 162.61 491.06 162.4C491.09 162.22 491.15 162.01 491.24 161.83C491.3 161.65 491.39 161.5 491.51 161.32C491.63 161.17 491.75 161.02 491.87 160.87C492.17 160.6 492.5 160.36 492.86 160.21C493.58 159.91 494.42 159.91 495.14 160.21C495.53 160.36 495.83 160.6 496.13 160.87C496.25 161.02 496.37 161.17 496.49 161.32C496.61 161.5 496.7 161.65 496.76 161.83C496.85 162.01 496.91 162.22 496.94 162.4C496.97 162.61 497 162.79 497 163C497 163.18 496.97 163.39 496.94 163.57C496.91 163.78 496.85 163.96 496.76 164.14C496.7 164.32 496.61 164.5 496.49 164.65C496.37 164.83 496.25 164.98 496.13 165.1C495.83 165.4 495.53 165.61 495.14 165.76C494.78 165.91 494.39 166 494 166Z" fill="#FD7F71"/>
<path d="M533 172L503 190V178L512 172L503 166V154L533 172Z" stroke="#FD7F71" stroke-width="4" stroke-miterlimit="10" stroke-linecap="round" stroke-linejoin="round"/>
<path d="M527 172H512" stroke="#FD7F71" stroke-width="4" stroke-miterlimit="10" stroke-linecap="round" stroke-linejoin="round"/>
<path d="M349.52 177.1V177.01C352.22 174.85 353.99 171.19 353.99 167.02V161.02C353.99 157.39 353.99 155.02 351.98 153.01C350 151 347.99 151 346.01 151C344.21 151 344.03 152.62 341.09 152.95C337.01 153.4 334.01 157.06 334.01 161.2V167.02C334.01 171.19 335.78 174.88 338.48 177.01V177.1C338.21 180.73 335.69 180.73 332.21 181.81C330.35 182.38 328.79 183.01 327.53 183.58C325.4 184.57 324.02 186.7 324.02 189.04V190C324.02 191.65 325.37 193 327.02 193H361.01C362.66 193 364.01 191.65 364.01 190V189.04C364.01 186.7 362.66 184.57 360.5 183.58C359.24 183.01 357.65 182.38 355.82 181.81C352.34 180.73 349.79 180.73 349.52 177.1Z" stroke="#FD7F71" stroke-width="4" stroke-miterlimit="10" stroke-linecap="round" stroke-linejoin="round"/>
<path d="M164 193H188V187H164V193Z" fill="#FD7F71" stroke="#FD7F71" stroke-width="4" stroke-miterlimit="10" stroke-linecap="round" stroke-linejoin="round"/>
<path d="M184.01 187.99H167.99L161 169L176 151L191 169L184.01 187.99Z" stroke="#FD7F71" stroke-width="4" stroke-miterlimit="10" stroke-linecap="round" stroke-linejoin="round"/>
<path d="M176 151V172" stroke="#FD7F71" stroke-width="4" stroke-miterlimit="10" stroke-linecap="round" stroke-linejoin="round"/>
</svg>
