<svg xmlns="http://www.w3.org/2000/svg" width="950.025" height="300" viewBox="0 0 950.025 300">
  <g id="glasses" transform="translate(6.018)">
    <g id="Group_1" data-name="Group 1" transform="translate(-6.001)" opacity="0.2" style="mix-blend-mode: soft-light;isolation: isolate">
      <path id="Path_1" data-name="Path 1" d="M82,44l.222-2.992L79,40.769V71.795a26.767,26.767,0,0,0,25.421,26.956c108.932,5.335,575.732,28.228,600.092,29.991,23.063,1.671,40.992,5.245,57.551,11.709s31.912,15.883,49.753,29.419c25.86,19.623,58.792,53.81,76.1,71.774,3.828,3.974,6.892,7.154,8.945,9.207,4.043,4.043,10.076,4.8,15.858,4.106a52.52,52.52,0,0,0,17.746-5.929c5.495-2.931,10.485-6.686,13.491-10.567a13.647,13.647,0,0,0,2.974-6.431,7.877,7.877,0,0,0-2.327-6.761c-13.236-13.237-58.987-53.6-91.375-80-27.176-22.159-47.211-35.518-75.953-44.381C748.7,92.074,711.643,87.75,650.541,83.238c-19.554-1.445-161.633-12-298.825-22.2L165.523,47.2l-60.485-4.5L88.175,41.451l-4.434-.33-1.136-.084-.287-.021-.072-.005h-.018S82.222,41.008,82,44Z" fill="#2a3c51"/>
      <path id="Path_2" data-name="Path 2" d="M82,44l.222-2.992L79,40.769V71.795a26.767,26.767,0,0,0,25.421,26.956c108.932,5.335,575.732,28.228,600.092,29.991,23.063,1.671,40.992,5.245,57.551,11.709s31.912,15.883,49.753,29.419c25.86,19.623,58.792,53.81,76.1,71.774,3.828,3.974,6.892,7.154,8.945,9.207,4.043,4.043,10.076,4.8,15.858,4.106a52.52,52.52,0,0,0,17.746-5.929c5.495-2.931,10.485-6.686,13.491-10.567a13.647,13.647,0,0,0,2.974-6.431,7.877,7.877,0,0,0-2.327-6.761c-13.236-13.237-58.987-53.6-91.375-80-27.176-22.159-47.211-35.518-75.953-44.381C748.7,92.074,711.643,87.75,650.541,83.238c-19.554-1.445-161.633-12-298.825-22.2L165.523,47.2l-60.485-4.5L88.175,41.451l-4.434-.33-1.136-.084-.287-.021-.072-.005h-.018S82.222,41.008,82,44Z" fill="none" stroke="#2a3c51" stroke-width="6"/>
    </g>
    <g id="Group_2" data-name="Group 2" transform="translate(-6.001)" opacity="0.2" style="mix-blend-mode: soft-light;isolation: isolate">
      <path id="Path_3" data-name="Path 3" d="M69.939,38.284A3.74,3.74,0,0,0,66,42.3V89.022a7.887,7.887,0,0,0,7.493,7.985c69.87,3.33,605.4,28.874,631.237,30.743,46.53,3.37,72.97,6.47,108.9,33.73,31.8,24.13,74.2,70.1,85.35,81.25,12.31,12.31,53.38-11.46,43.5-21.34-13.13-13.13-58.79-53.42-91.15-79.8C797.22,97.47,772.6,89.26,650.32,80.23,613.161,77.484,119.13,41.834,69.939,38.284Z" fill="#1a2d3d"/>
    </g>
    <path id="Path_4" data-name="Path 4" d="M69.939,30.284A3.74,3.74,0,0,0,66,34.3V84.836a3.665,3.665,0,0,0,3.418,3.977c49,2.335,608.883,29.025,635.312,30.937,46.53,3.37,72.97,6.47,108.9,33.73,31.8,24.13,74.2,70.1,85.35,81.25,12.31,12.31,53.38-11.46,43.5-21.34-13.13-13.13-58.79-53.42-91.15-79.8C797.22,89.47,772.6,81.26,650.32,72.23,613.161,69.484,119.13,33.834,69.939,30.284Z" transform="translate(-6.001)" fill="#2a3c51"/>
    <path id="Path_5" data-name="Path 5" d="M66,34V92.65s611.09,29.1,638.73,31.1c46.53,3.37,72.97,6.47,108.9,33.73,31.8,24.13,74.2,70.1,85.35,81.25,12.31,12.31,53.38-11.46,43.5-21.34-13.13-13.13-58.79-53.42-91.15-79.8C797.22,93.47,772.6,85.26,650.32,76.23,611.21,73.34,66,34,66,34Z" transform="translate(-6.001)" fill="#1a2d3d"/>
    <g id="Group_3" data-name="Group 3" transform="translate(-6.001)" opacity="0.2" style="mix-blend-mode: soft-light;isolation: isolate">
      <path id="Path_6" data-name="Path 6" d="M251.7,133.724c-22.755,1.648-40.337,5.65-56.536,12.451C178.918,153,163.786,162.749,146,176.249h0C120.359,195.7,87.71,229.591,70.355,247.6c-3.877,4.024-6.99,7.256-9.092,9.358-5.009,5.008-12.2,5.7-18.337,4.962a55.494,55.494,0,0,1-18.8-6.26c-5.7-3.042-11.091-7.04-14.451-11.377A16.6,16.6,0,0,1,6.1,236.4a10.879,10.879,0,0,1,3.181-9.265c13.343-13.343,59.186-53.772,91.6-80.207h0c27.3-22.252,47.684-35.886,76.965-44.913,28.947-8.924,66.33-13.26,127.394-17.77,19.55-1.445,160.124-12,295.819-22.2,67.845-5.1,134.469-10.106,184.131-13.839l59.8-4.5,16.673-1.253,4.383-.33,1.123-.084.284-.021.071-.005h.018s.006,0,.456,5.983l-.45-5.983,6.45-.485V73.8a29.782,29.782,0,0,1-28.276,29.953C737.418,109.107,276,131.966,251.7,133.724Zm0,0-.434-5.984Z" fill="#2a3c51"/>
      <path id="Path_7" data-name="Path 7" d="M251.7,133.724c-22.755,1.648-40.337,5.65-56.536,12.451C178.918,153,163.786,162.749,146,176.249h0C120.359,195.7,87.71,229.591,70.355,247.6c-3.877,4.024-6.99,7.256-9.092,9.358-5.009,5.008-12.2,5.7-18.337,4.962a55.494,55.494,0,0,1-18.8-6.26c-5.7-3.042-11.091-7.04-14.451-11.377A16.6,16.6,0,0,1,6.1,236.4a10.879,10.879,0,0,1,3.181-9.265c13.343-13.343,59.186-53.772,91.6-80.207h0c27.3-22.252,47.684-35.886,76.965-44.913,28.947-8.924,66.33-13.26,127.394-17.77,19.55-1.445,160.124-12,295.819-22.2,67.845-5.1,134.469-10.106,184.131-13.839l59.8-4.5,16.673-1.253,4.383-.33,1.123-.084.284-.021.071-.005h.018s.006,0,.456,5.983l-.45-5.983,6.45-.485V73.8a29.782,29.782,0,0,1-28.276,29.953C737.418,109.107,276,131.966,251.7,133.724Zm0,0-.434-5.984Z" fill="none" stroke="#2a3c51" stroke-width="12"/>
    </g>
    <g id="Group_4" data-name="Group 4" transform="translate(-6.001)" opacity="0.2" style="mix-blend-mode: soft-light;isolation: isolate">
      <path id="Path_8" data-name="Path 8" d="M305.68,80.23c-122.28,9.03-146.9,17.24-201.01,61.35-32.36,26.39-78.02,66.67-91.15,79.8-9.88,9.88,31.19,33.65,43.5,21.34,11.15-11.15,53.55-57.12,85.35-81.25,35.93-27.27,62.37-30.36,108.9-33.73C277.1,125.871,812.637,100.327,882.507,97A7.887,7.887,0,0,0,890,89.012V38S344.79,77.34,305.68,80.23Z" fill="#1a2d3d"/>
    </g>
    <path id="Path_9" data-name="Path 9" d="M305.68,72.23c-122.28,9.03-146.9,17.24-201.01,61.35-32.36,26.39-78.02,66.67-91.15,79.8-9.88,9.88,31.19,33.65,43.5,21.34,11.15-11.15,53.55-57.12,85.35-81.25,35.93-27.27,62.37-30.36,108.9-33.73,26.429-1.912,586.308-28.6,635.312-30.937A3.665,3.665,0,0,0,890,84.826V34.3a3.74,3.74,0,0,0-3.939-4.015C836.87,33.834,342.839,69.484,305.68,72.23Z" transform="translate(-6.001)" fill="#2a3c51"/>
    <path id="Path_10" data-name="Path 10" d="M305.68,76.23c-122.28,9.03-146.9,17.24-201.01,61.35-32.36,26.39-78.02,66.67-91.15,79.8-9.88,9.88,31.19,33.65,43.5,21.34,11.15-11.15,53.55-57.12,85.35-81.25,35.93-27.27,62.37-30.36,108.9-33.73,26.429-1.912,586.308-28.6,635.312-30.937A3.665,3.665,0,0,0,890,88.826V38.3a3.74,3.74,0,0,0-3.939-4.015C836.87,37.834,342.839,73.484,305.68,76.23Z" transform="translate(-6.001)" fill="#1a2d3d"/>
    <path id="Path_11" data-name="Path 11" d="M694,8C584.28,8,541.52,49.1,541.52,49.1S512,47.46,478,47.46s-63.52,1.64-63.52,1.64S371.72,8,262,8C156.411,8,104.62,33.931,69.988,35.884A4.176,4.176,0,0,0,66,40V93.017c0,4.418,3.651,7.855,7.9,9.058C82.875,104.614,90.668,111.786,93,125c8.94,50.8,14.259,73.635,38,121,13.61,27.13,60.62,54,134.99,54,79.87,0,129.39-33.71,149.8-81.39,15.57-36.37,33.09-96.34,35.56-106.21,3.742-14.952-20.37-14.8-20.37-32.19,0-12.33,14.02-16.44,47.02-16.44s47.02,4.11,47.02,16.44c0,17.379-24.124,17.263-20.37,32.19,2.47,9.86,20,69.84,35.56,106.21C560.62,266.29,610.14,300,690.01,300c74.37,0,121.38-26.87,134.99-54,23.741-47.365,29.06-70.2,38-121,2.666-15.106,12.469-22.316,23.012-23.735A4.453,4.453,0,0,0,890,97V40a4.176,4.176,0,0,0-3.988-4.115C851.38,33.931,799.589,8,694,8ZM276,268c-31.83,0-59.17-.62-87.15-16.94-57.89-33.77-62.7-114.99-62.7-166.8C126.16,53.02,148.32,17,270,17c140,0,144.42,63.65,144.42,80.42C414.42,178,375,268,276,268Zm491.15-16.94C739.17,267.38,711.83,268,680,268c-99,0-138.42-90-138.42-170.58C541.58,80.65,546,17,686,17c121.68,0,143.84,36.02,143.84,67.26C829.84,136.07,825.03,217.29,767.15,251.06Z" transform="translate(-6.001)" fill="#1a2d3d" opacity="0.2" style="mix-blend-mode: soft-light;isolation: isolate"/>
    <g id="Group_6" data-name="Group 6" transform="translate(-6.001)" opacity="0.2" style="mix-blend-mode: soft-light;isolation: isolate">
      <path id="Path_12" data-name="Path 12" d="M694,10C584.28,10,541.52,51.1,541.52,51.1S512,49.46,478,49.46s-63.52,1.64-63.52,1.64S371.72,10,262,10C160.382,10,108.592,34.018,73.97,37.564A8.678,8.678,0,0,0,66,45.985V81c0,4.418,3.609,7.969,7.937,8.859C85.288,92.2,98.6,99.4,101,113c1.48,8.41,2.25,16.7,9,41,6.77,24.37,17.93,47.89,24,60,13.61,27.13,53.62,64,131.99,64,83.87,0,127.39-33.71,147.8-81.39,15.57-36.37,27.09-72.34,29.56-82.21s-6.6-13.15-9.07-13.15-3.3-4.93-3.3-9.04c0-12.33,14.02-16.44,47.02-16.44s47.02,4.11,47.02,16.44c0,4.11-.82,9.04-3.3,9.04s-11.55,3.29-9.07,13.15,14,45.84,29.56,82.21C562.62,244.29,606.14,278,690.01,278c78.37,0,118.38-36.87,131.99-64,6.07-12.11,17.23-35.63,24-60,6.75-24.3,7.52-32.59,9-41,2.4-13.6,15.711-20.8,27.063-23.138C886.391,88.973,890,85.422,890,81V45.985a8.679,8.679,0,0,0-7.97-8.42C847.409,34.018,795.618,10,694,10ZM276,260c-31.83,0-59.17-.62-87.15-16.94-57.89-33.77-72.7-106.99-72.7-158.8C116.16,53.02,148.32,17,270,17c140,0,154.42,63.65,154.42,80.42C424.42,178,375,260,276,260Zm491.15-16.94C739.17,259.38,711.83,260,680,260c-99,0-148.42-72-148.42-152.58C531.58,90.65,546,17,686,17c121.68,0,153.84,46.02,153.84,77.26C839.84,146.07,825.03,209.29,767.15,243.06Z" fill="#1a2d3d" style="mix-blend-mode: soft-light;isolation: isolate"/>
    </g>
    <path id="Path_13" data-name="Path 13" d="M694,0C584.28,0,541.52,41.1,541.52,41.1S512,39.46,478,39.46s-63.52,1.64-63.52,1.64S371.72,0,262,0C164.192,0,112.545,22.25,77.938,27.082,71.374,28,66,33.36,66,39.987V75.022a4.345,4.345,0,0,0,3.987,4.2C82.3,80.549,100.309,87.752,103,103c1.48,8.41,2.25,16.7,9,41,6.77,24.37,17.93,47.89,24,60,13.61,27.13,51.62,64,129.99,64,83.87,0,125.39-33.71,145.8-81.39,15.57-36.37,29.09-72.34,31.56-82.21,3.117-12.456-12.37-10.379-12.37-22.19,0-12.33,14.02-16.44,47.02-16.44s47.02,4.11,47.02,16.44c0,11.809-15.5,9.739-12.37,22.19,2.47,9.86,16,45.84,31.56,82.21C564.62,234.29,606.14,268,690.01,268c78.37,0,116.38-36.87,129.99-64,6.07-12.11,17.23-35.63,24-60,6.75-24.3,7.52-32.59,9-41,2.691-15.248,20.7-22.451,33.013-23.774a4.345,4.345,0,0,0,3.987-4.2V39.987c0-6.627-5.374-11.989-11.938-12.906C843.455,22.25,791.808,0,694,0ZM276,260c-31.83,0-61.17,2.38-89.15-13.94-57.89-33.77-65.7-109.99-65.7-161.8C121.16,53.02,148.32,17,270,17c140,0,150.42,63.65,150.42,80.42C420.42,178,375,260,276,260Zm495.15-17.94C743.17,258.38,709.83,260,678,260c-99,0-143.42-82-143.42-162.58C534.58,80.65,546,17,686,17c121.68,0,150.84,36.02,150.84,67.26C836.84,136.07,829.03,208.29,771.15,242.06Z" transform="translate(-6.001)" fill="#2a3c51"/>
    <path id="Path_14" data-name="Path 14" d="M694,5C584.28,5,541.52,46.1,541.52,46.1S512,44.46,478,44.46s-63.52,1.64-63.52,1.64S371.72,5,262,5C156.411,5,104.62,30.931,69.988,32.884A4.161,4.161,0,0,0,66,36.981V80.022a4.345,4.345,0,0,0,3.987,4.2C82.3,85.549,100.309,92.752,103,108c1.48,8.41,2.25,16.7,9,41,6.77,24.37,17.93,47.89,24,60,13.61,27.13,51.62,64,129.99,64,83.87,0,125.39-33.71,145.8-81.39,15.57-36.37,29.09-72.34,31.56-82.21,3.117-12.456-12.37-10.379-12.37-22.19,0-12.33,14.02-16.44,47.02-16.44s47.02,4.11,47.02,16.44c0,11.809-15.5,9.739-12.37,22.19,2.47,9.86,16,45.84,31.56,82.21C564.62,239.29,606.14,273,690.01,273c78.37,0,116.38-36.87,129.99-64,6.07-12.11,17.23-35.63,24-60,6.75-24.3,7.52-32.59,9-41,2.691-15.248,20.7-22.451,33.013-23.774a4.345,4.345,0,0,0,3.987-4.2V36.981a4.161,4.161,0,0,0-3.988-4.1C851.38,30.931,799.589,5,694,5ZM276,255c-31.83,0-59.17-.62-87.15-16.94-57.89-33.77-62.7-96.99-62.7-148.8C126.16,58.02,148.32,22,270,22c140,0,144.42,63.65,144.42,80.42C414.42,183,375,255,276,255Zm491.15-16.94C739.17,254.38,711.83,255,680,255c-99,0-138.42-72-138.42-152.58C541.58,85.65,546,22,686,22c121.68,0,143.84,36.02,143.84,67.26C829.84,141.07,825.03,204.29,767.15,238.06Z" transform="translate(-6.001)" fill="#1a2d3d"/>
    <g id="Group_7" data-name="Group 7" transform="translate(-6.001)" opacity="0.1" style="mix-blend-mode: soft-light;isolation: isolate">
      <path id="Path_15" data-name="Path 15" d="M680,253c-45.71,0-80.96-15.25-104.76-45.31-20.71-26.15-31.65-62.55-31.65-105.27a60.615,60.615,0,0,1,19.1-45.06C585.55,35.22,627.04,24,686,24c54.25,0,93.44,7.27,116.49,21.62,17.06,10.61,25.35,24.89,25.35,43.65,0,57.69-7.48,115.44-61.71,147.07C739.62,251.8,713.71,253,680,253Z" fill="#ffdc7f"/>
    </g>
    <g id="Group_8" data-name="Group 8" transform="translate(-6.001)" opacity="0.1" style="mix-blend-mode: soft-light;isolation: isolate">
      <path id="Path_16" data-name="Path 16" d="M276,253c-33.71,0-59.62-1.2-86.14-16.67-54.23-31.63-61.71-89.38-61.71-147.07,0-18.76,8.29-33.04,25.35-43.65C176.56,31.27,215.75,24,270,24c58.96,0,100.45,11.22,123.32,33.36a60.615,60.615,0,0,1,19.1,45.06c0,42.72-10.94,79.12-31.65,105.27C356.96,237.75,321.71,253,276,253Z" fill="#ffdc7f"/>
    </g>
    <g id="Group_9" data-name="Group 9" transform="translate(-6.001)" opacity="0.2" style="mix-blend-mode: soft-light;isolation: isolate">
      <path id="Path_17" data-name="Path 17" d="M270,25c31.91,0,58.97,3.37,80.44,10.03,17.53,5.43,31.49,13.09,41.48,22.77a58.658,58.658,0,0,1,18.49,43.62c0,42.26-10.8,78.23-31.22,104.03a110.944,110.944,0,0,1-41.46,32.41C320,245.91,299.23,250,276,250c-34.45,0-58.98-1.14-85.13-16.39-25.15-14.67-41.92-36.06-51.26-65.39-4.67-14.68-9.45-35.66-9.45-79.95,0-18.01,7.98-31.73,24.4-41.95C177.29,32.17,216.13,25,270,25Zm0-4C148.32,21,126.16,57.02,126.16,88.26c0,51.81,4.81,115.03,62.7,148.8C216.83,253.38,244.17,254,276,254c99,0,138.42-72,138.42-152.58C414.42,84.65,410,21,270,21Z" fill="#2a3c51"/>
    </g>
    <g id="Group_10" data-name="Group 10" transform="translate(-6.001)" opacity="0.2" style="mix-blend-mode: soft-light;isolation: isolate">
      <path id="Path_18" data-name="Path 18" d="M686,26c53.87,0,92.71,7.17,115.44,21.31,16.42,10.22,24.4,23.94,24.4,41.95,0,24.86-1.12,53.79-9.45,79.95-9.34,29.33-26.11,50.72-51.26,65.39C738.98,249.86,714.45,251,680,251c-23.23,0-44-4.09-61.74-12.15a110.944,110.944,0,0,1-41.46-32.41c-20.42-25.79-31.22-61.76-31.22-104.03a58.642,58.642,0,0,1,18.49-43.62c9.99-9.67,23.95-17.33,41.48-22.77C627.03,29.37,654.09,26,686,26Zm0-4c-140,0-144.42,63.65-144.42,80.42C541.58,183,581,255,680,255c31.83,0,59.17-.62,87.14-16.94,57.89-33.77,62.7-96.99,62.7-148.8C829.84,58.02,807.68,22,686,22Z" fill="#2a3c51"/>
    </g>
    <path id="Path_19" data-name="Path 19" d="M97,52a4,4,0,1,0-4-4A4,4,0,0,0,97,52Z" transform="translate(-6.001)" fill="#2a3c51"/>
    <path id="Path_20" data-name="Path 20" d="M97,76a4,4,0,1,0-4-4A4,4,0,0,0,97,76Z" transform="translate(-6.001)" fill="#2a3c51"/>
    <path id="Path_21" data-name="Path 21" d="M863,52a4,4,0,1,0-4-4A4,4,0,0,0,863,52Z" transform="translate(-6.001)" fill="#2a3c51"/>
    <path id="Path_22" data-name="Path 22" d="M863,76a4,4,0,1,0-4-4A4,4,0,0,0,863,76Z" transform="translate(-6.001)" fill="#2a3c51"/>
  </g>
</svg>
